<?xml version="1.0" encoding="UTF-8"?><svg id="Calque_2" xmlns="http://www.w3.org/2000/svg" viewBox="0 0 67.61 67.61"><defs><style>.cls-1{fill:#008d36;}.cls-2{fill:#fff;}</style></defs><g id="Calque_1-2"><circle class="cls-1" cx="33.8" cy="33.8" r="33.8"/><g><g><g><path class="cls-2" d="M45.55,47.91c-.29,0-.53-.24-.53-.53V27.78c0-2.15-.48-4.31-1.37-6.26l-.97-2.1c-.12-.27,0-.58,.26-.71,.27-.12,.58,0,.71,.26l.97,2.1c.96,2.09,1.47,4.41,1.47,6.7v19.6c0,.29-.24,.53-.53,.53Z"/><path class="cls-2" d="M45.55,48.16c-.43,0-.78-.35-.78-.78V27.78c0-2.11-.47-4.24-1.35-6.15l-.97-2.1c-.18-.39,0-.86,.38-1.04,.39-.18,.86-.01,1.04,.38l.97,2.1c.98,2.12,1.5,4.47,1.5,6.81v19.6c0,.43-.35,.78-.78,.78Z"/></g><g><path class="cls-2" d="M21.86,47.91c-.29,0-.53-.24-.53-.53V27.78c0-2.3,.51-4.62,1.47-6.7l.97-2.1c.12-.27,.44-.38,.71-.26,.27,.12,.38,.44,.26,.71l-.97,2.1c-.9,1.95-1.37,4.11-1.37,6.26v19.6c0,.29-.24,.53-.53,.53Z"/><path class="cls-2" d="M21.86,48.16c-.43,0-.78-.35-.78-.78V27.78c0-2.33,.52-4.69,1.5-6.81l.97-2.1c.09-.19,.24-.33,.44-.41,.2-.07,.41-.06,.6,.02,.39,.18,.56,.65,.38,1.04l-.97,2.1c-.88,1.92-1.35,4.04-1.35,6.15v19.6c0,.43-.35,.78-.78,.78Z"/></g><g><path class="cls-2" d="M46.26,50.3H21.15c-.41,0-.79-.19-1.04-.52s-.32-.75-.2-1.15c.32-1.06,1.28-1.78,2.39-1.78h.27c.29,0,.53,.24,.53,.53s-.24,.53-.53,.53h-.27c-.64,0-1.19,.41-1.37,1.02-.03,.1,.01,.17,.04,.21,.03,.04,.09,.09,.19,.09h25.11c.1,0,.16-.06,.19-.09,.03-.04,.07-.11,.04-.21-.18-.61-.73-1.02-1.37-1.02h-2.5c-.29,0-.53-.24-.53-.53s.24-.53,.53-.53h2.5c1.11,0,2.07,.71,2.39,1.78,.12,.4,.05,.82-.2,1.15-.25,.33-.63,.52-1.04,.52Z"/><path class="cls-2" d="M46.26,50.55H21.15c-.49,0-.95-.23-1.24-.62-.29-.4-.38-.89-.24-1.37,.35-1.17,1.41-1.95,2.63-1.95h.27c.43,0,.78,.35,.78,.78s-.35,.78-.78,.78h-.27c-.52,0-.98,.34-1.13,.84l25.09-.02c-.17-.48-.62-.82-1.15-.82h-2.5c-.43,0-.78-.35-.78-.78s.35-.78,.78-.78h2.5c1.22,0,2.28,.79,2.63,1.95,.14,.47,.06,.97-.24,1.37-.3,.4-.75,.62-1.24,.62Z"/></g><g><path class="cls-2" d="M44.35,19.73H22.57c-.15,0-.3-.06-.4-.18-.1-.11-.15-.26-.13-.41l.37-3.18c.03-.27,.26-.47,.53-.47h20.95c.26,0,.49,.19,.53,.45l.47,3.18c.02,.15-.02,.31-.12,.43-.1,.12-.25,.18-.4,.18Zm-21.19-1.06h20.57l-.32-2.12H23.41l-.24,2.12Z"/><path class="cls-2" d="M44.35,19.98H22.57c-.22,0-.43-.09-.58-.26-.15-.17-.22-.39-.19-.61l.37-3.18c.05-.39,.38-.69,.78-.69h20.95c.38,0,.72,.29,.77,.67l.47,3.18c.03,.23-.03,.45-.18,.63-.15,.17-.37,.27-.59,.27Zm-21.42-4.24c-.14,0-.26,.11-.28,.25l-.37,3.18c0,.08,.02,.16,.07,.22,.05,.06,.13,.09,.21,.09h21.78c.08,0,.16-.04,.21-.1,.05-.06,.08-.14,.06-.23l-.47-3.18c-.02-.14-.14-.24-.28-.24m.15,3.18H22.88l.3-2.62h20.45l.39,2.62Zm-20.58-.5h20l-.24-1.62H23.63l-.19,1.62Z"/></g><g><path class="cls-2" d="M45.55,42.34H29.07c-.29,0-.53-.24-.53-.53v-11.45c0-.29,.24-.53,.53-.53h16.48c.29,0,.53,.24,.53,.53s-.24,.53-.53,.53h-15.95v10.39h15.95c.29,0,.53,.24,.53,.53s-.24,.53-.53,.53Z"/><path class="cls-2" d="M45.55,42.59H29.07c-.43,0-.78-.35-.78-.78v-11.45c0-.43,.35-.78,.78-.78h16.48c.43,0,.78,.35,.78,.78s-.35,.78-.78,.78h-15.7v9.89h15.7c.43,0,.78,.35,.78,.78s-.35,.78-.78,.78Z"/></g><path class="cls-2" d="M25.92,26.37c-.29,0-.53-.24-.53-.53v-.86c0-.38-.04-.77-.12-1.14l-.73-3.47c-.06-.29,.12-.57,.41-.63,.29-.06,.57,.12,.63,.41l.73,3.47c.09,.45,.14,.91,.14,1.36v.86c0,.29-.24,.53-.53,.53Z"/></g><g><path class="cls-2" d="M37.41,38.96c-1.72,0-3.4-.36-4.31-.55h-.04c-.47-.11-.96-.21-1.13-.63-.1-.25-.06-.52,.13-.81,.24-.37,1.35-1.58,1.57-1.82,0,0,0,0,0,0,.37-.39,.97-.45,1.42-.15l.35,.24c.24,.16,.31,.49,.14,.74-.16,.24-.49,.31-.74,.14l-.35-.24s-.04-.01-.06,0c-.41,.45-.99,1.09-1.29,1.45,.05,.01,.1,.02,.17,.04h.04c.87,.19,2.48,.54,4.08,.54,1.2,0,2.59-.18,4.11-.54-.57-.72-2.46-2.93-3.61-3.95-.25-.23-.63-.23-.88,0-.43,.38-1.12,1.13-1.13,1.14-.2,.22-.54,.23-.75,.03-.22-.2-.23-.54-.03-.75,.03-.03,.73-.79,1.2-1.21,.66-.59,1.65-.59,2.3,0,1.33,1.19,3.63,3.91,3.92,4.34,.25,.35,.21,.64,.15,.82-.15,.39-.56,.53-.9,.61-1.61,.38-3.09,.57-4.38,.57Z"/><path class="cls-2" d="M37.41,39.21c-1.74,0-3.44-.36-4.35-.55-.56-.12-1.14-.24-1.36-.78-.09-.22-.15-.59,.15-1.04,.24-.37,1.28-1.51,1.6-1.85,.38-.4,.94-.52,1.43-.36-.2-.29-.18-.7,.07-.98,.3-.32,.84-.88,1.21-1.22,.75-.67,1.88-.67,2.64,0,1.34,1.2,3.66,3.95,3.96,4.38,.32,.47,.25,.86,.17,1.05-.22,.56-.84,.71-1.07,.77-1.64,.38-3.13,.58-4.44,.58Zm-2.98-4.16c-.23,0-.45,.09-.62,.26-.61,.66-1.38,1.52-1.55,1.79-.14,.22-.18,.41-.11,.58,.13,.3,.53,.39,.96,.48,.95,.2,2.61,.55,4.3,.55,1.27,0,2.73-.19,4.32-.57,.42-.1,.64-.24,.72-.46,.07-.18,.03-.38-.12-.59-.29-.42-2.57-3.12-3.89-4.3-.56-.5-1.41-.5-1.97,0-.36,.33-.89,.87-1.16,1.17-.12,.13-.12,.31,0,.42,.12,.11,.29,.1,.4-.01,0,0,.71-.76,1.14-1.15,.35-.31,.87-.31,1.22,0,1.2,1.07,3.11,3.33,3.63,3.98l.25,.31-.39,.09c-1.54,.36-2.94,.55-4.17,.55-1.64,0-3.26-.35-4.14-.53l-.6-.14,.25-.31c.3-.36,.88-1.01,1.29-1.46l.14-.15,.23,.11,.36,.24c.06,.04,.14,.06,.21,.04,.07-.01,.14-.06,.18-.12,.04-.06,.06-.14,.04-.21-.01-.07-.06-.14-.12-.18l-.35-.24c-.15-.1-.31-.15-.48-.15Zm-.86,2.12c.89,.19,2.36,.48,3.83,.48,1.08,0,2.31-.15,3.66-.44-.76-.92-2.34-2.74-3.32-3.61-.16-.14-.39-.14-.55,0-.42,.37-1.1,1.11-1.11,1.12-.17,.18-.41,.26-.64,.25l.1,.06c.17,.12,.29,.29,.33,.5,.04,.21,0,.41-.12,.59s-.29,.29-.5,.33c-.2,.04-.41,0-.59-.12l-.21-.14c-.28,.31-.62,.68-.89,.99Z"/></g></g></g></svg>