<?xml version="1.0" encoding="UTF-8"?><svg id="Calque_2" xmlns="http://www.w3.org/2000/svg" viewBox="0 0 67.61 67.61"><defs><style>.cls-1{fill:#008d36;}.cls-2{fill:#fff;}</style></defs><g id="Calque_1-2"><circle class="cls-1" cx="33.8" cy="33.8" r="33.8"/><path class="cls-2" d="M37.59,54.57l-2.7-3.18h-2.18l-2.7,3.17-.46-.09c-1.52-.31-3.01-.8-4.46-1.45l-.43-.2-.31-4.15-1.77-1.28-4.04,.98-.32-.35c-1.04-1.14-1.97-2.42-2.75-3.79l-.23-.41,2.18-3.54-.67-2.08-3.85-1.58-.05-.47c-.09-.8-.13-1.59-.13-2.34s.04-1.54,.13-2.34l.05-.47,3.85-1.58,.68-2.08-2.18-3.54,.23-.41c.78-1.37,1.71-2.65,2.75-3.79l.32-.35,4.04,.98,1.77-1.28,.31-4.15,.43-.2c1.44-.65,2.94-1.14,4.46-1.45l.46-.09,2.7,3.17h2.18l2.7-3.18,.46,.1c1.52,.31,3.01,.8,4.46,1.45l.43,.2,.31,4.15,1.77,1.28,4.04-.98,.32,.35c1.05,1.15,1.97,2.42,2.75,3.79l.23,.41-2.18,3.54,.67,2.08,3.85,1.58,.05,.47c.09,.8,.13,1.58,.13,2.34s-.04,1.55-.13,2.34l-.05,.47-3.85,1.58-.67,2.08,2.18,3.54-.23,.41c-.78,1.37-1.71,2.65-2.75,3.79l-.32,.35-4.04-.98-1.77,1.28-.31,4.15-.43,.2c-1.44,.65-2.94,1.14-4.46,1.45l-.46,.1Zm-11.4-2.82c1.05,.45,2.13,.8,3.22,1.05l2.56-3.01h3.67l2.56,3.01c1.09-.25,2.17-.61,3.22-1.05l.3-3.94,2.96-2.15,3.83,.93c.74-.85,1.41-1.77,1.99-2.75l-2.07-3.36,1.13-3.49,3.65-1.5c.05-.58,.08-1.15,.08-1.7s-.03-1.12-.08-1.7l-3.65-1.5-1.13-3.49,2.07-3.36c-.59-.98-1.26-1.9-1.99-2.75l-3.83,.93-2.96-2.15-.3-3.94c-1.05-.45-2.13-.8-3.22-1.05l-2.56,3.01h-3.67l-2.56-3.01c-1.09,.25-2.17,.61-3.22,1.05l-.3,3.94-2.96,2.15-3.84-.93c-.74,.85-1.41,1.77-1.99,2.75l2.07,3.36-1.13,3.49-3.65,1.5c-.05,.58-.08,1.15-.08,1.7s.03,1.12,.08,1.7l3.65,1.5,1.13,3.49-2.07,3.36c.59,.98,1.26,1.9,1.99,2.75l3.84-.93,2.96,2.15,.3,3.94Z"/><path class="cls-2" d="M33.81,46.66c-.63,0-1.26-.05-1.89-.14l-.55-.08-.64-3-1.59-.66-2.58,1.66-.45-.33c-1-.75-1.89-1.64-2.63-2.64l-.33-.45,1.67-2.58-.66-1.6-3-.65-.08-.55c-.18-1.23-.18-2.49,0-3.73l.08-.55,3-.64,.66-1.59-1.66-2.58,.33-.44c.75-1,1.63-1.89,2.64-2.63l.45-.33,2.58,1.67,1.59-.66,.65-3,.55-.08c1.23-.18,2.49-.18,3.73,0l.55,.08,.64,3,1.59,.66,2.58-1.66,.44,.33c1,.75,1.89,1.64,2.63,2.64l.33,.45-1.67,2.58,.66,1.6,3,.65,.08,.55c.18,1.23,.18,2.49,0,3.73l-.08,.55-3,.64-.66,1.59,1.66,2.58-.33,.44c-.75,1-1.63,1.89-2.64,2.63l-.45,.33-2.58-1.67-1.59,.66-.65,3-.55,.08c-.61,.09-1.22,.13-1.84,.13Zm-1.11-1.65c.72,.07,1.45,.07,2.17,0l.59-2.72,3.15-1.3,2.34,1.51c.56-.46,1.07-.97,1.54-1.53l-1.51-2.34,1.31-3.14,2.72-.58c.07-.72,.07-1.45,0-2.17l-2.72-.59-1.3-3.15,1.51-2.34c-.46-.56-.97-1.07-1.53-1.54l-2.34,1.51-3.14-1.31-.58-2.72c-.72-.07-1.45-.07-2.17,0l-.59,2.72-3.15,1.3-2.34-1.51c-.56,.46-1.07,.97-1.53,1.53l1.51,2.34-1.31,3.14-2.72,.58c-.07,.72-.07,1.45,0,2.17l2.72,.59,1.3,3.15-1.51,2.34c.46,.56,.97,1.07,1.53,1.54l2.34-1.51,3.14,1.31,.58,2.72Z"/><circle class="cls-2" cx="33.8" cy="33.8" r="3.58" transform="translate(-6.48 59.54) rotate(-77.57)"/></g></svg>