<?xml version="1.0" encoding="UTF-8"?><svg id="Calque_2" xmlns="http://www.w3.org/2000/svg" viewBox="0 0 67.61 67.61"><defs><style>.cls-1{fill:#fff;}.cls-2{fill:#634f42;}</style></defs><g id="Calque_1-2"><g><circle class="cls-2" cx="33.8" cy="33.8" r="33.8"/><path class="cls-1" d="M52.43,32.17c0-1.41-.66-2.74-1.75-3.63,.22-.55,.34-1.13,.34-1.73,0-1.88-1.16-3.57-2.9-4.31-.16-3.01-1.54-5.46-3.93-6.94-2.89-1.79-6.96-1.96-10.26-.48-1.45-.81-3.12-1.25-4.77-1.25h-.12c-3.53,0-6.83,1.94-8.13,4.71-1.12,.09-2.18,.56-2.99,1.33-.93,.89-1.45,2.09-1.45,3.36,0,.6,.11,1.18,.34,1.73-1.1,.88-1.75,2.21-1.75,3.63,0,1.09,.37,2.11,1.06,2.94-.18,.59-.27,1.2-.27,1.82,0,2.36,1.35,4.59,3.51,5.81,1.1,.62,2.37,.95,3.65,.95h2.98c.21,.36,.45,.71,.72,1.04v7.41h-1.99c-.47,0-.86,.38-.86,.86s.38,.86,.86,.86h8.35c.47,0,.86-.38,.86-.86s-.38-.86-.86-.86h-1.85v-4.94c.36,.05,.72,.08,1.08,.08h3.71v8.05h-1.84c-.47,0-.86,.38-.86,.86s.38,.86,.86,.86h2.51c.06,.01,.12,.02,.19,.02h2.79c.06,0,.13,0,.19-.02h2.67c.47,0,.86-.38,.86-.86s-.38-.86-.86-.86h-1.99v-8.05h3.93c3.95,0,7.16-3.03,7.16-6.76,0-.62-.09-1.23-.27-1.82,.69-.83,1.06-1.86,1.06-2.94Zm-32.22,5.49c-1.63-.92-2.64-2.57-2.64-4.31,0-.59,.11-1.16,.33-1.72,.13-.32,.05-.69-.21-.93-.59-.56-.91-1.31-.91-2.12,0-1.07,.6-2.06,1.56-2.59,.21-.11,.36-.31,.42-.54,.06-.23,.02-.47-.11-.67-.3-.46-.45-1-.45-1.55,0-.8,.33-1.55,.92-2.12,.63-.6,1.46-.9,2.34-.86,.38,.02,.72-.21,.85-.57,.84-2.36,3.73-4.13,6.75-4.13,.02,0,.03,0,.05,0,1.03,0,2.07,.19,3.03,.58-1.97,1.46-3.08,3.55-3.09,5.92,0,.11,0,.21,.01,.32-1.92,.63-3.27,2.42-3.27,4.45,0,.59,.12,1.18,.34,1.73-1.1,.88-1.75,2.21-1.75,3.63,0,1.08,.37,2.11,1.06,2.94-.18,.59-.26,1.2-.26,1.82,0,.49,.06,.98,.17,1.45h-2.31c-.99,0-1.96-.25-2.81-.73Zm8.45,5.08s.07,.04,.11,.06c.04,.02,.09,.05,.13,.07,.04,.02,.08,.04,.11,.06,.05,.02,.09,.05,.14,.07,.07,.03,.13,.06,.2,.09,.04,.02,.08,.04,.12,.05,.02,0,.03,.01,.05,.02v5.09h-1.08v-5.64s.05,.03,.07,.04c.05,.03,.09,.05,.14,.08Zm9.09,9.01v-8.89c0-.17-.05-.34-.15-.48l-.02-.03s0-.01-.01-.02l-2.76-3.87c-.15-.21-.12-.35-.07-.44,.08-.16,.28-.29,.44-.29,.05,0,.12,0,.19,.12l2.21,3.15c.16,.23,.42,.37,.7,.37h0c.28,0,.54-.14,.7-.37l1.5-2.14c.08-.12,.18-.18,.31-.18,.16,0,.33,.09,.39,.22,.09,.17-.03,.4-.14,.56l-2.04,2.85v.02c-.12,.15-.18,.33-.18,.51v8.89h-1.07Zm11.84-16.53c.22,.55,.33,1.13,.33,1.72,0,2.78-2.44,5.04-5.44,5.04h-3.1l1.07-1.5c.54-.76,.64-1.62,.27-2.34-.36-.7-1.12-1.16-1.92-1.16-.68,0-1.31,.33-1.71,.91l-.79,1.13-1.5-2.15c-.38-.54-.96-.85-1.6-.85-.8,0-1.59,.49-1.97,1.22-.37,.71-.3,1.52,.2,2.22l1.79,2.52h-2.89c-.58,0-1.15-.08-1.69-.25-.09-.03-.18-.06-.27-.09-.03-.01-.06-.02-.09-.03-.08-.03-.16-.06-.24-.1-.03-.01-.06-.03-.09-.04-.08-.03-.15-.07-.22-.11-.03-.02-.07-.03-.1-.05-.07-.04-.14-.08-.21-.12-.03-.02-.07-.04-.1-.06-.07-.04-.13-.09-.2-.13-.03-.02-.07-.04-.1-.07-.06-.05-.13-.09-.19-.14-.03-.02-.06-.05-.09-.07-.06-.05-.12-.1-.18-.15-.03-.03-.06-.05-.09-.08-.06-.05-.11-.11-.17-.17-.03-.03-.06-.05-.08-.08,0,0,0,0,0,0-.38-.4-.68-.85-.9-1.34-.28-.62-.43-1.28-.43-1.96,0-.59,.11-1.17,.33-1.71,.13-.33,.05-.7-.21-.94-.59-.56-.92-1.32-.92-2.12,0-1.07,.6-2.06,1.56-2.59,.21-.11,.36-.31,.42-.54,.06-.23,.02-.47-.11-.67-.3-.47-.45-1-.45-1.55,0-1.48,1.14-2.75,2.66-2.95,.25-.03,.47-.18,.61-.39,.14-.21,.17-.48,.09-.72-.07-.22-.11-.46-.11-.7,0-2.98,2.16-4.53,3.47-5.2,.03-.01,.05-.03,.08-.04,2.81-1.4,6.49-1.31,8.97,.22,2.05,1.27,3.14,3.37,3.13,6.09,0,.39,.26,.73,.63,.83,1.33,.36,2.25,1.54,2.25,2.87,0,.55-.16,1.09-.45,1.55-.13,.2-.17,.44-.11,.67,.06,.23,.21,.42,.42,.54,.96,.53,1.56,1.52,1.56,2.59,0,.8-.32,1.55-.92,2.12-.25,.24-.33,.61-.21,.93Z"/><path class="cls-1" d="M33.2,28.55c-1.69,0-3.07,1.38-3.07,3.07s1.38,3.07,3.07,3.07,3.07-1.38,3.07-3.07-1.38-3.07-3.07-3.07Zm0,4.42c-.74,0-1.35-.61-1.35-1.35s.61-1.35,1.35-1.35,1.35,.61,1.35,1.35-.61,1.35-1.35,1.35Z"/><path class="cls-1" d="M43.21,24.95c-1.69,0-3.07,1.38-3.07,3.07s1.38,3.07,3.07,3.07,3.07-1.38,3.07-3.07-1.38-3.07-3.07-3.07Zm0,4.42c-.74,0-1.35-.61-1.35-1.35s.61-1.35,1.35-1.35,1.35,.61,1.35,1.35-.61,1.35-1.35,1.35Z"/><path class="cls-1" d="M36.53,18.2c-1.69,0-3.07,1.38-3.07,3.07s1.38,3.07,3.07,3.07,3.07-1.38,3.07-3.07-1.38-3.07-3.07-3.07Zm0,4.42c-.74,0-1.35-.61-1.35-1.35s.61-1.35,1.35-1.35,1.35,.61,1.35,1.35-.61,1.35-1.35,1.35Z"/></g></g></svg>