<?xml version="1.0" encoding="UTF-8"?><svg id="Calque_2" xmlns="http://www.w3.org/2000/svg" viewBox="0 0 67.61 67.61"><defs><style>.cls-1{fill:#fff;}.cls-2{fill:#634f42;}</style></defs><g id="Calque_1-2"><circle class="cls-2" cx="33.8" cy="33.8" r="33.8"/><g><circle class="cls-1" cx="28.34" cy="35.61" r=".68"/><path class="cls-1" d="M50.73,28.91c-.13-.13-1.02-.92-3.26-1.14,1.06-.9,1.93-2.15,1.93-3.77,0-2.31-1.67-4.32-1.74-4.4-.18-.22-.47-.32-.74-.26-.28,.05-.5,.25-.59,.52-.01,.04-1.45,4.15-3.94,4.15h-3.9c-1.29,0-2.28,.22-4.09,.63l-.59,.13-.59-.13c-1.8-.4-2.8-.63-4.09-.63h-3.9c-2.09,0-3.55-2.99-3.94-4.15-.09-.27-.32-.47-.59-.52-.28-.05-.56,.05-.74,.26-.07,.08-1.74,2.1-1.74,4.4,0,1.62,.87,2.87,1.94,3.77-2.26,.21-3.14,1.01-3.27,1.13-.18,.18-.26,.45-.21,.7,0,.04,.9,4.2,6.35,4.51,.73,3.81,1.95,5.64,3.84,8.16,.54,2.19,.69,3.31,.72,3.57,0,.02,0,.05,0,.07,.04,.6,.5,4.6,6.24,4.6s6.2-4,6.24-4.6c0-.01,0-.04,0-.06,.03-.25,.17-1.37,.72-3.57,1.88-2.52,3.11-4.35,3.84-8.16,5.44-.31,6.34-4.46,6.35-4.51,.05-.26-.03-.52-.21-.7Zm-3.53-7.17c.33,.62,.64,1.44,.64,2.26,0,2.45-3.21,3.79-3.86,3.89-.02,0-.03,0-.05,0-.59,0-1.21-.38-1.44-.89-.24-.52,0-1.05,.29-1.47,2.23-.23,3.68-2.33,4.42-3.79Zm-14.33,4.41l.77,.17c.11,.03,.23,.03,.34,0l.77-.17c1.75-.39,2.63-.59,3.74-.59h2.53c-.33,.92-.14,1.67,.05,2.1,.13,.27,.3,.52,.51,.75-1.72,.59-3.98,1.86-5.35,4.6-1.57,3.13-1.62,6.86-1,9.31-.45,.08-.92,.2-1.43,.36-.51-.16-.98-.27-1.43-.36,.62-2.45,.57-6.18-1-9.31-1.37-2.75-3.64-4.02-5.35-4.6,.21-.22,.38-.47,.5-.75,.2-.43,.39-1.18,.05-2.1h2.53c1.12,0,1.99,.2,3.74,.59Zm-13.1-2.15c0-.83,.31-1.64,.64-2.26,.74,1.46,2.19,3.57,4.42,3.8,.3,.42,.53,.96,.29,1.47-.23,.5-.84,.88-1.44,.89-.02,0-.05,0-.07,0-.69-.12-3.85-1.46-3.85-3.89Zm8.84,18.93s0,0,0,0c-.08-.36-.17-.75-.28-1.19-.03-.1-.07-.2-.13-.28-1.95-2.61-3.09-4.27-3.75-8.24-.06-.38-.39-.65-.77-.65-3.63,0-4.9-1.87-5.31-2.79,4.53-1,9.66-.02,11.63,3.91,1.38,2.76,1.45,6.28,.81,8.48-.9,.03-1.64,.28-2.19,.75Zm9.89,2.73c0,.06-.01,.1-.01,.11,0,0,0,0,0,0,0,.02,0,.04,0,.05,0,.13-.05,3.12-4.68,3.12s-4.67-2.81-4.68-3.12c0-.02,0-.04,0-.06,0,0,0,0,0,0,0,0,0-.05-.01-.11-.02-.22-.05-1.08,.51-1.55,.31-.26,.77-.38,1.38-.38,.69,0,1.56,.17,2.56,.5,.16,.05,.33,.05,.49,0,1.88-.63,3.28-.67,3.94-.12,.56,.47,.53,1.32,.51,1.54Zm5.44-13.08c-.38,0-.71,.28-.77,.65-.66,3.96-1.8,5.63-3.75,8.24-.06,.08-.11,.18-.13,.28-.11,.44-.2,.83-.28,1.19,0,0,0,0,0,0-.56-.47-1.29-.72-2.19-.75-.64-2.2-.57-5.71,.81-8.48,1.97-3.94,7.88-4.92,11.63-3.92-.4,.92-1.67,2.79-5.31,2.79Z"/><circle class="cls-1" cx="39.26" cy="35.61" r=".68"/><ellipse class="cls-1" cx="31.85" cy="46.23" rx="1.17" ry=".78"/><ellipse class="cls-1" cx="35.75" cy="46.23" rx="1.17" ry=".78"/></g></g></svg>