<?xml version="1.0" encoding="UTF-8"?><svg id="Calque_2" xmlns="http://www.w3.org/2000/svg" viewBox="0 0 67.61 67.61"><defs><style>.cls-1{fill:#008d36;}.cls-2{fill:#fff;}</style></defs><g id="Calque_1-2"><circle class="cls-1" cx="33.8" cy="33.8" r="33.8"/><g><path class="cls-2" d="M32.93,28.98c-.16-1.2-.49-2.29-.8-3.27-.34-1.1-.66-2.14-.66-3.1,0-3.39,1.26-5.45,2.09-6.45,.12,.82,.25,2.46,.25,5.74v6.94c.57,0,1.1,.16,1.56,.43v-7.37c0-6.77-.46-7.86-1.56-7.86-.17,0-.33,.05-.47,.16-.14,.11-3.43,2.64-3.43,8.42,0,1.2,.35,2.35,.73,3.56,.37,1.19,.73,2.42,.8,3.78,.39-.46,.9-.79,1.49-.97Z"/><path class="cls-2" d="M43.81,33.87c-1.04-.6-2.21-.87-3.45-1.15-1.14-.26-2.32-.54-3.47-1.1,.01,.11,.03,.21,.03,.33,0,.46-.11,.89-.29,1.29,1.17,.5,2.33,.76,3.38,1,1.12,.25,2.18,.5,3.02,.98,2.93,1.69,4.09,3.81,4.54,5.03-.77-.3-2.25-1.01-5.09-2.65l-6.31-3.64c-.38,.45-.88,.78-1.46,.96l6.99,4.03c2.01,1.16,3.52,1.97,4.63,2.46,.59,.27,1.37,.62,2.01,.62,.39,0,.74-.13,.95-.5,.08-.15,.12-.32,.1-.48-.02-.17-.57-4.29-5.57-7.18Z"/><path class="cls-2" d="M29.26,50.22c1.05-1.57,1.91-10.16,2.21-15.2,.03-.43,.39-.75,.82-.73,.43,.03,.76,.39,.73,.82-.08,1.38-.84,13.53-2.47,15.97-.15,.23-1.54-.51-1.3-.86Z"/><path class="cls-2" d="M37.05,51.09c-1.63-2.44-2.39-14.59-2.47-15.97-.03-.43,.3-.8,.73-.82,.42-.02,.8,.3,.82,.73,.3,5.04,1.16,13.63,2.21,15.2,.24,.36-1.15,1.09-1.3,.86Z"/><path class="cls-2" d="M40.04,51.43h-12.47c-.43,0-.78-.35-.78-.78s.35-.78,.78-.78h12.47c.43,0,.78,.35,.78,.78s-.35,.78-.78,.78Z"/><g><path class="cls-2" d="M31.47,34c-.83,.68-1.54,1.42-2.17,2.11-.78,.84-1.52,1.64-2.36,2.12-2.93,1.69-5.35,1.64-6.63,1.41,.65-.51,2-1.44,4.84-3.08l5.8-3.35c-.17-.38-.27-.81-.27-1.25,0-.14,.02-.28,.04-.41l-6.35,3.67c-2.01,1.16-3.46,2.07-4.45,2.77-.85,.61-2.14,1.54-1.58,2.51,.08,.15,.21,.26,.37,.33,.08,.04,1.19,.49,2.96,.49,1.58,0,3.68-.37,6.05-1.73,1.04-.6,1.86-1.48,2.72-2.41,.72-.78,1.47-1.58,2.39-2.26-.53-.18-1-.49-1.36-.9Z"/><path class="cls-2" d="M33.81,35.85c-2.15,0-3.9-1.75-3.9-3.89s1.75-3.9,3.9-3.9,3.9,1.75,3.9,3.9-1.75,3.89-3.9,3.89Zm0-6.23c-1.29,0-2.34,1.05-2.34,2.34s1.05,2.34,2.34,2.34,2.34-1.05,2.34-2.34-1.05-2.34-2.34-2.34Z"/></g></g></g></svg>