<?xml version="1.0" encoding="UTF-8"?><svg id="Calque_2" xmlns="http://www.w3.org/2000/svg" viewBox="0 0 67.61 67.61"><defs><style>.cls-1{fill:#008d36;}.cls-2{fill:#fff;}</style></defs><g id="Calque_1-2"><circle class="cls-1" cx="33.8" cy="33.8" r="33.8"/><g><path class="cls-2" d="M8.96,35.65c-.36,0-.7-.22-.84-.58-.18-.46,.05-.98,.52-1.16,6.22-2.4,14.39-2.57,22.41-.46,.48,.13,.77,.62,.64,1.1-.13,.48-.62,.77-1.1,.64-7.67-2.02-15.43-1.87-21.3,.4-.11,.04-.22,.06-.32,.06Z"/><path class="cls-2" d="M12.84,39c-.4,0-.77-.27-.87-.68-.12-.48,.17-.97,.65-1.1,3.38-.87,7.29-1.1,11.42-.64,.49,.06,.85,.5,.79,.99-.06,.49-.5,.85-1,.79-3.91-.44-7.59-.22-10.77,.6-.08,.02-.15,.03-.23,.03Z"/><path class="cls-2" d="M17.72,43.48c-.2,0-.41-.07-.57-.21-.38-.32-.44-.88-.12-1.27,5.41-6.53,15.85-10.59,27.25-10.59,4.97,0,9.91,.78,14.29,2.27,.47,.16,.72,.67,.56,1.14-.16,.47-.67,.72-1.14,.56-4.19-1.42-8.93-2.17-13.71-2.17-10.88,0-20.79,3.81-25.86,9.93-.18,.22-.43,.33-.69,.33Z"/><path class="cls-2" d="M20.96,46.32c-.2,0-.4-.07-.57-.2-.38-.31-.44-.88-.13-1.27,4.48-5.49,13.91-9.04,24.02-9.04,4.28,0,8.56,.64,12.39,1.86,.47,.15,.74,.66,.58,1.13-.15,.47-.65,.74-1.13,.58-3.65-1.16-7.75-1.78-11.84-1.78-9.59,0-18.47,3.29-22.63,8.38-.18,.22-.44,.33-.7,.33Z"/><path class="cls-2" d="M24.19,49.19c-.2,0-.39-.06-.56-.19-.39-.31-.45-.88-.15-1.26,3.52-4.44,12.08-7.54,20.8-7.54,3.67,0,7.21,.5,10.52,1.48,.48,.14,.75,.64,.61,1.12-.14,.48-.64,.75-1.12,.61-3.1-.92-6.57-1.41-10.01-1.41-9.58,0-16.77,3.56-19.39,6.86-.18,.22-.44,.34-.71,.34Z"/><path class="cls-2" d="M31.15,53.17c-.43,0-.8-.3-.88-.74-.92-5.05-2.58-6.33-2.6-6.34-.39-.29-.49-.85-.21-1.25,.28-.4,.82-.51,1.22-.24,.23,.15,2.28,1.66,3.35,7.5,.09,.49-.23,.96-.72,1.05-.05,.01-.11,.02-.16,.02Z"/><path class="cls-2" d="M37.58,51.74c-.4,0-.77-.27-.87-.68-1.26-4.95-3.43-7.57-3.45-7.6-.32-.38-.27-.95,.11-1.27,.38-.32,.95-.27,1.27,.11,.1,.12,2.45,2.93,3.82,8.31,.12,.48-.17,.97-.65,1.09-.07,.02-.15,.03-.22,.03Z"/><path class="cls-2" d="M44.17,50.31c-.38,0-.74-.24-.86-.63-1.47-4.64-4.39-7.58-4.42-7.6-.35-.35-.35-.92,0-1.27,.35-.35,.92-.36,1.27,0,.13,.13,3.26,3.26,4.87,8.34,.15,.47-.11,.98-.58,1.13-.09,.03-.18,.04-.27,.04Z"/><path class="cls-2" d="M51.23,48.89c-.38,0-.73-.24-.85-.62-1.25-3.76-3.61-5.76-4.31-6.28-.4-.3-.48-.86-.18-1.26,.3-.4,.86-.48,1.26-.18,1.02,.77,3.55,3.01,4.93,7.15,.16,.47-.1,.98-.57,1.14-.09,.03-.19,.05-.28,.05Z"/><g><path class="cls-2" d="M24.07,32.73c-.07,0-.14,0-.2-.02-.48-.11-.79-.6-.67-1.08,1.19-5.14,5.65-8.72,10.85-8.72,4.89,0,9.17,3.18,10.63,7.92,.15,.47-.12,.98-.59,1.13-.48,.15-.98-.12-1.13-.59-1.24-3.98-4.82-6.66-8.92-6.66-4.36,0-8.1,3.01-9.1,7.33-.1,.42-.47,.7-.88,.7Z"/><path class="cls-2" d="M34.04,21.05c-.5,0-.9-.4-.9-.9v-2.91c0-.5,.4-.9,.9-.9s.9,.4,.9,.9v2.91c0,.5-.4,.9-.9,.9Z"/><path class="cls-2" d="M39.36,22.13c-.11,0-.23-.02-.34-.07-.46-.19-.68-.71-.5-1.17l1.09-2.69c.19-.46,.72-.68,1.17-.49,.46,.19,.68,.71,.5,1.17l-1.09,2.69c-.14,.35-.48,.56-.83,.56Z"/><path class="cls-2" d="M46.8,29.79c-.35,0-.68-.21-.83-.55-.19-.46,.02-.99,.48-1.18l2.64-1.11c.45-.19,.99,.02,1.18,.48,.19,.46-.02,.99-.48,1.18l-2.64,1.11c-.11,.05-.23,.07-.35,.07Z"/><path class="cls-2" d="M43.81,25.16c-.23,0-.46-.09-.63-.26-.35-.35-.36-.92-.01-1.27l2.02-2.06c.35-.36,.92-.36,1.27-.01,.35,.35,.36,.92,.01,1.27l-2.02,2.06c-.18,.18-.41,.27-.64,.27Z"/><path class="cls-2" d="M28.69,22.13c-.36,0-.69-.21-.83-.56l-1.09-2.69c-.19-.46,.03-.99,.5-1.17,.46-.19,.99,.03,1.17,.5l1.09,2.69c.19,.46-.03,.99-.5,1.17-.11,.04-.23,.07-.34,.07Z"/><path class="cls-2" d="M21.26,29.79c-.12,0-.24-.02-.35-.07l-2.64-1.11c-.46-.19-.67-.72-.48-1.18,.19-.46,.72-.67,1.18-.48l2.64,1.11c.46,.19,.67,.72,.48,1.18-.14,.34-.48,.55-.83,.55Z"/><path class="cls-2" d="M24.24,25.16c-.23,0-.47-.09-.64-.27l-2.02-2.06c-.35-.35-.34-.92,.01-1.27,.36-.35,.92-.34,1.27,.01l2.02,2.06c.35,.35,.34,.92-.01,1.27-.18,.17-.4,.26-.63,.26Z"/></g></g></g></svg>