<?xml version="1.0" encoding="UTF-8"?><svg id="Calque_2" xmlns="http://www.w3.org/2000/svg" viewBox="0 0 67.61 67.61"><defs><style>.cls-1{fill:#008d36;}.cls-2{fill:#fff;}</style></defs><g id="Calque_1-2"><circle class="cls-1" cx="33.8" cy="33.8" r="33.8"/><path class="cls-2" d="M46.25,27.63c.8-1.5,.84-3.23,.07-4.9-.95-2.07-2.96-3.56-4.98-3.74-1.12-2.84-3.81-4.51-7.33-4.51h-.19s-.23,0-.23,0c-3.52,0-6.22,1.67-7.33,4.51-2.02,.18-4.02,1.66-4.98,3.74-.77,1.67-.73,3.4,.07,4.9-1.92,.95-4.12,3.22-3.3,7.36,.91,4.63,4.27,5.28,5.65,5.35,.96,3.48,3.66,4.42,7.05,4.66v5.16h-4.01c-.5,0-.91,.41-.91,.91s.41,.91,.91,.91h14.3c.5,0,.91-.41,.91-.91s-.41-.91-.91-.91h-4.01v-5.23c3.2-.33,5.93-1.38,6.86-4.59,1.37-.07,4.74-.71,5.65-5.35,.82-4.14-1.39-6.4-3.3-7.36Zm1.51,7c-.67,3.38-2.87,3.88-4.12,3.88-.18,0-.3-.01-.32-.02-.49-.07-.94,.26-1.03,.74-.47,2.51-2.23,3.5-5.25,3.85v-5.42s.07-4.18,2.69-4.18c.5,0,.91-.41,.91-.91s-.41-.91-.91-.91c-3.53,0-4.49,3.92-4.51,6v12.5h-2.63v-12.51c-.02-2.07-.98-5.99-4.51-5.99-.5,0-.91,.41-.91,.91s.41,.91,.91,.91c.11,0,2.63,.05,2.69,4.17v5.5c-3.27-.25-4.92-1.17-5.43-3.93-.08-.44-.47-.74-.9-.74-.04,0-.08,0-.12,0-.02,0-.14,.02-.33,.02-1.25,0-3.46-.5-4.12-3.88-.89-4.5,2.73-5.57,3.14-5.68,.31-.08,.55-.31,.65-.61,.1-.3,.03-.63-.18-.87-1.33-1.55-.89-3.16-.51-3.98,.75-1.63,2.41-2.79,3.91-2.69,.43,.03,.82-.24,.94-.65,1.02-3.47,4.4-3.85,5.8-3.85h.23s.19,0,.19,0c1.41,0,4.79,.38,5.8,3.85,.12,.41,.51,.69,.94,.65,1.5-.11,3.16,1.06,3.91,2.69,.38,.82,.82,2.43-.51,3.98-.21,.24-.27,.57-.18,.87,.1,.3,.34,.53,.65,.61,.17,.04,4.05,1.05,3.14,5.68Z"/></g></svg>