<?xml version="1.0" encoding="UTF-8"?><svg id="Calque_2" xmlns="http://www.w3.org/2000/svg" viewBox="0 0 67.61 67.61"><defs><style>.cls-1{fill:#fff;}.cls-2{fill:#634f42;}</style></defs><g id="Calque_1-2"><circle class="cls-2" cx="33.8" cy="33.8" r="33.8"/><path class="cls-1" d="M30.09,36.09c0-.31-.19-.59-.47-.72-.7-.3-1.67-.55-2.72-.57,2.37-2.54,2.42-5.68,2.42-5.73,0-.34-.21-.63-.53-.74-.02,0-1.08-.34-2.47-.19,1.41-1.82,1.63-4.07,1.44-5.42-.05-.34-.31-.6-.64-.66-.07-.01-1.23-.19-2.55,.18,.05-.31,.08-.64,.08-1.01,0-1.65-.42-3.21-2.5-5.89-.3-.38-.94-.38-1.23,0-2.08,2.68-2.5,4.24-2.5,5.89,0,.37,.03,.7,.08,1.01-1.32-.37-2.48-.19-2.55-.18-.34,.06-.6,.32-.64,.66-.19,1.35,.03,3.6,1.44,5.42-1.39-.15-2.45,.19-2.47,.19-.32,.11-.53,.4-.53,.74,0,.05,.05,3.19,2.42,5.73-1.06,.03-2.02,.27-2.72,.57-.29,.12-.47,.4-.47,.72,0,.21,.09,5.05,7.8,7.59v6.75c0,.43,.35,.78,.78,.78s.78-.35,.78-.78v-6.75c7.7-2.53,7.8-7.38,7.8-7.59Zm-2.39-6.4c-.2,1.41-1.11,4.8-5.41,6.17v-2.71c1.58-3.53,4.23-3.62,5.41-3.46Zm-5.41-.66v-.86s0,0,0,0c0,0,0,0,0-.01h0c0-1.72,.45-2.97,1.33-3.73,.85-.72,1.94-.86,2.61-.86,0,1.32-.41,4.33-3.94,5.46Zm-.78-11.91c1.29,1.82,1.56,2.92,1.56,4.11,0,2.13-1.24,2.36-1.56,2.38-.32-.02-1.56-.25-1.56-2.38,0-1.18,.27-2.28,1.56-4.11Zm-2.11,7.31c.88,.75,1.33,2.01,1.33,3.73h0s0,0,0,.01c0,0,0,0,0,0v.86c-3.53-1.13-3.94-4.14-3.94-5.46,.67,0,1.77,.14,2.61,.86Zm1.33,8.71v2.71c-4.3-1.37-5.21-4.77-5.41-6.17,1.17-.17,3.81-.1,5.41,3.46Zm-6.16,3.47c1.3-.37,4.53-.84,6.16,2.77v2.64c-4.78-1.71-5.9-4.3-6.16-5.41Zm7.72,5.41v-2.64c1.63-3.61,4.86-3.14,6.16-2.77-.26,1.12-1.39,3.7-6.16,5.41Z"/><g><g><path class="cls-1" d="M57.13,28.48c-.29-.23-.71-.22-.99,.02-.49,.42-2.62,2.26-4.95,4.55v-1.62c0-7.93-2.18-16.36-6.23-16.36s-6.23,8.43-6.23,16.36v1.93c-2.58-2.74-4.71-4.65-4.93-4.85-.28-.25-.69-.27-.99-.04-.3,.23-.39,.63-.22,.97,.02,.05,2.26,4.56,2.26,8.22,0,7.68,3.02,10.52,5.68,11.54l.64,1.28c.13,.26,.4,.43,.7,.43h6.23c.09,0,.18-.02,.27-.05,.02,0,.05-.02,.07-.03,.07-.03,.13-.07,.18-.12,.01-.01,.03-.02,.04-.03,.05-.06,.1-.12,.14-.19l.64-1.28c2.66-1.01,5.68-3.86,5.68-11.54,0-3.66,2.23-8.18,2.26-8.22,.17-.33,.07-.73-.22-.96Zm-16.84,2.95c0-8.72,2.46-14.8,4.68-14.8s4.68,6.08,4.68,14.8v3.12s0,.04,.01,.06c-1.99,2.05-3.89,4.27-4.85,6.06-1.39-1.97-2.98-3.89-4.51-5.6v-3.63Zm1.48,16.79c-.09-.18-.25-.33-.45-.39-3.27-1.09-4.92-4.51-4.92-10.17,0-1.87-.5-3.88-1.04-5.52,3.99,3.95,11.23,11.8,11.9,17.21h-4.92l-.56-1.13Zm11.77-10.56c0,5.66-1.66,9.08-4.92,10.17-.03,0-.05,.03-.08,.05-.48-1.81-1.47-3.76-2.71-5.7,.8-2.44,5.44-7.12,8.83-10.25-.57,1.68-1.12,3.79-1.12,5.74Z"/><circle class="cls-1" cx="47.3" cy="28.32" r=".78"/><circle class="cls-1" cx="47.3" cy="34.55" r=".78"/><circle class="cls-1" cx="47.3" cy="31.43" r=".78"/><circle class="cls-1" cx="47.3" cy="22.08" r=".78"/><circle class="cls-1" cx="47.3" cy="25.2" r=".78"/><circle class="cls-1" cx="44.96" cy="32.99" r=".78"/><circle class="cls-1" cx="44.96" cy="36.11" r=".78"/><circle class="cls-1" cx="44.96" cy="29.88" r=".78"/><circle class="cls-1" cx="44.96" cy="26.76" r=".78"/><circle class="cls-1" cx="44.96" cy="23.64" r=".78"/><circle class="cls-1" cx="44.96" cy="20.53" r=".78"/></g><path class="cls-1" d="M41.85,50.13c-.31,0-.6-.19-.72-.49-1.57-3.92-1.61-5.57-1.61-5.74,0-.43,.35-.78,.78-.78s.78,.35,.78,.78c0,0,.05,1.52,1.5,5.16,.16,.4-.03,.85-.43,1.01-.09,.04-.19,.06-.29,.06Z"/></g></g></svg>