<?xml version="1.0" encoding="UTF-8"?><svg id="Calque_2" xmlns="http://www.w3.org/2000/svg" viewBox="0 0 67.61 67.61"><defs><style>.cls-1{fill:#008d36;}.cls-2{stroke-width:.2px;}.cls-2,.cls-3{fill:#fff;stroke:#008d36;stroke-miterlimit:10;}.cls-3{stroke-width:.4px;}</style></defs><g id="Calque_1-2"><circle class="cls-1" cx="33.8" cy="33.8" r="33.8"/><path class="cls-2" d="M31.41,22.77c-.08-.53-.53-.92-1.07-.92s-.98,.4-1.06,.92c-.01,.09-.41,2.29-6.01,8.87-3.6,4.23-4.61,9.54-2.62,13.86,1.7,3.69,5.3,5.9,9.65,5.91h.1c4.33-.01,7.93-2.23,9.63-5.92,1.99-4.32,.99-9.62-2.6-13.84-5.61-6.59-6-8.79-6.01-8.88Zm6.67,21.82c-1.36,2.96-4.16,4.66-7.68,4.67h-.09c-3.54-.01-6.34-1.71-7.7-4.66-1.63-3.55-.75-7.98,2.31-11.57,2.94-3.46,4.55-5.83,5.44-7.41,.89,1.58,2.5,3.96,5.44,7.41,3.04,3.58,3.92,8,2.29,11.55Z"/><g><path class="cls-2" d="M28.19,44.34c-2.02-1.14-2.11-3.38-2.12-3.49-.01-.59-.49-1.05-1.07-1.05h-.02c-.59,0-1.07,.5-1.06,1.09,0,.14,.09,3.56,3.21,5.33,.17,.09,.35,.14,.53,.14,.38,0,.74-.2,.94-.55,.29-.52,.11-1.17-.41-1.46Z"/><path class="cls-2" d="M27.66,46.5c-.21,0-.42-.05-.6-.16-3.2-1.8-3.29-5.31-3.29-5.45,0-.67,.53-1.23,1.21-1.24,.68,0,1.23,.54,1.24,1.2,0,.09,.1,2.27,2.04,3.36h0c.29,.16,.49,.42,.58,.74,.09,.31,.05,.65-.11,.93-.22,.39-.63,.62-1.07,.62Z"/></g><path class="cls-3" d="M42.07,28.95h-.05c-2.46,0-4.52-1.27-5.49-3.38-1.11-2.42-.57-5.38,1.42-7.72,2.61-3.06,2.87-4.12,2.88-4.17,.08-.58,.59-1.02,1.21-1.02s1.13,.45,1.21,1.05c0,.03,.31,1.12,2.88,4.13h0c1.99,2.33,2.53,5.29,1.41,7.71-.97,2.11-3.02,3.38-5.47,3.38Zm-.03-12.39c-.56,.84-1.31,1.81-2.22,2.88-1.37,1.6-1.77,3.56-1.06,5.1,.57,1.24,1.76,1.95,3.27,1.95h.04c1.5,0,2.69-.72,3.26-1.96h0c.71-1.55,.31-3.5-1.05-5.1-.92-1.08-1.66-2.04-2.22-2.88Z"/></g></svg>