<?xml version="1.0" encoding="UTF-8"?><svg id="Calque_2" xmlns="http://www.w3.org/2000/svg" viewBox="0 0 67.61 67.61"><defs><style>.cls-1{fill:#008d36;}.cls-2{fill:#fff;}</style></defs><g id="Calque_1-2"><circle class="cls-1" cx="33.8" cy="33.8" r="33.8"/><g><g><path class="cls-2" d="M56.93,41.51h-13.34v-15.48c0-3.68,2.99-6.67,6.67-6.67s6.67,2.99,6.67,6.67v15.48Zm-12.06-1.28h10.78v-14.2c0-2.97-2.42-5.39-5.39-5.39s-5.39,2.42-5.39,5.39v14.2Z"/><rect class="cls-2" x="44.23" y="25.68" width="12.06" height="1.28"/><rect class="cls-2" x="51.63" y="26.32" width="1.28" height="11.64"/><rect class="cls-2" x="47.61" y="26.32" width="1.28" height="11.64"/><rect class="cls-2" x="48.25" y="29.7" width="4.02" height="1.28"/><rect class="cls-2" x="48.25" y="33.72" width="4.02" height="1.28"/></g><g><path class="cls-2" d="M44.87,41.51h-8.75v-1.28h7.47V21.91c0-2.97-2.42-5.39-5.39-5.39s-5.39,2.42-5.39,5.39v3.99h-1.28v-3.99c0-3.68,2.99-6.67,6.67-6.67s6.67,2.99,6.67,6.67v19.59Z"/><rect class="cls-2" x="32.17" y="21.56" width="12.06" height="1.28"/></g><rect class="cls-2" x="39.57" y="25.24" width="1.28" height="3.22"/><rect class="cls-2" x="39.57" y="29.93" width="1.28" height="3.22"/><rect class="cls-2" x="39.57" y="34.62" width="1.28" height="3.22"/><path class="cls-2" d="M24.24,41.51H10.17c-.35,0-.64-.29-.64-.64v-12.34c0-.23,.12-.44,.32-.56l7.04-4.02c.2-.11,.44-.11,.63,0l7.04,4.02c.2,.11,.32,.33,.32,.56v12.34c0,.35-.29,.64-.64,.64Zm-13.43-1.28h12.79v-11.33l-6.4-3.65-6.4,3.65v11.33Z"/><path class="cls-2" d="M36.57,41.51h-12.33v-1.28h11.69v-11.33l-6.57-3.75h-12.16v-1.28h12.33c.11,0,.22,.03,.32,.08l7.04,4.02c.2,.11,.32,.33,.32,.56v12.34c0,.35-.29,.64-.64,.64Z"/><path class="cls-2" d="M20.22,41.51h-6.03c-.35,0-.64-.29-.64-.64v-8.32c0-.35,.29-.64,.64-.64h6.03c.35,0,.64,.29,.64,.64v8.32c0,.35-.29,.64-.64,.64Zm-5.39-1.28h4.75v-7.04h-4.75v7.04Z"/><rect class="cls-2" x="24.24" y="27.89" width="12.33" height="1.28"/><rect class="cls-2" x="24.24" y="31.91" width="12.33" height="1.28"/><rect class="cls-2" x="24.24" y="35.93" width="12.33" height="1.28"/></g><polygon class="cls-1" points="37.92 37.26 41.5 37.43 46.59 43.26 50.67 43.34 52.5 43.34 53.42 44.09 53.92 46.34 53.75 49.18 52.42 50.43 50.42 50.34 49.75 52.09 48.09 52.76 45.92 51.93 45.5 50.34 30.17 50.51 29.09 52.43 27.17 52.51 25.59 51.26 25.17 50.34 23.09 50.43 22 49.59 21.92 43.76 22.59 43.26 34.98 43.29 34.98 38.57 36.57 37.21 37.92 37.26"/><path class="cls-2" d="M52.05,42.7h-5.02l-4.03-5.1c-.45-.5-1.09-.79-1.76-.79h-5.1c-.46,0-.87,.17-1.19,.46-.36,.32-.58,.79-.58,1.31v4.12h-11.79c-.65,0-1.18,.53-1.18,1.18v5.3c0,.97,.79,1.77,1.77,1.77h1.83c.27,1.34,1.46,2.36,2.89,2.36s2.61-1.01,2.89-2.36h14.26c.27,1.34,1.46,2.36,2.89,2.36s2.61-1.01,2.89-2.36h1.83c.97,0,1.77-.79,1.77-1.77v-4.12c0-1.3-1.06-2.36-2.36-2.36Zm-6.52,0h-7.62v-2.36h5.76l1.86,2.36Zm-17.64,9.43c-.97,0-1.77-.79-1.77-1.77s.79-1.77,1.77-1.77,1.77,.79,1.77,1.77-.79,1.77-1.77,1.77Zm20.04,0c-.97,0-1.77-.79-1.77-1.77s.79-1.77,1.77-1.77,1.77,.79,1.77,1.77-.79,1.77-1.77,1.77Zm4.71-2.36h-1.83c-.27-1.34-1.46-2.36-2.89-2.36s-2.61,1.01-2.89,2.36h-14.26c-.27-1.34-1.46-2.36-2.89-2.36s-2.61,1.01-2.89,2.36h-1.83c-.32,0-.59-.26-.59-.59v-5.3h12.37c.33,0,.59-.26,.59-.59v-4.71c0-.33,.26-.59,.59-.59h5.1c.34,0,.66,.14,.86,.37l.64,.81h-4.83c-.65,0-1.18,.53-1.18,1.18v2.36c0,.65,.53,1.18,1.18,1.18h14.14c.65,0,1.18,.53,1.18,1.18h-1.77c-.33,0-.59,.26-.59,.59s.26,.59,.59,.59h1.77v2.95c0,.33-.26,.59-.59,.59Z"/></g></svg>