<?xml version="1.0" encoding="UTF-8"?><svg id="Calque_2" xmlns="http://www.w3.org/2000/svg" viewBox="0 0 67.61 67.61"><defs><style>.cls-1{fill:#008d36;}.cls-2{fill:#fff;}</style></defs><g id="Calque_1-2"><circle class="cls-1" cx="33.8" cy="33.8" r="33.8"/><g><path class="cls-2" d="M34.22,52.98L9.51,36.8l24.71-15.29,24.71,15.29-24.71,16.18ZM11.93,36.83l22.29,14.59,22.29-14.59-22.29-13.79-22.29,13.79Z"/><path class="cls-2" d="M34.22,45.65L9.51,29.47l24.71-15.29,24.71,15.29-24.71,16.18ZM11.93,29.5l22.29,14.59,22.29-14.59-22.29-13.8L11.93,29.5Z"/><rect class="cls-2" x="33.49" y="44.4" width="1.3" height="7.8"/><rect class="cls-2" x="33.82" y="15.3" width="1.3" height="7.24"/><rect class="cls-2" x="57.6" y="29.49" width="1.3" height="7.24"/><rect class="cls-2" x="9.59" y="29.49" width="1.3" height="7.24"/><g><rect class="cls-2" x="12.34" y="31.24" width="1.3" height="7.24"/><rect class="cls-2" x="15.32" y="32.99" width="1.3" height="7.24"/><rect class="cls-2" x="18.31" y="34.74" width="1.3" height="7.24"/><rect class="cls-2" x="21.29" y="36.49" width="1.3" height="7.24"/><rect class="cls-2" x="24.28" y="38.8" width="1.3" height="7.24"/><rect class="cls-2" x="27.27" y="40.55" width="1.3" height="7.24"/><rect class="cls-2" x="30.25" y="42.57" width="1.3" height="7.24"/></g><g><rect class="cls-2" x="37" y="17.22" width="1.3" height="7.24"/><rect class="cls-2" x="39.99" y="18.97" width="1.3" height="7.24"/><rect class="cls-2" x="42.98" y="20.72" width="1.3" height="7.24"/><rect class="cls-2" x="45.96" y="22.47" width="1.3" height="7.24"/><rect class="cls-2" x="48.95" y="24.79" width="1.3" height="7.24"/><rect class="cls-2" x="51.93" y="26.54" width="1.3" height="7.24"/><rect class="cls-2" x="54.92" y="28.55" width="1.3" height="7.24"/></g><g><rect class="cls-2" x="36.92" y="42.65" width="1.3" height="7.24"/><rect class="cls-2" x="39.95" y="40.4" width="1.3" height="7.24"/><rect class="cls-2" x="42.98" y="38.72" width="1.3" height="7.24"/><rect class="cls-2" x="46" y="36.47" width="1.3" height="7.24"/><rect class="cls-2" x="49.03" y="34.79" width="1.3" height="7.24"/><rect class="cls-2" x="52.06" y="32.63" width="1.3" height="7.24"/><rect class="cls-2" x="55.09" y="30.74" width="1.3" height="7.24"/></g><g><rect class="cls-2" x="12.59" y="28.32" width="1.3" height="7.24"/><rect class="cls-2" x="15.61" y="26.07" width="1.3" height="7.24"/><rect class="cls-2" x="18.64" y="24.38" width="1.3" height="7.24"/><rect class="cls-2" x="21.67" y="22.13" width="1.3" height="7.24"/><rect class="cls-2" x="24.7" y="20.45" width="1.3" height="7.24"/><rect class="cls-2" x="27.73" y="18.3" width="1.3" height="7.24"/><rect class="cls-2" x="30.75" y="16.4" width="1.3" height="7.24"/></g></g><path class="cls-2" d="M33.89,39.75c-1.6,0-2.8-.91-2.8-2.12,0-.29,.07-.58,.21-.84-.4-.84-.78-1.68-.86-1.85-.07-.16-.13-.33-.18-.52-1.3-.29-2.26-.85-2.87-1.67-.94-1.25-.67-2.57-.63-2.74,.1-.41,.44-.71,.87-.75,.4-.05,.81,.2,.98,.59v.02c.03,.05,.1,.22,.22,.47,.06,.13,.32,.32,.87,.48,.37,.1,.73,.14,1.01,.15,.77-.29,1.9-.46,3.16-.46s2.4,.17,3.17,.46c.29,0,.68-.05,1.07-.16,.55-.15,.81-.35,.87-.48,.13-.28,.2-.46,.22-.49,.17-.4,.58-.65,1.01-.59,.39,.03,.74,.33,.84,.75,.03,.14,.32,1.47-.63,2.74-.61,.81-1.57,1.37-2.87,1.67-.04,.19-.1,.37-.18,.52-.08,.17-.46,1.01-.86,1.85,.14,.26,.21,.54,.21,.84,0,1.21-1.21,2.12-2.8,2.12Zm-5.06-7.64c.48,.46,1.22,.76,2.21,.92l.58,.09,.05,.58c.02,.25,.07,.45,.13,.6,.09,.2,.59,1.29,1.04,2.23l.23,.47-.36,.38c-.08,.08-.12,.16-.12,.23,0,.25,.51,.62,1.3,.62s1.3-.37,1.3-.62c0-.07-.04-.15-.12-.23l-.36-.38,.23-.47c.45-.95,.95-2.03,1.04-2.23,.05-.1,.11-.29,.13-.6l.05-.58,.58-.09c.99-.16,1.74-.47,2.21-.92-.14,.06-.29,.11-.45,.15-.62,.18-1.22,.21-1.61,.22h-.16s-.15-.06-.15-.06c-.44-.19-1.39-.4-2.73-.4s-2.29,.21-2.73,.4l-.15,.07h-.16c-.37,0-.95-.05-1.54-.22-.16-.04-.31-.09-.45-.15Zm-1.6-1.68h0s.02,.04,.03,.07c0-.02-.02-.05-.03-.07Zm13.33,0s0,0,0,0c0,0,0,0,0,0Z"/></g></svg>