<?xml version="1.0" encoding="UTF-8"?><svg id="Calque_2" xmlns="http://www.w3.org/2000/svg" viewBox="0 0 67.61 67.61"><defs><style>.cls-1{fill:#008d36;}.cls-2{fill:#fff;}</style></defs><g id="Calque_1-2"><circle class="cls-1" cx="33.8" cy="33.8" r="33.8"/><g><polygon class="cls-2" points="25.69 31.59 23.17 31.59 20.22 28.64 16.83 28.64 16.83 27.16 20.83 27.16 23.78 30.11 25.69 30.11 25.69 31.59"/><rect class="cls-2" x="16.83" y="33.07" width="8.85" height="1.48"/><polygon class="cls-2" points="20.77 40.44 16.83 40.44 16.83 38.97 20.15 38.97 23.07 36.02 25.69 36.02 25.69 37.49 23.69 37.49 20.77 40.44"/><rect class="cls-2" x="33.07" y="41.18" width="1.48" height="9.59"/><polygon class="cls-2" points="40.44 50.77 38.97 50.77 38.97 46.72 36.02 44.5 36.02 41.18 37.49 41.18 37.49 43.76 40.44 45.98 40.44 50.77"/><polygon class="cls-2" points="28.64 50.77 27.16 50.77 27.16 45.98 30.11 43.76 30.11 41.18 31.59 41.18 31.59 44.5 28.64 46.72 28.64 50.77"/><rect class="cls-2" x="33.07" y="16.83" width="1.48" height="9.59"/><polygon class="cls-2" points="37.49 26.42 36.02 26.42 36.02 23.1 38.97 20.89 38.97 16.83 40.44 16.83 40.44 21.63 37.49 23.84 37.49 26.42"/><polygon class="cls-2" points="31.59 26.42 30.11 26.42 30.11 23.84 27.16 21.63 27.16 16.83 28.64 16.83 28.64 20.89 31.59 23.1 31.59 26.42"/><path class="cls-2" d="M42.66,41.92H24.95V25.69h17.71v16.23Zm-16.23-1.48h14.76v-13.28h-14.76v13.28Z"/><path class="cls-2" d="M36.75,37.49h-5.9v-7.38h5.9v7.38Zm-4.43-1.48h2.95v-4.43h-2.95v4.43Z"/><rect class="cls-2" x="27.9" y="30.11" width="1.48" height="1.48"/><rect class="cls-2" x="27.9" y="33.07" width="1.48" height="1.48"/><rect class="cls-2" x="27.9" y="36.02" width="1.48" height="1.48"/><rect class="cls-2" x="38.23" y="30.11" width="1.48" height="1.48"/><rect class="cls-2" x="38.23" y="33.07" width="1.48" height="1.48"/><rect class="cls-2" x="38.23" y="36.02" width="1.48" height="1.48"/><polygon class="cls-2" points="44.44 31.59 41.92 31.59 41.92 30.11 43.83 30.11 46.78 27.16 50.77 27.16 50.77 28.64 47.39 28.64 44.44 31.59"/><rect class="cls-2" x="41.92" y="33.07" width="8.85" height="1.48"/><polygon class="cls-2" points="50.77 40.44 46.84 40.44 43.92 37.49 41.92 37.49 41.92 36.02 44.53 36.02 47.45 38.97 50.77 38.97 50.77 40.44"/><polygon class="cls-2" points="41.18 26.42 39.71 26.42 39.71 24.64 42.66 21.69 42.66 19.78 44.13 19.78 44.13 22.3 41.18 25.25 41.18 26.42"/><polygon class="cls-2" points="27.9 26.42 26.42 26.42 26.42 25.25 23.47 22.3 23.47 19.78 24.95 19.78 24.95 21.69 27.9 24.64 27.9 26.42"/><polygon class="cls-2" points="44.13 47.82 42.66 47.82 42.66 45.91 39.71 42.96 39.71 41.18 41.18 41.18 41.18 42.35 44.13 45.3 44.13 47.82"/><polygon class="cls-2" points="24.95 47.82 23.47 47.82 23.47 45.3 26.42 42.35 26.42 41.18 27.9 41.18 27.9 42.96 24.95 45.91 24.95 47.82"/></g></g></svg>