<?xml version="1.0" encoding="UTF-8"?><svg id="Calque_2" xmlns="http://www.w3.org/2000/svg" viewBox="0 0 67.61 67.61"><defs><style>.cls-1{fill:#008d36;}.cls-2{fill:#fff;}</style></defs><g id="Calque_1-2"><circle class="cls-1" cx="33.8" cy="33.8" r="33.8"/><ellipse class="cls-2" cx="18.6" cy="40.73" rx=".85" ry=".8"/><ellipse class="cls-2" cx="21.01" cy="44.06" rx=".85" ry=".8"/><ellipse class="cls-2" cx="27.09" cy="41.66" rx=".85" ry=".8"/><path class="cls-2" d="M31.68,31.02l-5.28-5.24-.9-8.45h-5.03l-.9,8.45-5.28,5.24v19.39H31.68V31.02Zm-15.69,14.81v-9.16h13.99v9.16H15.99Zm7.97-26.89l.68,6.4h-3.31l.68-6.4h1.95Zm-3.21,8h4.46l4.77,4.72v3.2H15.99v-3.2l4.76-4.72Zm-4.76,21.88v-1.38h13.99v1.38H15.99Z"/><path class="cls-2" d="M41,25.09c1.4,0,2.55-1.08,2.55-2.4s-1.14-2.4-2.55-2.4-2.55,1.08-2.55,2.4,1.14,2.4,2.55,2.4Zm0-3.2c.47,0,.85,.36,.85,.8s-.38,.8-.85,.8-.85-.36-.85-.8,.38-.8,.85-.8Z"/><path class="cls-2" d="M46.94,25.09c1.4,0,2.55-1.08,2.55-2.4s-1.14-2.4-2.55-2.4-2.55,1.08-2.55,2.4,1.14,2.4,2.55,2.4Zm0-3.2c.47,0,.85,.36,.85,.8s-.38,.8-.85,.8-.85-.36-.85-.8,.38-.8,.85-.8Z"/><path class="cls-2" d="M41,30.69c1.4,0,2.55-1.08,2.55-2.4s-1.14-2.4-2.55-2.4-2.55,1.08-2.55,2.4,1.14,2.4,2.55,2.4Zm0-3.2c.47,0,.85,.36,.85,.8s-.38,.8-.85,.8-.85-.36-.85-.8,.38-.8,.85-.8Z"/><path class="cls-2" d="M46.94,30.69c1.4,0,2.55-1.08,2.55-2.4s-1.14-2.4-2.55-2.4-2.55,1.08-2.55,2.4,1.14,2.4,2.55,2.4Zm0-3.2c.47,0,.85,.36,.85,.8s-.38,.8-.85,.8-.85-.36-.85-.8,.38-.8,.85-.8Z"/><path class="cls-2" d="M41,36.29c1.4,0,2.55-1.08,2.55-2.4s-1.14-2.4-2.55-2.4-2.55,1.08-2.55,2.4,1.14,2.4,2.55,2.4Zm0-3.2c.47,0,.85,.36,.85,.8s-.38,.8-.85,.8-.85-.36-.85-.8,.38-.8,.85-.8Z"/><path class="cls-2" d="M46.94,36.29c1.4,0,2.55-1.08,2.55-2.4s-1.14-2.4-2.55-2.4-2.55,1.08-2.55,2.4,1.14,2.4,2.55,2.4Zm0-3.2c.47,0,.85,.36,.85,.8s-.38,.8-.85,.8-.85-.36-.85-.8,.38-.8,.85-.8Z"/><path class="cls-2" d="M52.63,17.33h-17.31v21.92h17.31V17.33Zm-1.7,20.32h-13.91V18.93h13.91v18.72Z"/><path class="cls-2" d="M35.26,47.51c0,.63,.18,1.24,.54,1.76,.58,.86,1.55,1.38,2.58,1.38l7.62,.03c.05,0,.11,0,.16,0,.01,0,.03,0,.04,0,.04,0,.08,0,.12,0,.01,0,.03,0,.04,0,.04,0,.08,0,.12-.01,.01,0,.02,0,.03,0,.04,0,.08-.01,.12-.02,0,0,.02,0,.03,0,.04,0,.08-.02,.12-.03,0,0,.02,0,.02,0,.04-.01,.08-.02,.12-.03,0,0,.02,0,.02,0,.04-.01,.08-.03,.12-.04,0,0,.02,0,.03-.01,.04-.01,.08-.03,.11-.04,.01,0,.03-.01,.04-.02,.03-.01,.07-.03,.1-.04,.02,0,.04-.02,.06-.03,.02-.01,.05-.02,.07-.04,.03-.02,.06-.04,.1-.05,.01,0,.02-.01,.03-.02,.44-.26,.81-.63,1.08-1.07,0-.02,.02-.03,.03-.05,.02-.03,.03-.05,.05-.08,.02-.03,.03-.06,.04-.09,0-.02,.02-.03,.02-.05,.02-.04,.03-.07,.05-.11,0,0,0-.02,.01-.03,.02-.04,.03-.08,.05-.12,0,0,0-.01,0-.02,.02-.04,.03-.09,.05-.13,0,0,0,0,0-.01,.01-.04,.03-.09,.04-.13,0,0,0-.01,0-.02,.01-.04,.02-.09,.03-.13,0,0,0-.01,0-.02,0-.04,.02-.08,.02-.13,0,0,0-.02,0-.03,0-.04,.01-.08,.02-.12,0-.01,0-.02,0-.04,0-.04,0-.08,0-.12,0-.01,0-.03,0-.04,0-.04,0-.09,0-.13,0-.01,0-.02,0-.03,0-.63-.18-1.24-.54-1.76-.51-.75-1.31-1.24-2.2-1.36,0,0,0,0-.01,0-.12-.02-.25-.02-.37-.02l-7.62-.03c-1.73,0-3.14,1.39-3.15,3.12Zm7.99,1.75v-3.43s2.77,.01,2.77,.01c.04,0,.07,0,.11,0,.53,.03,1.01,.31,1.31,.76,.18,.27,.28,.58,.29,.9,0,.02,0,.04,0,.06,0,.06,0,.12,0,.17,0,.02,0,.03,0,.05,0,.04-.01,.08-.02,.12,0,.03-.01,.05-.02,.08,0,.03-.01,.05-.02,.08-.01,.04-.03,.08-.04,.12,0,.01,0,.02-.01,.03-.09,.2-.21,.39-.38,.55-.16,.16-.35,.29-.56,.37,0,0,0,0,0,0-.05,.02-.1,.04-.15,.05-.02,0-.03,0-.05,.01-.04,.01-.08,.02-.11,.03-.03,0-.05,0-.08,.01-.03,0-.06,.01-.09,.01-.04,0-.09,0-.13,0-.01,0-.03,0-.04,0h-1.04s-1.72-.01-1.72-.01Zm-4.85-3.45h3.45s-.01,3.44-.01,3.44h-3.45c-.57-.02-1.09-.3-1.41-.77-.19-.29-.29-.62-.29-.96,0-.95,.78-1.71,1.72-1.71Z"/></g></svg>