<?xml version="1.0" encoding="UTF-8"?><svg id="Calque_2" xmlns="http://www.w3.org/2000/svg" viewBox="0 0 67.61 67.61"><defs><style>.cls-1{fill:#008d36;}.cls-2{fill:#fff;}</style></defs><g id="Calque_1-2"><circle class="cls-1" cx="33.8" cy="33.8" r="33.8"/><g><g><path class="cls-2" d="M13.99,44.03h-.01c-.66,0-1.21-.34-1.47-.91-.3-.65-.15-1.44,.38-2.07,.7-.82,.77-1.11,.77-1.12,.02-.16,.16-.27,.32-.27s.3,.12,.33,.28c0,0,.08,.3,.77,1.11h0c.53,.63,.68,1.42,.38,2.07-.26,.57-.81,.91-1.47,.91Z"/><path class="cls-2" d="M25.66,44.03h-.01c-.66,0-1.21-.34-1.47-.91-.3-.65-.15-1.44,.38-2.07,.7-.82,.77-1.11,.77-1.12,.02-.16,.16-.27,.32-.27s.3,.12,.33,.28c0,0,.08,.3,.77,1.11h0c.53,.63,.68,1.42,.38,2.07-.26,.57-.81,.91-1.47,.91Z"/><path class="cls-2" d="M31.49,44.03h-.01c-.66,0-1.21-.34-1.47-.91-.3-.65-.15-1.44,.38-2.07,.7-.82,.77-1.11,.77-1.12,.02-.16,.16-.27,.32-.27s.3,.12,.33,.28c0,0,.08,.3,.77,1.11h0c.53,.63,.68,1.42,.38,2.07-.26,.57-.81,.91-1.47,.91Z"/><path class="cls-2" d="M19.82,44.02h-.01c-.66,0-1.21-.34-1.47-.91-.3-.65-.15-1.44,.38-2.07,.7-.82,.77-1.11,.77-1.12,.02-.16,.16-.27,.32-.27s.3,.12,.33,.28c0,0,.08,.3,.77,1.11h0c.53,.63,.68,1.42,.38,2.07-.26,.57-.81,.91-1.47,.91Z"/><path class="cls-2" d="M37.33,44.02h-.01c-.66,0-1.21-.34-1.47-.91-.3-.65-.15-1.44,.38-2.07,.7-.82,.77-1.11,.77-1.12,.02-.16,.16-.27,.32-.27s.3,.12,.33,.28c0,0,.08,.3,.77,1.11h0c.53,.63,.68,1.42,.38,2.07-.26,.57-.81,.91-1.47,.91Z"/><path class="cls-2" d="M43.16,44.02h-.01c-.66,0-1.21-.34-1.47-.91-.3-.65-.15-1.44,.38-2.07,.7-.82,.77-1.11,.77-1.12,.02-.16,.16-.27,.32-.27s.3,.12,.33,.28c0,0,.08,.3,.77,1.11h0c.53,.63,.68,1.42,.38,2.07-.26,.57-.81,.91-1.47,.91Z"/><path class="cls-2" d="M49,44.02h-.01c-.66,0-1.21-.34-1.47-.91-.3-.65-.15-1.44,.38-2.07,.7-.82,.77-1.11,.77-1.12,.02-.16,.16-.27,.32-.27s.3,.12,.33,.28c0,0,.08,.3,.77,1.11h0c.53,.63,.68,1.42,.38,2.07-.26,.57-.81,.91-1.47,.91Z"/><path class="cls-2" d="M54.83,44.02h-.01c-.66,0-1.21-.34-1.47-.91-.3-.65-.15-1.44,.38-2.07,.7-.82,.77-1.11,.77-1.12,.02-.16,.16-.27,.32-.27s.3,.12,.33,.28c0,0,.08,.3,.77,1.11h0c.53,.63,.68,1.42,.38,2.07-.26,.57-.81,.91-1.47,.91Z"/></g><rect class="cls-2" x="10.72" y="31.79" width="46.71" height="1.4"/><path class="cls-2" d="M58.26,33.16h-1.4c0-6.89-10.2-12.49-22.74-12.49s-22.74,5.6-22.74,12.49h-1.4c0-7.66,10.83-13.89,24.14-13.89s24.14,6.23,24.14,13.89Z"/><polygon class="cls-2" points="48.1 33.26 41.41 22.45 34.44 33.03 27.29 22.39 19.69 33.13 14.36 25.78 15.5 24.96 19.67 30.72 27.32 19.92 34.42 30.5 41.45 19.85 48.26 30.84 52.64 25.43 53.72 26.31 48.1 33.26"/><g><path class="cls-2" d="M13.74,37.5c-1.11,0-2.01-.9-2.01-2.01v-1.5c0-1.11,.9-2.01,2.01-2.01s2.01,.9,2.01,2.01v1.5c0,1.11-.9,2.01-2.01,2.01Zm0-4.12c-.34,0-.61,.27-.61,.61v1.5c0,.34,.27,.61,.61,.61s.61-.27,.61-.61v-1.5c0-.34-.27-.61-.61-.61Z"/><path class="cls-2" d="M19.61,37.5c-1.11,0-2.01-.9-2.01-2.01v-1.5c0-1.11,.9-2.01,2.01-2.01s2.01,.9,2.01,2.01v1.5c0,1.11-.9,2.01-2.01,2.01Zm0-4.12c-.34,0-.61,.27-.61,.61v1.5c0,.34,.27,.61,.61,.61s.61-.27,.61-.61v-1.5c0-.34-.27-.61-.61-.61Z"/><path class="cls-2" d="M25.48,37.5c-1.11,0-2.01-.9-2.01-2.01v-1.5c0-1.11,.9-2.01,2.01-2.01s2.01,.9,2.01,2.01v1.5c0,1.11-.9,2.01-2.01,2.01Zm0-4.12c-.34,0-.61,.27-.61,.61v1.5c0,.34,.27,.61,.61,.61s.61-.27,.61-.61v-1.5c0-.34-.27-.61-.61-.61Z"/><path class="cls-2" d="M31.35,37.5c-1.11,0-2.01-.9-2.01-2.01v-1.5c0-1.11,.9-2.01,2.01-2.01s2.01,.9,2.01,2.01v1.5c0,1.11-.9,2.01-2.01,2.01Zm0-4.12c-.34,0-.61,.27-.61,.61v1.5c0,.34,.27,.61,.61,.61s.61-.27,.61-.61v-1.5c0-.34-.27-.61-.61-.61Z"/><path class="cls-2" d="M37.22,37.5c-1.11,0-2.01-.9-2.01-2.01v-1.5c0-1.11,.9-2.01,2.01-2.01s2.01,.9,2.01,2.01v1.5c0,1.11-.9,2.01-2.01,2.01Zm0-4.12c-.34,0-.61,.27-.61,.61v1.5c0,.34,.27,.61,.61,.61s.61-.27,.61-.61v-1.5c0-.34-.27-.61-.61-.61Z"/><path class="cls-2" d="M43.09,37.5c-1.11,0-2.01-.9-2.01-2.01v-1.5c0-1.11,.9-2.01,2.01-2.01s2.01,.9,2.01,2.01v1.5c0,1.11-.9,2.01-2.01,2.01Zm0-4.12c-.34,0-.61,.27-.61,.61v1.5c0,.34,.27,.61,.61,.61s.61-.27,.61-.61v-1.5c0-.34-.27-.61-.61-.61Z"/><path class="cls-2" d="M48.95,37.5c-1.11,0-2.01-.9-2.01-2.01v-1.5c0-1.11,.9-2.01,2.01-2.01s2.01,.9,2.01,2.01v1.5c0,1.11-.9,2.01-2.01,2.01Zm0-4.12c-.34,0-.61,.27-.61,.61v1.5c0,.34,.27,.61,.61,.61s.61-.27,.61-.61v-1.5c0-.34-.27-.61-.61-.61Z"/><path class="cls-2" d="M54.82,37.5c-1.11,0-2.01-.9-2.01-2.01v-1.5c0-1.11,.9-2.01,2.01-2.01s2.01,.9,2.01,2.01v1.5c0,1.11-.9,2.01-2.01,2.01Zm0-4.12c-.34,0-.61,.27-.61,.61v1.5c0,.34,.27,.61,.61,.61s.61-.27,.61-.61v-1.5c0-.34-.27-.61-.61-.61Z"/></g></g></g></svg>