<?xml version="1.0" encoding="UTF-8"?><svg id="Calque_2" xmlns="http://www.w3.org/2000/svg" viewBox="0 0 67.82 67.61"><defs><style>.cls-1{fill:#008d36;}.cls-2{fill:#fff;}</style></defs><g id="Calque_1-2"><circle class="cls-1" cx="34.01" cy="33.8" r="33.8"/><path class="cls-2" d="M16.38,42.85c0-5.19,4.22-9.41,9.41-9.41,5.19,0,9.41,4.22,9.41,9.41,0,5.19-4.22,9.41-9.41,9.41-5.19,0-9.41-4.22-9.41-9.41Zm1.42,0c0,4.4,3.58,7.99,7.99,7.99s7.99-3.58,7.99-7.99-3.58-7.99-7.99-7.99-7.99,3.58-7.99,7.99Z"/><path class="cls-2" d="M20.8,42.85c0-2.75,2.24-4.98,4.98-4.98s4.98,2.24,4.98,4.98c0,2.75-2.24,4.98-4.98,4.98s-4.98-2.24-4.98-4.98Zm1.42,0c0,1.96,1.6,3.56,3.56,3.56s3.56-1.6,3.56-3.56-1.6-3.56-3.56-3.56-3.56,1.6-3.56,3.56Z"/><path class="cls-2" d="M24.12,42.85c0-.92,.75-1.66,1.66-1.66s1.66,.75,1.66,1.66-.75,1.66-1.66,1.66-1.66-.75-1.66-1.66Zm1.42,0c0,.13,.11,.24,.24,.24s.24-.11,.24-.24c0-.13-.11-.24-.24-.24s-.24,.11-.24,.24Z"/><path class="cls-2" d="M.09,37.96c.19,.13-.29,.54,0,.68,2.94,1.42,10.49,3.2,11.42,3.42,.03,0,.06,.01,.09,.01,.15,.02,.29,.02,.43,.02,1.28,0,2.43-.62,3.41-1.86,.06-.07,.1-.16,.13-.25,1.27-4.56,5.47-7.74,10.21-7.74,2.19,0,4.29,.66,6.07,1.91,.51,.36,1.12,.55,1.75,.55h3.41c.34,0,.64-.24,.7-.58l2.94-15.47c.07-.39-.18-.76-.57-.83-.39-.07-.76,.18-.83,.57l-2.83,14.89h-2.82c-.34,0-.66-.1-.93-.29-2.03-1.42-4.41-2.17-6.89-2.17-5.32,0-10.04,3.54-11.54,8.63-.75,.9-1.53,1.28-2.45,1.2-2.74-.64-10.03-2.5-11.61-3.6"/><path class="cls-2" d="M5.99,16.15H24.57s5.32,16.37,5.32,16.37c.1,.3,.38,.49,.68,.49,.07,0,.15-.01,.22-.04,.37-.12,.58-.52,.46-.9l-5.48-16.86c-.1-.29-.37-.49-.68-.49H5.54c-.27,0-.52,.16-.64,.4"/><path class="cls-2" d="M37.1,44.19c.3,0,.57-.19,.67-.48,.13-.37-.07-.78-.44-.9l-1.91-.74c-.37-.13-.78,.07-.9,.44-.13,.37,.07,.78,.44,.9l1.91,.74c.08,.03,.15,.04,.23,.04Z"/><path class="cls-2" d="M36.56,46.12c.3,0,.57-.19,.67-.48,.13-.37-.07-.78-.44-.9l-1.35-.46c-.37-.13-.78,.07-.9,.44-.13,.37,.07,.78,.44,.9l1.35,.46c.08,.03,.15,.04,.23,.04Z"/><path class="cls-2" d="M41.07,51.61l-3.25-1.26c-.83-.27-1.8-.96-1.75-2.78,0-.07,.01-.14,.04-.2l2-5.99c.06-.18,.19-.33,.36-.41,.17-.08,.37-.1,.55-.03l7.44,2.63s.07,.03,.11,.05c1.07,.59,2.34,1.34,3.68,2.46l4.72,4.36c.22,.2,.29,.51,.18,.78-.11,.27-.37,.45-.66,.45h-13.16c-.09,0-.18-.02-.26-.05Zm8.24-4.47c-1.2-1-2.38-1.7-3.38-2.26l-6.7-2.37-1.73,5.2c0,.92,.37,1.16,.77,1.29,.02,0,.03,.01,.05,.02l3.14,1.22h11.21s-3.36-3.1-3.36-3.1Z"/><g><path class="cls-2" d="M48.23,46.26l-4.54-2.6c-.22-.13-.36-.36-.36-.62l-.02-5.24c0-.25,.13-.49,.35-.62l4.53-2.63c.22-.13,.49-.13,.71,0l4.54,2.6c.22,.13,.36,.36,.36,.62l.02,5.24c0,.25-.13,.49-.35,.62l-4.53,2.63c-.09,.05-.2,.09-.3,.09-.14,.01-.28-.02-.41-.09Zm4.15-8.08l-3.83-2.19-3.82,2.22,.02,4.41,3.83,2.19,3.82-2.22-.02-4.41Z"/><path class="cls-2" d="M48.64,46.35c.37-.03,.66-.34,.66-.71l-.04-10.47c0-.39-.32-.71-.71-.71-.4,0-.71,.32-.71,.71l.04,10.47c0,.39,.32,.71,.71,.71,.02,0,.04,0,.05,0Z"/><path class="cls-2" d="M53.16,43.72c.23-.02,.44-.14,.56-.36,.2-.34,.08-.78-.26-.97l-9.09-5.2c-.34-.2-.78-.08-.97,.26-.2,.34-.08,.78,.26,.97l9.09,5.2c.13,.07,.27,.1,.41,.09Z"/><path class="cls-2" d="M44.09,43.75c.1,0,.21-.04,.3-.09l9.05-5.27c.34-.2,.46-.63,.26-.97-.2-.34-.63-.45-.97-.26l-9.05,5.27c-.34,.2-.46,.63-.26,.97,.14,.24,.41,.37,.67,.35Z"/></g><path class="cls-2" d="M34.83,37.49h3.97c.34,0,.64-.24,.7-.58l3.48-18.31-1.4-.27-3.37,17.73h-3.38c-.39,0-.71,.32-.71,.71,0,.39,.32,.71,.71,.71Z"/><path class="cls-2" d="M34.96,31.39c.33,0,.63-.24,.7-.57l1.74-8.85c.08-.39-.18-.76-.56-.84-.39-.08-.76,.18-.84,.56l-1.74,8.85c-.08,.39,.18,.76,.56,.84,.05,0,.09,.01,.14,.01Z"/><path class="cls-2" d="M42.28,19.27h-15.62c-.41,0-.75-.34-.75-.75s.34-.75,.75-.75h15.62c.41,0,.75,.34,.75,.75s-.34,.75-.75,.75Z"/><path class="cls-2" d="M27.59,26.46H1.49c-.41,0-.75-.34-.75-.75s.34-.75,.75-.75H27.59c.41,0,.75,.34,.75,.75s-.34,.75-.75,.75Z"/><rect class="cls-2" x="32.09" y="36.05" width="7.05" height="1.4"/><rect class="cls-2" x="1.11" y="43.69" width="15.76" height="1.5"/></g></svg>