<?xml version="1.0" encoding="UTF-8"?><svg id="Calque_2" xmlns="http://www.w3.org/2000/svg" viewBox="0 0 67.61 67.61"><defs><style>.cls-1{fill:#008d36;}.cls-2{fill:#fff;}</style></defs><g id="Calque_1-2"><circle class="cls-1" cx="33.8" cy="33.8" r="33.8"/><g><path class="cls-2" d="M47.08,25.75c.14-.25,.25-.52,.32-.79l1.83-1.21,3.96,2.29,.98-1.7-3.86-3.75-4.54,.79c-.55-.28-1.17-.39-1.78-.32l-5.23-3.28c-.34-1.77-1.65-3.29-3.51-3.79-1.25-.34-2.56-.16-3.68,.48-1.12,.65-1.93,1.7-2.26,2.95-.19,.71-.21,1.45-.08,2.15l-4.37,6.31c-2.38,.47-4.41,2.24-5.08,4.74-.4,1.51-.26,3.08,.39,4.47l-2.09,10.25,.75,.15c-1.46,.77-2.47,2.3-2.47,4.06v.46h19.52v-.46c0-1.76-1-3.3-2.47-4.06l.75-.15-2.09-10.25c.16-.34,.3-.7,.4-1.07,.33-1.24,.28-2.49-.08-3.63l3.3-7.04,5.76,2.03c.25,.59,.66,1.08,1.17,1.41l1.59,4.34,5.18,1.47,.98-1.7-3.96-2.29,.13-2.2c.2-.2,.38-.42,.52-.67Zm-26.4,5.11c.39-1.46,1.32-2.67,2.63-3.43,.87-.5,1.84-.76,2.81-.76,.49,0,.98,.06,1.47,.19,3.01,.81,4.8,3.91,3.99,6.92-.39,1.46-1.32,2.68-2.63,3.43-1.31,.75-2.83,.95-4.29,.56-1.46-.39-2.67-1.32-3.43-2.63-.75-1.31-.95-2.83-.56-4.29Zm14.27,18.24H17.31c.23-1.8,1.77-3.2,3.63-3.2h10.36c1.86,0,3.41,1.4,3.63,3.2Zm-1.7-3.69c-.59-.28-1.24-.43-1.93-.43h-10.36c-.69,0-1.35,.16-1.93,.43l1.87-9.15c.88,1.17,2.11,2.02,3.55,2.4,.57,.15,1.14,.23,1.71,.23,1.14,0,2.26-.3,3.27-.88,.78-.45,1.44-1.04,1.97-1.74l1.87,9.14Zm-1.33-16.16c-.83-1.55-2.26-2.78-4.09-3.27-.59-.16-1.18-.22-1.76-.22l3.51-5.07c.06,.14,.14,.28,.22,.42,.65,1.12,1.7,1.93,2.95,2.26,.42,.11,.84,.17,1.26,.17,.2,0,.4-.01,.61-.04l-2.69,5.75Zm1.06-6.76c-1.02-.27-1.86-.92-2.39-1.83-.53-.91-.67-1.97-.39-2.99s.92-1.86,1.83-2.39c.61-.35,1.28-.53,1.96-.53,.34,0,.69,.05,1.02,.14,2.1,.56,3.34,2.72,2.78,4.82-.27,1.02-.92,1.86-1.83,2.39-.91,.53-1.97,.67-2.99,.39Zm8.24,1.84l-4.54-1.6c.99-.65,1.7-1.63,2.01-2.78,.09-.34,.14-.68,.16-1.02l4,2.51c-1.04,.57-1.68,1.7-1.63,2.89Zm5.06,.97c-.3,.51-.78,.88-1.35,1.04-.57,.15-1.17,.07-1.69-.22-.51-.3-.88-.78-1.04-1.35-.32-1.18,.39-2.41,1.57-2.72,.19-.05,.39-.08,.58-.08,.39,0,.77,.1,1.11,.3,.51,.3,.88,.78,1.04,1.35,.15,.57,.07,1.17-.22,1.69Z"/><path class="cls-2" d="M36.26,50.39H15.99v-.83c0-1.53,.7-2.95,1.87-3.88l-.22-.04,2.14-10.49c-.65-1.45-.78-3.08-.36-4.62,.68-2.52,2.67-4.41,5.22-4.98l4.19-6.06c-.12-.73-.08-1.45,.11-2.16,.36-1.35,1.23-2.48,2.44-3.18s2.62-.89,3.97-.52c1.87,.5,3.32,2.03,3.74,3.92l4.98,3.13c.6-.05,1.2,.06,1.74,.31l4.61-.8,4.21,4.09-1.31,2.28-4.08-2.36-1.52,1.01c-.08,.26-.19,.51-.32,.74h0c-.13,.23-.3,.45-.48,.65l-.11,1.82,4.08,2.36-1.31,2.27-5.64-1.6-1.61-4.41c-.49-.35-.88-.81-1.14-1.35l-5.29-1.86-3.1,6.6c.35,1.21,.36,2.49,.04,3.7-.09,.34-.21,.67-.37,1.02l2.14,10.5-.22,.04c1.17,.93,1.87,2.35,1.87,3.88v.83Zm-19.52-.75h18.77v-.08c0-1.57-.87-3-2.27-3.73l-.16-.08c-.57-.26-1.16-.4-1.77-.4h-10.36c-.61,0-1.21,.13-1.77,.4l-.16,.08c-1.4,.73-2.27,2.16-2.27,3.73v.08Zm1.79-4.59l.17,.03,1.98-9.72,.5,.67c.84,1.12,1.99,1.9,3.34,2.26,1.59,.42,3.28,.2,4.7-.62,.73-.42,1.35-.97,1.85-1.64l.5-.67,1.98,9.71,.17-.03-2.04-10,.05-.11c.16-.35,.28-.68,.37-1.01,.3-1.12,.28-2.3-.07-3.42l-.04-.14,3.51-7.48,6.24,2.2,.06,.15c.21,.51,.57,.94,1.03,1.24l.1,.07,1.57,4.27,4.71,1.34,.65-1.12-3.84-2.21,.16-2.57,.1-.1c.18-.18,.34-.38,.46-.59h0c.12-.21,.22-.45,.28-.7l.04-.14,2.15-1.42,3.84,2.21,.65-1.12-3.52-3.41-4.47,.78-.11-.06c-.49-.25-1.03-.34-1.57-.28l-.13,.02-5.48-3.44-.03-.16c-.32-1.68-1.59-3.05-3.24-3.49-1.16-.31-2.36-.15-3.4,.45-1.04,.6-1.78,1.56-2.09,2.72-.17,.65-.2,1.32-.07,1.99l.03,.15-4.54,6.56-.15,.03c-2.34,.46-4.18,2.17-4.79,4.46-.38,1.42-.25,2.88,.37,4.22l.05,.11-2.04,10Zm2.42-.45h10.36c.49,0,.97,.07,1.43,.21l-1.57-7.71c-.46,.48-.98,.9-1.57,1.23-1.59,.92-3.49,1.17-5.27,.69-1.26-.34-2.36-1-3.24-1.93l-1.58,7.72c.46-.14,.94-.21,1.43-.21Zm14.42,4.87H16.89l.05-.42c.25-2.01,1.98-3.53,4-3.53h10.36c2.03,0,3.75,1.52,4,3.53l.05,.42Zm-17.6-.75h16.72c-.37-1.42-1.67-2.45-3.18-2.45h-10.36c-1.51,0-2.81,1.03-3.18,2.45Zm8.37-10.38c-.52,0-1.05-.07-1.57-.21-1.55-.42-2.85-1.41-3.66-2.81-.8-1.39-1.02-3.02-.6-4.57h0c.42-1.55,1.41-2.85,2.81-3.66,1.38-.79,3.03-1.01,4.57-.6,3.21,.86,5.12,4.17,4.26,7.38-.42,1.55-1.41,2.85-2.81,3.66-.93,.54-1.96,.81-3,.81Zm-.02-11.3c-.92,0-1.82,.25-2.63,.71-1.22,.7-2.09,1.84-2.46,3.2h0c-.36,1.36-.18,2.78,.53,4,.7,1.22,1.84,2.09,3.2,2.46,1.36,.36,2.78,.18,4-.53,1.22-.7,2.09-1.84,2.46-3.2,.75-2.81-.92-5.71-3.73-6.46-.45-.12-.91-.18-1.37-.18Zm5.82,3.04l-.35-.66c-.82-1.54-2.19-2.63-3.86-3.08-.53-.14-1.08-.2-1.66-.2h-.72s4.3-6.2,4.3-6.2l.27,.6c.06,.13,.13,.26,.2,.39,.6,1.04,1.56,1.78,2.72,2.09,.56,.15,1.15,.19,1.73,.12l.68-.09-3.3,7.04Zm-5.17-4.67c.4,.04,.78,.1,1.16,.2,1.61,.43,3.02,1.45,3.95,2.83l2.13-4.54c-.46,0-.92-.06-1.36-.18-1.31-.35-2.41-1.17-3.11-2.32l-2.77,4Zm17.59,1.37c-.45,0-.89-.12-1.29-.35-.6-.35-1.03-.91-1.21-1.58-.37-1.38,.45-2.81,1.84-3.18,.66-.18,1.38-.08,1.97,.26,.6,.35,1.03,.91,1.21,1.58,.18,.67,.09,1.37-.26,1.97h0c-.35,.6-.91,1.03-1.58,1.21-.22,.06-.45,.09-.68,.09Zm0-4.45c-.16,0-.32,.02-.48,.06-.98,.26-1.57,1.28-1.31,2.26,.13,.48,.43,.88,.86,1.12,.43,.25,.93,.31,1.4,.18,.48-.13,.88-.43,1.12-.86h0c.25-.43,.31-.93,.18-1.4-.13-.48-.43-.88-.86-1.12-.28-.16-.6-.25-.92-.25Zm-2.74,2.53l-5.77-2.03,.63-.42c.91-.6,1.57-1.52,1.85-2.57,.08-.3,.13-.62,.15-.94l.03-.64,5.08,3.19-.56,.31c-.92,.5-1.48,1.5-1.43,2.54l.02,.55Zm-4.16-2.26l3.4,1.2c.1-.92,.57-1.78,1.3-2.36l-3-1.89c-.03,.16-.06,.32-.1,.48-.27,1-.82,1.89-1.59,2.56Zm-3.45,.4c-.37,0-.75-.05-1.12-.15-1.11-.3-2.04-1.01-2.62-2.01-.58-1-.73-2.16-.43-3.27,.3-1.11,1.01-2.04,2.01-2.62,.98-.57,2.17-.73,3.27-.43,1.11,.3,2.04,1.01,2.62,2.01s.73,2.16,.43,3.27c-.3,1.11-1.01,2.04-2.01,2.62-.67,.38-1.4,.58-2.15,.58Zm-.01-7.87c-.62,0-1.23,.17-1.77,.48-.82,.48-1.41,1.24-1.66,2.16-.25,.92-.12,1.88,.36,2.7,.48,.82,1.24,1.41,2.16,1.66,.92,.25,1.88,.12,2.7-.36,.82-.47,1.41-1.24,1.66-2.16,.25-.92,.12-1.88-.36-2.7-.48-.82-1.24-1.41-2.16-1.66-.3-.08-.62-.12-.93-.12Z"/></g></g></svg>