<?xml version="1.0" encoding="UTF-8"?><svg id="Calque_2" xmlns="http://www.w3.org/2000/svg" viewBox="0 0 67.61 67.61"><defs><style>.cls-1{fill:#008d36;}.cls-2{fill:#fff;}</style></defs><g id="Calque_1-2"><circle class="cls-1" cx="33.8" cy="33.8" r="33.8"/><path class="cls-2" d="M34.67,36.18l3.83-2.21,1.85,.5c.41,.11,.83,.17,1.26,.17,2.18,0,4.11-1.48,4.67-3.59l.58-2.15c.11-.4-.13-.82-.54-.93l-2.15-.58c-.41-.11-.83-.17-1.25-.17-2.18,0-4.11,1.48-4.67,3.59l-.5,1.85-3.07,1.77v-4.04l2.11-2.11c2.65-2.65,2.65-6.97,0-9.63l-2.34-2.34c-.14-.14-.34-.22-.54-.22s-.39,.08-.54,.22l-2.34,2.34c-1.29,1.29-1.99,3-1.99,4.81s.71,3.53,1.99,4.81l2.11,2.11v4.04l-3.07-1.77-.5-1.85c-.57-2.11-2.49-3.59-4.67-3.59-.42,0-.84,.06-1.25,.17l-2.15,.58c-.4,.11-.65,.52-.54,.93l.58,2.15c.57,2.11,2.49,3.59,4.67,3.59h0c.42,0,.84-.06,1.25-.17l1.85-.5,3.83,2.21v7.64l-3.07-1.77-.5-1.85c-.57-2.11-2.49-3.59-4.67-3.59-.42,0-.84,.06-1.26,.17l-2.15,.58c-.4,.11-.65,.52-.54,.93l.58,2.15c.57,2.11,2.49,3.59,4.67,3.59h0c.42,0,.84-.06,1.25-.17l1.85-.5,3.83,2.21v3.7h-5.7c-.42,0-.76,.34-.76,.76s.34,.76,.76,.76h12.92c.42,0,.76-.34,.76-.76s-.34-.76-.76-.76h-5.7v-3.7l3.83-2.21,1.85,.5c.41,.11,.83,.17,1.26,.17,2.18,0,4.11-1.48,4.67-3.59l.58-2.15c.11-.4-.13-.82-.54-.93l-2.15-.58c-.41-.11-.83-.17-1.26-.17-2.18,0-4.11,1.48-4.67,3.59l-.5,1.85-3.07,1.77v-7.64Zm5.03-4.98c.39-1.45,1.71-2.46,3.2-2.46,.29,0,.58,.04,.86,.11l1.42,.38-.38,1.42c-.39,1.45-1.71,2.46-3.2,2.46-.29,0-.58-.04-.86-.11l-1.42-.38,.38-1.42Zm-12.62,1.8c-.28,.08-.57,.11-.86,.11h0c-1.5,0-2.82-1.01-3.2-2.46l-.38-1.42,1.42-.38c.28-.08,.57-.11,.86-.11,1.5,0,2.82,1.01,3.2,2.46l.38,1.42-1.42,.38Zm0,9.39c-.28,.08-.57,.11-.86,.11h0c-1.5,0-2.82-1.01-3.2-2.46l-.38-1.42,1.42-.38c.28-.08,.57-.11,.86-.11,1.5,0,2.82,1.01,3.2,2.46l.38,1.42-1.42,.38Zm12.62-1.8c.39-1.45,1.71-2.46,3.2-2.46,.29,0,.58,.04,.86,.11l1.42,.38-.38,1.42c-.39,1.45-1.71,2.46-3.2,2.46-.29,0-.58-.04-.86-.11l-1.42-.38,.38-1.42Zm-7.59-13.39c-1-1-1.55-2.33-1.55-3.74s.55-2.74,1.55-3.74l1.8-1.8,1.8,1.8c2.06,2.06,2.06,5.42,0,7.48l-1.04,1.04v-4.78c0-.42-.34-.76-.76-.76s-.76,.34-.76,.76v4.78l-1.04-1.04Z"/></g></svg>