<?xml version="1.0" encoding="UTF-8"?><svg id="Calque_2" xmlns="http://www.w3.org/2000/svg" viewBox="0 0 67.61 67.61"><defs><style>.cls-1{fill:#fff;}.cls-2{fill:#008d36;fill-rule:evenodd;}</style></defs><g id="Calque_1-2"><path class="cls-2" d="M0,33.8C0,15.13,15.13,0,33.8,0s33.8,15.13,33.8,33.8-15.13,33.8-33.8,33.8S0,52.47,0,33.8"/><g><g><path class="cls-1" d="M33.95,35.73c-.82,0-1.64-.32-2.3-.95l-7.13-6.9,1.13-1.17,7.13,6.9c.69,.67,1.65,.67,2.34,0l7.22-6.98,1.13,1.17-7.22,6.98c-.65,.63-1.48,.95-2.3,.95Z"/><g><rect class="cls-1" x="24.1" y="34.39" width="7.53" height="1.63" transform="translate(-16.83 30.91) rotate(-46.15)"/><rect class="cls-1" x="39.23" y="31.44" width="1.63" height="7.53" transform="translate(-13.22 37.57) rotate(-43.86)"/></g><path class="cls-1" d="M41.68,39.38h-15.46c-1.36,0-2.46-1.22-2.46-2.73v-8.08c0-1.62,1.19-2.95,2.65-2.95h15.08c1.46,0,2.65,1.32,2.65,2.95v8.08c0,1.5-1.1,2.73-2.46,2.73Zm-15.27-12.13c-.56,0-1.02,.61-1.02,1.32v8.08c0,.6,.38,1.1,.84,1.1h15.46c.45,0,.83-.5,.83-1.1v-8.08c0-.72-.47-1.32-1.02-1.32h-15.08Z"/></g><path class="cls-1" d="M46.61,50.96h-1.2l-.26-.3-3.98-4.83h-4.17c-2.1,0-3.81-1.71-3.81-3.81v-.92h1.63v.92c0,1.2,.98,2.18,2.19,2.18h4.94l3.04,3.7v-3.7h3.53c1.2,0,2.18-.98,2.18-2.18v-4.49c0-1.2-.98-2.18-2.18-2.18h-2.67v-1.63h2.67c2.1,0,3.81,1.71,3.81,3.81v4.49c0,2.1-1.71,3.81-3.81,3.81h-1.91v5.13Z"/><path class="cls-1" d="M27.32,49.1c-6.67,0-12.09-5.42-12.09-12.09,0-1.12,.16-2.25,.48-3.36,.09-.3,.33-.52,.63-.57l3.51-.64c.43-.08,.84,.2,.94,.62l1.15,5.09c.09,.39-.12,.79-.49,.93l-.85,.34c.72,2.03,2.33,3.63,4.37,4.34l.54-1.12c.16-.34,.54-.52,.91-.44l4.96,1.13c.43,.1,.7,.52,.62,.95l-.75,3.72c-.06,.3-.28,.54-.57,.62-1.11,.32-2.24,.48-3.36,.48Zm-10.17-14.52c-.19,.81-.29,1.62-.29,2.43,0,5.77,4.69,10.46,10.46,10.46,.81,0,1.63-.1,2.43-.29l.49-2.45-3.56-.81-.56,1.16c-.17,.35-.56,.53-.93,.44-3.16-.78-5.6-3.23-6.39-6.39-.1-.4,.11-.8,.49-.95l.9-.36-.82-3.65-2.24,.41Z"/><g><rect class="cls-1" x="23.93" y="21.77" width="1.63" height="1.63"/><rect class="cls-1" x="20.68" y="18.51" width="1.63" height="1.63"/><rect class="cls-1" x="27.19" y="16.89" width="1.63" height="1.63"/><rect class="cls-1" x="15.8" y="28.2" width="1.63" height="1.63"/><rect class="cls-1" x="20.68" y="24.94" width="1.63" height="1.63"/><rect class="cls-1" x="17.43" y="21.77" width="1.63" height="1.63"/></g><g><rect class="cls-1" x="42.56" y="21.77" width="1.63" height="1.63"/><rect class="cls-1" x="36.06" y="21.77" width="1.63" height="1.63"/><rect class="cls-1" x="30.44" y="21.77" width="1.63" height="1.63"/><rect class="cls-1" x="45.82" y="18.51" width="1.63" height="1.63"/><rect class="cls-1" x="33.25" y="18.51" width="1.63" height="1.63"/><rect class="cls-1" x="39.31" y="16.89" width="1.63" height="1.63"/><rect class="cls-1" x="50.7" y="28.2" width="1.63" height="1.63"/><rect class="cls-1" x="45.82" y="24.94" width="1.63" height="1.63"/><rect class="cls-1" x="49.07" y="21.77" width="1.63" height="1.63"/></g></g></g></svg>