<?xml version="1.0" encoding="UTF-8"?><svg id="Calque_2" xmlns="http://www.w3.org/2000/svg" viewBox="0 0 67.61 67.61"><defs><style>.cls-1{fill:#008d36;}.cls-2{fill:#fff;}</style></defs><g id="Calque_1-2"><circle class="cls-1" cx="33.8" cy="33.8" r="33.8"/><g><path class="cls-2" d="M22.89,45.32c-2.44,0-4.43-1.99-4.43-4.43s1.99-4.43,4.43-4.43,4.43,1.99,4.43,4.43-1.99,4.43-4.43,4.43Zm0-7.54c-1.71,0-3.11,1.39-3.11,3.11s1.39,3.11,3.11,3.11,3.11-1.39,3.11-3.11-1.39-3.11-3.11-3.11Z"/><path class="cls-2" d="M24.55,50.98h-3.33c-.37,0-.66-.3-.66-.66v-.75s-.03,0-.04-.01l-.34,.6c-.18,.32-.58,.43-.9,.25l-2.9-1.64c-.15-.09-.27-.23-.31-.4-.05-.17-.02-.35,.06-.5l.36-.64-.63,.37c-.15,.09-.33,.11-.5,.07-.17-.04-.32-.15-.41-.31l-1.69-2.86c-.09-.15-.12-.33-.07-.5,.04-.17,.15-.32,.31-.41l.63-.37h-.66c-.37,0-.66-.3-.66-.66v-3.33c0-.37,.3-.66,.66-.66h.73l-.64-.37c-.32-.18-.43-.59-.24-.91l1.66-2.88c.09-.15,.23-.26,.4-.31,.17-.05,.35-.02,.5,.07l.64,.37-.37-.63c-.09-.15-.11-.33-.07-.5,.05-.17,.16-.31,.31-.4l2.88-1.67c.15-.09,.33-.11,.5-.07,.17,.05,.31,.16,.4,.31l.38,.65s0,0,0,0v-.75c0-.37,.3-.66,.66-.66h3.33c.37,0,.66,.3,.66,.66v.63l.26-.44c.18-.32,.59-.43,.9-.24l2.88,1.66c.32,.18,.43,.59,.25,.9l-.31,.54s.03,.03,.04,.04l.54-.31c.32-.18,.72-.08,.91,.24l1.67,2.88c.09,.15,.11,.33,.07,.5-.04,.17-.16,.32-.31,.4l-.53,.31h.73c.37,0,.66,.3,.66,.66v3.33c0,.37-.3,.66-.66,.66h-.66l.42,.23c.32,.18,.43,.58,.26,.9l-1.62,2.9c-.18,.32-.58,.43-.9,.26l-.55-.3s-.03,.03-.04,.04l.32,.54c.19,.31,.09,.72-.23,.91l-2.85,1.71c-.15,.09-.33,.12-.5,.07-.17-.04-.32-.15-.41-.3l-.33-.55v.7c0,.37-.3,.66-.66,.66Zm-2.66-1.33h2v-.61c0-.31,.22-.59,.53-.65,.27-.05,.55-.13,.86-.23,.3-.1,.62,.02,.78,.29l.29,.48,1.72-1.03-.26-.43c-.16-.27-.11-.63,.13-.84,.24-.21,.48-.45,.69-.69,.21-.23,.55-.29,.82-.14l.42,.23,.97-1.75-.38-.21c-.28-.15-.41-.48-.31-.79,.1-.32,.18-.6,.23-.86,.06-.31,.33-.53,.65-.53h.61v-2h-.61c-.32,0-.59-.22-.65-.53-.06-.27-.13-.56-.24-.88-.1-.3,.02-.63,.3-.78l.43-.25-1.01-1.73-.42,.25c-.27,.16-.62,.1-.83-.13-.22-.25-.46-.48-.69-.69-.24-.21-.3-.56-.14-.83l.24-.42-1.73-1-.25,.43c-.16,.27-.48,.4-.78,.3-.31-.1-.58-.17-.84-.23-.31-.06-.53-.33-.53-.65v-.61h-2v.61c0,.32-.22,.59-.53,.65-.27,.06-.57,.14-.9,.25-.3,.1-.63-.02-.79-.3l-.31-.53-1.73,1,.31,.54c.16,.27,.1,.62-.13,.83-.23,.2-.45,.42-.65,.65-.21,.24-.55,.29-.83,.13l-.54-.31-1,1.73,.54,.31c.27,.16,.4,.49,.3,.79-.11,.32-.19,.61-.24,.89-.06,.31-.33,.53-.65,.53h-.61v2h.61c.32,0,.59,.22,.65,.53,.05,.26,.13,.54,.23,.85,.1,.3-.02,.62-.29,.78l-.58,.34,1.02,1.72,.54-.32c.28-.16,.63-.11,.84,.13,.19,.22,.41,.44,.65,.65,.23,.21,.29,.55,.13,.82l-.3,.54,1.74,.98,.28-.49c.16-.28,.49-.4,.79-.3,.35,.12,.65,.2,.93,.26,.31,.06,.53,.33,.53,.65v.61Z"/><rect class="cls-2" x="41.46" y="32.93" width="1.33" height="3.98"/><rect class="cls-2" x="44.11" y="32.93" width="1.33" height="3.98"/><rect class="cls-2" x="46.76" y="32.93" width="1.33" height="3.98"/><g><path class="cls-2" d="M42.12,29.62h-2.75l-1.79-11.94h1.88v-1.33h-15.92c-3.05,0-4.36,2.52-4.63,3.85l-1.91,9.54c-1.51,.8-2.86,1.9-3.97,3.28l1.03,.83c2.15-2.69,5.36-4.23,8.8-4.23,6.22,0,11.28,5.06,11.28,11.28,0,1.29-.22,2.55-.64,3.76-.07,.2-.04,.43,.08,.6,.12,.18,.33,.28,.54,.28h8.72c.48,3,3.08,5.31,6.21,5.31,3.47,0,6.3-2.83,6.3-6.3,0-1.81-.77-3.43-1.99-4.58v-6.36c0-1.38-.97-3.98-4.64-3.98h-5.31m-14.59-11.94h7.39l.2,1.33h-7.59v-1.33Zm-1.33,11.51c-1.44-.57-3-.9-4.64-.9-1.52,0-3,.27-4.39,.79l1.72-8.62c.02-.11,.59-2.78,3.33-2.78h3.98v11.51Zm1.33-8.86h7.79l1.39,9.29h-9.18v-9.29Zm1.74,10.61h7.55v4.64h-3.84c-.85-1.83-2.13-3.42-3.71-4.64Zm7.55,5.97v1.99h-2.83c-.11-.68-.27-1.35-.48-1.99h3.31Zm4.66,7.3h-7.75c.29-1.08,.44-2.19,.44-3.32,0-.22-.02-.44-.03-.66h3.35c.37,0,.66-.3,.66-.66v-8.62h9.29c2.26,0,2.98,1.2,3.21,1.99h-1.22c-.37,0-.66,.3-.66,.66v4.73c-.32-.05-.66-.09-.99-.09-3.36,0-6.11,2.65-6.28,5.97Zm9.27-9.95v4.73c-.21-.12-.44-.21-.66-.31v-4.43h.66Zm-2.98,15.25c-2.74,0-4.97-2.23-4.97-4.97s2.23-4.97,4.97-4.97,4.97,2.23,4.97,4.97-2.23,4.97-4.97,4.97Z"/><path class="cls-2" d="M49.08,41.76c-1.53,0-2.78,1.25-2.78,2.78s1.25,2.78,2.78,2.78,2.78-1.25,2.78-2.78-1.25-2.78-2.78-2.78Zm0,4.23c-.8,0-1.45-.65-1.45-1.45s.65-1.45,1.45-1.45,1.45,.65,1.45,1.45-.65,1.45-1.45,1.45Z"/></g></g></g></svg>