<?xml version="1.0" encoding="UTF-8"?><svg id="Calque_2" xmlns="http://www.w3.org/2000/svg" viewBox="0 0 67.61 67.61"><defs><style>.cls-1{fill:#008d36;}.cls-2{fill:#fff;}</style></defs><g id="Calque_1-2"><circle class="cls-1" cx="33.8" cy="33.8" r="33.8"/><g><g><path class="cls-2" d="M24.9,31.77h-7.42v-13.5h.75c3.67,0,6.05,10.49,6.48,12.6l.19,.9Zm-5.92-1.5h4.07c-1.01-4.4-2.65-8.86-4.07-10.14v10.14Z"/><path class="cls-2" d="M18.23,48.27h-.75v-13.5h7.42l-.19,.9c-.44,2.1-2.81,12.6-6.48,12.6Zm.75-12v10.14c1.42-1.28,3.06-5.74,4.07-10.14h-4.07Z"/><rect class="cls-2" x="20.29" y="30.97" width="1.5" height="4"/></g><g><path class="cls-2" d="M35.23,31.77h-7.42v-13.5h.75c3.67,0,6.05,10.49,6.48,12.6l.19,.9Zm-5.92-1.5h4.07c-1.01-4.4-2.65-8.86-4.07-10.14v10.14Z"/><path class="cls-2" d="M28.56,48.27h-.75v-13.5h7.42l-.19,.9c-.44,2.1-2.81,12.6-6.48,12.6Zm.75-12v10.14c1.42-1.28,3.06-5.74,4.07-10.14h-4.07Z"/><rect class="cls-2" x="30.62" y="30.97" width="1.5" height="4"/></g><g><path class="cls-2" d="M45.56,31.77h-7.42v-13.5h.75c3.67,0,6.05,10.49,6.48,12.6l.19,.9Zm-5.92-1.5h4.07c-1.01-4.4-2.65-8.86-4.07-10.14v10.14Z"/><path class="cls-2" d="M38.89,48.27h-.75v-13.5h7.42l-.19,.9c-.44,2.1-2.81,12.6-6.48,12.6Zm.75-12v10.14c1.42-1.28,3.06-5.74,4.07-10.14h-4.07Z"/><rect class="cls-2" x="40.96" y="30.97" width="1.5" height="4"/></g><g><path class="cls-2" d="M55.9,31.77h-7.42v-13.5h.75c3.67,0,6.05,10.49,6.48,12.6l.19,.9Zm-5.92-1.5h4.07c-1.01-4.4-2.65-8.86-4.07-10.14v10.14Z"/><path class="cls-2" d="M49.23,48.27h-.75v-13.5h7.42l-.19,.9c-.44,2.1-2.81,12.6-6.48,12.6Zm.75-12v10.14c1.42-1.28,3.06-5.74,4.07-10.14h-4.07Z"/><rect class="cls-2" x="51.29" y="30.97" width="1.5" height="4"/></g><rect class="cls-2" x="11.47" y="32.56" width="40.17" height="1.5"/></g></g></svg>