<?xml version="1.0" encoding="utf-8"?>
<!-- Generator: Adobe Illustrator 22.1.0, SVG Export Plug-In . SVG Version: 6.00 Build 0)  -->
<svg version="1.1" id="Calque_1" xmlns="http://www.w3.org/2000/svg" xmlns:xlink="http://www.w3.org/1999/xlink" x="0px" y="0px"
	 viewBox="0 0 12 13" style="enable-background:new 0 0 12 13;" xml:space="preserve">
<style type="text/css">
	.st0{fill:#252525;}
</style>
<path class="st0" d="M8.1,6.7C9,6,9.6,5,9.6,3.7C9.6,1.7,8,0,5.9,0c-2,0-3.7,1.7-3.7,3.7c0,1.2,0.6,2.3,1.6,3C1.6,7.6,0,9.7,0,12.2
	c0.1,0.2,0.3,0.4,0.5,0.4c0.3,0,0.5-0.1,0.6-0.4c0-2.5,2.4-4.8,4.8-4.8c2.5,0,4.8,2.4,4.8,4.8c0.1,0.2,0.3,0.4,0.5,0.4
	c0.3,0,0.5-0.1,0.6-0.4C11.9,9.7,10.3,7.6,8.1,6.7z M3.3,3.7c0-1.4,1.2-2.6,2.6-2.6c1.4,0,2.6,1.2,2.6,2.6c0,1.4-1.2,2.6-2.6,2.6
	C4.5,6.3,3.3,5.1,3.3,3.7z"/>
</svg>
