<?xml version="1.0" encoding="utf-8"?>
<!-- Generator: Adobe Illustrator 23.0.3, SVG Export Plug-In . SVG Version: 6.00 Build 0)  -->
<svg version="1.1" id="Calque_1" xmlns="http://www.w3.org/2000/svg" xmlns:xlink="http://www.w3.org/1999/xlink" x="0px" y="0px"
	 viewBox="0 0 42 27" style="enable-background:new 0 0 42 27;" xml:space="preserve">
<style type="text/css">
	.st0{fill:#957A6B;}
</style>
<path id="Shape" class="st0" d="M23,9.3c0,7.2,7.2,15.7,13,17.6l3.1-2.3c-3.8-2.9-4.1-6.6-3.9-6.7c3.9-1.1,6.8-4.6,6.8-8.6
	c0-5-4.2-9-9.5-9S23,4.3,23,9.3"/>
<path class="st0" d="M0,9.1C0,16.5,7.2,25,13,27l3.1-2.4c-3.8-2.9-4.2-6.7-3.9-6.7c3.9-1.1,6.8-4.6,6.8-8.8c0-5-4.3-9.1-9.5-9.1
	S0,4.1,0,9.1"/>
</svg>
