<?xml version="1.0" encoding="utf-8"?>
<!-- Generator: Adobe Illustrator 22.1.0, SVG Export Plug-In . SVG Version: 6.00 Build 0)  -->
<svg version="1.1"
	 id="Calque_1" xmlns:cc="http://creativecommons.org/ns#" xmlns:dc="http://purl.org/dc/elements/1.1/" xmlns:inkscape="http://www.inkscape.org/namespaces/inkscape" xmlns:rdf="http://www.w3.org/1999/02/22-rdf-syntax-ns#" xmlns:sodipodi="http://sodipodi.sourceforge.net/DTD/sodipodi-0.dtd" xmlns:svg="http://www.w3.org/2000/svg"
	 xmlns="http://www.w3.org/2000/svg" xmlns:xlink="http://www.w3.org/1999/xlink" x="0px" y="0px" viewBox="0 0 78.5 56"
	 style="enable-background:new 0 0 78.5 56;" xml:space="preserve">
<style type="text/css">
	.st0{fill:#0B8E36;}
</style>
<path class="st0" d="M22.6,26v7.7h12.8c-0.5,3.3-3.9,9.8-12.8,9.8c-7.7,0-14-6.4-14-14.3s6.3-14.3,14-14.3c4.4,0,7.3,1.9,9,3.5
	l6.1-5.9c-3.9-3.7-9-5.9-15.1-5.9C10.1,6.6,0,16.8,0,29.2s10.1,22.6,22.6,22.6c13,0,21.7-9.2,21.7-22.1c0-1.5-0.2-2.6-0.4-3.7
	C43.9,26,22.6,26,22.6,26z M22.6,26l54.9,6.5h-9.7v9.7h-6.5v-9.7h-9.7V26h9.7v-9.7h6.5V26h9.7v6.5L22.6,26z"/>
</svg>
