<svg xmlns="http://www.w3.org/2000/svg" xmlns:xlink="http://www.w3.org/1999/xlink" width="48" height="48" viewBox="0 0 48 48">
  <defs>
    <path id="icon-calendar-a" d="M36.527542,20.3503731 L36.5259551,34.6012405 C36.5259551,35.1106535 36.1101725,35.526436 35.6007596,35.526436 L12.897763,35.526436 C12.3883501,35.526436 11.9725675,35.1106535 11.9725675,34.6012405 L11.9725675,20.3503731 L36.527542,20.3503731 Z M35.6007596,11.3428093 C37.2670637,11.3428093 38.6223243,12.6980699 38.6239113,14.364374 L38.6239113,34.6012405 C38.6239113,36.2675446 37.2686506,37.6228053 35.6023465,37.6228053 L12.897763,37.6228053 C11.2314589,37.6228053 9.87461133,36.2675446 9.87461133,34.6012405 L9.87461133,14.365961 C9.87461133,12.6980699 11.2314589,11.3428093 12.897763,11.3428093 L15.9605887,11.3428093 L15.9605887,13.4407655 L12.897763,13.4407655 C12.3883501,13.4407655 11.9725675,13.8549611 11.9725675,14.365961 L11.9725675,18.2524169 L36.5259551,18.2524169 L36.5259551,14.365961 C36.5259551,13.8549611 36.1101725,13.4407655 35.6007596,13.4407655 L31.2191733,13.4407655 L31.2191733,14.365961 C31.2191733,14.9436131 30.7494342,15.4149391 30.1717821,15.4149391 C29.5925431,15.4149391 29.122804,14.9436131 29.122804,14.365961 L29.122804,9.92407036 C29.122804,9.34483132 29.5925431,8.87509226 30.1717821,8.87509226 C30.7494342,8.87509226 31.2191733,9.34483132 31.2191733,9.92407036 L31.2191733,11.3428093 L35.6007596,11.3428093 Z M18.3264231,15.414463 C17.748771,15.414463 17.277445,14.943137 17.277445,14.3654849 L17.277445,9.92359428 C17.277445,9.34594219 17.748771,8.87461618 18.3264231,8.87461618 C18.9040752,8.87461618 19.3754012,9.34594219 19.3754012,9.92359428 L19.3754012,11.3423332 L27.8053129,11.3423332 L27.8053129,13.4402894 L19.3754012,13.4402894 L19.3754012,14.3654849 C19.3754012,14.943137 18.9040752,15.414463 18.3264231,15.414463 Z"/>
  </defs>
  <g fill="none" fill-rule="evenodd">
    <use fill="#F26C4A" xlink:href="#icon-calendar-a"/>
  </g>
</svg>
