<?xml version="1.0" encoding="UTF-8"?>
<svg width="45px" height="45px" viewBox="0 0 45 45" version="1.1" xmlns="http://www.w3.org/2000/svg" xmlns:xlink="http://www.w3.org/1999/xlink">
    <!-- Generator: Sketch 49.3 (51167) - http://www.bohemiancoding.com/sketch -->
    <title>Mask</title>
    <desc>Created with Sketch.</desc>
    <defs>
        <path d="M1.15030645,27.4237317 L3.93837097,30.2068876 C3.98627419,30.1634761 4.03466129,30.1219941 4.08353226,30.0800297 C4.32208065,29.880337 4.56933871,29.6922208 4.82966129,29.5205044 C5.31256452,29.2021538 5.83320968,28.9407205 6.37901613,28.7477807 C7.1111129,28.4873121 7.8828871,28.3498425 8.65901613,28.3204192 C9.72498387,28.2794195 10.8030484,28.4434183 11.7954677,28.8384624 C12.3093387,29.0429785 12.7980484,29.3077883 13.2514355,29.6232448 C13.6680484,29.9131368 14.0536935,30.2445108 14.4093387,30.6067552 C14.7504677,30.9550114 15.0635323,31.3307616 15.3374032,31.7340056 C15.6349839,32.1719788 15.8851452,32.6413048 16.0796613,33.1333011 C16.3070806,33.7087439 16.4570806,34.3126453 16.5315968,34.9261937 C16.5495,35.075722 16.5630484,35.2257327 16.5727258,35.3762257 C16.5765968,35.437484 16.5799839,35.4977777 16.5824032,35.5585537 C16.583371,35.5884594 16.5853065,35.618365 16.5853065,35.647306 C16.5853065,35.7051879 16.5765968,35.7611404 16.5717581,35.81854 C16.5703065,35.8426575 16.5698226,35.8662926 16.5688548,35.8908924 C16.568371,35.9463626 16.568371,36.0023151 16.568371,36.0577853 C16.5659516,36.1547375 16.5659516,36.1537728 16.5620806,36.2502427 C16.5490161,36.4967232 16.5282097,36.7427214 16.4948226,36.9877549 C16.433371,37.4329633 16.3332097,37.874313 16.1924032,38.3011922 C15.9974032,38.8939995 15.7240161,39.459313 15.3819194,39.981215 C15.1670806,40.3092126 14.9251452,40.6183985 14.6638548,40.9116669 L17.4688548,43.711705 L43.7735323,17.5230288 L40.9685323,14.7225084 C40.9186935,14.7673669 40.8678871,14.810296 40.8170806,14.8537074 C40.7445,14.9144834 40.7445,14.9144834 40.6704677,14.9742947 C40.3796613,15.2067871 40.0748226,15.4219149 39.7535323,15.6114782 C39.1762742,15.9520169 38.5520806,16.2105561 37.9032097,16.377449 C37.2364355,16.5491654 36.5459516,16.6229649 35.8574032,16.6147649 C34.950629,16.6046356 34.0453065,16.4498014 33.1970806,16.1251803 C32.7103065,15.9380288 32.2448226,15.6978188 31.8103065,15.4108209 C31.3607903,15.1146584 30.9451452,14.770261 30.5643387,14.3901697 C30.2275645,14.0544545 29.9188548,13.6907631 29.6464355,13.3010248 C29.3478871,12.8731809 29.0943387,12.414949 28.8949839,11.9335644 C28.5374032,11.0696767 28.3607903,10.1406718 28.3409516,9.20780813 C28.3220806,8.33716753 28.4353065,7.46315049 28.7091774,6.63495663 C28.9090161,6.02767879 29.1930484,5.44934191 29.5472419,4.91634586 C29.7562742,4.60233643 29.9885323,4.30713862 30.2382097,4.02496424 L30.2440161,4.0186937 L27.4554677,1.23505554 C18.6867581,9.96461427 9.91853226,18.694173 1.15030645,27.4237317 M27.1825645,0.173404595 C27.2464355,0.137228393 27.2604677,0.123240262 27.3325645,0.103946287 C27.4404677,0.075487675 27.5565968,0.0856170116 27.6577258,0.1324049 C27.7245,0.164239957 27.7365968,0.180157486 27.7927258,0.227427724 L31.2451452,3.67333156 C31.2920806,3.72880173 31.3085323,3.74086047 31.3395,3.80790703 C31.4111129,3.95888238 31.395629,4.14121044 31.3003065,4.27916236 C31.2674032,4.32691494 31.2248226,4.36502054 31.1846613,4.40650259 C31.1643387,4.42676126 31.1445,4.44750228 31.1246613,4.4682433 C31.0651452,4.53094872 31.065629,4.53046637 31.0070806,4.59365414 C30.7840161,4.84061701 30.5749839,5.09915627 30.3872419,5.3740954 C30.0591774,5.85451537 29.7969194,6.37931147 29.6145,6.93160149 C29.3836935,7.63052572 29.2845,8.36659084 29.2922419,9.10072657 C29.3009516,9.9453203 29.4528871,10.7879846 29.7765968,11.5703553 C29.9493387,11.9885522 30.1695,12.3874551 30.428371,12.7578994 C30.668371,13.1018145 30.9417581,13.4220945 31.2388548,13.7187393 C31.8378871,14.3168526 32.5380484,14.8141547 33.3185323,15.1484229 C33.7351452,15.3268921 34.1715968,15.4576088 34.6172419,15.5429846 C35.0580484,15.6264311 35.5065968,15.6655014 35.955629,15.6655014 C36.7162742,15.6659837 37.4769194,15.5507022 38.1945,15.2955394 C38.7717581,15.0910233 39.3151452,14.7987196 39.8086935,14.4374399 C40.1053065,14.2199003 40.3825645,13.979208 40.6448226,13.7221158 L40.7082097,13.6690574 C40.7720806,13.6333635 40.7865968,13.6193754 40.8582097,13.6010461 C40.9651452,13.5735522 41.0807903,13.5836815 41.1809516,13.6309518 C41.2482097,13.6623045 41.2598226,13.6777397 41.3159516,13.7250099 L44.7848226,17.187796 C44.8327258,17.2437485 44.8482097,17.2553249 44.8801452,17.3228538 C44.9391774,17.4497117 44.9391774,17.5977929 44.8801452,17.7246508 C44.8477258,17.7916974 44.8322419,17.8037561 44.7843387,17.8597086 L17.8051452,44.7198151 C17.7490161,44.7675677 17.7369194,44.7830029 17.6696613,44.8143556 C17.5424032,44.8732022 17.3938548,44.8732022 17.2665968,44.8143556 C17.1993387,44.7825205 17.1877258,44.7670854 17.1311129,44.7193328 L13.6617581,41.2565467 C13.6148226,41.2010765 13.5988548,41.1890178 13.5674032,41.1219712 C13.4962742,40.9700312 13.5117581,40.7877031 13.6080484,40.6497512 C13.6404677,40.6029633 13.6811129,40.5663048 13.7212742,40.5257874 C13.7411129,40.5055288 13.7604677,40.4857524 13.7798226,40.4654938 C13.8369194,40.4052001 13.8364355,40.4056824 13.8935323,40.3449064 C14.0386935,40.1847664 14.1790161,40.0202853 14.3101452,39.8480866 C14.5627258,39.5176773 14.7843387,39.1621858 14.9677258,38.788365 C15.218371,38.2775571 15.3954677,37.7329846 15.4995,37.172977 C15.5643387,36.8261678 15.5986935,36.4754998 15.6132097,36.1233848 C15.6161129,36.0269149 15.6141774,35.9309274 15.6165968,35.8349399 C15.6195,35.7683757 15.6248226,35.7022938 15.6320806,35.636212 L15.6311129,35.6415178 C15.6286935,35.5730242 15.6257903,35.5045306 15.6214355,35.436037 C15.6161129,35.3564493 15.6161129,35.3564493 15.6093387,35.2768617 C15.5880484,35.0419575 15.5570806,34.8089828 15.5125645,34.5784198 C15.4298226,34.1544347 15.3045,33.7391319 15.135629,33.3411937 C14.8065968,32.5675053 14.3164355,31.8709928 13.7280484,31.2709502 C13.4140161,30.951635 13.073371,30.6583666 12.705629,30.402239 C12.3340161,30.1436998 11.9348226,29.9237485 11.5153065,29.7510674 C10.6264355,29.3839995 9.65530645,29.2330242 8.69579032,29.2701651 C8.01595161,29.2957296 7.3395,29.4143876 6.69885484,29.6420565 C6.12353226,29.8470549 5.58159677,30.1374292 5.0895,30.4982266 C4.79579032,30.712872 4.52240323,30.9521173 4.26353226,31.2072801 L4.20014516,31.2598562 C4.13579032,31.2960324 4.12175806,31.3095382 4.05014516,31.3283498 C3.94272581,31.3568084 3.82708065,31.3461967 3.72643548,31.2994089 C3.65966129,31.2680561 3.64756452,31.2521386 3.59143548,31.2048684 L0.139016129,27.7589645 C0.0915967742,27.703012 0.0756290323,27.6914356 0.0441774194,27.6239067 C-0.0148548387,27.4970488 -0.0148548387,27.3489676 0.0441774194,27.2221097 C0.0761129032,27.1550631 0.0915967742,27.1430044 0.1395,27.0870519 L27.1186935,0.226945374 C27.1399839,0.209098448 27.1612742,0.191251522 27.1825645,0.173404595 M20.7396498,9.36937847 L20.3693471,9.73875695 L20,9.36937847 L20.3703027,9 C20.4930999,9.12264892 20.6168526,9.24625232 20.7396498,9.36937847 M21.4788218,10.1081354 L21.1085191,10.4775139 L20.739172,10.1081354 L21.1089969,9.73875695 C21.2327497,9.86236034 21.3555468,9.9854865 21.4788218,10.1081354 M22.2179938,10.8478468 L21.8476911,11.2172253 L21.4778662,10.8473696 L21.8481689,10.4779911 C21.9719216,10.6015945 22.0947188,10.7242434 22.2179938,10.8478468 M22.9571657,11.5866038 L22.586863,11.9559823 L22.217516,11.5866038 L22.5878187,11.2172253 C22.7106158,11.3403515 22.8338908,11.4634776 22.9571657,11.5866038 M23.6963377,12.325838 L23.326035,12.6952164 L22.9562101,12.325838 L23.3269906,11.9564595 C23.44931,12.0795856 23.5730628,12.2027118 23.6963377,12.325838 M24.4350319,13.0650721 L24.0647292,13.4344506 L23.6953821,13.0650721 L24.065207,12.6952164 C24.188482,12.8188198 24.3122347,12.941946 24.4350319,13.0650721 M25.1742039,13.8038291 L24.8039012,14.1732076 L24.4345541,13.8038291 L24.804379,13.4344506 C24.9281318,13.558054 25.0509289,13.6811802 25.1742039,13.8038291 M25.9138537,14.5435405 L25.5430732,14.912919 L25.1737261,14.5430633 L25.5440288,14.1736848 C25.6673037,14.296811 25.7901009,14.4199371 25.9138537,14.5435405 M26.6525479,15.2827747 L26.2822451,15.6521532 L25.9128981,15.2822975 L26.2832008,14.912919 C26.4059979,15.0360451 26.5297507,15.1596485 26.6525479,15.2827747 M27.391242,16.0215316 L27.0214171,16.3909101 L26.65207,16.0215316 L27.0218949,15.6521532 C27.1451699,15.7752793 27.2689227,15.8984055 27.391242,16.0215316 M28.130414,16.7607658 L27.7605891,17.1301443 L27.3907642,16.7602886 L27.7610669,16.3909101 C27.8848197,16.5145135 28.007139,16.6376397 28.130414,16.7607658 M28.8700638,17.5 L28.4997611,17.8693785 L28.1294584,17.4995228 L28.5002389,17.1301443 C28.6235139,17.2537477 28.746311,17.3768738 28.8700638,17.5 M29.608758,18.2392342 L29.2389331,18.6086127 L28.8691082,18.2387569 L29.2398887,17.8698557 C29.362208,17.9925046 29.485483,18.1156308 29.608758,18.2392342 M30.34793,18.9779911 L29.9776273,19.3478468 L29.6082802,18.9779911 L29.9781051,18.6086127 C30.10138,18.7317388 30.2251328,18.854865 30.34793,18.9779911 M31.0871019,19.7172253 L30.7163214,20.0866038 L30.3474521,19.7172253 L30.717277,19.3478468 C30.840552,19.470973 30.963827,19.5940992 31.0871019,19.7172253 M31.8262739,20.4564595 L31.4554934,20.825838 L31.0861463,20.4559823 L31.456449,20.087081 C31.579724,20.2102072 31.702999,20.3333333 31.8262739,20.4564595 M32.5654459,21.1956937 L32.1951432,21.5650721 L31.8257961,21.1956937 L32.195621,20.8263152 C32.318896,20.9494414 32.4421709,21.0720903 32.5654459,21.1956937 M33.3041401,21.9349279 L32.9343152,22.3043063 L32.5649681,21.9349279 L32.934793,21.5655494 C33.058068,21.6881983 33.1813429,21.8118017 33.3041401,21.9349279 M34.0433121,22.6736848 L33.6730094,23.0430633 L33.3031845,22.6736848 L33.673965,22.3043063 C33.7972399,22.4274325 33.9200371,22.5510359 34.0433121,22.6736848 M34.782484,23.412919 L34.4121813,23.7822975 L34.0423564,23.412919 L34.413137,23.0435405 C34.5364119,23.1666667 34.6592091,23.2897928 34.782484,23.412919 M35.521656,24.1526304 L35.1518311,24.5215316 L34.7815284,24.1521532 L35.1523089,23.7827747 C35.2751061,23.9059008 35.3983811,24.029027 35.521656,24.1526304 M36.260828,24.8913873 L35.8900475,25.2607658 L35.5211782,24.8913873 L35.8910031,24.5220089 C36.0142781,24.645135 36.1375531,24.7682612 36.260828,24.8913873 M37,25.6306215 L36.6292195,26 L36.2598724,25.6306215 L36.6301751,25.2607658 C36.7534501,25.383892 36.876725,25.5074954 37,25.6306215 M8.73967058,20.3693785 L8.36935747,20.7387569 L8,20.3693785 L8.37031311,20 C8.49311372,20.1226489 8.61686998,20.2462523 8.73967058,20.3693785 M9.47886334,21.1086127 L9.10855023,21.4779911 L8.73919276,21.1081354 L9.10902805,20.7387569 C9.2327843,20.8623603 9.35558491,20.9854865 9.47886334,21.1086127 M10.2180561,21.8478468 L9.84774299,22.2172253 L9.4779077,21.8473696 L9.84822081,21.4779911 C9.97197706,21.6015945 10.0947777,21.7242434 10.2180561,21.8478468 M10.9572489,22.5866038 L10.5869357,22.9559823 L10.2171005,22.5866038 L10.5878914,22.2172253 C10.710692,22.3403515 10.8339704,22.4634776 10.9572489,22.5866038 M11.6959638,23.325838 L11.3261285,23.6952164 L10.9562932,23.325838 L11.3266063,22.9564595 C11.4498848,23.0795856 11.5731632,23.2027118 11.6959638,23.325838 M12.4351566,24.0650721 L12.0648434,24.4344506 L11.695486,24.0650721 L12.0657991,23.6956937 C12.1885997,23.8188198 12.312356,23.941946 12.4351566,24.0650721 M13.1743493,24.8038291 L12.8040362,25.1732076 L12.4342009,24.8038291 L12.8049918,24.4344506 C12.9282703,24.558054 13.0510709,24.6811802 13.1743493,24.8038291 M13.9135421,25.5435405 L13.543229,25.912919 L13.1738715,25.5435405 L13.5441846,25.1736848 C13.667463,25.2972882 13.7902636,25.4199371 13.9135421,25.5435405 M14.6527348,26.2827747 L14.2824217,26.6521532 L13.9130643,26.2822975 L14.2833774,25.912919 C14.406178,26.0360451 14.5299342,26.1596485 14.6527348,26.2827747 M15.3919276,27.0215316 L15.0211367,27.3909101 L14.652257,27.0215316 L15.0220923,26.6521532 C15.1453707,26.7752793 15.2686492,26.8984055 15.3919276,27.0215316 M16.1306425,27.7607658 L15.7603294,28.1301443 L15.3909719,27.7607658 L15.7612851,27.3909101 C15.8845635,27.5145135 16.0078419,27.6376397 16.1306425,27.7607658 M16.8703131,28.5 L16.5,28.8698557 L16.1301647,28.4995228 L16.5004778,28.1301443 C16.6237563,28.2537477 16.7465569,28.3768738 16.8703131,28.5 M17.6090281,29.2392342 L17.2391928,29.6086127 L16.8693575,29.2392342 L17.2396706,28.8698557 C17.3624712,28.9925046 17.4857496,29.1156308 17.6090281,29.2392342 M18.3482208,29.9784684 L17.9779077,30.3473696 L17.6085502,29.9784684 L17.9788633,29.6086127 C18.1016639,29.7317388 18.2254202,29.8553422 18.3482208,29.9784684 M19.0874136,30.7177025 L18.7171005,31.0866038 L18.3472652,30.7172253 L18.7175783,30.3478468 C18.8408567,30.470973 18.9641351,30.5945764 19.0874136,30.7177025 M19.8266063,31.4559823 L19.4558154,31.825838 L19.0864579,31.4559823 L19.456771,31.087081 C19.5800495,31.2102072 19.7033279,31.3333333 19.8266063,31.4559823 M20.5657991,32.1956937 L20.195486,32.5655494 L19.8261285,32.1956937 L20.1964416,31.8263152 C20.3192422,31.9494414 20.4425207,32.0720903 20.5657991,32.1956937 M21.304514,32.9349279 L20.9342009,33.3043063 L20.5648434,32.9349279 L20.9351566,32.5655494 C21.058435,32.6881983 21.1817134,32.8118017 21.304514,32.9349279 M22.0437068,33.674162 L21.6733937,34.0430633 L21.3040362,33.6736848 L21.6743493,33.3043063 C21.7976277,33.4274325 21.9204284,33.5510359 22.0437068,33.674162 M22.7828995,34.412919 L22.4125864,34.7822975 L22.0427511,34.412919 L22.4130643,34.0435405 C22.5368205,34.1666667 22.6600989,34.2897928 22.7828995,34.412919 M23.5220923,35.1526304 L23.1517792,35.5220089 L22.7824217,35.1521532 L23.152257,34.7822975 C23.2760133,34.9059008 23.3988139,35.029027 23.5220923,35.1526304 M24.2612851,35.8913873 L23.8909719,36.2607658 L23.5216145,35.8913873 L23.8919276,35.5220089 C24.0147282,35.645135 24.1380066,35.7682612 24.2612851,35.8913873 M25,36.6306215 L24.6301647,37 L24.2603294,36.6301443 L24.6306425,36.2612431 C24.753921,36.3843692 24.8771994,36.5074954 25,36.6306215" id="path-1"></path>
    </defs>
    <g id="-" stroke="none" stroke-width="1" fill="none" fill-rule="evenodd">
        <g id="icon/ticket">
            <g id="color/black">
                <mask id="mask-2" fill="white">
                    <use xlink:href="#path-1"></use>
                </mask>
                <use id="Mask" fill="#FFFFFF" opacity="0.4" xlink:href="#path-1"></use>
            </g>
        </g>
    </g>
</svg>