<svg xmlns="http://www.w3.org/2000/svg" width="79" height="78" viewBox="0 0 79 78">
  <path fill-rule="evenodd" d="M65.5531915,3.39130435 C59.9929362,3.39130435 55.4680851,7.956 55.4680851,13.5652174 C55.4680851,19.1744348 59.9929362,23.7391304 65.5531915,23.7391304 C71.1134468,23.7391304 75.6382979,19.1744348 75.6382979,13.5652174 C75.6382979,7.956 71.1134468,3.39130435 65.5531915,3.39130435 M26.3395383,36.83597 C26.7000171,38.0597073 26.893617,39.3552534 26.893617,40.6956522 C26.893617,41.4709221 26.8288516,42.2311875 26.704491,42.9712324 L54.5866629,56.4232776 C54.6164749,56.4377777 54.6456155,56.4530631 54.6740714,56.4690948 C57.1205713,53.0776575 61.0855455,50.8695652 65.5531915,50.8695652 C72.9691064,50.8695652 79,56.9535652 79,64.4347826 C79,71.916 72.9691064,78 65.5531915,78 C58.1372766,78 52.106383,71.916 52.106383,64.4347826 C52.106383,62.5734513 52.4797058,60.7986101 53.1547994,59.1824411 L25.8247191,45.9967583 C23.7749542,50.8505225 18.9990637,54.2608696 13.4468085,54.2608696 C6.03089362,54.2608696 0,48.1768696 0,40.6956522 C0,33.2144348 6.03089362,27.1304348 13.4468085,27.1304348 C18.3465205,27.1304348 22.6416326,29.7862683 24.9922067,33.746198 L52.6603129,17.4243943 C52.2999296,16.2008057 52.106383,14.9054316 52.106383,13.5652174 C52.106383,6.084 58.1372766,0 65.5531915,0 C72.9691064,0 79,6.084 79,13.5652174 C79,21.0464348 72.9691064,27.1304348 65.5531915,27.1304348 C60.6532983,27.1304348 56.3580497,24.4744049 54.0075325,20.5142323 L26.3395383,36.83597 Z M13.4468085,30.5217391 C7.88655319,30.5217391 3.36170213,35.0864348 3.36170213,40.6956522 C3.36170213,46.3048696 7.88655319,50.8695652 13.4468085,50.8695652 C19.0070638,50.8695652 23.5319149,46.3048696 23.5319149,40.6956522 C23.5319149,35.0864348 19.0070638,30.5217391 13.4468085,30.5217391 Z M65.5531915,54.2608696 C59.9929362,54.2608696 55.4680851,58.8255652 55.4680851,64.4347826 C55.4680851,70.044 59.9929362,74.6086957 65.5531915,74.6086957 C71.1134468,74.6086957 75.6382979,70.044 75.6382979,64.4347826 C75.6382979,58.8255652 71.1134468,54.2608696 65.5531915,54.2608696 Z" opacity=".104"/>
</svg>
