<svg xmlns="http://www.w3.org/2000/svg" width="31" height="28" viewBox="0 0 31 28">
  <path fill="#0B8E36" d="M14.999,2 C17.205,2 19,3.794 19,6 C19,8.206 17.205,10 14.999,10 C12.794,10 11,8.206 11,6 C11,3.794 12.794,2 14.999,2 M14,12.5055 L14,19.95 C14,20.5317 14.447,21 15,21 C15.553,21 16,20.5317 16,19.95 L16,12.5055 C18.832,12.00255 21,9.41535 21,6.3 C21,2.82555 18.309,0 14.999,0 C11.69,0 9,2.82555 9,6.3 C9,9.41535 11.166,12.0036 14,12.5055 M30.7428569,24.5172308 L27.3631915,16.5953846 C26.7416322,15.1383077 25.0811088,14 23.5853239,14 L19.5426619,14 C18.9837639,14 18.5319964,14.4867692 18.5319964,15.0823077 C18.5319964,15.6821538 18.9837639,16.1538462 19.5426619,16.1538462 L23.5853239,16.1538462 C24.3018857,16.1538462 25.225634,16.7946154 25.5237803,17.4838462 L28.9054671,25.4110769 C29.002491,25.6296923 28.9802563,25.7481538 28.9701497,25.7621538 C28.9620643,25.7772308 28.8690831,25.8450769 28.6386514,25.8450769 L2.3613484,25.8450769 C2.129906,25.8450769 2.0369248,25.7772308 2.0288395,25.7621538 C2.0187328,25.7470769 2.0045835,25.6296923 2.0955434,25.4089231 L5.4752088,17.486 C5.7733551,16.7903077 6.6981141,16.1538462 7.4146759,16.1538462 L11.4573379,16.1538462 C12.0162359,16.1538462 12.4649714,15.6821538 12.4649714,15.0823077 C12.4649714,14.4867692 12.0142146,14 11.4553166,14 L7.4146759,14 C5.918891,14 4.2573569,15.1469231 3.6357976,16.5964615 L0.2581535,24.5161538 C-0.10871808,25.3701538 -0.08345144,26.2478462 0.32687875,26.9284615 C0.73720895,27.6101538 1.48004809,28 2.3603377,28 L28.6386514,28 C29.518941,28 30.2607695,27.6101538 30.6721104,26.9284615 C31.0844619,26.2456923 31.1077072,25.3690769 30.7428569,24.5172308"/>
</svg>
