<svg xmlns="http://www.w3.org/2000/svg" width="30" height="30" viewBox="0 0 30 30">
  <path fill="#A54A35" d="M26.6007596,3.3428093 C28.2670637,3.3428093 29.6223243,4.6980699 29.6239113,6.364374 L29.6239113,26.6012405 C29.6239113,28.2675446 28.2686506,29.6228053 26.6023465,29.6228053 L3.897763,29.6228053 C2.2314589,29.6228053 0.87461133,28.2675446 0.87461133,26.6012405 L0.87461133,6.365961 C0.87461133,4.6980699 2.2314589,3.3428093 3.897763,3.3428093 L6.9605887,3.3428093 L6.9605887,5.4407655 L3.897763,5.4407655 C3.3883501,5.4407655 2.9725675,5.8549611 2.9725675,6.365961 L2.9725675,10.2524169 L27.5259551,10.2524169 L27.5259551,6.365961 C27.5259551,5.8549611 27.1101725,5.4407655 26.6007596,5.4407655 L22.2191733,5.4407655 L22.2191733,6.365961 C22.2191733,6.9436131 21.7494342,7.4149391 21.1717821,7.4149391 C20.5925431,7.4149391 20.122804,6.9436131 20.122804,6.365961 L20.122804,1.92407036 C20.122804,1.34483132 20.5925431,0.87509226 21.1717821,0.87509226 C21.7494342,0.87509226 22.2191733,1.34483132 22.2191733,1.92407036 L22.2191733,3.3428093 L26.6007596,3.3428093 Z M27.527542,12.3503731 L2.9725675,12.3503731 L2.9725675,26.6012405 C2.9725675,27.1106535 3.3883501,27.526436 3.897763,27.526436 L26.6007596,27.526436 C27.1101725,27.526436 27.5259551,27.1106535 27.5259551,26.6012405 L27.527542,12.3503731 Z M9.3264231,7.414463 C8.748771,7.414463 8.277445,6.943137 8.277445,6.3654849 L8.277445,1.92359428 C8.277445,1.34594219 8.748771,0.87461618 9.3264231,0.87461618 C9.9040752,0.87461618 10.3754012,1.34594219 10.3754012,1.92359428 L10.3754012,3.3423332 L18.8053129,3.3423332 L18.8053129,5.4402894 L10.3754012,5.4402894 L10.3754012,6.3654849 C10.3754012,6.943137 9.9040752,7.414463 9.3264231,7.414463 Z"/>
</svg>
