<svg xmlns="http://www.w3.org/2000/svg" width="71" height="71" viewBox="0 0 71 71">
  <path fill-rule="evenodd" d="M2.9536,68.0416667 L52.4264,68.0416667 L52.4264,2.95833333 L2.9536,2.95833333 L2.9536,68.0416667 Z M53.9599923,70.9991809 C53.9412003,70.999726 53.9222685,71 53.9032,71 L35.4689051,71 C36.339562,71 36.92,70.3846667 36.92,69.4616667 L36.92,54.0783333 C36.92,53.1553333 36.339562,52.54 35.4689051,52.54 L18.4910949,52.54 C17.620438,52.54 17.04,53.1553333 17.04,54.0783333 L17.04,69.4616667 C17.04,70.3846667 17.620438,71 18.4910949,71 L1.4768,71 C0.59072,71 -7.38964445e-13,70.4083333 -7.38964445e-13,69.5208333 L-7.38964445e-13,1.47916667 C-7.38964445e-13,0.591666667 0.59072,2.98427949e-13 1.4768,2.98427949e-13 L53.9032,2.98427949e-13 C54.78928,2.98427949e-13 55.38,0.591666667 55.38,1.47916667 L55.38,17.04 L69.5232,17.04 C70.40928,17.04 71,17.6313425 71,18.5183562 L71,69.5216438 C71,70.4086575 70.40928,71 69.5232,71 L54.0168,71 C53.9977262,71 53.9787893,70.999726 53.9599923,70.9991809 Z M19.9421898,70.9233333 L19.9421898,55.6166667 L34.0178102,55.6166667 L34.0178102,70.9233333 L19.9421898,70.9233333 Z M55.4936,68.0432877 L68.0464,68.0432877 L68.0464,19.9967123 L55.4936,19.9967123 L55.4936,68.0432877 Z M11.36,18.46 C12.212,18.46 12.78,17.8621053 12.78,16.9652632 L12.78,11.4347368 C12.78,10.5378947 12.212,9.94 11.36,9.94 C10.508,9.94 9.94,10.5378947 9.94,11.4347368 L9.94,16.9652632 C9.94,17.8621053 10.508,18.46 11.36,18.46 Z M22.72,18.46 C23.572,18.46 24.14,17.8621053 24.14,16.9652632 L24.14,11.4347368 C24.14,10.5378947 23.572,9.94 22.72,9.94 C21.868,9.94 21.3,10.5378947 21.3,11.4347368 L21.3,16.9652632 C21.3,17.8621053 21.868,18.46 22.72,18.46 Z M34.08,18.46 C34.932,18.46 35.5,17.8621053 35.5,16.9652632 L35.5,11.4347368 C35.5,10.5378947 34.932,9.94 34.08,9.94 C33.228,9.94 32.66,10.5378947 32.66,11.4347368 L32.66,16.9652632 C32.66,17.8621053 33.228,18.46 34.08,18.46 Z M44.02,18.46 C44.87342,18.46 45.44,17.8621053 45.44,16.9652632 L45.44,11.4347368 C45.44,10.5378947 44.87342,9.94 44.02,9.94 C43.168,9.94 42.6,10.5378947 42.6,11.4347368 L42.6,16.9652632 C42.6,17.8621053 43.168,18.46 44.02,18.46 Z M11.36,32.66 C12.212,32.66 12.78,32.0621053 12.78,31.1652632 L12.78,25.6347368 C12.78,24.7378947 12.212,24.14 11.36,24.14 C10.508,24.14 9.94,24.7378947 9.94,25.6347368 L9.94,31.1652632 C9.94,32.0621053 10.508,32.66 11.36,32.66 Z M22.72,32.66 C23.572,32.66 24.14,32.0621053 24.14,31.1652632 L24.14,25.6347368 C24.14,24.7378947 23.572,24.14 22.72,24.14 C21.868,24.14 21.3,24.7378947 21.3,25.6347368 L21.3,31.1652632 C21.3,32.0621053 21.868,32.66 22.72,32.66 Z M34.08,32.66 C34.932,32.66 35.5,32.0621053 35.5,31.1652632 L35.5,25.6347368 C35.5,24.7378947 34.932,24.14 34.08,24.14 C33.228,24.14 32.66,24.7378947 32.66,25.6347368 L32.66,31.1652632 C32.66,32.0621053 33.228,32.66 34.08,32.66 Z M44.02,32.66 C44.87342,32.66 45.44,32.0621053 45.44,31.1652632 L45.44,25.6347368 C45.44,24.7378947 44.87342,24.14 44.02,24.14 C43.168,24.14 42.6,24.7378947 42.6,25.6347368 L42.6,31.1652632 C42.6,32.0621053 43.168,32.66 44.02,32.66 Z M11.36,48.28 C12.212,48.28 12.78,47.6821053 12.78,46.7852632 L12.78,41.2547368 C12.78,40.3578947 12.212,39.76 11.36,39.76 C10.508,39.76 9.94,40.3578947 9.94,41.2547368 L9.94,46.7852632 C9.94,47.6821053 10.508,48.28 11.36,48.28 Z M22.72,48.28 C23.572,48.28 24.14,47.6821053 24.14,46.7852632 L24.14,41.2547368 C24.14,40.3578947 23.572,39.76 22.72,39.76 C21.868,39.76 21.3,40.3578947 21.3,41.2547368 L21.3,46.7852632 C21.3,47.6821053 21.868,48.28 22.72,48.28 Z M34.08,48.28 C34.932,48.28 35.5,47.6821053 35.5,46.7852632 L35.5,41.2547368 C35.5,40.3578947 34.932,39.76 34.08,39.76 C33.228,39.76 32.66,40.3578947 32.66,41.2547368 L32.66,46.7852632 C32.66,47.6821053 33.228,48.28 34.08,48.28 Z M44.02,48.28 C44.87342,48.28 45.44,47.6821053 45.44,46.7852632 L45.44,41.2547368 C45.44,40.3578947 44.87342,39.76 44.02,39.76 C43.168,39.76 42.6,40.3578947 42.6,41.2547368 L42.6,46.7852632 C42.6,47.6821053 43.168,48.28 44.02,48.28 Z M61.06,34.08 C60.208,34.08 59.64,33.5231373 59.64,32.6878431 L59.64,28.3721569 C59.64,27.5368627 60.208,26.98 61.06,26.98 C61.91342,26.98 62.48,27.5368627 62.48,28.3721569 L62.48,32.6878431 C62.48,33.5231373 61.91342,34.08 61.06,34.08 Z M61.06,46.86 C60.208,46.86 59.64,46.3045294 59.64,45.4678431 L59.64,41.1521569 C59.64,40.3168627 60.208,39.76 61.06,39.76 C61.91342,39.76 62.48,40.3168627 62.48,41.1521569 L62.48,45.4678431 C62.48,46.3045294 61.91342,46.86 61.06,46.86 Z M61.06,59.64 C60.208,59.64 59.64,59.0845294 59.64,58.2478431 L59.64,53.9321569 C59.64,53.0982549 60.208,52.54 61.06,52.54 C61.91342,52.54 62.48,53.0982549 62.48,53.9321569 L62.48,58.2478431 C62.48,59.0845294 61.91342,59.64 61.06,59.64 Z" opacity=".104"/>
</svg>
