<svg xmlns="http://www.w3.org/2000/svg" width="78" height="78" viewBox="0 0 78 78">
  <path fill-rule="evenodd" stroke="#FFF" stroke-width=".85" d="M44.5542069,74.2334891 C48.6451297,70.8060917 53.9670537,64.9843185 57.4365953,56.5868516 C63.1182147,57.7982509 66.5015078,59.2772165 67.8481604,59.9495627 C62.3929433,67.4394602 54.0954463,72.7349216 44.5542069,74.2334891 Z M40.8043577,54.7697527 C46.0204312,54.8922648 50.4436068,55.3509499 54.1189686,55.9595899 C50.3210947,64.7530157 44.3787696,70.1994119 40.8043577,72.8682147 L40.8043577,54.7697527 Z M23.7624397,55.6910434 C27.5103287,55.1500302 31.971728,54.7766134 37.1956423,54.7393697 L37.1956423,72.8672346 C33.5839867,70.1709891 27.553453,64.644225 23.7624397,55.6910434 Z M9.73921894,59.3615048 C11.6856906,58.5088209 15.1767943,57.2366556 20.4310917,56.2418577 C23.8957328,64.8226025 29.2999849,70.7610072 33.4457931,74.2344692 C23.6575694,72.6966978 15.183655,67.1611128 9.73921894,59.3615048 Z M8.4621532,20.6035887 C10.4066647,21.5072376 13.9301116,22.8656514 19.2824186,23.958459 C17.9504674,28.1062274 17.0870024,32.7930489 16.9929131,38.045386 L16.9723311,38.045386 C16.9723311,38.2071019 16.981152,38.3619572 16.9831122,38.522693 C16.9821321,38.6834288 16.9723311,38.8382841 16.9723311,39 L16.9929131,39 C17.0870024,44.2444964 17.9602684,48.9107358 19.2892793,53.0536037 C13.6517642,54.1571924 9.96170084,55.5704916 7.94172195,56.5055036 C5.01221351,51.3305941 3.33232811,45.3588661 3.33232811,38.9990199 C3.33134801,32.2726176 5.210193,25.9784379 8.4621532,20.6035887 Z M32.0756182,4.01153498 C28.1689536,7.58006634 23.5360374,13.1283926 20.4418727,20.7760856 C15.5413902,19.8077503 12.2374849,18.6110525 10.3507992,17.7887515 C15.5423703,10.7977232 23.2233866,5.76100724 32.0756182,4.01153498 Z M37.1956423,4.17717129 L37.1956423,22.3805036 C31.9531062,22.3187575 27.4907268,21.9178981 23.7624397,21.3543426 C27.5544331,12.4021411 33.5839867,6.87341677 37.1956423,4.17717129 Z M54.1885555,21.2435917 C50.4779101,21.8345899 46.0341526,22.2717129 40.8043577,22.3697226 L40.8043577,4.17717129 C44.4003317,6.86263571 50.3946019,12.3570567 54.1885555,21.2435917 Z M67.509047,17.5966526 C65.7458534,18.3836701 62.4703709,19.621532 57.5022618,20.6437726 C54.4080971,13.0646864 49.8085042,7.55850422 45.9243818,4.01153498 C54.6962455,5.7443456 62.3194361,10.704614 67.509047,17.5966526 Z M61.018848,38.522693 C61.0198281,38.3619572 61.0296291,38.2071019 61.0296291,38.045386 L61.009047,38.045386 C60.9139777,32.7352232 60.0348311,27.9993969 58.6783776,23.8183052 C64.1316345,22.6608112 67.6266586,21.2494723 69.4143546,20.3967883 C72.7427624,25.816722 74.6706122,32.185389 74.6706122,39 C74.6706122,45.6225121 72.8544934,51.8284831 69.6956423,57.1474668 C68.3627111,56.4398372 64.786339,54.7697527 58.6009499,53.411339 C59.9946472,49.1812425 60.9129976,44.3944511 61.009047,39 L61.0296291,39 C61.028649,38.8382841 61.0198281,38.6834288 61.018848,38.522693 Z M40.8043577,25.7020507 C46.5526236,25.6001206 51.3923402,25.1032117 55.3989747,24.435766 C56.7573884,28.5051267 57.636535,33.1831273 57.6865199,38.522693 C57.6355549,43.9328257 56.7358263,48.6657117 55.3460495,52.772316 C51.3737183,52.0842883 46.5438028,51.5658172 40.8043577,51.4374246 L40.8043577,25.7020507 Z M20.3134801,38.522693 C20.363465,33.2340923 21.22693,28.5952955 22.5637817,24.5523975 C26.5880579,25.1904403 31.443456,25.6461852 37.1956423,25.7108715 L37.1956423,51.4090018 C31.4630579,51.4482057 26.6066797,51.8735676 22.5618215,52.487108 C21.2259499,48.4471502 20.3624849,43.8093335 20.3134801,38.522693 Z M39,0 C17.4957027,0 0,17.4947226 0,39 C0,60.5052774 17.4957027,78 39,78 C39.060766,78 39.1195718,77.9960796 39.1803378,77.9950995 C39.1842581,77.9960796 39.1920989,77.9990199 39.1969994,78 L39.2058203,77.9950995 C60.6150483,77.8833685 78,60.4356906 78,39 C78,17.4957027 60.5042973,0 39,0 Z" opacity=".104"/>
</svg>
