<?xml version="1.0" encoding="utf-8"?>
<!-- Generator: Adobe Illustrator 23.0.3, SVG Export Plug-In . SVG Version: 6.00 Build 0)  -->
<svg version="1.1" id="Calque_1" xmlns="http://www.w3.org/2000/svg" xmlns:xlink="http://www.w3.org/1999/xlink" x="0px" y="0px"
	 viewBox="0 0 48 48" style="enable-background:new 0 0 48 48;" xml:space="preserve">
<style type="text/css">
	.st0{fill:#0B8E36;}
	.st1{filter:url(#Adobe_OpacityMaskFilter);}
	.st2{fill-rule:evenodd;clip-rule:evenodd;fill:#FFFFFF;}
	.st3{mask:url(#ico-cycle-b_2_);}
	.st4{fill-rule:evenodd;clip-rule:evenodd;fill:#0B8E36;}
</style>
<g>
	<g>
		<path class="st0" d="M21.8,29.1h-1.4c-0.6,3.9-4,6.9-8.2,6.9C7.7,36,4,32.3,4,27.9s3.7-8.1,8.3-8.1c1.5,0,2.8,0.4,4,1l1.7-2.5
			c0-0.1,0-0.1,0-0.2c0-0.3,0.1-0.6,0.3-0.7l-1.6-3.6h-1.5c-0.4,0-0.7-0.4-0.7-0.9c0-0.5,0.3-0.9,0.7-0.9h5.6c0.4,0,0.7,0.4,0.7,0.9
			c0,0.5-0.3,0.9-0.7,0.9h-2.6l1.6,3.4h12.1v-3.6c0,0,0,0,0,0c0,0,0,0,0,0c0-0.1,0-0.1,0-0.2c0.1-0.3,0.3-0.5,0.6-0.5c0,0,0,0,0,0
			c0,0,0,0,0,0h4.3c1.6,0,2.8,1.2,2.8,2.6c0,1.4-1.3,2.6-2.8,2.6c-0.4,0-0.7-0.3-0.7-0.6c0-0.4,0.3-0.6,0.7-0.6
			c0.8,0,1.4-0.6,1.4-1.3c0-0.7-0.6-1.3-1.4-1.3h-3.7v3.1c0.1,0,0.1,0.1,0.2,0.1c0.3,0.2,0.3,0.6,0.1,0.9l0,0l0.5,1.7
			c0.6-0.1,1.2-0.2,1.9-0.2c4.6,0,8.3,3.7,8.3,8.1c0,4.5-3.7,8.1-8.3,8.1c-4.6,0-8.3-3.7-8.3-8.1c0-3.4,2.1-6.3,5.2-7.6l-0.3-1
			l-6.8,7.5c0.1,0.3,0.2,0.6,0.2,1c0,1.2-1,2.1-2.2,2.1C22.9,30,22.2,29.7,21.8,29.1z M23.1,28.5c0.1,0.1,0.3,0.1,0.5,0.1
			c0.4,0,0.8-0.3,0.8-0.8c0-0.3-0.2-0.6-0.5-0.7c-0.1,0.1-0.2,0.2-0.3,0.2c-0.1,0-0.2,0.1-0.3,0.1c-0.1,0-0.2,0-0.3-0.1
			c-0.1,0.1-0.1,0.1-0.1,0.2c0.2,0.2,0.3,0.4,0.3,0.7C23.1,28.4,23.1,28.4,23.1,28.5z M21.4,27.4c0.1-0.5,0.4-1,0.8-1.3L19,19
			l-1.6,2.5c1.8,1.4,3,3.6,3.2,6H21.4z M23.6,25.7c0.3,0,0.7,0.1,1,0.2l6.4-7.1H20.5L23.6,25.7z M33,21.6c-2.5,1-4.2,3.5-4.2,6.3
			c0,3.8,3.1,6.8,6.9,6.8c3.8,0,6.9-3.1,6.9-6.8c0-3.8-3.1-6.8-6.9-6.8c-0.5,0-1,0.1-1.5,0.2l1.9,6.2c0.1,0.3-0.1,0.7-0.4,0.8
			c-0.1,0-0.1,0-0.2,0c-0.3,0-0.5-0.2-0.6-0.5L33,21.6z M19.1,29.1h-6.6c-0.4,0-0.7-0.4-0.7-0.9c0-0.1,0-0.3,0.1-0.4
			c-0.1-0.2-0.1-0.4,0-0.6l3.6-5.5c-1-0.5-2.1-0.8-3.3-0.8c-3.8,0-6.9,3.1-6.9,6.8c0,3.8,3.1,6.8,6.9,6.8
			C15.6,34.7,18.4,32.3,19.1,29.1z M19.2,27.4c-0.1-2-1.1-3.7-2.5-4.9l-3.2,4.9H19.2z"/>
	</g>
	<defs>
		<filter id="Adobe_OpacityMaskFilter" filterUnits="userSpaceOnUse" x="4" y="12" width="40" height="24">
			<feColorMatrix  type="matrix" values="1 0 0 0 0  0 1 0 0 0  0 0 1 0 0  0 0 0 1 0"/>
		</filter>
	</defs>
	<mask maskUnits="userSpaceOnUse" x="4" y="12" width="40" height="24" id="ico-cycle-b_2_">
		<g class="st1">
			<path id="ico-cycle-a_2_" class="st2" d="M21.8,29.1h-1.4c-0.6,3.9-4,6.9-8.2,6.9C7.7,36,4,32.3,4,27.9s3.7-8.1,8.3-8.1
				c1.5,0,2.8,0.4,4,1l1.7-2.5c0-0.1,0-0.1,0-0.2c0-0.3,0.1-0.6,0.3-0.7l-1.6-3.6h-1.5c-0.4,0-0.7-0.4-0.7-0.9
				c0-0.5,0.3-0.9,0.7-0.9h5.6c0.4,0,0.7,0.4,0.7,0.9c0,0.5-0.3,0.9-0.7,0.9h-2.6l1.6,3.4h12.1v-3.6c0,0,0,0,0,0c0,0,0,0,0,0
				c0-0.1,0-0.1,0-0.2c0.1-0.3,0.3-0.5,0.6-0.5c0,0,0,0,0,0c0,0,0,0,0,0h4.3c1.6,0,2.8,1.2,2.8,2.6c0,1.4-1.3,2.6-2.8,2.6
				c-0.4,0-0.7-0.3-0.7-0.6c0-0.4,0.3-0.6,0.7-0.6c0.8,0,1.4-0.6,1.4-1.3c0-0.7-0.6-1.3-1.4-1.3h-3.7v3.1c0.1,0,0.1,0.1,0.2,0.1
				c0.3,0.2,0.3,0.6,0.1,0.9l0,0l0.5,1.7c0.6-0.1,1.2-0.2,1.9-0.2c4.6,0,8.3,3.7,8.3,8.1c0,4.5-3.7,8.1-8.3,8.1
				c-4.6,0-8.3-3.7-8.3-8.1c0-3.4,2.1-6.3,5.2-7.6l-0.3-1l-6.8,7.5c0.1,0.3,0.2,0.6,0.2,1c0,1.2-1,2.1-2.2,2.1
				C22.9,30,22.2,29.7,21.8,29.1z M23.1,28.5c0.1,0.1,0.3,0.1,0.5,0.1c0.4,0,0.8-0.3,0.8-0.8c0-0.3-0.2-0.6-0.5-0.7
				c-0.1,0.1-0.2,0.2-0.3,0.2c-0.1,0-0.2,0.1-0.3,0.1c-0.1,0-0.2,0-0.3-0.1c-0.1,0.1-0.1,0.1-0.1,0.2c0.2,0.2,0.3,0.4,0.3,0.7
				C23.1,28.4,23.1,28.4,23.1,28.5z M21.4,27.4c0.1-0.5,0.4-1,0.8-1.3L19,19l-1.6,2.5c1.8,1.4,3,3.6,3.2,6H21.4z M23.6,25.7
				c0.3,0,0.7,0.1,1,0.2l6.4-7.1H20.5L23.6,25.7z M33,21.6c-2.5,1-4.2,3.5-4.2,6.3c0,3.8,3.1,6.8,6.9,6.8c3.8,0,6.9-3.1,6.9-6.8
				c0-3.8-3.1-6.8-6.9-6.8c-0.5,0-1,0.1-1.5,0.2l1.9,6.2c0.1,0.3-0.1,0.7-0.4,0.8c-0.1,0-0.1,0-0.2,0c-0.3,0-0.5-0.2-0.6-0.5
				L33,21.6z M19.1,29.1h-6.6c-0.4,0-0.7-0.4-0.7-0.9c0-0.1,0-0.3,0.1-0.4c-0.1-0.2-0.1-0.4,0-0.6l3.6-5.5c-1-0.5-2.1-0.8-3.3-0.8
				c-3.8,0-6.9,3.1-6.9,6.8c0,3.8,3.1,6.8,6.9,6.8C15.6,34.7,18.4,32.3,19.1,29.1z M19.2,27.4c-0.1-2-1.1-3.7-2.5-4.9l-3.2,4.9H19.2
				z"/>
		</g>
	</mask>
	<g class="st3">
		<rect x="4" y="12" class="st4" width="40" height="24"/>
	</g>
</g>
</svg>
