<svg xmlns="http://www.w3.org/2000/svg" xmlns:xlink="http://www.w3.org/1999/xlink" width="34" height="54" viewBox="0 0 34 54">
  <defs>
    <path id="app-a" d="M30.1630041,50.2707789 C30.1630041,51.0301539 29.5794183,51.6376539 28.8508469,51.6376539 L4.22586017,51.6376539 C3.49728871,51.6376539 2.91443154,51.0301539 2.91443154,50.2707789 L2.91443154,44.5754661 L30.0894183,44.5754661 L30.0894183,50.2707789 L30.1630041,50.2707789 Z M2.91443154,4.40452705 C2.91443154,3.64515202 3.49728871,3.037652 4.22586017,3.037652 L28.8508469,3.037652 C29.5794183,3.037652 30.1630041,3.64515202 30.1630041,4.40452705 L30.1630041,6.45483963 L2.91443154,6.45483963 L2.91443154,4.40452705 Z M2.91443154,29.9195281 L5.97443167,29.9195281 C6.77586027,29.9195281 7.43157458,29.2360905 7.43157458,28.400778 C7.43157458,27.5654655 6.77586027,26.8820279 5.97443167,26.8820279 L2.91443154,26.8820279 L2.91443154,24.1482778 L8.7430032,24.1482778 C9.54443181,24.1482778 10.2001461,23.4648403 10.2001461,22.6295278 C10.2001461,21.7942152 9.54443181,21.1107777 8.7430032,21.1107777 L2.91443154,21.1107777 L2.91443154,9.49233975 L30.0894183,9.49233975 L30.0894183,41.537966 L2.91443154,41.537966 L2.91443154,29.9195281 Z M14.381367,50.118752 C13.6844726,50.118752 13.1142862,49.4360738 13.1142862,48.6000019 C13.1142862,47.7646894 13.6844726,47.0812519 14.381367,47.0812519 L19.13292,47.0812519 C19.8298145,47.0812519 20.4000008,47.7646894 20.4000008,48.6000019 C20.4000008,49.4360738 19.8298145,50.118752 19.13292,50.118752 L14.381367,50.118752 Z M28.8508469,0.000151875006 L4.22586017,0.000151875006 C1.8944315,0.000151875006 0.000145714292,1.97452695 0.000145714292,4.40452705 L0.000145714292,50.2707789 C0.000145714292,52.700779 1.8944315,54.675154 4.22586017,54.675154 L28.8508469,54.675154 C31.1822755,54.675154 33.0772899,52.700779 33.0772899,50.2707789 L33.0772899,4.40452705 C33.0772899,1.97452695 31.1822755,0.000151875006 28.8508469,0.000151875006 Z"/>
  </defs>
  <g fill="none" fill-rule="evenodd">
    <mask id="app-b" fill="#fff">
      <use xlink:href="#app-a"/>
    </mask>
    <use fill="#8CC63F" xlink:href="#app-a"/>
    <g fill="#FFF" mask="url(#app-b)">
      <rect width="34" height="55"/>
    </g>
  </g>
</svg>
