<svg xmlns="http://www.w3.org/2000/svg" width="13" height="17" viewBox="0 0 13 17">
  <path fill="#252525" fill-rule="evenodd" d="M12.0674,3.8096 C12.0474,3.4816 11.7754,3.2366 11.4644,3.2366 L9.7744,3.2366 C9.6574,1.4336 8.2394,-0.0004 6.4904,-0.0004 C4.7414,-0.0004 3.3224,1.4336 3.2064,3.2366 L1.5154,3.2366 C1.2044,3.2366 0.9324,3.4816 0.9134,3.8096 L0.0004,14.5416 L0.0004,14.6036 C0.0004,15.9136 1.1464,16.9996 2.5454,16.9996 L10.4554,16.9996 C11.8534,16.9996 13.0004,15.9346 13.0004,14.6036 L13.0004,14.5416 L12.0674,3.8096 Z M6.4904,1.2696 C7.5584,1.2696 8.4534,2.1296 8.5694,3.2366 L4.4114,3.2366 C4.5274,2.1296 5.4214,1.2696 6.4904,1.2696 Z M10.4344,15.7306 L2.5454,15.7306 C1.8264,15.7306 1.2244,15.2386 1.2044,14.6236 L2.0594,4.5056 L3.2064,4.5056 L3.2064,5.7146 C3.2064,6.0626 3.4784,6.3496 3.8084,6.3496 C4.1394,6.3496 4.4114,6.0626 4.4114,5.7146 L4.4114,4.5056 L8.5694,4.5056 L8.5694,5.7146 C8.5694,6.0626 8.8414,6.3496 9.1714,6.3496 C9.5024,6.3496 9.7744,6.0626 9.7744,5.7146 L9.7744,4.5056 L10.9214,4.5056 L11.7754,14.6446 C11.7564,15.2386 11.1734,15.7306 10.4344,15.7306 Z"/>
</svg>
