<svg xmlns="http://www.w3.org/2000/svg" width="71" height="71" viewBox="0 0 71 71">
  <g fill-rule="evenodd" opacity=".104">
    <path d="M2.9536,68.0416667 L52.4264,68.0416667 L52.4264,2.95833333 L2.9536,2.95833333 L2.9536,68.0416667 Z M53.9032,71 L1.4768,71 C0.59072,71 0,70.4083333 0,69.5208333 L0,1.47916667 C0,0.591666667 0.59072,0 1.4768,0 L53.9032,0 C54.78928,0 55.38,0.591666667 55.38,1.47916667 L55.38,69.5208333 C55.38,70.4083333 54.78928,71 53.9032,71 Z"/>
    <path d="M55.4936 68.0432877L68.0464 68.0432877 68.0464 19.9967123 55.4936 19.9967123 55.4936 68.0432877zM69.5232 71L54.0168 71C53.13072 71 52.54 70.4086575 52.54 69.5216438L52.54 18.5183562C52.54 17.6313425 53.13072 17.04 54.0168 17.04L69.5232 17.04C70.40928 17.04 71 17.6313425 71 18.5183562L71 69.5216438C71 70.4086575 70.40928 71 69.5232 71zM19.9421898 67.9233333L34.0178102 67.9233333 34.0178102 55.6166667 19.9421898 55.6166667 19.9421898 67.9233333zM35.4689051 71L18.4910949 71C17.620438 71 17.04 70.3846667 17.04 69.4616667L17.04 54.0783333C17.04 53.1553333 17.620438 52.54 18.4910949 52.54L35.4689051 52.54C36.339562 52.54 36.92 53.1553333 36.92 54.0783333L36.92 69.4616667C36.92 70.3846667 36.339562 71 35.4689051 71zM11.36 18.46C10.508 18.46 9.94 17.8621053 9.94 16.9652632L9.94 11.4347368C9.94 10.5378947 10.508 9.94 11.36 9.94 12.212 9.94 12.78 10.5378947 12.78 11.4347368L12.78 16.9652632C12.78 17.8621053 12.212 18.46 11.36 18.46M22.72 18.46C21.868 18.46 21.3 17.8621053 21.3 16.9652632L21.3 11.4347368C21.3 10.5378947 21.868 9.94 22.72 9.94 23.572 9.94 24.14 10.5378947 24.14 11.4347368L24.14 16.9652632C24.14 17.8621053 23.572 18.46 22.72 18.46M34.08 18.46C33.228 18.46 32.66 17.8621053 32.66 16.9652632L32.66 11.4347368C32.66 10.5378947 33.228 9.94 34.08 9.94 34.932 9.94 35.5 10.5378947 35.5 11.4347368L35.5 16.9652632C35.5 17.8621053 34.932 18.46 34.08 18.46M44.02 18.46C43.168 18.46 42.6 17.8621053 42.6 16.9652632L42.6 11.4347368C42.6 10.5378947 43.168 9.94 44.02 9.94 44.87342 9.94 45.44 10.5378947 45.44 11.4347368L45.44 16.9652632C45.44 17.8621053 44.87342 18.46 44.02 18.46M11.36 32.66C10.508 32.66 9.94 32.0621053 9.94 31.1652632L9.94 25.6347368C9.94 24.7378947 10.508 24.14 11.36 24.14 12.212 24.14 12.78 24.7378947 12.78 25.6347368L12.78 31.1652632C12.78 32.0621053 12.212 32.66 11.36 32.66M22.72 32.66C21.868 32.66 21.3 32.0621053 21.3 31.1652632L21.3 25.6347368C21.3 24.7378947 21.868 24.14 22.72 24.14 23.572 24.14 24.14 24.7378947 24.14 25.6347368L24.14 31.1652632C24.14 32.0621053 23.572 32.66 22.72 32.66M34.08 32.66C33.228 32.66 32.66 32.0621053 32.66 31.1652632L32.66 25.6347368C32.66 24.7378947 33.228 24.14 34.08 24.14 34.932 24.14 35.5 24.7378947 35.5 25.6347368L35.5 31.1652632C35.5 32.0621053 34.932 32.66 34.08 32.66M44.02 32.66C43.168 32.66 42.6 32.0621053 42.6 31.1652632L42.6 25.6347368C42.6 24.7378947 43.168 24.14 44.02 24.14 44.87342 24.14 45.44 24.7378947 45.44 25.6347368L45.44 31.1652632C45.44 32.0621053 44.87342 32.66 44.02 32.66M11.36 48.28C10.508 48.28 9.94 47.6821053 9.94 46.7852632L9.94 41.2547368C9.94 40.3578947 10.508 39.76 11.36 39.76 12.212 39.76 12.78 40.3578947 12.78 41.2547368L12.78 46.7852632C12.78 47.6821053 12.212 48.28 11.36 48.28M22.72 48.28C21.868 48.28 21.3 47.6821053 21.3 46.7852632L21.3 41.2547368C21.3 40.3578947 21.868 39.76 22.72 39.76 23.572 39.76 24.14 40.3578947 24.14 41.2547368L24.14 46.7852632C24.14 47.6821053 23.572 48.28 22.72 48.28M34.08 48.28C33.228 48.28 32.66 47.6821053 32.66 46.7852632L32.66 41.2547368C32.66 40.3578947 33.228 39.76 34.08 39.76 34.932 39.76 35.5 40.3578947 35.5 41.2547368L35.5 46.7852632C35.5 47.6821053 34.932 48.28 34.08 48.28M44.02 48.28C43.168 48.28 42.6 47.6821053 42.6 46.7852632L42.6 41.2547368C42.6 40.3578947 43.168 39.76 44.02 39.76 44.87342 39.76 45.44 40.3578947 45.44 41.2547368L45.44 46.7852632C45.44 47.6821053 44.87342 48.28 44.02 48.28"/>
    <path d="M61.06 34.08C60.208 34.08 59.64 33.5231373 59.64 32.6878431L59.64 28.3721569C59.64 27.5368627 60.208 26.98 61.06 26.98 61.91342 26.98 62.48 27.5368627 62.48 28.3721569L62.48 32.6878431C62.48 33.5231373 61.91342 34.08 61.06 34.08M61.06 46.86C60.208 46.86 59.64 46.3045294 59.64 45.4678431L59.64 41.1521569C59.64 40.3168627 60.208 39.76 61.06 39.76 61.91342 39.76 62.48 40.3168627 62.48 41.1521569L62.48 45.4678431C62.48 46.3045294 61.91342 46.86 61.06 46.86M61.06 59.64C60.208 59.64 59.64 59.0845294 59.64 58.2478431L59.64 53.9321569C59.64 53.0982549 60.208 52.54 61.06 52.54 61.91342 52.54 62.48 53.0982549 62.48 53.9321569L62.48 58.2478431C62.48 59.0845294 61.91342 59.64 61.06 59.64"/>
  </g>
</svg>
