<svg xmlns="http://www.w3.org/2000/svg" width="73" height="70" viewBox="0 0 73 70">
  <path fill-rule="evenodd" d="M63.8051,44.5482 C59.4491,59.0062 44.1521,67.1392 29.7901,62.8112 C15.3321,58.4552 7.1991,43.1582 11.5271,28.7962 C15.8541,14.4342 31.1801,6.2052 45.5421,10.5332 C60.0291,14.7942 68.1611,30.0902 63.8051,44.5482 M66.1171,81.5902 C67.3911,80.8252 67.7581,79.2642 66.9931,77.9892 L57.5871,62.4142 C63.7131,57.6802 68.1651,50.8752 69.6601,42.4482 C72.4841,27.5282 64.3901,12.4522 50.3931,6.5642 C31.5621,-1.3038 10.4961,9.6862 5.8471,29.2772 C2.1301,45.0772 10.9611,61.5242 26.2791,67.1842 C35.5851,70.6152 45.2991,69.5732 53.1771,65.2632 L62.5161,80.7142 C63.3101,81.8932 64.8711,82.2592 66.1171,81.5902" transform="rotate(-15 20.918 52.355)"/>
</svg>
