<svg xmlns="http://www.w3.org/2000/svg" width="21" height="33" viewBox="0 0 21 33">
  <path fill="#FFF" d="M18.368441,30.2435264 C18.368441,30.6992665 18.0155776,31.0638586 17.5750489,31.0638586 L2.6856216,31.0638586 C2.245093,31.0638586 1.8926701,30.6992665 1.8926701,30.2435264 L1.8926701,26.8254759 L18.3239476,26.8254759 L18.3239476,30.2435264 L18.368441,30.2435264 Z M1.8926701,2.716826 C1.8926701,2.2610859 2.245093,1.89649386 2.6856216,1.89649386 L17.5750489,1.89649386 C18.0155776,1.89649386 18.368441,2.2610859 18.368441,2.716826 L18.368441,3.9473242 L1.8926701,3.9473242 L1.8926701,2.716826 Z M1.8926701,18.0296925 L3.7428904,18.0296925 C4.2274719,18.0296925 4.6239476,17.6195264 4.6239476,17.1182123 C4.6239476,16.6168982 4.2274719,16.2067322 3.7428904,16.2067322 L1.8926701,16.2067322 L1.8926701,14.5660679 L5.4168992,14.5660679 C5.9014807,14.5660679 6.2979564,14.1559018 6.2979564,13.6545878 C6.2979564,13.1532737 5.9014807,12.7431076 5.4168992,12.7431076 L1.8926701,12.7431076 L1.8926701,5.7702845 L18.3239476,5.7702845 L18.3239476,25.0025156 L1.8926701,25.0025156 L1.8926701,18.0296925 Z M8.8261196,30.1522873 C8.4047444,30.1522873 8.0599829,29.7425769 8.0599829,29.2408071 C8.0599829,28.739493 8.4047444,28.329327 8.8261196,28.329327 L11.6991325,28.329327 C12.1205077,28.329327 12.4652692,28.739493 12.4652692,29.2408071 C12.4652692,29.7425769 12.1205077,30.1522873 11.6991325,30.1522873 L8.8261196,30.1522873 Z M17.5750489,0.07353357 L2.6856216,0.07353357 C1.27593,0.07353357 0.1305556,1.25845776 0.1305556,2.716826 L0.1305556,30.2435264 C0.1305556,31.7018947 1.27593,32.8868189 2.6856216,32.8868189 L17.5750489,32.8868189 C18.9847406,32.8868189 20.1305556,31.7018947 20.1305556,30.2435264 L20.1305556,2.716826 C20.1305556,1.25845776 18.9847406,0.07353357 17.5750489,0.07353357 Z"/>
</svg>
