<svg xmlns="http://www.w3.org/2000/svg" width="79" height="78" viewBox="0 0 79 78">
  <g fill-rule="evenodd" opacity=".104">
    <path d="M65.5531915 3.39130435C59.9929362 3.39130435 55.4680851 7.956 55.4680851 13.5652174 55.4680851 19.1744348 59.9929362 23.7391304 65.5531915 23.7391304 71.1134468 23.7391304 75.6382979 19.1744348 75.6382979 13.5652174 75.6382979 7.956 71.1134468 3.39130435 65.5531915 3.39130435M65.5531915 27.1304348C58.1372766 27.1304348 52.106383 21.0464348 52.106383 13.5652174 52.106383 6.084 58.1372766 0 65.5531915 0 72.9691064 0 79 6.084 79 13.5652174 79 21.0464348 72.9691064 27.1304348 65.5531915 27.1304348M65.5531915 54.2608696C59.9929362 54.2608696 55.4680851 58.8255652 55.4680851 64.4347826 55.4680851 70.044 59.9929362 74.6086957 65.5531915 74.6086957 71.1134468 74.6086957 75.6382979 70.044 75.6382979 64.4347826 75.6382979 58.8255652 71.1134468 54.2608696 65.5531915 54.2608696M65.5531915 78C58.1372766 78 52.106383 71.916 52.106383 64.4347826 52.106383 56.9535652 58.1372766 50.8695652 65.5531915 50.8695652 72.9691064 50.8695652 79 56.9535652 79 64.4347826 79 71.916 72.9691064 78 65.5531915 78M13.4468085 30.5217391C7.88655319 30.5217391 3.36170213 35.0864348 3.36170213 40.6956522 3.36170213 46.3048696 7.88655319 50.8695652 13.4468085 50.8695652 19.0070638 50.8695652 23.5319149 46.3048696 23.5319149 40.6956522 23.5319149 35.0864348 19.0070638 30.5217391 13.4468085 30.5217391M13.4468085 54.2608696C6.03089362 54.2608696 0 48.1768696 0 40.6956522 0 33.2144348 6.03089362 27.1304348 13.4468085 27.1304348 20.8627234 27.1304348 26.893617 33.2144348 26.893617 40.6956522 26.893617 48.1768696 20.8627234 54.2608696 13.4468085 54.2608696"/>
    <path d="M53.871263 59.3478261C53.6317317 59.3478261 53.3922005 59.2923552 53.1590568 59.1844951L24.4153083 45.3167733C23.626452 44.9346405 23.3070771 44.0101257 23.6999083 43.2458602 24.0959333 42.487758 25.0508645 42.1703413 25.8429144 42.5555558L54.5866629 56.4232776C55.3723254 56.8054104 55.6917004 57.7330069 55.3020629 58.491109 55.0178192 59.0334911 54.4589129 59.3478261 53.871263 59.3478261M25.1316843 37.3043478C24.5696283 37.3043478 24.0267334 36.9889846 23.7329314 36.4328602 23.3050024 35.6122376 23.5828369 34.5813728 24.3524703 34.1235875L53.0939681 17.168575C53.8604081 16.7175716 54.837619 17.0091978 55.265548 17.8230384 55.6966704 18.6436611 55.4156425 19.6745258 54.6492025 20.1357022L25.9077047 37.0907147C25.6618052 37.2331368 25.3967448 37.3043478 25.1316843 37.3043478"/>
  </g>
</svg>
