<svg xmlns="http://www.w3.org/2000/svg" width="89" height="91" viewBox="0 0 89 91">
  <path fill="#252525" fill-rule="evenodd" d="M88.8729175,36.1807105 L88.8729175,36.2861318 L88.8729175,89.4184696 C88.8729175,90.2628942 88.135121,90.9997892 87.2896632,90.9997892 L1.58283207,90.9997892 C0.738429791,90.9997892 -0.000422201102,90.2628942 -0.000422201102,89.4184696 L-0.000422201102,36.2861318 C-0.000422201102,35.5481827 0.421778937,34.9156548 1.05508065,34.8102335 L13.8266651,29.5391683 L13.8266651,1.81336505 C13.8266651,0.969994606 14.5665726,0.23204547 15.4099194,0.23204547 L73.4625759,0.23204547 C74.3069782,0.23204547 75.0458302,0.969994606 75.0458302,1.81336505 L75.0458302,29.5391683 L88.0285152,34.9156548 C88.4517718,35.2319188 88.7673672,35.653604 88.8729175,36.1807105 Z M4.96044118,36.4969744 L13.8266651,41.9788823 L13.8266651,32.8072287 L4.96044118,36.4969744 Z M75.0458302,41.873461 L83.9131096,36.3915531 L75.0458302,32.7018074 L75.0458302,41.873461 Z M85.7064089,39.0270857 L45.2806499,63.4848285 C44.8584488,63.6956711 44.6484037,63.6956711 44.4362476,63.6956711 C44.2251471,63.6956711 44.0140465,63.6956711 43.6973956,63.4848285 L3.16608634,39.0270857 L3.16608634,87.83715 L85.7064089,87.83715 L85.7064089,39.0270857 Z M16.9931736,43.7710445 L44.4362476,60.3221894 L71.8793216,43.6656232 L71.8793216,3.28926332 L16.9931736,3.28926332 L16.9931736,43.7710445 Z M61.4594595,38 C62.3837838,38 63,38.6 63,39.5 C63,40.3 62.2810811,41 61.4594595,41 L26.5405405,41 C25.7189189,41 25,40.3 25,39.5 C25,38.7 25.7189189,38 26.5405405,38 L61.4594595,38 Z M61.4594595,27 C62.3837838,27 63,27.6 63,28.5 C63,29.3 62.2810811,30 61.4594595,30 L26.5405405,30 C25.7189189,30 25,29.3 25,28.5 C25,27.7 25.7189189,27 26.5405405,27 L61.4594595,27 Z M52.5384615,20 C51.7179487,20 51,19.2820513 51,18.4615385 L51,9.53846154 C51,8.71794872 51.7179487,8 52.5384615,8 L61.4615385,8 C62.2820513,8 63,8.71794872 63,9.53846154 L63,18.4615385 C63,19.2820513 62.2820513,20 61.4615385,20 L52.5384615,20 Z M53.974359,17.025641 L59.9230769,17.025641 L59.9230769,11.0769231 L53.974359,11.0769231 L53.974359,17.025641 Z" opacity=".175"/>
</svg>
