<svg xmlns="http://www.w3.org/2000/svg" width="84" height="81" viewBox="0 0 84 81">
  <path fill-rule="evenodd" d="M29.5814831,44.5746951 C22.450722,36.4253049 23.9260519,21.3612805 23.9260519,21.2378049 L23.9260519,21.1143293 C24.6637168,4.07469512 37.326965,2.71646341 41.261178,2.71646341 L41.6300105,2.71646341 L41.7529546,2.71646341 L42.1217871,2.71646341 C45.933056,2.71646341 58.5975335,4.07469512 59.4569132,21.1143293 L59.4569132,21.2378049 C59.4569132,21.3612805 61.0564167,36.5487805 53.801482,44.5746951 C50.8508222,47.9085366 46.7936651,49.6371951 41.7529546,49.6371951 L41.6300105,49.6371951 L41.5070663,49.6371951 C36.5893,49.6371951 32.5321429,47.9085366 29.5814831,44.5746951 M9.29569723,66.0594512 C29.8273714,60.8734756 34.0074727,53.9588415 34.7451377,50.9954268 C36.7122442,51.7362805 39.0481832,52.1067073 41.3841222,52.1067073 L41.5070663,52.1067073 L41.7529546,52.1067073 L41.8758988,52.1067073 C44.5806702,52.1067073 47.0395534,51.6128049 49.2525482,50.625 C50.2361014,53.7118902 54.5391469,60.8734756 74.7019886,65.9359756 C81.218029,67.6646341 81.7098056,75.320122 81.4639173,79.6417683 C81.4639173,80.382622 81.9569233,80.8765244 82.5716441,81 L82.6933588,81 C83.3080796,81 83.9228004,80.5060976 83.9228004,79.8887195 C84.5375212,70.9984756 81.4639173,65.0716463 75.3167094,63.4664634 C54.2944881,58.1570122 51.8356049,50.9954268 51.5884872,49.3902439 C53.0650465,48.5259146 54.4162028,47.4146341 55.6456443,46.0564024 C63.3911262,37.2896341 62.0387405,21.8551829 61.9157963,20.7439024 C61.0564167,0.987804878 45.3183352,0 42.1217871,0 L41.6300105,0 L41.1382338,0 C37.9416858,0 22.3277778,0.987804878 21.3442246,20.7439024 C21.2212804,21.8551829 19.7459506,37.1661585 27.6143766,46.0564024 C28.9667623,47.6615854 30.5650364,48.8963415 32.4091987,49.7606707 C32.1633104,51.1189024 29.8273714,58.0335366 8.68097645,63.4664634 C2.65671276,65.0716463 -0.539835314,70.9984756 0.07488547,79.8887195 C0.07488547,80.5060976 0.689606254,81 1.30432704,81 L1.42727119,81 C2.16493614,81 2.65671276,80.382622 2.53376861,79.6417683 C2.28788029,75.4435976 2.77965692,67.7881098 9.29569723,66.0594512" opacity=".104"/>
</svg>
