<svg xmlns="http://www.w3.org/2000/svg" xmlns:xlink="http://www.w3.org/1999/xlink" width="48" height="48" viewBox="0 0 48 48">
  <defs>
    <path id="icon-map-a" d="M22.999,12 C25.205,12 27,13.794 27,16 C27,18.206 25.205,20 22.999,20 C20.794,20 19,18.206 19,16 C19,13.794 20.794,12 22.999,12 M22,22.5055 L22,29.95 C22,30.5317 22.447,31 23,31 C23.553,31 24,30.5317 24,29.95 L24,22.5055 C26.832,22.00255 29,19.41535 29,16.3 C29,12.82555 26.309,10 22.999,10 C19.69,10 17,12.82555 17,16.3 C17,19.41535 19.166,22.0036 22,22.5055 M38.7428569,34.5172308 L35.3631915,26.5953846 C34.7416322,25.1383077 33.0811088,24 31.5853239,24 L27.5426619,24 C26.9837639,24 26.5319964,24.4867692 26.5319964,25.0823077 C26.5319964,25.6821538 26.9837639,26.1538462 27.5426619,26.1538462 L31.5853239,26.1538462 C32.3018857,26.1538462 33.225634,26.7946154 33.5237803,27.4838462 L36.9054671,35.4110769 C37.002491,35.6296923 36.9802563,35.7481538 36.9701497,35.7621538 C36.9620643,35.7772308 36.8690831,35.8450769 36.6386514,35.8450769 L10.3613484,35.8450769 C10.129906,35.8450769 10.0369248,35.7772308 10.0288395,35.7621538 C10.0187328,35.7470769 10.0045835,35.6296923 10.0955434,35.4089231 L13.4752088,27.486 C13.7733551,26.7903077 14.6981141,26.1538462 15.4146759,26.1538462 L19.4573379,26.1538462 C20.0162359,26.1538462 20.4649714,25.6821538 20.4649714,25.0823077 C20.4649714,24.4867692 20.0142146,24 19.4553166,24 L15.4146759,24 C13.918891,24 12.2573569,25.1469231 11.6357976,26.5964615 L8.2581535,34.5161538 C7.89128192,35.3701538 7.91654856,36.2478462 8.32687875,36.9284615 C8.73720895,37.6101538 9.48004809,38 10.3603377,38 L36.6386514,38 C37.518941,38 38.2607695,37.6101538 38.6721104,36.9284615 C39.0844619,36.2456923 39.1077072,35.3690769 38.7428569,34.5172308"/>
  </defs>
  <g fill="none" fill-rule="evenodd">
    <use fill="#F26C4A" xlink:href="#icon-map-a"/>
  </g>
</svg>
