<?xml version="1.0" encoding="UTF-8"?>
<svg width="42px" height="43px" viewBox="0 0 42 43" version="1.1" xmlns="http://www.w3.org/2000/svg" xmlns:xlink="http://www.w3.org/1999/xlink">
    <!-- Generator: Sketch 49.3 (51167) - http://www.bohemiancoding.com/sketch -->
    <title>Mask</title>
    <desc>Created with Sketch.</desc>
    <defs>
        <path d="M44.4513705,26.0560614 L45.1102243,25.9228768 L45.6409909,28.5559935 L43.2194729,29.0443368 L44.4513705,26.0560614 Z M10.7418306,35.6160297 L11.9779141,32.623985 L14.4609642,32.1205642 L13.2282294,35.1121902 L10.7418306,35.6160297 Z M14.3542248,34.8835149 L15.581518,31.8952394 L15.586541,31.8952394 L18.0695911,31.3913999 L16.8372749,34.3834447 L14.3542248,34.8835149 Z M17.9624332,34.1543505 L19.1939122,31.1623057 L21.6736136,30.6622356 L20.4446461,33.650511 L20.4412974,33.650511 L17.9624332,34.1543505 Z M21.5706415,33.4251862 L22.8021205,30.4335602 L25.2818219,29.93349 L24.053273,32.9217655 L24.0495057,32.9217655 L21.5706415,33.4251862 Z M25.1742454,32.6964407 L26.4065616,29.7043959 L28.8929603,29.2005563 L27.6610628,32.1926011 L25.1742454,32.6964407 Z M28.786221,31.9639258 L30.0147699,28.9756504 L32.49782,28.4718108 L31.266341,31.4638556 L28.786221,31.9639258 Z M32.3940107,31.2351803 L33.6229782,28.2469049 L33.6267455,28.2469049 L36.1060283,27.7430653 L34.8737122,30.7351101 L32.3940107,31.2351803 Z M35.999289,30.5055972 L37.2311866,27.5173217 L39.7142367,27.013901 L38.4856878,30.0017576 L38.4819205,30.0017576 L35.999289,30.5055972 Z M39.6066602,29.7768516 L40.8381391,26.7848069 L43.3216078,26.2847367 L42.0892917,29.2730121 L39.6066602,29.7768516 Z M8.42663338,33.3414223 L10.84857,32.8530791 L9.62085825,35.8413545 L8.96074867,35.974539 L8.42663338,33.3414223 Z M38.9088779,11.0016031 C40.7548406,11.0016031 42.3609538,12.3141827 42.7221932,14.1192937 L44.9189307,24.9872346 L44.0386451,25.1669081 C44.0156228,25.1706774 43.992182,25.1782162 43.9704156,25.1824044 L40.4304367,25.8956536 C40.4069959,25.8994229 40.3848109,25.9069617 40.3613701,25.9107311 L36.8222284,26.6243991 C36.7996248,26.6281685 36.7766025,26.6357072 36.7535803,26.6398954 L33.21402,27.3573328 C33.1909978,27.3611022 33.1688128,27.3648715 33.145372,27.3724103 L29.6062303,28.0860783 C29.5827895,28.0898477 29.5606045,28.0969676 29.5367451,28.1011558 L25.998022,28.8148238 C25.9745812,28.8185932 25.9528147,28.8261319 25.9297925,28.8303201 L22.3944181,29.5435693 C22.36721,29.5477575 22.3446064,29.5515269 22.3211656,29.5586468 L18.7820239,30.276503 C18.7585831,30.2802724 18.736398,30.2873923 18.7133758,30.2911617 L15.1742341,31.0052485 C15.1512119,31.0090179 15.1277711,31.0161378 15.1051675,31.020326 L11.5660258,31.733994 C11.542585,31.7377634 11.5203999,31.7453022 11.4969591,31.7490715 L8.23575832,32.4053613 L6.04278808,21.5416086 C5.6162493,19.4387171 6.98125711,17.3818957 9.08674295,16.9547 L38.1424475,11.0778282 C38.3935989,11.0279887 38.653122,11.0016031 38.9088779,11.0016031 Z M12.9733107,40.0768737 C11.1277666,40.0768737 9.52207203,38.7642941 9.15580959,36.9554137 L9.14785646,36.9097624 L9.98670211,36.7380465 C9.99549241,36.7380465 10.0063756,36.7342772 10.0134916,36.7342772 C10.0440483,36.7305078 10.0704192,36.7267384 10.0976273,36.7191997 L13.5944919,36.009301 C13.602445,36.009301 13.6137468,36.0055317 13.6216999,36.0055317 L13.7049985,35.9900353 C13.7129516,35.986266 13.7204861,35.9820778 13.7280207,35.9820778 L17.2449773,35.2725979 C17.2671624,35.2688286 17.289766,35.2612898 17.3132068,35.2575205 L20.8138386,34.5476218 C20.8222103,34.5476218 20.8335122,34.5438524 20.8410467,34.5438524 C20.8716035,34.5400831 20.8979743,34.5363137 20.9251824,34.5287749 L24.4182797,33.8188763 C24.4262328,33.8188763 24.4375346,33.8151069 24.4450692,33.8151069 C24.4747888,33.8113376 24.5024154,33.8075682 24.5283677,33.8000294 L28.0716953,33.0821732 C28.0951361,33.0784039 28.1177397,33.0712839 28.1407619,33.0670957 L31.6761364,32.3534277 C31.7033444,32.3496583 31.7255295,32.345889 31.7485517,32.338769 L35.2462534,31.6284516 C35.2500207,31.6284516 35.2533694,31.6284516 35.256718,31.6246822 C35.2722057,31.6246822 35.2872748,31.6246822 35.303181,31.6209128 C35.322436,31.6171435 35.3408538,31.6129553 35.3601087,31.6096047 L38.8959017,30.8917485 C38.9189239,30.8879791 38.9415275,30.8808592 38.9645498,30.8770898 L42.5036915,30.163003 C42.5267137,30.1592336 42.5497359,30.1521137 42.5731767,30.1483443 L45.8297731,29.4916357 L45.8373076,29.5339365 C46.2609163,31.6405973 44.8992572,33.6974187 42.7979572,34.1212638 L13.7401597,39.9968792 C13.4881711,40.0500692 13.2282294,40.0768737 12.9733107,40.0768737 Z M46.7741023,29.3458866 L46.6715488,28.8386965 L46.6715488,28.8345083 L45.9503257,25.2657494 C45.9503257,25.26198 45.9503257,25.2582107 45.9461399,25.2548601 L43.6577321,13.9320815 C43.2035667,11.6805091 41.2056574,10.0475328 38.9088779,10.0475328 C38.5878227,10.0475328 38.2684418,10.0781066 37.9515725,10.1430236 L8.89628648,16.0198955 C6.27970756,16.5501206 4.57815687,19.1112004 5.10892348,21.7288208 L7.39733125,33.0629075 L8.22068923,37.1463953 C8.67862194,39.3937795 10.6769499,41.0309439 12.9733107,41.0309439 C13.2935288,41.0309439 13.6141654,40.9966008 13.9306161,40.9321026 L42.9867393,35.0548119 C45.6028996,34.5245868 47.3031946,31.9639258 46.7741023,29.3458866 Z M10.2611287,19.7499054 C10.8955361,19.7499054 11.4432827,20.2032021 11.5714081,20.8269517 C11.6402392,21.1749078 11.5714081,21.533232 11.3748662,21.8322503 C11.1750071,22.1308538 10.872316,22.3307523 10.5248431,22.4029148 C9.807092,22.5464104 9.08934085,22.0661564 8.94545891,21.3565583 C8.7982598,20.6349331 9.26971159,19.9240908 9.99160919,19.7801805 C10.0832458,19.761103 10.1744678,19.7499054 10.2611287,19.7499054 M8.02079972,21.5448444 C8.23641531,22.6028133 9.17641638,23.373791 10.2573969,23.373791 C10.4083278,23.373791 10.5596734,23.3584461 10.7106043,23.328171 C11.3114254,23.2074854 11.825171,22.8599441 12.1614484,22.3531475 C12.4981405,21.8434479 12.6192169,21.2350432 12.4981405,20.6378362 C12.2825249,19.5753053 11.3412799,18.805157 10.2615433,18.805157 C10.1101978,18.805157 9.9551204,18.823405 9.80750664,18.8536801 C8.57186342,19.1033458 7.77159785,20.3089575 8.02079972,21.5448444 M14.4750713,23.5719155 L14.5625214,24.0259545 L14.1131368,24.1146505 L14.0256867,23.6601891 C14.1750632,23.6310461 14.3252765,23.6014808 14.4750713,23.5719155 Z M15.3738406,23.3953682 L15.4612907,23.8494072 L15.0119061,23.9376809 L14.924456,23.4836418 C15.0746693,23.4540765 15.2240457,23.4245111 15.3738406,23.3953682 Z M16.2734468,23.2183985 L16.3608968,23.6724376 L15.9110938,23.7611336 L15.8236437,23.3070945 C15.9734386,23.2775292 16.122815,23.2479638 16.2734468,23.2183985 Z M17.172216,23.0418512 L17.2596661,23.4958903 L16.8102815,23.5841639 L16.7228314,23.1301249 C16.8722079,23.1005595 17.0220027,23.0709942 17.172216,23.0418512 Z M18.0709853,22.8653039 L18.1588538,23.3189207 L17.7090508,23.4076167 L17.6220191,22.9535776 C17.7713956,22.9240122 17.9211904,22.8944469 18.0709853,22.8653039 Z M18.9697546,22.6883343 L19.0576231,23.1423734 L18.6082385,23.230647 L18.52037,22.7766079 C18.6701648,22.7470426 18.8203782,22.7178996 18.9697546,22.6883343 Z M19.8689423,22.511787 L19.9568108,22.9658261 L19.5070078,23.0540997 L19.4191393,22.6000606 C19.569771,22.5704953 19.7191474,22.5413523 19.8689423,22.511787 Z M20.76813,22.3348173 L20.8559985,22.7888564 L20.4066139,22.8771301 L20.3187454,22.423091 C20.4685403,22.3935256 20.6183351,22.3643827 20.76813,22.3348173 Z M21.6668993,22.1582701 L21.7547678,22.6123091 L21.3053832,22.7005828 L21.2175147,22.2465437 C21.367728,22.2169784 21.5175229,22.187413 21.6668993,22.1582701 Z M22.566087,21.9813004 L22.6539555,22.4357618 L22.2045709,22.5240355 L22.1167024,22.069574 C22.2664973,22.0404311 22.4162921,22.0108657 22.566087,21.9813004 Z M23.4648563,21.8047531 L23.5527248,22.2587922 L23.1033402,22.3470658 L23.0154717,21.8930268 C23.165685,21.8634614 23.3154798,21.8343184 23.4648563,21.8047531 Z M24.3644624,21.6277835 L24.4519125,22.0822449 L24.0025279,22.1705185 L23.9146594,21.7164795 L24.3644624,21.6277835 Z M25.2632317,21.4512362 L25.3506818,21.9052752 L24.9012972,21.9935489 L24.8138471,21.5395098 C24.9632235,21.5103668 25.1134368,21.4808015 25.2632317,21.4512362 Z M26.1624194,21.2746889 L26.2498695,21.728728 L25.8000664,21.8170016 L25.7126164,21.3629625 C25.8624112,21.3333972 26.0126245,21.3038319 26.1624194,21.2746889 Z M15.0937377,26.5339395 L15.1814376,26.9895162 L14.7307695,27.0780888 L14.6430697,26.6225121 C14.7928727,26.5932704 14.9439347,26.563605 15.0937377,26.5339395 Z M15.9950739,26.3567943 L16.0827737,26.812371 L15.6321057,26.9009436 L15.5444058,26.4453669 C15.6950481,26.4157014 15.8452708,26.386036 15.9950739,26.3567943 Z M16.8972493,26.1792253 L16.9849491,26.6348021 L16.5338614,26.7237984 L16.4461616,26.2682217 L16.8972493,26.1792253 Z M17.7985855,26.0020802 L17.8862853,26.4576569 L17.4356172,26.5462295 L17.3479174,26.0906528 C17.4977204,26.0609873 17.6479431,26.0313218 17.7985855,26.0020802 Z M18.7003412,25.8245112 L18.7880411,26.2800879 L18.3369534,26.3690843 L18.2496731,25.9135076 C18.3994762,25.8838421 18.5496989,25.8541767 18.7003412,25.8245112 Z M19.6016774,25.647366 L19.6893772,26.1029427 L19.2387091,26.1915153 L19.1510093,25.7359386 C19.3008124,25.7062731 19.4514547,25.6770315 19.6016774,25.647366 Z M20.5034332,25.4702208 L20.591133,25.9253738 L20.1400453,26.0143701 L20.0523455,25.5587934 C20.2029878,25.529128 20.3527908,25.4994625 20.5034332,25.4702208 Z M21.4051889,25.2926519 L21.4928888,25.7482286 L21.0422207,25.8368012 L20.9545209,25.3812244 C21.1043239,25.351559 21.2545466,25.3223173 21.4051889,25.2926519 Z M22.3065251,25.1155067 L22.3942249,25.5710834 L21.9435569,25.659656 L21.855857,25.2040793 C22.0060797,25.1744138 22.1563024,25.1447483 22.3065251,25.1155067 Z M23.2078612,24.9379377 L23.2959807,25.3939382 L22.8453126,25.4825108 L22.7571932,25.0265103 C22.9074159,24.9972686 23.0576386,24.9676032 23.2078612,24.9379377 Z M24.1091974,24.7607925 L24.1973169,25.2163692 L23.7466488,25.3049418 L23.6585293,24.8493651 C23.8095913,24.8196997 23.9593943,24.790458 24.1091974,24.7607925 Z M25.0113728,24.5832236 L25.0994923,25.0392241 L24.6484046,25.1277967 L24.5602851,24.6717961 C24.7109274,24.6425545 24.8607305,24.612889 25.0113728,24.5832236 Z M25.912709,24.4060784 L26.0008284,24.8616551 L25.5501603,24.9502277 L25.4620409,24.494651 C25.6122636,24.4654093 25.7624863,24.4357438 25.912709,24.4060784 Z M26.8144647,24.2289332 L26.9025842,24.6845099 L26.4514965,24.7730825 L26.363377,24.3175058 C26.5140193,24.2878403 26.664242,24.2581749 26.8144647,24.2289332 Z M27.7158009,24.0513642 L27.8039203,24.5069409 L27.3532523,24.5955135 L27.2651328,24.1403606 C27.4149359,24.1106951 27.5659978,24.0810297 27.7158009,24.0513642 Z M28.6175567,23.874219 L28.7052565,24.3297958 L28.2545884,24.4183684 L28.166469,23.9627916 C28.3171113,23.9331262 28.467334,23.9034607 28.6175567,23.874219 Z M29.5193124,23.6966501 L29.6070123,24.1522268 L29.1563442,24.2407994 L29.0686444,23.7852227 C29.2184474,23.755981 29.3690897,23.7263155 29.5193124,23.6966501 Z M30.4206486,23.5195049 L30.5083484,23.9750816 L30.0576804,24.0636542 L29.9699805,23.6080775 C30.1202032,23.578412 30.2708455,23.5491704 30.4206486,23.5195049 Z M31.3224044,23.3419359 L31.4101042,23.7975126 L30.9594361,23.886509 L30.8717363,23.4309323 C31.0215394,23.4012668 31.1721817,23.3716014 31.3224044,23.3419359 Z M32.2237405,23.1647907 L32.3114404,23.6203675 L31.8607723,23.7089401 L31.7730724,23.2533633 C31.9232951,23.2236979 32.0739375,23.1944562 32.2237405,23.1647907 Z M33.1259159,22.9872218 L33.2136158,23.4432223 L32.7621084,23.5317949 L32.6744086,23.0762182 C32.8250509,23.0465527 32.974854,23.0168872 33.1259159,22.9872218 Z M34.0272521,22.8100766 L34.1149519,23.2656533 L33.6642838,23.3546497 L33.576584,22.8986492 C33.7263871,22.8694075 33.8766098,22.8397421 34.0272521,22.8100766 Z M34.9290078,22.6329314 L35.0167077,23.0885081 L34.56562,23.1770807 L34.4779202,22.721504 C34.6281428,22.6918385 34.7783655,22.6621731 34.9290078,22.6329314 Z" id="path-1"></path>
    </defs>
    <g id="-" stroke="none" stroke-width="1" fill="none" fill-rule="evenodd">
        <g id="icon/card" transform="translate(-5.000000, -4.000000)">
            <mask id="mask-2" fill="white">
                <use xlink:href="#path-1"></use>
            </mask>
            <use id="Mask" fill="#FFFFFF" opacity="0.4" transform="translate(25.941267, 25.539238) rotate(-33.000000) translate(-25.941267, -25.539238) " xlink:href="#path-1"></use>
        </g>
    </g>
</svg>