<svg xmlns="http://www.w3.org/2000/svg" xmlns:xlink="http://www.w3.org/1999/xlink" width="48" height="48" viewBox="0 0 48 48">
  <defs>
    <path id="icon-app-a" d="M32.368441,38.2435264 C32.368441,38.6992665 32.0155776,39.0638586 31.5750489,39.0638586 L16.6856216,39.0638586 C16.245093,39.0638586 15.8926701,38.6992665 15.8926701,38.2435264 L15.8926701,34.8254759 L32.3239476,34.8254759 L32.3239476,38.2435264 L32.368441,38.2435264 Z M15.8926701,10.716826 C15.8926701,10.2610859 16.245093,9.89649386 16.6856216,9.89649386 L31.5750489,9.89649386 C32.0155776,9.89649386 32.368441,10.2610859 32.368441,10.716826 L32.368441,11.9473242 L15.8926701,11.9473242 L15.8926701,10.716826 Z M15.8926701,26.0296925 L17.7428904,26.0296925 C18.2274719,26.0296925 18.6239476,25.6195264 18.6239476,25.1182123 C18.6239476,24.6168982 18.2274719,24.2067322 17.7428904,24.2067322 L15.8926701,24.2067322 L15.8926701,22.5660679 L19.4168992,22.5660679 C19.9014807,22.5660679 20.2979564,22.1559018 20.2979564,21.6545878 C20.2979564,21.1532737 19.9014807,20.7431076 19.4168992,20.7431076 L15.8926701,20.7431076 L15.8926701,13.7702845 L32.3239476,13.7702845 L32.3239476,33.0025156 L15.8926701,33.0025156 L15.8926701,26.0296925 Z M22.8261196,38.1522873 C22.4047444,38.1522873 22.0599829,37.7425769 22.0599829,37.2408071 C22.0599829,36.739493 22.4047444,36.329327 22.8261196,36.329327 L25.6991325,36.329327 C26.1205077,36.329327 26.4652692,36.739493 26.4652692,37.2408071 C26.4652692,37.7425769 26.1205077,38.1522873 25.6991325,38.1522873 L22.8261196,38.1522873 Z M31.5750489,8.07353357 L16.6856216,8.07353357 C15.27593,8.07353357 14.1305556,9.25845776 14.1305556,10.716826 L14.1305556,38.2435264 C14.1305556,39.7018947 15.27593,40.8868189 16.6856216,40.8868189 L31.5750489,40.8868189 C32.9847406,40.8868189 34.1305556,39.7018947 34.1305556,38.2435264 L34.1305556,10.716826 C34.1305556,9.25845776 32.9847406,8.07353357 31.5750489,8.07353357 Z"/>
  </defs>
  <g fill="none" fill-rule="evenodd">
    <use fill="#8CC63F" xlink:href="#icon-app-a"/>
  </g>
</svg>
