<svg xmlns="http://www.w3.org/2000/svg" width="39" height="34" viewBox="0 0 39 34">
  <path fill="#FFF" d="M32.2203644,32.0299814 C29.354266,32.0299814 27.021916,29.6976315 27.0214934,26.831533 C27.0214934,23.9654346 29.3538434,21.6330846 32.2199418,21.632662 C35.0860403,21.632662 37.4183902,23.965012 37.4188128,26.8311104 C37.4150094,29.6946733 35.083082,32.026178 32.2203644,32.0299814 Z M22.9877409,22.2648772 C23.4238679,22.2648772 23.7780098,21.9098901 23.7780098,21.4733404 C23.7775872,21.037636 23.4234453,20.6834941 22.9877409,20.6834941 L20.0688169,20.6834941 L20.0519128,20.6386981 C17.7275923,14.4585412 10.7846357,11.2568954 4.57574182,13.5017664 L4.4823464,13.5355747 L4.4823464,11.4441088 L6.2209381,10.2827938 L12.8718755,10.2827938 L14.690762,12.4000385 C14.8407863,12.5749964 15.059695,12.6755761 15.2904366,12.6755761 L29.8711103,12.6755761 C31.0155212,12.6768439 31.947785,13.6091077 31.9494754,14.753096 L31.9494754,16.8323063 C31.9490528,17.0715 32.055549,17.2959026 32.2414946,17.4463495 L33.9758603,18.8544651 L33.9758603,20.2820205 L33.8888039,20.2596225 C30.6770156,19.4456878 27.3684511,21.0532723 26.0245712,24.0837636 L26.0059767,24.1256014 L20.8033022,24.1256014 L20.7990762,24.060943 C20.7593514,23.4878924 20.6777889,22.9123061 20.556079,22.3493979 L20.5379071,22.2648772 L22.9877409,22.2648772 Z M15.6534532,11.094193 L13.8345668,8.9765257 C13.6841199,8.8015678 13.4656338,8.7014107 13.2348921,8.7014107 L11.2892246,8.7014107 L11.2892246,1.58138313 L16.3870933,1.58138313 L18.9011629,11.094193 L15.6534532,11.094193 Z M6.7715908,8.7014107 L6.7715908,3.6593256 C6.7728586,2.51491476 7.7046998,1.58265095 8.8491107,1.58138313 L9.708264,1.58138313 L9.708264,8.7014107 L6.7715908,8.7014107 Z M35.5923195,20.9539604 L35.5572434,20.9336755 L35.5572434,18.4783478 C35.5572434,18.2387315 35.4511699,18.0147515 35.2652243,17.8643046 L33.530436,16.456189 L33.530436,14.753096 C33.5283229,12.7381214 31.8869301,11.0967286 29.8715329,11.094193 L26.3808262,11.094193 L26.3808262,7.4652948 C26.3795584,6.0783094 25.2499386,4.9491122 23.8629532,4.9478444 C23.4268261,4.9478444 23.0726842,5.3028315 23.0726842,5.7389586 C23.0726842,6.1742404 23.4272487,6.5288049 23.8625306,6.5288049 C24.3785297,6.5296501 24.7985978,6.9497182 24.799443,7.4652948 L24.799443,11.094193 L20.5370619,11.094193 L18.0225697,1.58138313 L18.4586968,1.58138313 C18.8948238,1.58138313 19.2493883,1.22639601 19.2493883,0.79069157 C19.2493883,0.35456452 18.8948238,0 18.4586968,0 L8.8486881,0 C6.8337135,0.00211302 5.1923207,1.64350588 5.1902076,3.658903 L5.1902076,9.0690759 L3.25256956,10.3643563 C3.03239302,10.5114224 2.90138587,10.7573778 2.90138587,11.0219277 L2.90138587,14.2552688 L2.86504195,14.2755538 C1.97926454,14.7623933 1.15518728,15.3586871 0.41605337,16.0479538 C0.09741016,16.3454668 0.08050601,16.8466749 0.37801903,17.1653181 C0.67553205,17.4839613 1.17758528,17.5008654 1.49580588,17.2033524 C5.7463541,13.2304548 12.4353259,13.4565478 16.4078009,17.7054056 C18.2427463,19.6683999 19.2523465,22.2293785 19.2510787,24.9167156 C19.2515013,25.3515748 19.6060659,25.7061393 20.0417703,25.7065619 L25.5335057,25.7065619 L25.5208276,25.7872792 C25.4680021,26.1308561 25.4409555,26.4820398 25.4405329,26.831533 C25.4392651,28.6419674 26.1437455,30.345483 27.4233896,31.6263949 C28.7034562,32.9077294 30.4052814,33.6139002 32.2161384,33.615168 L32.220787,33.615168 C34.0299536,33.615168 35.7313562,32.9111102 37.0114228,31.6327339 C38.2923347,30.3530899 38.9985055,28.6508421 38.9997734,26.8399851 C39.0014638,24.4150849 37.6956183,22.1600715 35.5923195,20.9539604 Z M33.97679,26.8312372 C33.9755222,27.7985771 33.1877889,28.5863105 32.2204489,28.5875783 C31.2518412,28.5875783 30.4636853,27.7998449 30.4636853,26.8316598 C30.4636853,25.8630521 31.2518412,25.0753187 32.2204489,25.0753187 C33.1890567,25.0753187 33.97679,25.8630521 33.97679,26.8312372 Z M32.2208715,23.4943582 L32.2204489,23.4943582 C30.3800097,23.4943582 28.8827247,24.9912206 28.8827247,26.8316598 C28.8827247,28.6716764 30.3795871,30.1689614 32.2200263,30.1689614 C34.0604656,30.1689614 35.5577506,28.6716764 35.5577506,26.8312372 C35.5556375,24.9933336 34.0583525,23.4960486 32.2208715,23.4943582 Z M15.8091827,24.9158704 C15.8045341,28.8342521 12.6134533,32.0253328 8.6954942,32.0299814 C4.77246385,32.0299814 1.58138313,28.8389007 1.58138313,24.916293 C1.58138313,20.9936852 4.77246385,17.8021819 8.6954942,17.8021819 C12.618102,17.8021819 15.8091827,20.9936852 15.8091827,24.9158704 Z M8.6954942,16.2207987 C3.90063237,16.2207987 0,20.1214311 0,24.9158704 C0,29.709887 3.90063237,33.6105194 8.6950716,33.610942 C13.4895109,33.610942 17.3901432,29.7107322 17.3901432,24.9158704 C17.3846494,20.1273476 13.4844396,16.2267152 8.6954942,16.2207987 Z M8.6952829,20.5900564 C11.0779227,20.5930146 13.0180964,22.5331883 13.0210546,24.9158281 C13.0210546,26.0716493 12.5709817,27.1581635 11.7536661,27.9750565 C10.9367731,28.7919495 9.8506815,29.2415998 8.6957055,29.2415998 L8.6948603,29.2415998 C7.5394617,29.2415998 6.4529476,28.7919495 5.6360546,27.9746338 C4.81916157,27.1577409 4.3690886,26.0716493 4.3690886,24.9158281 C4.3690886,22.5306527 6.3096849,20.5900564 8.6952829,20.5900564 Z M8.6952829,22.1714395 C7.1815164,22.1714395 5.9504717,23.4029068 5.9504717,24.9162507 C5.9504717,26.4295946 7.1815164,27.6610619 8.6952829,27.6610619 C10.2069364,27.6589489 11.4384037,26.4274816 11.4400941,24.9158281 C11.4400941,23.4029068 10.2090495,22.1714395 8.6952829,22.1714395 Z M22.1484499,14.8483086 C22.5833091,14.8487312 22.9382962,15.2032957 22.9387188,15.6385776 L22.9387188,17.6941221 C22.9387188,18.1302491 22.5837317,18.4848137 22.1480273,18.4848137 C21.7123228,18.4848137 21.3577583,18.1302491 21.3577583,17.6941221 L21.3577583,15.6385776 C21.3581809,15.2032957 21.7127454,14.8487312 22.1476047,14.8483086 L22.1484499,14.8483086 Z M25.5899233,18.4846024 C25.379044,18.4846024 25.1804203,18.4026172 25.0316638,18.2534381 C24.8816395,18.104259 24.7996543,17.9056353 24.7996543,17.6943334 L24.7996543,15.6387889 C24.8000769,15.2030844 25.1546415,14.8489425 25.5895007,14.8485199 L25.5903459,14.8485199 C26.0252051,14.8489425 26.3801923,15.2030844 26.3806149,15.6383663 L26.3806149,17.6943334 C26.3806149,18.1300378 26.0260503,18.4846024 25.5903459,18.4846024 L25.5899233,18.4846024 Z M29.0318616,18.485025 C28.5970024,18.4846024 28.2420152,18.1300378 28.2415926,17.6943334 L28.2415926,15.6387889 C28.2420152,15.2039297 28.5961571,14.8497877 29.0305938,14.8489425 L29.0318616,14.8489425 C29.4671434,14.8489425 29.8221305,15.2026618 29.8225532,15.6383663 L29.8225532,17.6943334 C29.8221305,18.1296152 29.467566,18.4841798 29.0327068,18.485025 L29.0318616,18.485025 Z"/>
</svg>
