<svg xmlns="http://www.w3.org/2000/svg" xmlns:xlink="http://www.w3.org/1999/xlink" width="48" height="48" viewBox="0 0 48 48">
  <defs>
    <path id="icon-tractor-a" d="M37.2203644,39.0299814 C34.354266,39.0299814 32.021916,36.6976315 32.0214934,33.831533 C32.0214934,30.9654346 34.3538434,28.6330846 37.2199418,28.632662 C40.0860403,28.632662 42.4183902,30.965012 42.4188128,33.8311104 C42.4150094,36.6946733 40.083082,39.026178 37.2203644,39.0299814 Z M27.9877409,29.2648772 C28.4238679,29.2648772 28.7780098,28.9098901 28.7780098,28.4733404 C28.7775872,28.037636 28.4234453,27.6834941 27.9877409,27.6834941 L25.0688169,27.6834941 L25.0519128,27.6386981 C22.7275923,21.4585412 15.7846357,18.2568954 9.57574182,20.5017664 L9.4823464,20.5355747 L9.4823464,18.4441088 L11.2209381,17.2827938 L17.8718755,17.2827938 L19.690762,19.4000385 C19.8407863,19.5749964 20.059695,19.6755761 20.2904366,19.6755761 L34.8711103,19.6755761 C36.0155212,19.6768439 36.947785,20.6091077 36.9494754,21.753096 L36.9494754,23.8323063 C36.9490528,24.0715 37.055549,24.2959026 37.2414946,24.4463495 L38.9758603,25.8544651 L38.9758603,27.2820205 L38.8888039,27.2596225 C35.6770156,26.4456878 32.3684511,28.0532723 31.0245712,31.0837636 L31.0059767,31.1256014 L25.8033022,31.1256014 L25.7990762,31.060943 C25.7593514,30.4878924 25.6777889,29.9123061 25.556079,29.3493979 L25.5379071,29.2648772 L27.9877409,29.2648772 Z M20.6534532,18.094193 L18.8345668,15.9765257 C18.6841199,15.8015678 18.4656338,15.7014107 18.2348921,15.7014107 L16.2892246,15.7014107 L16.2892246,8.58138313 L21.3870933,8.58138313 L23.9011629,18.094193 L20.6534532,18.094193 Z M11.7715908,15.7014107 L11.7715908,10.6593256 C11.7728586,9.51491476 12.7046998,8.58265095 13.8491107,8.58138313 L14.708264,8.58138313 L14.708264,15.7014107 L11.7715908,15.7014107 Z M40.5923195,27.9539604 L40.5572434,27.9336755 L40.5572434,25.4783478 C40.5572434,25.2387315 40.4511699,25.0147515 40.2652243,24.8643046 L38.530436,23.456189 L38.530436,21.753096 C38.5283229,19.7381214 36.8869301,18.0967286 34.8715329,18.094193 L31.3808262,18.094193 L31.3808262,14.4652948 C31.3795584,13.0783094 30.2499386,11.9491122 28.8629532,11.9478444 C28.4268261,11.9478444 28.0726842,12.3028315 28.0726842,12.7389586 C28.0726842,13.1742404 28.4272487,13.5288049 28.8625306,13.5288049 C29.3785297,13.5296501 29.7985978,13.9497182 29.799443,14.4652948 L29.799443,18.094193 L25.5370619,18.094193 L23.0225697,8.58138313 L23.4586968,8.58138313 C23.8948238,8.58138313 24.2493883,8.22639601 24.2493883,7.79069157 C24.2493883,7.35456452 23.8948238,7 23.4586968,7 L13.8486881,7 C11.8337135,7.00211302 10.1923207,8.64350588 10.1902076,10.658903 L10.1902076,16.0690759 L8.25256956,17.3643563 C8.03239302,17.5114224 7.90138587,17.7573778 7.90138587,18.0219277 L7.90138587,21.2552688 L7.86504195,21.2755538 C6.97926454,21.7623933 6.15518728,22.3586871 5.41605337,23.0479538 C5.09741016,23.3454668 5.08050601,23.8466749 5.37801903,24.1653181 C5.67553205,24.4839613 6.17758528,24.5008654 6.49580588,24.2033524 C10.7463541,20.2304548 17.4353259,20.4565478 21.4078009,24.7054056 C23.2427463,26.6683999 24.2523465,29.2293785 24.2510787,31.9167156 C24.2515013,32.3515748 24.6060659,32.7061393 25.0417703,32.7065619 L30.5335057,32.7065619 L30.5208276,32.7872792 C30.4680021,33.1308561 30.4409555,33.4820398 30.4405329,33.831533 C30.4392651,35.6419674 31.1437455,37.345483 32.4233896,38.6263949 C33.7034562,39.9077294 35.4052814,40.6139002 37.2161384,40.615168 L37.220787,40.615168 C39.0299536,40.615168 40.7313562,39.9111102 42.0114228,38.6327339 C43.2923347,37.3530899 43.9985055,35.6508421 43.9997734,33.8399851 C44.0014638,31.4150849 42.6956183,29.1600715 40.5923195,27.9539604 Z M38.97679,33.8312372 C38.9755222,34.7985771 38.1877889,35.5863105 37.2204489,35.5875783 C36.2518412,35.5875783 35.4636853,34.7998449 35.4636853,33.8316598 C35.4636853,32.8630521 36.2518412,32.0753187 37.2204489,32.0753187 C38.1890567,32.0753187 38.97679,32.8630521 38.97679,33.8312372 M37.2208715,30.4943582 L37.2204489,30.4943582 C35.3800097,30.4943582 33.8827247,31.9912206 33.8827247,33.8316598 C33.8827247,35.6716764 35.3795871,37.1689614 37.2200263,37.1689614 C39.0604656,37.1689614 40.5577506,35.6716764 40.5577506,33.8312372 C40.5556375,31.9933336 39.0583525,30.4960486 37.2208715,30.4943582 M20.8091827,31.9158704 C20.8045341,35.8342521 17.6134533,39.0253328 13.6954942,39.0299814 C9.77246385,39.0299814 6.58138313,35.8389007 6.58138313,31.916293 C6.58138313,27.9936852 9.77246385,24.8021819 13.6954942,24.8021819 C17.618102,24.8021819 20.8091827,27.9936852 20.8091827,31.9158704 M13.6954942,23.2207987 C8.90063237,23.2207987 5,27.1214311 5,31.9158704 C5,36.709887 8.90063237,40.6105194 13.6950716,40.610942 C18.4895109,40.610942 22.3901432,36.7107322 22.3901432,31.9158704 C22.3846494,27.1273476 18.4844396,23.2267152 13.6954942,23.2207987 M13.6952829,29.1714395 C15.2090495,29.1714395 16.4400941,30.4029068 16.4400941,31.9158281 C16.4384037,33.4274816 15.2069364,34.6589489 13.6952829,34.6610619 C12.1815164,34.6610619 10.9504717,33.4295946 10.9504717,31.9162507 C10.9504717,30.4029068 12.1815164,29.1714395 13.6952829,29.1714395 M13.6952829,27.5900564 C16.0779227,27.5930146 18.0180964,29.5331883 18.0210546,31.9158281 C18.0210546,33.0716493 17.5709817,34.1581635 16.7536661,34.9750565 C15.9367731,35.7919495 14.8506815,36.2415998 13.6957055,36.2415998 L13.6948603,36.2415998 C12.5394617,36.2415998 11.4529476,35.7919495 10.6360546,34.9746338 C9.81916157,34.1577409 9.3690886,33.0716493 9.3690886,31.9158281 C9.3690886,29.5306527 11.3096849,27.5900564 13.6952829,27.5900564 Z M27.1484499,21.8483086 C27.5833091,21.8487312 27.9382962,22.2032957 27.9387188,22.6385776 L27.9387188,24.6941221 C27.9387188,25.1302491 27.5837317,25.4848137 27.1480273,25.4848137 C26.7123228,25.4848137 26.3577583,25.1302491 26.3577583,24.6941221 L26.3577583,22.6385776 C26.3581809,22.2032957 26.7127454,21.8487312 27.1476047,21.8483086 L27.1484499,21.8483086 Z M30.5899233,25.4846024 C30.379044,25.4846024 30.1804203,25.4026172 30.0316638,25.2534381 C29.8816395,25.104259 29.7996543,24.9056353 29.7996543,24.6943334 L29.7996543,22.6387889 C29.8000769,22.2030844 30.1546415,21.8489425 30.5895007,21.8485199 L30.5903459,21.8485199 C31.0252051,21.8489425 31.3801923,22.2030844 31.3806149,22.6383663 L31.3806149,24.6943334 C31.3806149,25.1300378 31.0260503,25.4846024 30.5903459,25.4846024 L30.5899233,25.4846024 Z M34.0318616,25.485025 C33.5970024,25.4846024 33.2420152,25.1300378 33.2415926,24.6943334 L33.2415926,22.6387889 C33.2420152,22.2039297 33.5961571,21.8497877 34.0305938,21.8489425 L34.0318616,21.8489425 C34.4671434,21.8489425 34.8221305,22.2026618 34.8225532,22.6383663 L34.8225532,24.6943334 C34.8221305,25.1296152 34.467566,25.4841798 34.0327068,25.485025 L34.0318616,25.485025 Z"/>
  </defs>
  <g fill="none" fill-rule="evenodd">
    <use fill="#0B8E36" xlink:href="#icon-tractor-a"/>
  </g>
</svg>
