<?xml version="1.0" encoding="utf-8"?>
<!-- Generator: Adobe Illustrator 22.1.0, SVG Export Plug-In . SVG Version: 6.00 Build 0)  -->
<svg version="1.1" id="Calque_1" xmlns="http://www.w3.org/2000/svg" xmlns:xlink="http://www.w3.org/1999/xlink" x="0px" y="0px"
	 viewBox="0 0 34 28" style="enable-background:new 0 0 34 28;" xml:space="preserve">
<style type="text/css">
	.st0{fill:#8CC63F;}
</style>
<g>
	<path id="LinkedIn" class="st0" d="M31.4,17.1v10.7h-6.2v-9.9c0-2.5-0.9-4.2-3.1-4.2c-1.7,0-2.7,1.1-3.2,2.3
		c-0.2,0.4-0.2,1-0.2,1.5v10.4h-6.2c0,0,0.1-16.8,0-18.6h6.2v2.6c0,0,0,0,0,0.1l0,0v-0.1c0.8-1.3,2.3-3.1,5.6-3.1
		C28.4,8.7,31.4,11.4,31.4,17.1z M6.1,0.2C4,0.2,2.6,1.6,2.6,3.4S3.9,6.6,6,6.6l0,0c2.2,0,3.5-1.4,3.5-3.2S8.2,0.2,6.1,0.2z M3,27.8
		h6.2V9.2H3V27.8z"/>
</g>
</svg>
