<svg xmlns="http://www.w3.org/2000/svg" xmlns:xlink="http://www.w3.org/1999/xlink" width="16" height="15" viewBox="0 0 16 15">
  <defs>
    <polygon id="search-a" points="0 0 16.031 0 16.031 15.921 0 15.921"/>
  </defs>
  <g fill="none" fill-rule="evenodd" transform="translate(-.1 -.1)">
    <mask id="search-b" fill="#fff">
      <use xlink:href="#search-a"/>
    </mask>
    <path fill="#000" d="M12.6938567,9.10228081 C11.8272419,12.0564019 8.78394406,13.7181716 5.92666197,12.8338559 C3.05028093,11.9438192 1.43224199,8.81827 2.2932862,5.88376407 C3.15413146,2.94925815 6.20319881,1.26787329 9.0604809,2.15218896 C11.9426314,3.0228149 13.5604714,6.14815975 12.6938567,9.10228081 M13.153823,16.6708624 C13.4072819,16.5145543 13.4802956,16.195604 13.3281009,15.9350905 L11.4568019,12.7527392 C12.6755535,11.7854678 13.5612672,10.3950408 13.8586935,8.67319973 C14.4205209,5.62468083 12.8102409,2.54428734 10.0255746,1.34122572 C6.2791967,-0.266398053 2.08817146,1.97912626 1.16326515,5.98204407 C0.423777787,9.21036838 2.18068199,12.5708905 5.22815776,13.7273662 C7.07956196,14.4284029 9.01213669,14.215497 10.579444,13.3348592 L12.4374135,16.4918743 C12.5953777,16.7327727 12.9059346,16.8075554 13.153823,16.6708624" mask="url(#search-b)" transform="rotate(-15 7.482 8.778)"/>
  </g>
</svg>
