<svg xmlns="http://www.w3.org/2000/svg" xmlns:xlink="http://www.w3.org/1999/xlink" width="129" height="80" viewBox="0 0 129 80">
  <defs>
    <polygon id="sima-asean-a" points=".36 1.234 7.772 1.234 7.772 9.535 .36 9.535"/>
    <polygon id="sima-asean-c" points="0 1.539 27.225 1.539 27.225 30.198 0 30.198"/>
  </defs>
  <g fill="none" fill-rule="evenodd" transform="translate(0 -1)">
    <g transform="translate(45.882 38.508)">
      <path fill="#919DA7" d="M1.29082353,4.21842326 C1.68082353,4.33474884 1.49729412,4.67228372 1.29082353,4.80005116 C2.50861765,5.13567907 3.44538235,4.97358605 1.80126471,5.67344651 C1.80126471,5.67344651 0.315823529,3.91712093 1.29082353,4.21842326"/>
      <path fill="#B92F91" d="M74.9639265 41.1401628L76.6367206 41.1401628C78.9958382 41.1516047 80.0205441 40.1790465 80.0205441 37.8029535 80.0205441 35.4268605 78.9958382 34.4543023 76.6367206 34.4676512L74.9639265 34.4676512 74.9639265 41.1401628zM74.18775 33.8192791L77.0286324 33.8192791C79.5062794 33.8764884 80.8024559 35.1942093 80.8024559 37.8029535 80.8024559 40.4155116 79.5062794 41.7313256 77.0286324 41.7866279L74.18775 41.7866279 74.18775 33.8192791zM75.5957647 5.48675349C76.1845882 5.48675349 76.2820882 4.99475349 76.2820882 3.69991628 76.2820882 2.41461395 76.1845882 1.91498605 75.5957647 1.91498605 75.0069412 1.91498605 74.9075294 2.41461395 74.9075294 3.69991628 74.9075294 4.99475349 75.0069412 5.48675349 75.5957647 5.48675349M75.5957647 1.19986977C77.0984118 1.19986977 77.2838529 2.23726512 77.2838529 3.69991628 77.2838529 5.16256744 77.0984118 6.19996279 75.5957647 6.19996279 74.0931176 6.19996279 73.9038529 5.16256744 73.9038529 3.69991628 73.9038529 2.23726512 74.0931176 1.19986977 75.5957647 1.19986977"/>
    </g>
    <polygon fill="#B92F91" points="127.678 39.805 127.131 43.357 127.12 43.357 126.531 39.805 125.573 39.805 124.99 43.357 124.977 43.357 124.426 39.805 123.468 39.805 124.371 44.616 125.491 44.616 126.047 41.122 126.063 41.122 126.619 44.616 127.735 44.616 128.638 39.805"/>
    <path fill="#B92F91" d="M2.07120588 79.6483163L4.76488235 79.6483163C5.92914706 79.6597581 6.929 79.2783628 6.929 78.0064093 6.929 76.9899907 6.13561765 76.4674791 4.76488235 76.4674791L2.07120588 76.4674791 2.07120588 79.6483163zM2.07120588 75.819107L4.76488235 75.819107C6.02091176 75.819107 6.61929412 75.2165023 6.61929412 74.4689674 6.61929412 73.4792465 5.98458824 72.9758047 4.76488235 72.9758047L2.07120588 72.9758047 2.07120588 75.819107zM1.28738235 72.3274326L4.76488235 72.3274326C6.149 72.3274326 7.39929412 72.7965488 7.39929412 74.2820837 7.39929412 75.1154326 6.82958824 75.8858512 5.97311765 76.067014L5.97311765 76.0879907C7.03414706 76.2214791 7.71091176 76.9899907 7.71091176 78.029293 7.71091176 78.7901767 7.43752941 80.2947814 4.76488235 80.2947814L1.28738235 80.2947814 1.28738235 72.3274326zM11.8015147 72.3281953L8.48269118 80.2917302 9.32577941 80.2917302 10.3141618 77.8164744 14.0573971 77.8164744 15.0591618 80.2917302 15.8946029 80.2917302 12.6751912 72.3281953 11.8015147 72.3281953zM12.2029853 73.0871721L13.78975 77.1719163 10.5569559 77.1719163 12.2029853 73.0871721z"/>
    <polygon fill="#B92F91" points="22.746 72.328 22.746 79.066 22.723 79.066 17.936 72.328 17.063 72.328 17.063 80.292 17.846 80.292 17.846 73.556 17.864 73.556 22.654 80.292 23.53 80.292 23.53 72.328"/>
    <g transform="translate(24.853 70.927)">
      <mask id="sima-asean-b" fill="#fff">
        <use xlink:href="#sima-asean-a"/>
      </mask>
      <path fill="#B92F91" d="M7.77208824,9.36764186 L7.20811765,9.36764186 L7.10488235,7.91643256 L7.08385294,7.91643256 C6.53135294,9.05680465 5.42444118,9.53545581 4.24105882,9.53545581 C1.64870588,9.53545581 0.360176471,7.56173488 0.360176471,5.3877814 C0.360176471,3.21001395 1.64870588,1.23438605 4.24105882,1.23438605 C5.96738235,1.23438605 7.37252941,2.13638605 7.66694118,3.87936279 L6.88694118,3.87936279 C6.78179412,2.96592093 5.80488235,1.87703721 4.24105882,1.87703721 C2.06164706,1.87703721 1.14208824,3.64289767 1.14208824,5.3877814 C1.14208824,7.12122326 2.06164706,8.88708372 4.24105882,8.88708372 C6.05723529,8.88708372 7.12017647,7.64945581 7.08385294,5.96559535 L4.28502941,5.96559535 L4.28502941,5.31913023 L7.77208824,5.31913023 L7.77208824,9.36764186 Z" mask="url(#sima-asean-b)"/>
    </g>
    <polygon fill="#B92F91" points="40.119 72.328 35.343 76.611 35.343 72.328 34.561 72.328 34.561 80.292 35.343 80.292 35.343 77.561 36.921 76.144 40.341 80.292 41.348 80.292 37.504 75.62 41.182 72.328"/>
    <path fill="#B92F91" d="M45.8896176,79.8121256 C48.0518235,79.8121256 48.9732941,78.0500791 48.9732941,76.3109163 C48.9732941,74.5679395 48.0518235,72.805893 45.8896176,72.805893 C43.7102059,72.805893 42.7925588,74.5679395 42.7925588,76.3109163 C42.7925588,78.0500791 43.7102059,79.8121256 45.8896176,79.8121256 M45.8896176,72.1613349 C48.4666765,72.1613349 49.7571176,74.1331488 49.7571176,76.3109163 C49.7571176,78.4867767 48.4666765,80.4604977 45.8896176,80.4604977 C43.2991765,80.4604977 42.0087353,78.4867767 42.0087353,76.3109163 C42.0087353,74.1331488 43.2991765,72.1613349 45.8896176,72.1613349"/>
    <polygon fill="#B92F91" points="56.967 72.328 52.189 76.611 52.189 72.328 51.406 72.328 51.406 80.292 52.189 80.292 52.189 77.561 53.763 76.144 57.183 80.292 58.196 80.292 54.352 75.62 58.026 72.328"/>
    <polygon fill="#B92F91" points="62.779 76.634 65.656 76.634 65.656 75.988 62.779 75.988"/>
    <polygon fill="#B92F91" points="70.345 72.328 70.345 72.975 73.208 72.975 73.208 80.292 73.992 80.292 73.992 72.975 76.862 72.975 76.862 72.328"/>
    <polygon fill="#B92F91" points="83.719 72.328 83.719 75.787 78.842 75.787 78.842 72.328 78.056 72.328 78.056 80.292 78.842 80.292 78.842 76.434 83.719 76.434 83.719 80.292 84.502 80.292 84.502 72.328"/>
    <path fill="#B92F91" d="M88.9922647,72.3281953 L85.6791765,80.2917302 L86.5184412,80.2917302 L87.5087353,77.8164744 L91.2519706,77.8164744 L92.2518235,80.2917302 L93.0872647,80.2917302 L89.8678529,72.3281953 L88.9922647,72.3281953 Z M89.3956471,73.0871721 L90.9862353,77.1719163 L87.7496176,77.1719163 L89.3956471,73.0871721 Z"/>
    <polygon fill="#B92F91" points="94.325 80.296 95.108 80.296 95.108 72.328 94.325 72.328"/>
    <polygon fill="#B92F91" points="97.248 72.328 97.248 80.292 102.637 80.292 102.637 79.649 98.031 79.649 98.031 72.328"/>
    <path fill="#B92F91" d="M106.263529,72.3281953 L102.946618,80.2917302 L103.789706,80.2917302 L104.78,77.8164744 L108.519412,77.8164744 L109.519265,80.2917302 L110.364265,80.2917302 L107.139118,72.3281953 L106.263529,72.3281953 Z M106.666912,73.0871721 L108.253676,77.1719163 L105.018971,77.1719163 L106.666912,73.0871721 Z"/>
    <polygon fill="#B92F91" points="117.21 72.328 117.21 79.066 117.187 79.066 112.4 72.328 111.522 72.328 111.522 80.292 112.306 80.292 112.306 73.556 112.331 73.556 117.116 80.292 117.994 80.292 117.994 72.328"/>
    <polygon fill="#B92F91" points=".919 39.805 .919 40.6 1.999 40.6 1.999 44.616 3.005 44.616 3.005 40.6 4.087 40.6 4.087 39.805"/>
    <polygon fill="#B92F91" points="4.516 39.805 5.52 39.805 5.52 41.643 6.688 41.643 6.688 39.805 7.691 39.805 7.691 44.614 6.688 44.614 6.688 42.474 5.52 42.474 5.52 44.614 4.516 44.614"/>
    <polygon fill="#B92F91" points="11.16 39.805 11.16 40.6 9.385 40.6 9.385 41.731 11.052 41.731 11.052 42.528 9.385 42.528 9.385 43.819 11.228 43.819 11.228 44.614 8.384 44.614 8.384 39.805"/>
    <g fill="#B92F91" transform="translate(11.47 38.508)">
      <path d="M2.73783824 4.60401395L2.73783824 4.74703721C2.73783824 5.19708372 2.86783824 5.48503721 3.39548529 5.48503721 3.70136765 5.48503721 3.99577941 5.29815349 3.99577941 4.89387442 3.99577941 4.45526977 3.76254412 4.29508372 3.10489706 4.07387442 2.21592647 3.77829302 1.80298529 3.4197814 1.80298529 2.61694419 1.80298529 1.67871163 2.39563235 1.20196744 3.33813235 1.20196744 4.23283824 1.20196744 4.87710294 1.57382791 4.87710294 2.49680465L4.87710294 2.6322 3.91930882 2.6322C3.91930882 2.17833953 3.75680882 1.91517674 3.37445588 1.91517674 2.92327941 1.91517674 2.80475 2.19168837 2.80475 2.47582791 2.80475 2.77331628 2.89460294 2.95066512 3.31710294 3.12992093L4.08945588 3.4522C4.84077941 3.77066512 5.03960294 4.13871163 5.03960294 4.72415349 5.03960294 5.74247907 4.39533824 6.20206047 3.31136765 6.20206047 2.17960294 6.20206047 1.73225 5.68908372 1.73225 4.7966186L1.73225 4.60401395 2.73783824 4.60401395zM7.12419118 5.48675349C7.71301471 5.48675349 7.81051471 4.99475349 7.81051471 3.69991628 7.81051471 2.41461395 7.71301471 1.91498605 7.12419118 1.91498605 6.53154412 1.91498605 6.43595588 2.41461395 6.43595588 3.69991628 6.43595588 4.99475349 6.53154412 5.48675349 7.12419118 5.48675349M7.12419118 1.19986977C8.62301471 1.19986977 8.81227941 2.23726512 8.81227941 3.69991628 8.81227941 5.16256744 8.62301471 6.19996279 7.12419118 6.19996279 5.62154412 6.19996279 5.43610294 5.16256744 5.43610294 3.69991628 5.43610294 2.23726512 5.62154412 1.19986977 7.12419118 1.19986977M10.3409265 1.29655349L10.3409265 4.65283256C10.3409265 5.12957674 10.4613676 5.4861814 10.9278382 5.4861814 11.3923971 5.4861814 11.5128382 5.12957674 11.5128382 4.65283256L11.5128382 1.29655349 12.5107794 1.29655349 12.5107794 4.65283256C12.5107794 5.87520465 11.7403382 6.1993907 10.9278382 6.1993907 10.1134265 6.1993907 9.34107353 5.93813488 9.34107353 4.65283256L9.34107353 1.29655349 10.3409265 1.29655349z"/>
    </g>
    <polygon fill="#B92F91" points="27.524 39.805 27.524 40.6 26.437 40.6 26.437 44.614 25.439 44.614 25.439 40.6 24.357 40.6 24.357 39.805"/>
    <polygon fill="#B92F91" points="27.955 39.805 28.957 39.805 28.957 41.643 30.127 41.643 30.127 39.805 31.124 39.805 31.124 44.614 30.127 44.614 30.127 42.474 28.957 42.474 28.957 44.614 27.955 44.614"/>
    <polygon fill="#B92F91" points="36.265 39.805 36.265 40.6 34.492 40.6 34.492 41.731 36.16 41.731 36.16 42.528 34.492 42.528 34.492 43.819 36.335 43.819 36.335 44.614 33.491 44.614 33.491 39.805"/>
    <path fill="#B92F91" d="M37.9326618 42.8030465L38.9076618 42.8030465 38.4258971 40.6386279 38.4125147 40.6386279 37.9326618 42.8030465zM37.8026618 39.8033721L39.0395735 39.8033721 40.3529559 44.6146744 39.3091324 44.6146744 39.0835441 43.5963488 37.7606029 43.5963488 37.5331029 44.6146744 36.4892794 44.6146744 37.8026618 39.8033721zM41.5078529 43.1121674L41.5078529 43.2551907C41.5078529 43.7052372 41.6416765 43.9931907 42.1693235 43.9931907 42.4732941 43.9931907 42.7696176 43.806307 42.7696176 43.4020279 42.7696176 42.9634233 42.5402059 42.8032372 41.8768235 42.5820279 40.9878529 42.2864465 40.5768235 41.9279349 40.5768235 41.1250977 40.5768235 40.1868651 41.1675588 39.7101209 42.1157941 39.7101209 43.0028529 39.7101209 43.6490294 40.0819814 43.6490294 41.0049581L43.6490294 41.1403535 42.6893235 41.1403535C42.6893235 40.686493 42.5325588 40.4233302 42.1502059 40.4233302 41.6952059 40.4233302 41.5805 40.6998419 41.5805 40.9839814 41.5805 41.2814698 41.6722647 41.4588186 42.0928529 41.6380744L42.8652059 41.9603535C43.6146176 42.2788186 43.8115294 42.6468651 43.8115294 43.232307 43.8115294 44.2506326 43.1672647 44.710214 42.0871176 44.710214 40.9515294 44.710214 40.5060882 44.1972372 40.5060882 43.3047721L40.5060882 43.1121674 41.5078529 43.1121674z"/>
    <polygon fill="#B92F91" points="47.216 39.805 47.216 40.6 46.134 40.6 46.134 44.614 45.134 44.614 45.134 40.6 44.048 40.6 44.048 39.805"/>
    <path fill="#B92F91" d="M50.4170588 42.8030465L51.3920588 42.8030465 50.9102941 40.6386279 50.8969118 40.6386279 50.4170588 42.8030465zM50.2832353 39.8033721L51.5220588 39.8033721 52.8392647 44.6146744 51.7954412 44.6146744 51.5641176 43.5963488 50.2411765 43.5963488 50.0136765 44.6146744 48.9717647 44.6146744 50.2832353 39.8033721zM53.9941618 43.1121674L53.9941618 43.2551907C53.9941618 43.7052372 54.1260735 43.9931907 54.6518088 43.9931907 54.9576912 43.9931907 55.2521029 43.806307 55.2521029 43.4020279 55.2521029 42.9634233 55.0207794 42.8032372 54.3573971 42.5820279 53.4703382 42.2864465 53.0593088 41.9279349 53.0593088 41.1250977 53.0593088 40.1868651 53.6538676 39.7101209 54.5963676 39.7101209 55.4891618 39.7101209 56.1353382 40.0819814 56.1353382 41.0049581L56.1353382 41.1403535 55.1756324 41.1403535C55.1756324 40.686493 55.0150441 40.4233302 54.6307794 40.4233302 54.1776912 40.4233302 54.0629853 40.6998419 54.0629853 40.9839814 54.0629853 41.2814698 54.1528382 41.4588186 54.5753382 41.6380744L55.3496029 41.9603535C56.0971029 42.2788186 56.2921029 42.6468651 56.2921029 43.232307 56.2921029 44.2506326 55.6516618 44.710214 54.5696029 44.710214 53.4340147 44.710214 52.9904853 44.1972372 52.9904853 43.3047721L52.9904853 43.1121674 53.9941618 43.1121674z"/>
    <polygon fill="#B92F91" points="56.846 44.618 57.844 44.618 57.844 39.803 56.846 39.803"/>
    <path fill="#B92F91" d="M59.6864412,42.8030465 L60.6595294,42.8030465 L60.1815882,40.6386279 L60.1682059,40.6386279 L59.6864412,42.8030465 Z M59.5526176,39.8033721 L60.7952647,39.8033721 L62.1086471,44.6146744 L61.0648235,44.6146744 L60.8373235,43.5963488 L59.5124706,43.5963488 L59.2830588,44.6146744 L58.2392353,44.6146744 L59.5526176,39.8033721 Z"/>
    <polygon fill="#B92F91" points="63.611 39.805 64.821 43.098 64.834 43.098 64.834 39.805 65.752 39.805 65.752 44.614 64.611 44.614 63.387 41.244 63.372 41.244 63.372 44.614 62.454 44.614 62.454 39.805"/>
    <path fill="#B92F91" d="M69.2144853,42.8030465 L70.1875735,42.8030465 L69.7077206,40.6386279 L69.6943382,40.6386279 L69.2144853,42.8030465 Z M69.0825735,39.8033721 L70.3194853,39.8033721 L71.6309559,44.6146744 L70.5909559,44.6146744 L70.3596324,43.5963488 L69.0405147,43.5963488 L68.8111029,44.6146744 L67.7691912,44.6146744 L69.0825735,39.8033721 Z"/>
    <g fill="#B92F91" transform="translate(70.735 38.508)">
      <path d="M3.45188235 2.72297209C3.45188235 2.36636744 3.28747059 1.91632093 2.88217647 1.91632093 2.39658824 1.91632093 2.20158824 2.40069302 2.20158824 3.60208837 2.20158824 4.75771628 2.31055882 5.48427442 2.88982353 5.48427442 3.12305882 5.48427442 3.50923529 5.2401814 3.50923529 4.71957674L3.50923529 4.22757674 2.84394118 4.22757674 2.84394118 3.51055349 4.46894118 3.51055349 4.46894118 6.10404186 3.731 6.10404186 3.731 5.66162326 3.71761765 5.66162326C3.47864706 6.03920465 3.13835294 6.20129767 2.67188235 6.20129767 1.44070588 6.20129767 1.19982353 5.31073953 1.19982353 3.64404186 1.19982353 2.03073953 1.58791176 1.20120465 2.86879412 1.20120465 3.96805882 1.20120465 4.40776471 1.7466 4.40776471 2.72297209L3.45188235 2.72297209zM6.11783824 3.39727907L6.53460294 3.39727907C7.01254412 3.39727907 7.28592647 3.19895349 7.28592647 2.67453488 7.28592647 2.23211628 7.04313235 2.01090698 6.58813235 2.01090698L6.11783824 2.01090698 6.11783824 3.39727907zM5.11416176 1.2957907L6.96475 1.2957907C7.78489706 1.2957907 8.28386765 1.71532558 8.28386765 2.5334186 8.28386765 3.17416279 8.02195588 3.60704651 7.45798529 3.72337209L7.45798529 3.73672093C8.14048529 3.82253488 8.24180882 4.18676744 8.25710294 5.20318605 8.26475 5.70853488 8.29342647 5.97169767 8.47886765 6.06704651L8.47886765 6.10709302 7.39489706 6.10709302C7.29930882 5.97169767 7.28019118 5.78862791 7.27063235 5.60174419L7.24195588 4.68067442C7.23048529 4.29927907 7.05460294 4.07234884 6.64930882 4.07234884L6.11783824 4.07234884 6.11783824 6.10709302 5.11416176 6.10709302 5.11416176 1.2957907z"/>
    </g>
    <polygon fill="#B92F91" points="79.765 44.618 80.763 44.618 80.763 39.803 79.765 39.803"/>
    <g fill="#B92F91" transform="translate(82.206 38.508)">
      <path d="M1.97504412 5.39350233L2.36504412 5.39350233C2.84107353 5.39350233 3.16989706 5.2237814 3.16989706 4.66694419 3.16989706 4.10629302 2.84107353 3.9442 2.40519118 3.9442L1.97504412 3.9442 1.97504412 5.39350233zM1.97504412 3.26913023L2.26180882 3.26913023C2.81048529 3.26913023 3.06092647 3.08796744 3.06092647 2.63601395 3.06092647 2.17643256 2.82960294 2.01052558 2.33636765 2.01052558L1.97504412 2.01052558 1.97504412 3.26913023zM.975191176 1.2954093L2.65180882 1.2954093C3.47195588 1.2954093 4.06077941 1.5909907 4.06077941 2.51587442 4.06077941 3.03266512 3.80460294 3.43313023 3.31136765 3.5666186L3.31136765 3.58187442C3.86004412 3.65243256 4.21563235 4.0586186 4.21563235 4.69745581 4.21563235 5.45452558 3.83327941 6.1086186 2.66327941 6.1086186L.975191176 6.1086186.975191176 1.2954093zM5.78098529 1.29655349L5.78098529 4.65283256C5.78098529 5.12957674 5.89569118 5.4861814 6.36216176 5.4861814 6.82863235 5.4861814 6.94716176 5.12957674 6.94716176 4.65283256L6.94716176 1.29655349 7.95083824 1.29655349 7.95083824 4.65283256C7.95083824 5.87520465 7.17466176 6.1993907 6.36216176 6.1993907 5.54775 6.1993907 4.77730882 5.93813488 4.77730882 4.65283256L4.77730882 1.29655349 5.78098529 1.29655349zM9.39058824 4.60401395L9.39058824 4.74703721C9.39058824 5.19708372 9.5225 5.48503721 10.0482353 5.48503721 10.3541176 5.48503721 10.6485294 5.29815349 10.6485294 4.89387442 10.6485294 4.45526977 10.4172059 4.29508372 9.75955882 4.07387442 8.86676471 3.77829302 8.45955882 3.4197814 8.45955882 2.61694419 8.45955882 1.67871163 9.04838235 1.20196744 9.99470588 1.20196744 10.8855882 1.20196744 11.5298529 1.57382791 11.5298529 2.49680465L11.5298529 2.6322 10.5720588 2.6322C10.5720588 2.17833953 10.4095588 1.91517674 10.0272059 1.91517674 9.57602941 1.91517674 9.45941176 2.19168837 9.45941176 2.47582791 9.45941176 2.77331628 9.54926471 2.95066512 9.97558824 3.12992093L10.7441176 3.4522C11.4954412 3.77066512 11.6923529 4.13871163 11.6923529 4.72415349 11.6923529 5.74247907 11.0519118 6.20206047 9.96411765 6.20206047 8.83235294 6.20206047 8.38691176 5.68908372 8.38691176 4.7966186L8.38691176 4.60401395 9.39058824 4.60401395z"/>
    </g>
    <polygon fill="#B92F91" points="94.449 44.618 95.453 44.618 95.453 39.803 94.449 39.803"/>
    <polygon fill="#B92F91" points="97.344 39.805 98.558 43.098 98.569 43.098 98.569 39.805 99.485 39.805 99.485 44.614 98.348 44.614 97.124 41.244 97.109 41.244 97.109 44.614 96.191 44.614 96.191 39.805"/>
    <polygon fill="#B92F91" points="102.956 39.805 102.956 40.6 101.184 40.6 101.184 41.731 102.853 41.731 102.853 42.528 101.184 42.528 101.184 43.819 103.025 43.819 103.025 44.614 100.182 44.614 100.182 39.805"/>
    <g fill="#B92F91" transform="translate(103.235 38.508)">
      <path d="M1.0985 4.60401395L1.0985 4.74703721C1.0985 5.19708372 1.23232353 5.48503721 1.76188235 5.48503721 2.06394118 5.48503721 2.35835294 5.29815349 2.35835294 4.89387442 2.35835294 4.45526977 2.12702941 4.29508372 1.46938235 4.07387442.580411765 3.77829302.169382353 3.4197814.169382353 2.61694419.169382353 1.67871163.758205882 1.20196744 1.70261765 1.20196744 2.5935 1.20196744 3.23967647 1.57382791 3.23967647 2.49680465L3.23967647 2.6322 2.28379412 2.6322C2.28379412 2.17833953 2.12129412 1.91517674 1.73702941 1.91517674 1.28585294 1.91517674 1.16923529 2.19168837 1.16923529 2.47582791 1.16923529 2.77331628 1.261 2.95066512 1.6835 3.12992093L2.45585294 3.4522C3.20717647 3.77066512 3.40217647 4.13871163 3.40217647 4.72415349 3.40217647 5.74247907 2.76173529 6.20206047 1.67776471 6.20206047.542176471 6.20206047.0967352941 5.68908372.0967352941 4.7966186L.0967352941 4.60401395 1.0985 4.60401395zM4.70925 4.60401395L4.70925 4.74703721C4.70925 5.19708372 4.84116176 5.48503721 5.37072059 5.48503721 5.67277941 5.48503721 5.96910294 5.29815349 5.96910294 4.89387442 5.96910294 4.45526977 5.73777941 4.29508372 5.07822059 4.07387442 4.18733824 3.77829302 3.77439706 3.4197814 3.77439706 2.61694419 3.77439706 1.67871163 4.36895588 1.20196744 5.31336765 1.20196744 6.20233824 1.20196744 6.85042647 1.57382791 6.85042647 2.49680465L6.85042647 2.6322 5.89072059 2.6322C5.89072059 2.17833953 5.72822059 1.91517674 5.34586765 1.91517674 4.89660294 1.91517674 4.77807353 2.19168837 4.77807353 2.47582791 4.77807353 2.77331628 4.86792647 2.95066512 5.29042647 3.12992093L6.06469118 3.4522C6.81601471 3.77066512 7.01292647 4.13871163 7.01292647 4.72415349 7.01292647 5.74247907 6.37057353 6.20206047 5.28660294 6.20206047 4.15101471 6.20206047 3.70557353 5.68908372 3.70557353 4.7966186L3.70557353 4.60401395 4.70925 4.60401395zM9.98629412 4.60401395L9.98629412 4.74703721C9.98629412 5.19708372 10.1182059 5.48503721 10.6496765 5.48503721 10.9517353 5.48503721 11.2461471 5.29815349 11.2461471 4.89387442 11.2461471 4.45526977 11.0186471 4.29508372 10.3552647 4.07387442 9.46629412 3.77829302 9.05717647 3.4197814 9.05717647 2.61694419 9.05717647 1.67871163 9.646 1.20196744 10.5904118 1.20196744 11.4832059 1.20196744 12.1255588 1.57382791 12.1255588 2.49680465L12.1255588 2.6322 11.1696765 2.6322C11.1696765 2.17833953 11.0090882 1.91517674 10.6267353 1.91517674 10.1717353 1.91517674 10.0608529 2.19168837 10.0608529 2.47582791 10.0608529 2.77331628 10.1468824 2.95066512 10.5732059 3.12992093L11.3417353 3.4522C12.0930588 3.77066512 12.2899706 4.13871163 12.2899706 4.72415349 12.2899706 5.74247907 11.6495294 6.20206047 10.5636471 6.20206047 9.42805882 6.20206047 8.98644118 5.68908372 8.98644118 4.7966186L8.98644118 4.60401395 9.98629412 4.60401395z"/>
    </g>
    <polygon fill="#B92F91" points="116.025 39.805 117.028 39.805 117.028 41.643 118.195 41.643 118.195 39.805 119.196 39.805 119.196 44.614 118.195 44.614 118.195 42.474 117.028 42.474 117.028 44.614 116.025 44.614"/>
    <polygon fill="#69207E" points="17.296 36.571 21.66 36.571 21.66 32.782 17.296 32.782"/>
    <polygon fill="#C96182" points="26.31 36.571 29.271 36.571 29.271 32.782 26.31 32.782"/>
    <polygon fill="#781D7D" points="58.123 36.58 64.18 36.58 64.18 32.785 58.123 32.785"/>
    <polygon fill="#8AC23F" points="68.829 36.571 80.304 36.571 80.304 32.782 68.829 32.782"/>
    <polygon fill="#D91965" points=".96 36.569 12.643 36.569 12.643 32.78 .96 32.78"/>
    <polygon fill="#B92F91" points="84.951 36.58 94.296 36.58 94.296 32.785 84.951 32.785"/>
    <polygon fill="#63B846" points="98.947 36.58 106.871 36.58 106.871 32.785 98.947 32.785"/>
    <polygon fill="#C96182" points="111.523 36.58 119.558 36.58 119.558 32.785 111.523 32.785"/>
    <polygon fill="#BDD63A" points="33.919 36.58 53.48 36.58 53.48 32.785 33.919 32.785"/>
    <g fill="#8AC23F" transform="translate(43.97 2.276)">
      <path d="M57.5534853 28.2903814L58.8190735 25.2277767 71.52275 25.2277767 72.7214265 28.2903814 83.6853971 28.2903814 70.9626029.26735814 59.4365735.26735814 47.2395147 28.2903814 57.5534853 28.2903814zM64.9233382 9.34075349C65.0858382 8.30717209 65.1986324 6.41354419 65.1986324 6.41354419 65.1986324 6.41354419 65.1986324 7.49861395 65.5962794 9.34075349 65.9824559 11.1848 69.1158382 18.6105674 69.1158382 18.6105674L61.5070147 18.6105674C61.5070147 18.6105674 64.7531912 10.3724279 64.9233382 9.34075349zM10.8515588 28.2903814C10.8362647 22.8211721 10.8056765 12.3499628 10.8056765 11.5070791 10.8056765 10.3724279 10.0256765 6.95512558 10.0256765 6.95512558L17.667 28.2903814 29.6537647 28.2903814 37.4422941 7.06382326C37.4422941 7.06382326 36.6622941 10.3724279 36.6068529 11.9418698 36.5628824 13.0936837 36.582 23.0385674 36.5953824 28.2903814L46.2861176 28.2903814 46.2497941.248288372 31.0015588.246381395C25.0445 17.1479163 24.8858235 17.1441023 24.3524412 19.5316372 24.0714118 20.7788 23.7349412 24.6270791 23.7349412 24.6270791 23.7349412 24.6270791 23.5074412 22.5160558 23.2302353 19.5316372 22.9492059 16.5491256 16.3822941.223497674 16.3822941.223497674L1.12641176.246381395 1.12641176 28.2903814 10.8515588 28.2903814z"/>
    </g>
    <polygon fill="#8AC23F" points="39.886 30.566 39.886 2.507 29.527 2.507 29.477 30.566"/>
    <g transform="translate(0 .369)">
      <mask id="sima-asean-d" fill="#fff">
        <use xlink:href="#sima-asean-c"/>
      </mask>
      <path fill="#8AC23F" d="M7.03452941,20.0850419 C14.0029118,22.3867628 17.0712941,21.8680651 16.3199706,25.2338791 C15.4290882,29.2461581 2.66805882,26.1587628 2.66805882,26.1587628 L1.04879412,30.1977395 L24.3665882,30.1977395 C26.1521765,28.3689488 26.9818824,26.1644837 27.1807059,24.2041116 C27.4961471,21.0576 26.3949706,15.6932744 15.2608529,13.8492279 C12.7583529,13.433507 10.4489412,12.6039721 10.3915882,10.7046233 C10.3342353,8.8071814 13.1885,7.93950698 16.5455588,8.05011163 C19.9026176,8.1588093 23.5426176,9.07987907 23.5426176,9.07987907 L25.6665882,2.95276279 C25.6665882,2.95276279 21.4167353,1.4348093 13.9742353,1.54350698 C9.21202941,1.61406512 1.38335294,3.71173953 0.261147059,9.40215814 C-0.937529412,15.4949488 2.106,18.4602977 7.03452941,20.0850419" mask="url(#sima-asean-d)"/>
    </g>
    <polygon fill="#B92F91" points=".887 69.296 127.576 69.296 127.576 47.574 .887 47.574"/>
    <path fill="#FEFEFE" d="M31.3030441 60.4797674L37.6328971 60.4797674 34.5224559 52.4952558 31.3030441 60.4797674zM33.7348088 51.0097209L35.44775 51.0097209 41.75275 66.5935349 40.1124559 66.5935349 38.1490735 61.746 30.8308382 61.746 28.8923088 66.5935349 27.2520147 66.5935349 33.7348088 51.0097209zM43.9386618 61.4630047C43.8679265 64.6724465 46.2576324 65.6526326 49.1845441 65.6526326 50.8745441 65.6526326 53.4420441 64.7601674 53.4420441 62.4889581 53.4420441 60.7173767 51.6163088 60.0213302 50.1327794 59.6761674L46.5520441 58.8237488C44.6593971 58.3641674 42.92925 57.4907721 42.92925 55.0670047 42.92925 53.5395163 43.9386618 50.6809581 48.4657206 50.6809581 51.63925 50.6809581 54.43425 52.3419349 54.4093971 55.5246791L52.8761618 55.5246791C52.7882206 53.148586 50.76175 51.9510047 48.48675 51.9510047 46.3952794 51.9510047 44.45675 52.7328651 44.45675 55.0479349 44.45675 56.5086791 45.5827794 57.1208186 46.8885147 57.4240279L50.8057206 58.3641674C53.0807206 58.9553302 54.9733676 59.9145395 54.9733676 62.4679814 54.9733676 63.5358884 54.5221912 66.9169581 48.8251324 66.9169581 45.0207206 66.9169581 42.2257206 65.2597953 42.4073382 61.4630047L43.9386618 61.4630047z"/>
    <polygon fill="#FEFEFE" points="57.408 51.01 68.509 51.01 68.509 52.274 58.937 52.274 58.937 57.908 67.9 57.908 67.9 59.172 58.937 59.172 58.937 65.328 68.622 65.328 68.622 66.594 57.408 66.594"/>
    <path fill="#FEFEFE" d="M73.0334265,60.4797674 L79.3651912,60.4797674 L76.2528382,52.4952558 L73.0334265,60.4797674 Z M75.4690147,51.0097209 L77.1762206,51.0097209 L83.4831324,66.5935349 L81.8371029,66.5935349 L79.8832794,61.746 L72.5612206,61.746 L70.6265147,66.5935349 L68.9843088,66.5935349 L75.4690147,51.0097209 Z"/>
    <polygon fill="#FEFEFE" points="84.927 51.01 86.638 51.01 96.006 64.189 96.051 64.189 96.051 51.01 97.583 51.01 97.583 66.594 95.868 66.594 86.504 53.413 86.462 53.413 86.462 66.594 84.927 66.594"/>
  </g>
</svg>
