<svg xmlns="http://www.w3.org/2000/svg" xmlns:xlink="http://www.w3.org/1999/xlink" width="126" height="90" viewBox="0 0 126 90">
  <defs>
    <polygon id="sipsa-a" points="0 1.084 125.452 1.084 125.452 87.062 0 87.062"/>
  </defs>
  <g fill="none" fill-rule="evenodd" transform="translate(0 -1)">
    <g>
      <polygon fill="#2D713C" points=".221 90.245 125.262 90.245 125.262 73.47 .221 73.47"/>
      <g transform="translate(0 .757)">
        <mask id="sipsa-b" fill="#fff">
          <use xlink:href="#sipsa-a"/>
        </mask>
        <path fill="#FEFEFE" d="M12.3195673,82.050241 L11.1444157,78.6312583 L9.89548785,82.050241 L12.3195673,82.050241 Z M10.596363,77.4828172 L11.782054,77.4828172 L14.5908243,85.221624 L13.4420214,85.221624 L12.6568305,82.9036696 L9.59511279,82.9036696 L8.75722446,85.221624 L7.68219793,85.221624 L10.596363,77.4828172 Z M15.6348353,77.4828172 L16.6835131,77.4828172 L16.6835131,84.2997103 L20.6041981,84.2997103 L20.6041981,85.221624 L15.6348353,85.221624 L15.6348353,77.4828172 Z M25.0735387,77.2826303 C25.8007661,77.2826303 26.4296152,77.4231109 26.9601048,77.7040765 C27.7294904,78.1079645 28.200249,78.8156359 28.3723946,79.827112 L27.3342562,79.827112 C27.2077819,79.2616688 26.9460542,78.8498848 26.5490653,78.5917477 C26.1520764,78.3336106 25.6514563,78.2045439 25.04719,78.2045439 C24.3305021,78.2045439 23.7271231,78.4732132 23.237035,79.0105599 C22.746947,79.5479065 22.5019066,80.3486464 22.5019066,81.4128035 C22.5019066,82.3329658 22.7039112,83.0819034 23.1079264,83.6596388 C23.5119417,84.2373743 24.1706524,84.5262377 25.0840782,84.5262377 C25.7832002,84.5262377 26.3619873,84.3234187 26.8204568,83.9177747 C27.2789263,83.5121306 27.5134273,82.8562615 27.5239668,81.9501475 L25.0998874,81.9501475 L25.0998874,81.0809146 L28.4988683,81.0809146 L28.4988683,85.221624 L27.8243419,85.221624 L27.5713944,84.2259572 C27.2165636,84.615797 26.9021391,84.8862223 26.6281114,85.0372413 C26.1678853,85.2971344 25.5829502,85.427079 24.8732886,85.427079 C23.9563497,85.427079 23.1676534,85.1303136 22.5071763,84.5367738 C21.7869752,83.7922151 21.4268801,82.7702181 21.4268801,81.4707524 C21.4268801,80.1747987 21.7781924,79.1440217 22.4808276,78.3783905 C23.1483311,77.64788 24.0125595,77.2826303 25.0735387,77.2826303 Z M30.4492742,77.4828172 L31.5084915,77.4828172 L31.5084915,85.221624 L30.4492742,85.221624 L30.4492742,77.4828172 Z M33.4009303,77.4828172 L39.0448195,77.4828172 L39.0448195,78.4310713 L34.4232594,78.4310713 L34.4232594,80.7806341 L38.6970168,80.7806341 L38.6970168,81.6762074 L34.4232594,81.6762074 L34.4232594,84.2997103 L39.1238656,84.2997103 L39.1238656,85.221624 L33.4009303,85.221624 L33.4009303,77.4828172 Z M44.1886866,81.0282338 C44.6805312,81.0282338 45.0696097,80.9298973 45.3559335,80.7332214 C45.6422574,80.5365455 45.7854172,80.1818318 45.7854172,79.6690697 C45.7854172,79.1176747 45.5851691,78.7418889 45.184667,78.5417009 C44.9703633,78.4363388 44.6840437,78.3836586 44.3256998,78.3836586 L41.7646071,78.3836586 L41.7646071,81.0282338 L44.1886866,81.0282338 Z M40.7159293,77.4828172 L44.2993511,77.4828172 C44.8895647,77.4828172 45.3761323,77.5688616 45.7590685,77.7409531 C46.4862959,78.0710876 46.8499042,78.6804226 46.8499042,79.5689762 C46.8499042,80.0325694 46.7541716,80.4118672 46.5627035,80.706881 C46.3712354,81.0018949 46.1033597,81.238956 45.7590685,81.4180716 C46.0612016,81.540994 46.2886764,81.7025468 46.4414995,81.9027348 C46.5943227,82.1029228 46.6795159,82.4277843 46.6970818,82.8773292 L46.73397,83.9151406 C46.7445095,84.2101545 46.7691014,84.4296555 46.8077463,84.5736504 C46.8709835,84.8194953 46.9834034,84.977536 47.1450095,85.0477774 L47.1450095,85.221624 L45.8591935,85.221624 C45.8240617,85.1548947 45.7959567,85.0688503 45.7748777,84.9634882 C45.7537986,84.8581261 45.736233,84.6544291 45.7221803,84.3523911 L45.6589434,83.061712 C45.6343512,82.5559739 45.4463991,82.2170643 45.0950815,82.0449729 C44.8948304,81.950147 44.5804059,81.9027348 44.1517984,81.9027348 L41.7646071,81.9027348 L41.7646071,85.221624 L40.7159293,85.221624 L40.7159293,77.4828172 Z M49.1586523,82.724555 C49.1832445,83.1635637 49.2868816,83.5200334 49.4695668,83.7939748 C49.8173712,84.306737 50.4304113,84.5631142 51.3087053,84.5631142 C51.702181,84.5631142 52.0605196,84.506922 52.3837318,84.3945357 C53.0090772,84.1767874 53.3217452,83.7869535 53.3217452,83.2250224 C53.3217452,82.803574 53.1900031,82.5032966 52.9265148,82.324181 C52.6595135,82.1485775 52.2414518,81.9958048 51.6723172,81.8658582 L50.6236394,81.6287947 C49.93857,81.4742637 49.453759,81.3039308 49.1691917,81.1177911 C48.6773471,80.7946807 48.4314284,80.3117784 48.4314284,79.6690697 C48.4314284,78.9736799 48.6720774,78.4029771 49.1533825,77.9569443 C49.6346877,77.5109114 50.3162336,77.2878983 51.1980408,77.2878983 C52.0095845,77.2878983 52.699035,77.4836933 53.2664129,77.8752891 C53.8337909,78.2668848 54.1174756,78.8929018 54.1174756,79.7533589 L53.1320346,79.7533589 C53.079337,79.3389347 52.966917,79.0210972 52.7947714,78.7998368 C52.4750724,78.3959488 51.9322948,78.1940078 51.1664224,78.1940078 C50.5481034,78.1940078 50.1036933,78.3239524 49.8331787,78.5838456 C49.5626641,78.8437387 49.4274089,79.1457722 49.4274089,79.489955 C49.4274089,79.8692585 49.5854994,80.1467079 49.9016853,80.3223113 C50.1089627,80.4346976 50.5779647,80.5751783 51.3087053,80.7437576 L52.3942713,80.9913573 C52.9177346,81.1107676 53.3217438,81.2740764 53.606311,81.4812885 C54.0981557,81.8430317 54.3440743,82.3680782 54.3440743,83.0564439 C54.3440743,83.9133889 54.0322846,84.5262358 53.4086959,84.8950032 C52.7851071,85.2637705 52.0605254,85.4481514 51.234929,85.4481514 C50.2723187,85.4481514 49.5187537,85.2023102 48.9742114,84.7106204 C48.4296691,84.2224427 48.1626717,83.5604275 48.1732113,82.724555 L49.1586523,82.724555 Z" mask="url(#sipsa-b)"/>
        <polygon fill="#FEFEFE" points="61.977 81.729 64.623 81.729 64.623 82.703 61.977 82.703" mask="url(#sipsa-b)"/>
        <path fill="#FEFEFE" d="M75.2344698 82.050241L74.0593183 78.6312583 72.8103904 82.050241 75.2344698 82.050241zM73.5112655 77.4828172L74.6969565 77.4828172 77.5057268 85.221624 76.356924 85.221624 75.571733 82.9036696 72.5100153 82.9036696 71.672127 85.221624 70.5971005 85.221624 73.5112655 77.4828172zM78.5497378 77.4828172L79.5984156 77.4828172 79.5984156 84.2997103 83.5191006 84.2997103 83.5191006 85.221624 78.5497378 85.221624 78.5497378 77.4828172zM87.9884412 77.2826303C88.7156687 77.2826303 89.3445178 77.4231109 89.8750074 77.7040765 90.644393 78.1079645 91.1151515 78.8156359 91.2872971 79.827112L90.2491588 79.827112C90.1226844 79.2616688 89.8609567 78.8498848 89.4639678 78.5917477 89.0669789 78.3336106 88.5663588 78.2045439 87.9620925 78.2045439 87.2454046 78.2045439 86.6420256 78.4732132 86.1519376 79.0105599 85.6618495 79.5479065 85.4168091 80.3486464 85.4168091 81.4128035 85.4168091 82.3329658 85.6188137 83.0819034 86.022829 83.6596388 86.4268442 84.2373743 87.0855549 84.5262377 87.9989807 84.5262377 88.6981027 84.5262377 89.2768898 84.3234187 89.7353593 83.9177747 90.1938288 83.5121306 90.4283298 82.8562615 90.4388693 81.9501475L88.0147899 81.9501475 88.0147899 81.0809146 91.4137708 81.0809146 91.4137708 85.221624 90.7392444 85.221624 90.486297 84.2259572C90.1314662 84.615797 89.8170416 84.8862223 89.5430139 85.0372413 89.0827878 85.2971344 88.4978528 85.427079 87.7881912 85.427079 86.8712522 85.427079 86.082556 85.1303136 85.4220789 84.5367738 84.7018777 83.7922151 84.3417826 82.7702181 84.3417826 81.4707524 84.3417826 80.1747987 84.6930949 79.1440217 85.3957302 78.3783905 86.0632336 77.64788 86.927462 77.2826303 87.9884412 77.2826303zM93.2271635 77.4828172L98.8710528 77.4828172 98.8710528 78.4310713 94.2494927 78.4310713 94.2494927 80.7806341 98.5232501 80.7806341 98.5232501 81.6762074 94.2494927 81.6762074 94.2494927 84.2997103 98.9500989 84.2997103 98.9500989 85.221624 93.2271635 85.221624 93.2271635 77.4828172zM104.01492 81.0282338C104.506765 81.0282338 104.895843 80.9298973 105.182167 80.7332214 105.468491 80.5365455 105.61165 80.1818318 105.61165 79.6690697 105.61165 79.1176747 105.411402 78.7418889 105.0109 78.5417009 104.796597 78.4363388 104.510277 78.3836586 104.151933 78.3836586L101.59084 78.3836586 101.59084 81.0282338 104.01492 81.0282338zM100.542163 77.4828172L104.125584 77.4828172C104.715798 77.4828172 105.202366 77.5688616 105.585302 77.7409531 106.312529 78.0710876 106.676137 78.6804226 106.676137 79.5689762 106.676137 80.0325694 106.580405 80.4118672 106.388937 80.706881 106.197469 81.0018949 105.929593 81.238956 105.585302 81.4180716 105.887435 81.540994 106.11491 81.7025468 106.267733 81.9027348 106.420556 82.1029228 106.505749 82.4277843 106.523315 82.8773292L106.560203 83.9151406C106.570743 84.2101545 106.595335 84.4296555 106.63398 84.5736504 106.697217 84.8194953 106.809637 84.977536 106.971243 85.0477774L106.971243 85.221624 105.685427 85.221624C105.650295 85.1548947 105.62219 85.0688503 105.601111 84.9634882 105.580032 84.8581261 105.562466 84.6544291 105.548414 84.3523911L105.485177 83.061712C105.460584 82.5559739 105.272632 82.2170643 104.921315 82.0449729 104.721064 81.950147 104.406639 81.9027348 103.978032 81.9027348L101.59084 81.9027348 101.59084 85.221624 100.542163 85.221624 100.542163 77.4828172zM108.536958 77.4828172L109.596175 77.4828172 109.596175 85.221624 108.536958 85.221624 108.536958 77.4828172zM115.440269 82.050241L114.265118 78.6312583 113.01619 82.050241 115.440269 82.050241zM113.717065 77.4828172L114.902756 77.4828172 117.711526 85.221624 116.562723 85.221624 115.777533 82.9036696 112.715815 82.9036696 111.877926 85.221624 110.8029 85.221624 113.717065 77.4828172z" mask="url(#sipsa-b)"/>
        <path fill="#3B8D4C" d="M17.859329,41.064016 C17.6366188,39.190896 16.405271,37.893696 12.9578652,37.893696 C10.4289087,37.893696 9.03743043,38.771376 9.03743043,40.565376 C9.03743043,41.485376 9.57487971,42.018976 10.712358,42.247136 C12.6099957,42.629856 18.3949377,43.660256 20.6109957,44.116576 C24.8148797,44.997936 27.3456768,47.058736 27.3456768,51.872176 C27.3456768,61.112656 17.4157493,61.189936 14.3180536,61.189936 C6.66492319,61.189936 1.13214058,59.546816 0.68856087,51.947616 L9.60616957,51.947616 C9.79574928,54.010256 10.7454884,55.307456 14.6659232,55.307456 C16.5617203,55.307456 18.6194884,54.775696 18.6194884,52.446256 C18.6194884,50.992656 17.6679087,50.497696 15.0450826,49.999056 L7.51895217,48.624576 C2.87148841,47.783696 1.06956087,44.959296 1.06956087,40.909456 C1.06956087,37.319616 2.90277826,32.241216 12.7995754,32.241216 C20.9901551,32.241216 25.9229087,34.607456 26.3959377,41.064016 L17.859329,41.064016 Z" mask="url(#sipsa-b)"/>
        <polygon fill="#3B8D4C" points="30.603 60.348 38.128 60.348 38.128 33.081 30.603 33.081" mask="url(#sipsa-b)"/>
        <path fill="#3B8D4C" d="M42.935387 33.08044L59.6294449 33.08044C65.7659377 33.08044 67.9470246 37.01436 67.9470246 42.17004 67.9470246 46.67988 66.049387 51.26148 59.9791551 51.26148L50.4615174 51.26148 50.4615174 60.3474 42.935387 60.3474 42.935387 33.08044zM50.4615174 45.609L57.1649087 45.609C59.2502855 45.609 60.1687348 44.57492 60.1687348 42.17004 60.1687348 39.76516 59.2502855 38.73108 57.1649087 38.73108L50.4615174 38.73108 50.4615174 45.609zM86.8254826 41.064016C86.6027725 39.190896 85.3695841 37.893696 81.9240188 37.893696 79.3932217 37.893696 78.0017435 38.771376 78.0017435 40.565376 78.0017435 41.485376 78.5410333 42.018976 79.6785116 42.247136 81.5761493 42.629856 87.3629319 43.660256 89.5771493 44.116576 93.7810333 44.997936 96.3099899 47.058736 96.3099899 51.872176 96.3099899 61.112656 86.3819029 61.189936 83.2842072 61.189936 75.6310768 61.189936 70.0964536 59.546816 69.6547145 51.947616L78.5704826 51.947616C78.7619029 54.010256 79.7098014 55.307456 83.6302362 55.307456 85.5278739 55.307456 87.5838014 54.775696 87.5838014 52.446256 87.5838014 50.992656 86.6359029 50.497696 84.0112362 49.999056L76.4851058 48.624576C71.837642 47.783696 70.0338739 44.959296 70.0338739 40.909456 70.0338739 37.319616 71.8670913 32.241216 81.765729 32.241216 89.9544681 32.241216 94.8890623 34.607456 95.3602507 41.064016L86.8254826 41.064016zM106.541588 33.08044L115.742646 33.08044 125.451704 60.3474 117.388125 60.3474 116.026096 55.9222 106.162429 55.9222 104.802241 60.3474 96.7405014 60.3474 106.541588 33.08044zM111.126472 39.95284L111.063893 39.95284 107.931226 50.26604 114.255458 50.26604 111.126472 39.95284z" mask="url(#sipsa-b)"/>
        <polygon fill="#BA2631" points="20.327 30.776 24.194 30.776 24.194 27.328 20.327 27.328" mask="url(#sipsa-b)"/>
        <polygon fill="#E07A26" points="28.314 30.765 30.936 30.765 30.936 27.326 28.314 27.326" mask="url(#sipsa-b)"/>
        <polygon fill="#E5262D" points="56.504 30.776 61.869 30.776 61.869 27.328 56.504 27.328" mask="url(#sipsa-b)"/>
        <polygon fill="#FFD42E" points="65.985 30.765 76.148 30.765 76.148 27.326 65.985 27.326" mask="url(#sipsa-b)"/>
        <polygon fill="#E5262D" points="5.38 30.776 16.21 30.776 16.21 27.328 5.38 27.328" mask="url(#sipsa-b)"/>
        <polygon fill="#62B94A" points="80.266 30.776 88.547 30.776 88.547 27.328 80.266 27.328" mask="url(#sipsa-b)"/>
        <polygon fill="#BA2631" points="92.668 30.776 99.691 30.776 99.691 27.328 92.668 27.328" mask="url(#sipsa-b)"/>
        <polygon fill="#E5262D" points="115.049 30.776 118.474 30.776 118.474 27.328 115.049 27.328" mask="url(#sipsa-b)"/>
        <polygon fill="#2A703C" points="103.809 30.776 110.93 30.776 110.93 27.328 103.809 27.328" mask="url(#sipsa-b)"/>
        <polygon fill="#BCD33E" points="35.056 30.776 52.381 30.776 52.381 27.328 35.056 27.328" mask="url(#sipsa-b)"/>
        <path fill="#8AC443" d="M101.171697 9.173136C101.322625 8.312016 101.423857 6.733296 101.423857 6.733296 101.423857 6.733296 101.423857 7.636736 101.779088 9.173136 102.13432 10.705856 104.974335 16.895616 104.974335 16.895616L98.075842 16.895616C98.075842 16.895616 101.017088 10.030576 101.171697 9.173136zM94.4940739 24.956656L95.6407551 22.402736 107.155422 22.402736 108.245045 24.956656 118.176813 24.956656 106.645581 1.614416 96.2002913 1.614416 85.1457696 24.956656 94.4940739 24.956656zM51.4283739 24.95684C51.4154899 20.401 51.3860406 11.67756 51.3860406 10.97652 51.3860406 10.03076 50.679258 7.18612 50.679258 7.18612L57.6072 24.95684 68.472142 24.95684 75.5289246 7.27628C75.5289246 7.27628 74.822142 10.03076 74.7706058 11.34084 74.7319536 12.29764 74.7503594 20.57948 74.7614029 24.95684L83.5428087 24.95684 83.5115188 1.59988 69.6906058 1.59988C64.2921855 15.67404 64.1486203 15.6722 63.6627072 17.66124 63.4105478 18.70084 63.103171 21.90796 63.103171 21.90796 63.103171 21.90796 62.9025478 20.14708 62.6485478 17.66124 62.3945478 15.17908 56.4384319 1.57596 56.4384319 1.57596L42.6138377 1.59988 42.6138377 24.95684 51.4283739 24.95684z" mask="url(#sipsa-b)"/>
        <polygon fill="#8AC443" points="40.345 24.957 40.345 1.583 30.96 1.583 30.918 24.957" mask="url(#sipsa-b)"/>
        <path fill="#8AC443" d="M10.8124855,16.533136 C17.1311957,18.452256 19.9123116,18.019856 19.2312971,20.824016 C18.4196014,24.165456 6.85523913,21.591296 6.85523913,21.591296 L5.3882971,24.956656 L26.5236739,24.956656 C28.1415435,23.438656 28.8925,21.596816 29.0710362,19.964736 C29.3600072,17.344576 28.3605725,12.875216 18.2686739,11.338816 C16.0010797,10.994736 13.9083406,10.302896 13.8549638,8.720496 C13.8034275,7.139936 16.3912826,6.418656 19.4337609,6.510656 C22.4780797,6.597136 25.774558,7.366256 25.774558,7.366256 L27.7016449,2.263936 C27.7016449,2.263936 23.8493116,0.998016 17.103587,1.088176 C12.7837464,1.147056 5.68831159,2.896896 4.67231159,7.634896 C3.58821014,12.711456 6.34723913,15.178896 10.8124855,16.533136" mask="url(#sipsa-b)"/>
      </g>
    </g>
    <path fill="#2B703D" d="M0.404927536,71.7339402 L0.404927536,65.9533962 L1.57111884,65.9533962 L1.57111884,70.7786122 L3.63624928,70.7786122 L3.63624928,71.7339402 L0.404927536,71.7339402 Z M4.21124638,71.7339402 L4.21124638,65.9533962 L5.37743768,65.9533962 L5.37743768,71.7339402 L4.21124638,71.7339402 Z M7.11052754,65.9533962 L7.92848116,70.2280842 L7.95277681,70.2280842 L8.81122319,65.9533962 L10.0179072,65.9533962 L8.68974493,71.7339402 L7.19151304,71.7339402 L5.86335072,65.9533962 L7.11052754,65.9533962 Z M13.6784522,65.9533962 L13.6784522,66.9087242 L11.6133217,66.9087242 L11.6133217,68.2688522 L13.5569739,68.2688522 L13.5569739,69.2241802 L11.6133217,69.2241802 L11.6133217,70.7786122 L13.7594377,70.7786122 L13.7594377,71.7339402 L10.4471304,71.7339402 L10.4471304,65.9533962 L13.6784522,65.9533962 Z M15.2819652,69.9285322 L15.2819652,70.0985482 C15.2819652,70.2334822 15.2927632,70.3562703 15.3143594,70.4669162 C15.3359557,70.5775621 15.376448,70.6706651 15.4358377,70.7462282 C15.4952274,70.8217912 15.5748623,70.8811613 15.6747449,70.9243402 C15.7746276,70.9675191 15.9001538,70.9891082 16.0513275,70.9891082 C16.2294965,70.9891082 16.3901162,70.9310874 16.5331913,70.8150442 C16.6762664,70.6990009 16.7478029,70.5195414 16.7478029,70.2766602 C16.7478029,70.1471235 16.7302562,70.03513 16.6951623,69.9406762 C16.6600684,69.8462224 16.6020294,69.7612152 16.5210435,69.6856522 C16.4400576,69.6100891 16.3334277,69.5412738 16.2011507,69.4792042 C16.0688737,69.4171345 15.9055546,69.3537165 15.7111884,69.2889482 C15.4520335,69.2025904 15.2279758,69.108138 15.0390087,69.0055882 C14.8500416,68.9030383 14.6921214,68.7829489 14.5652435,68.6453162 C14.4383655,68.5076835 14.3452331,68.3484638 14.2858435,68.1676522 C14.2264538,67.9868406 14.1967594,67.777696 14.1967594,67.5402122 C14.1967594,66.968092 14.3560293,66.5417069 14.6745739,66.2610442 C14.9931185,65.9803815 15.4304359,65.8400522 15.9865391,65.8400522 C16.245694,65.8400522 16.4845989,65.8683879 16.7032609,65.9250602 C16.9219228,65.9817325 17.1108871,66.0734862 17.2701594,66.2003242 C17.4294317,66.3271622 17.5536083,66.4890805 17.6426928,66.6860842 C17.7317773,66.8830878 17.7763188,67.1192188 17.7763188,67.3944842 L17.7763188,67.5564042 L16.6587188,67.5564042 C16.6587188,67.2811388 16.610128,67.0692956 16.5129449,66.9208682 C16.4157618,66.7724408 16.2537924,66.6982282 16.0270319,66.6982282 C15.8974544,66.6982282 15.7894748,66.7171187 15.7030899,66.7549002 C15.6167049,66.7926817 15.5478679,66.8426065 15.4965768,66.9046762 C15.4452857,66.9667458 15.4101924,67.0382598 15.3912957,67.1192202 C15.3723989,67.2001806 15.3629507,67.2838384 15.3629507,67.3701962 C15.3629507,67.5483091 15.4007436,67.6980836 15.4763304,67.8195242 C15.5519173,67.9409648 15.7138867,68.0529583 15.9622435,68.1555082 L16.8611826,68.5441162 C17.0825441,68.6412687 17.2634099,68.7424677 17.4037855,68.8477162 C17.5441611,68.9529647 17.6561899,69.0663076 17.7398754,69.1877482 C17.8235608,69.3091888 17.8815998,69.4427715 17.9139942,69.5885002 C17.9463886,69.7342289 17.9625855,69.8961473 17.9625855,70.0742602 C17.9625855,70.6841619 17.7857689,71.1280881 17.4321304,71.4060522 C17.078492,71.6840162 16.585835,71.8229962 15.9541449,71.8229962 C15.2954595,71.8229962 14.8243985,71.6799683 14.5409478,71.3939082 C14.2574971,71.1078481 14.1157739,70.6976549 14.1157739,70.1633162 L14.1157739,69.9285322 L15.2819652,69.9285322 Z M21.9308754,65.9533962 L21.9308754,66.9087242 L20.6675014,66.9087242 L20.6675014,71.7339402 L19.5013101,71.7339402 L19.5013101,66.9087242 L18.2379362,66.9087242 L18.2379362,65.9533962 L21.9308754,65.9533962 Z M23.4776986,68.8436682 C23.4776986,69.2322781 23.4871468,69.5628615 23.5060435,69.8354282 C23.5249402,70.1079949 23.562733,70.3292833 23.6194232,70.4993002 C23.6761133,70.669317 23.757098,70.7934545 23.8623797,70.8717162 C23.9676614,70.9499779 24.1066851,70.9891082 24.2794551,70.9891082 C24.452225,70.9891082 24.5912487,70.9499779 24.6965304,70.8717162 C24.8018121,70.7934545 24.8827968,70.669317 24.939487,70.4993002 C24.9961771,70.3292833 25.03397,70.1079949 25.0528667,69.8354282 C25.0717634,69.5628615 25.0812116,69.2322781 25.0812116,68.8436682 C25.0812116,68.4550582 25.0717634,68.1258242 25.0528667,67.8559562 C25.03397,67.5860882 24.9961771,67.3647997 24.939487,67.1920842 C24.8827968,67.0193687 24.8018121,66.8938819 24.6965304,66.8156202 C24.5912487,66.7373585 24.452225,66.6982282 24.2794551,66.6982282 C24.1066851,66.6982282 23.9676614,66.7373585 23.8623797,66.8156202 C23.757098,66.8938819 23.6761133,67.0193687 23.6194232,67.1920842 C23.562733,67.3647997 23.5249402,67.5860882 23.5060435,67.8559562 C23.4871468,68.1258242 23.4776986,68.4550582 23.4776986,68.8436682 Z M22.3115072,68.8436682 C22.3115072,68.406482 22.3317534,68.0030354 22.3722464,67.6333162 C22.4127393,67.263597 22.5018225,66.9465068 22.6394986,66.6820362 C22.7771746,66.4175655 22.9755871,66.2111196 23.234742,66.0626922 C23.4938969,65.9142648 23.8421311,65.8400522 24.2794551,65.8400522 C24.716779,65.8400522 25.0650132,65.9142648 25.3241681,66.0626922 C25.583323,66.2111196 25.7817355,66.4175655 25.9194116,66.6820362 C26.0570876,66.9465068 26.1461708,67.263597 26.1866638,67.6333162 C26.2271567,68.0030354 26.2474029,68.406482 26.2474029,68.8436682 C26.2474029,69.2862517 26.2271567,69.6910477 26.1866638,70.0580682 C26.1461708,70.4250887 26.0570876,70.7408295 25.9194116,71.0053002 C25.7817355,71.2697708 25.583323,71.4721688 25.3241681,71.6125002 C25.0650132,71.7528316 24.716779,71.8229962 24.2794551,71.8229962 C23.8421311,71.8229962 23.4938969,71.7528316 23.234742,71.6125002 C22.9755871,71.4721688 22.7771746,71.2697708 22.6394986,71.0053002 C22.5018225,70.7408295 22.4127393,70.4250887 22.3722464,70.0580682 C22.3317534,69.6910477 22.3115072,69.2862517 22.3115072,68.8436682 Z M29.4058377,67.9045322 C29.4058377,67.4835381 29.3558971,67.1772425 29.2560145,66.9856362 C29.1561319,66.7940299 28.9739163,66.6982282 28.7093623,66.6982282 C28.5635877,66.6982282 28.4434604,66.7373585 28.3489768,66.8156202 C28.2544932,66.8938819 28.1802573,67.020718 28.1262667,67.1961322 C28.0722761,67.3715464 28.0344832,67.6009308 28.012887,67.8842922 C27.9912907,68.1676536 27.9804928,68.5144288 27.9804928,68.9246282 C27.9804928,69.3618144 27.9953399,69.7153362 28.0250348,69.9852042 C28.0547296,70.2550722 28.1006209,70.4642168 28.1627101,70.6126442 C28.2247993,70.7610716 28.3030846,70.8609213 28.3975681,70.9121962 C28.4920517,70.9634711 28.601381,70.9891082 28.7255594,70.9891082 C28.8281416,70.9891082 28.9239735,70.971567 29.013058,70.9364842 C29.1021425,70.9014013 29.1790779,70.8312367 29.2438667,70.7259882 C29.3086554,70.6207397 29.3599457,70.4723145 29.3977391,70.2807082 C29.4355326,70.0891019 29.454429,69.8367791 29.454429,69.5237322 L30.6206203,69.5237322 C30.6206203,69.8367791 30.5963249,70.1336295 30.5477333,70.4142922 C30.4991418,70.6949549 30.4087089,70.9405311 30.2764319,71.1510282 C30.1441549,71.3615252 29.9578901,71.5261423 29.7176319,71.6448842 C29.4773737,71.7636261 29.1655826,71.8229962 28.7822493,71.8229962 C28.3449253,71.8229962 27.9966912,71.7528316 27.7375362,71.6125002 C27.4783813,71.4721688 27.2799688,71.2697708 27.1422928,71.0053002 C27.0046167,70.7408295 26.9155335,70.4250887 26.8750406,70.0580682 C26.8345476,69.6910477 26.8143014,69.2862517 26.8143014,68.8436682 C26.8143014,68.406482 26.8345476,68.0030354 26.8750406,67.6333162 C26.9155335,67.263597 27.0046167,66.9465068 27.1422928,66.6820362 C27.2799688,66.4175655 27.4783813,66.2111196 27.7375362,66.0626922 C27.9966912,65.9142648 28.3449253,65.8400522 28.7822493,65.8400522 C29.197977,65.8400522 29.525965,65.9075182 29.7662232,66.0424522 C30.0064814,66.1773862 30.1859975,66.3487498 30.3047768,66.5565482 C30.4235561,66.7643466 30.4977921,66.9883337 30.527487,67.2285162 C30.5571818,67.4686987 30.572029,67.6940351 30.572029,67.9045322 L29.4058377,67.9045322 Z M32.4508928,65.9533962 L32.4508928,68.2688522 L32.4670899,68.2688522 L33.9410261,65.9533962 L35.2044,65.9533962 L33.6332812,68.4307722 L35.3825681,71.7339402 L34.0706029,71.7339402 L32.8801159,69.3618122 L32.4508928,70.0175882 L32.4508928,71.7339402 L31.2847014,71.7339402 L31.2847014,65.9533962 L32.4508928,65.9533962 Z M39.6909971,69.5561162 L39.1321971,66.9573002 L39.116,66.9573002 L38.5572,69.5561162 L39.6909971,69.5561162 Z M39.8448696,65.9533962 L41.3754957,71.7339402 L40.160713,71.7339402 L39.8934609,70.5114442 L38.3547362,70.5114442 L38.0874841,71.7339402 L36.8727014,71.7339402 L38.4033275,65.9533962 L39.8448696,65.9533962 Z M43.1247826,65.9533962 L44.5339304,69.9123402 L44.5501275,69.9123402 L44.5501275,65.9533962 L45.6191362,65.9533962 L45.6191362,71.7339402 L44.2909739,71.7339402 L42.865629,67.6859402 L42.8494319,67.6859402 L42.8494319,71.7339402 L41.7804232,71.7339402 L41.7804232,65.9533962 L43.1247826,65.9533962 Z M47.6518725,70.8757642 L48.1701797,70.8757642 C48.375344,70.8757642 48.5400129,70.8406819 48.6641913,70.7705162 C48.7883697,70.7003505 48.8869011,70.584309 48.9597884,70.4223882 C49.0326757,70.2604674 49.0812665,70.0472748 49.1055623,69.7828042 C49.1298581,69.5183335 49.1420058,69.1890995 49.1420058,68.7950922 C49.1420058,68.4658532 49.1312078,68.1770988 49.1096116,67.9288202 C49.0880154,67.6805416 49.0434738,67.4740957 48.9759855,67.3094762 C48.9084972,67.1448567 48.8086161,67.0207193 48.6763391,66.9370602 C48.5440621,66.8534011 48.3672456,66.8115722 48.1458841,66.8115722 L47.6518725,66.8115722 L47.6518725,70.8757642 Z M46.4856812,65.9533962 L48.3969391,65.9533962 C48.8018687,65.9533962 49.128507,66.0195129 49.3768638,66.1517482 C49.6252206,66.2839835 49.8182341,66.4728883 49.9559101,66.7184682 C50.0935862,66.9640481 50.1867186,67.2595491 50.2353101,67.6049802 C50.2839017,67.9504113 50.3081971,68.3363167 50.3081971,68.7627082 C50.3081971,69.2700601 50.277153,69.7112876 50.2150638,70.0864042 C50.1529746,70.4615207 50.0463447,70.770515 49.895171,71.0133962 C49.7439973,71.2562774 49.5415356,71.4370863 49.2877797,71.5558282 C49.0340239,71.6745701 48.7127846,71.7339402 48.3240522,71.7339402 L46.4856812,71.7339402 L46.4856812,65.9533962 Z M55.1349333,69.5561162 L54.5761333,66.9573002 L54.5599362,66.9573002 L54.0011362,69.5561162 L55.1349333,69.5561162 Z M55.2888058,65.9533962 L56.8194319,71.7339402 L55.6046493,71.7339402 L55.3373971,70.5114442 L53.7986725,70.5114442 L53.5314203,71.7339402 L52.3166377,71.7339402 L53.8472638,65.9533962 L55.2888058,65.9533962 Z M59.7916,67.6697482 C59.7916,67.561801 59.7794523,67.4511568 59.7551565,67.3378122 C59.7308607,67.2244676 59.6917181,67.12057 59.6377275,67.0261162 C59.5837369,66.9316624 59.5148999,66.8534018 59.4312145,66.7913322 C59.3475291,66.7292625 59.2462982,66.6982282 59.1275188,66.6982282 C58.8467677,66.6982282 58.6443059,66.8547493 58.5201275,67.1677962 C58.3959491,67.4808431 58.3338609,67.9989819 58.3338609,68.7222282 C58.3338609,69.0676593 58.3446588,69.3807015 58.3662551,69.6613642 C58.3878513,69.9420269 58.4269939,70.1808565 58.4836841,70.3778602 C58.5403742,70.5748638 58.6213589,70.7259877 58.7266406,70.8312362 C58.8319223,70.9364847 58.9682465,70.9891082 59.1356174,70.9891082 C59.2058052,70.9891082 59.2827406,70.9702177 59.3664261,70.9324362 C59.4501115,70.8946547 59.5283967,70.8379832 59.6012841,70.7624202 C59.6741714,70.6868571 59.7349099,70.5910554 59.7835014,70.4750122 C59.832093,70.3589689 59.8563884,70.2226876 59.8563884,70.0661642 L59.8563884,69.4751562 L59.0870261,69.4751562 L59.0870261,68.6169802 L60.9739884,68.6169802 L60.9739884,71.7339402 L60.115542,71.7339402 L60.115542,71.1996042 L60.0993449,71.1996042 C59.9589693,71.4262933 59.7902512,71.5868624 59.5931855,71.6813162 C59.3961198,71.77577 59.1599144,71.8229962 58.8845623,71.8229962 C58.5282243,71.8229962 58.2380291,71.7609275 58.0139681,71.6367882 C57.7899071,71.5126489 57.6144402,71.3210455 57.4875623,71.0619722 C57.3606844,70.8028989 57.2756505,70.4831101 57.232458,70.1025962 C57.1892655,69.7220823 57.1676696,69.2808547 57.1676696,68.7789002 C57.1676696,68.2931378 57.1987137,67.8667527 57.2608029,67.4997322 C57.3228921,67.1327117 57.4295219,66.8264161 57.5806957,66.5808362 C57.7318694,66.3352563 57.9316316,66.1503995 58.1799884,66.0262602 C58.4283452,65.9021209 58.7387865,65.8400522 59.1113217,65.8400522 C59.7484109,65.8400522 60.2073242,65.9979226 60.4880754,66.3136682 C60.7688265,66.6294138 60.9092,67.0814359 60.9092,67.6697482 L59.7916,67.6697482 Z M61.7271536,65.9533962 L63.8813681,65.9533962 C64.3672836,65.9533962 64.7452122,66.0761843 65.0151652,66.3217642 C65.2851183,66.5673441 65.4200928,66.9411057 65.4200928,67.4430602 C65.4200928,67.8316701 65.3418075,68.1487603 65.1852348,68.3943402 C65.028662,68.6399201 64.7857079,68.7977905 64.4563652,68.8679562 L64.4563652,68.8841482 C64.7479145,68.9273271 64.9611742,69.0217795 65.0961507,69.1675082 C65.2311272,69.3132369 65.3148114,69.5480186 65.3472058,69.8718602 C65.3580039,69.9798074 65.3661024,70.0971982 65.3715014,70.2240362 C65.3769005,70.3508742 65.3822995,70.4925527 65.3876986,70.6490762 C65.3984967,70.9567257 65.4146936,71.1915074 65.4362899,71.3534282 C65.4686842,71.515349 65.538871,71.6259932 65.6468522,71.6853642 L65.6468522,71.7339402 L64.3834783,71.7339402 C64.3240886,71.6529798 64.2862957,71.5598767 64.2700986,71.4546282 C64.2539014,71.3493797 64.2431034,71.2400848 64.2377043,71.1267402 L64.2053101,70.0175882 C64.194512,69.7908991 64.1378227,69.6127888 64.0352406,69.4832522 C63.9326584,69.3537155 63.7598911,69.2889482 63.5169333,69.2889482 L62.8933449,69.2889482 L62.8933449,71.7339402 L61.7271536,71.7339402 L61.7271536,65.9533962 Z M62.8933449,68.4793482 L63.379258,68.4793482 C63.6600091,68.4793482 63.8759683,68.4132315 64.027142,68.2809962 C64.1783157,68.1487609 64.2539014,67.9261231 64.2539014,67.6130762 C64.2539014,67.0787375 63.9839525,66.8115722 63.4440464,66.8115722 L62.8933449,66.8115722 L62.8933449,68.4793482 Z M66.2866377,71.7339402 L66.2866377,65.9533962 L67.452829,65.9533962 L67.452829,71.7339402 L66.2866377,71.7339402 Z M70.5545739,68.9165322 L70.5545739,69.8718602 L68.2707826,69.8718602 L68.2707826,68.9165322 L70.5545739,68.9165322 Z M72.482029,70.8757642 L72.9355478,70.8757642 C73.216299,70.8757642 73.4430561,70.8136955 73.6158261,70.6895562 C73.788596,70.5654169 73.8749797,70.3360325 73.8749797,70.0013962 C73.8749797,69.834078 73.852034,69.6950981 73.806142,69.5844522 C73.76025,69.4738063 73.6981617,69.3847512 73.6198754,69.3172842 C73.541589,69.2498172 73.4484566,69.202591 73.3404754,69.1756042 C73.2324941,69.1486174 73.1137166,69.1351242 72.9841391,69.1351242 L72.482029,69.1351242 L72.482029,70.8757642 Z M72.482029,68.3255242 L72.8140696,68.3255242 C73.1380132,68.3255242 73.3742186,68.2675034 73.5226928,68.1514602 C73.6711669,68.0354169 73.7454029,67.8397656 73.7454029,67.5645002 C73.7454029,67.2892348 73.6779157,67.0949328 73.5429391,66.9815882 C73.4079626,66.8682436 73.1947029,66.8115722 72.9031536,66.8115722 L72.482029,66.8115722 L72.482029,68.3255242 Z M71.3158377,65.9533962 L73.2675884,65.9533962 C73.5051471,65.9533962 73.7251555,65.9776839 73.9276203,66.0262602 C74.1300851,66.0748364 74.3042022,66.1557956 74.4499768,66.2691402 C74.5957515,66.3824848 74.70913,66.5336086 74.7901159,66.7225162 C74.8711019,66.9114238 74.9115942,67.1435068 74.9115942,67.4187722 C74.9115942,67.7318191 74.838708,68.0003337 74.6929333,68.2243242 C74.5471587,68.4483146 74.3285,68.6007878 74.0369507,68.6817482 L74.0369507,68.6979402 C74.3608944,68.7411191 74.6173459,68.8787497 74.806313,69.1108362 C74.9952802,69.3429227 75.0897623,69.6532662 75.0897623,70.0418762 C75.0897623,70.2685653 75.0600679,70.4844565 75.0006783,70.6895562 C74.9412886,70.8946559 74.8400577,71.0741154 74.6969826,71.2279402 C74.5539075,71.381765 74.3676427,71.5045531 74.1381826,71.5963082 C73.9087225,71.6880633 73.6239263,71.7339402 73.2837855,71.7339402 L71.3158377,71.7339402 L71.3158377,65.9533962 Z M76.9119362,65.9533962 L76.9119362,69.9852042 C76.9119362,70.1309329 76.9213844,70.2645156 76.9402812,70.3859562 C76.9591779,70.5073968 76.9942712,70.6126437 77.0455623,70.7017002 C77.0968534,70.7907566 77.1670401,70.8609213 77.2561246,70.9121962 C77.3452091,70.9634711 77.457238,70.9891082 77.5922145,70.9891082 C77.7325901,70.9891082 77.8459687,70.9634711 77.9323536,70.9121962 C78.0187386,70.8609213 78.0875756,70.7907566 78.1388667,70.7017002 C78.1901577,70.6126437 78.2252511,70.5073968 78.2441478,70.3859562 C78.2630445,70.2645156 78.2724928,70.1309329 78.2724928,69.9852042 L78.2724928,65.9533962 L79.4386841,65.9533962 L79.4386841,69.9852042 C79.4386841,70.3522247 79.3873937,70.6558217 79.2848116,70.8960042 C79.1822294,71.1361867 79.0445555,71.3264408 78.8717855,71.4667722 C78.6990156,71.6071036 78.5019528,71.7015559 78.2805913,71.7501322 C78.0592298,71.7987084 77.8297732,71.8229962 77.5922145,71.8229962 C77.3546558,71.8229962 77.1251992,71.8014071 76.9038377,71.7582282 C76.6824762,71.7150493 76.4854134,71.6273435 76.3126435,71.4951082 C76.1398735,71.3628729 76.0021995,71.1753174 75.8996174,70.9324362 C75.7970352,70.689555 75.7457449,70.3738141 75.7457449,69.9852042 L75.7457449,65.9533962 L76.9119362,65.9533962 Z M81.1150841,69.9285322 L81.1150841,70.0985482 C81.1150841,70.2334822 81.125882,70.3562703 81.1474783,70.4669162 C81.1690745,70.5775621 81.2095669,70.6706651 81.2689565,70.7462282 C81.3283462,70.8217912 81.4079811,70.8811613 81.5078638,70.9243402 C81.6077464,70.9675191 81.7332727,70.9891082 81.8844464,70.9891082 C82.0626154,70.9891082 82.223235,70.9310874 82.3663101,70.8150442 C82.5093853,70.6990009 82.5809217,70.5195414 82.5809217,70.2766602 C82.5809217,70.1471235 82.5633751,70.03513 82.5282812,69.9406762 C82.4931873,69.8462224 82.4351482,69.7612152 82.3541623,69.6856522 C82.2731764,69.6100891 82.1665466,69.5412738 82.0342696,69.4792042 C81.9019926,69.4171345 81.7386734,69.3537165 81.5443072,69.2889482 C81.2851523,69.2025904 81.0610947,69.108138 80.8721275,69.0055882 C80.6831604,68.9030383 80.5252402,68.7829489 80.3983623,68.6453162 C80.2714844,68.5076835 80.178352,68.3484638 80.1189623,68.1676522 C80.0595726,67.9868406 80.0298783,67.777696 80.0298783,67.5402122 C80.0298783,66.968092 80.1891482,66.5417069 80.5076928,66.2610442 C80.8262373,65.9803815 81.2635547,65.8400522 81.819658,65.8400522 C82.0788129,65.8400522 82.3177177,65.8683879 82.5363797,65.9250602 C82.7550417,65.9817325 82.944006,66.0734862 83.1032783,66.2003242 C83.2625506,66.3271622 83.3867271,66.4890805 83.4758116,66.6860842 C83.5648961,66.8830878 83.6094377,67.1192188 83.6094377,67.3944842 L83.6094377,67.5564042 L82.4918377,67.5564042 C82.4918377,67.2811388 82.4432469,67.0692956 82.3460638,66.9208682 C82.2488807,66.7724408 82.0869113,66.6982282 81.8601507,66.6982282 C81.7305733,66.6982282 81.6225937,66.7171187 81.5362087,66.7549002 C81.4498237,66.7926817 81.3809867,66.8426065 81.3296957,66.9046762 C81.2784046,66.9667458 81.2433112,67.0382598 81.2244145,67.1192202 C81.2055178,67.2001806 81.1960696,67.2838384 81.1960696,67.3701962 C81.1960696,67.5483091 81.2338624,67.6980836 81.3094493,67.8195242 C81.3850361,67.9409648 81.5470055,68.0529583 81.7953623,68.1555082 L82.6943014,68.5441162 C82.9156629,68.6412687 83.0965288,68.7424677 83.2369043,68.8477162 C83.3772799,68.9529647 83.4893088,69.0663076 83.5729942,69.1877482 C83.6566796,69.3091888 83.7147187,69.4427715 83.747113,69.5885002 C83.7795074,69.7342289 83.7957043,69.8961473 83.7957043,70.0742602 C83.7957043,70.6841619 83.6188878,71.1280881 83.2652493,71.4060522 C82.9116108,71.6840162 82.4189539,71.8229962 81.7872638,71.8229962 C81.1285783,71.8229962 80.6575174,71.6799683 80.3740667,71.3939082 C80.090616,71.1078481 79.9488928,70.6976549 79.9488928,70.1633162 L79.9488928,69.9285322 L81.1150841,69.9285322 Z M84.4354899,71.7339402 L84.4354899,65.9533962 L85.6016812,65.9533962 L85.6016812,71.7339402 L84.4354899,71.7339402 Z M87.8125855,65.9533962 L89.2217333,69.9123402 L89.2379304,69.9123402 L89.2379304,65.9533962 L90.3069391,65.9533962 L90.3069391,71.7339402 L88.9787768,71.7339402 L87.5534319,67.6859402 L87.5372348,67.6859402 L87.5372348,71.7339402 L86.4682261,71.7339402 L86.4682261,65.9533962 L87.8125855,65.9533962 Z M94.3481159,65.9533962 L94.3481159,66.9087242 L92.2829855,66.9087242 L92.2829855,68.2688522 L94.2266377,68.2688522 L94.2266377,69.2241802 L92.2829855,69.2241802 L92.2829855,70.7786122 L94.4291014,70.7786122 L94.4291014,71.7339402 L91.1167942,71.7339402 L91.1167942,65.9533962 L94.3481159,65.9533962 Z M95.951629,69.9285322 L95.951629,70.0985482 C95.951629,70.2334822 95.9624269,70.3562703 95.9840232,70.4669162 C96.0056194,70.5775621 96.0461118,70.6706651 96.1055014,70.7462282 C96.1648911,70.8217912 96.2445261,70.8811613 96.3444087,70.9243402 C96.4442913,70.9675191 96.5698176,70.9891082 96.7209913,70.9891082 C96.8991603,70.9891082 97.05978,70.9310874 97.2028551,70.8150442 C97.3459302,70.6990009 97.4174667,70.5195414 97.4174667,70.2766602 C97.4174667,70.1471235 97.39992,70.03513 97.3648261,69.9406762 C97.3297322,69.8462224 97.2716932,69.7612152 97.1907072,69.6856522 C97.1097213,69.6100891 97.0030915,69.5412738 96.8708145,69.4792042 C96.7385375,69.4171345 96.5752184,69.3537165 96.3808522,69.2889482 C96.1216973,69.2025904 95.8976396,69.108138 95.7086725,69.0055882 C95.5197053,68.9030383 95.3617852,68.7829489 95.2349072,68.6453162 C95.1080293,68.5076835 95.0148969,68.3484638 94.9555072,68.1676522 C94.8961176,67.9868406 94.8664232,67.777696 94.8664232,67.5402122 C94.8664232,66.968092 95.0256931,66.5417069 95.3442377,66.2610442 C95.6627823,65.9803815 96.1000996,65.8400522 96.6562029,65.8400522 C96.9153578,65.8400522 97.1542627,65.8683879 97.3729246,65.9250602 C97.5915866,65.9817325 97.7805509,66.0734862 97.9398232,66.2003242 C98.0990955,66.3271622 98.223272,66.4890805 98.3123565,66.6860842 C98.401441,66.8830878 98.4459826,67.1192188 98.4459826,67.3944842 L98.4459826,67.5564042 L97.3283826,67.5564042 C97.3283826,67.2811388 97.2797918,67.0692956 97.1826087,66.9208682 C97.0854256,66.7724408 96.9234562,66.6982282 96.6966957,66.6982282 C96.5671182,66.6982282 96.4591386,66.7171187 96.3727536,66.7549002 C96.2863687,66.7926817 96.2175317,66.8426065 96.1662406,66.9046762 C96.1149495,66.9667458 96.0798561,67.0382598 96.0609594,67.1192202 C96.0420627,67.2001806 96.0326145,67.2838384 96.0326145,67.3701962 C96.0326145,67.5483091 96.0704074,67.6980836 96.1459942,67.8195242 C96.2215811,67.9409648 96.3835504,68.0529583 96.6319072,68.1555082 L97.5308464,68.5441162 C97.7522079,68.6412687 97.9330737,68.7424677 98.0734493,68.8477162 C98.2138249,68.9529647 98.3258537,69.0663076 98.4095391,69.1877482 C98.4932246,69.3091888 98.5512636,69.4427715 98.583658,69.5885002 C98.6160523,69.7342289 98.6322493,69.8961473 98.6322493,70.0742602 C98.6322493,70.6841619 98.4554327,71.1280881 98.1017942,71.4060522 C97.7481557,71.6840162 97.2554988,71.8229962 96.6238087,71.8229962 C95.9651233,71.8229962 95.4940623,71.6799683 95.2106116,71.3939082 C94.9271609,71.1078481 94.7854377,70.6976549 94.7854377,70.1633162 L94.7854377,69.9285322 L95.951629,69.9285322 Z M100.154777,69.9285322 L100.154777,70.0985482 C100.154777,70.2334822 100.165575,70.3562703 100.187171,70.4669162 C100.208767,70.5775621 100.24926,70.6706651 100.308649,70.7462282 C100.368039,70.8217912 100.447674,70.8811613 100.547557,70.9243402 C100.647439,70.9675191 100.772965,70.9891082 100.924139,70.9891082 C101.102308,70.9891082 101.262928,70.9310874 101.406003,70.8150442 C101.549078,70.6990009 101.620614,70.5195414 101.620614,70.2766602 C101.620614,70.1471235 101.603068,70.03513 101.567974,69.9406762 C101.53288,69.8462224 101.474841,69.7612152 101.393855,69.6856522 C101.312869,69.6100891 101.206239,69.5412738 101.073962,69.4792042 C100.941685,69.4171345 100.778366,69.3537165 100.584,69.2889482 C100.324845,69.2025904 100.100787,69.108138 99.9118203,69.0055882 C99.7228532,68.9030383 99.564933,68.7829489 99.4380551,68.6453162 C99.3111771,68.5076835 99.2180447,68.3484638 99.1586551,68.1676522 C99.0992654,67.9868406 99.069571,67.777696 99.069571,67.5402122 C99.069571,66.968092 99.2288409,66.5417069 99.5473855,66.2610442 C99.8659301,65.9803815 100.303247,65.8400522 100.859351,65.8400522 C101.118506,65.8400522 101.357411,65.8683879 101.576072,65.9250602 C101.794734,65.9817325 101.983699,66.0734862 102.142971,66.2003242 C102.302243,66.3271622 102.42642,66.4890805 102.515504,66.6860842 C102.604589,66.8830878 102.64913,67.1192188 102.64913,67.3944842 L102.64913,67.5564042 L101.53153,67.5564042 C101.53153,67.2811388 101.48294,67.0692956 101.385757,66.9208682 C101.288573,66.7724408 101.126604,66.6982282 100.899843,66.6982282 C100.770266,66.6982282 100.662286,66.7171187 100.575901,66.7549002 C100.489516,66.7926817 100.420679,66.8426065 100.369388,66.9046762 C100.318097,66.9667458 100.283004,67.0382598 100.264107,67.1192202 C100.245211,67.2001806 100.235762,67.2838384 100.235762,67.3701962 C100.235762,67.5483091 100.273555,67.6980836 100.349142,67.8195242 C100.424729,67.9409648 100.586698,68.0529583 100.835055,68.1555082 L101.733994,68.5441162 C101.955356,68.6412687 102.136222,68.7424677 102.276597,68.8477162 C102.416973,68.9529647 102.529002,69.0663076 102.612687,69.1877482 C102.696372,69.3091888 102.754411,69.4427715 102.786806,69.5885002 C102.8192,69.7342289 102.835397,69.8961473 102.835397,70.0742602 C102.835397,70.6841619 102.658581,71.1280881 102.304942,71.4060522 C101.951304,71.6840162 101.458647,71.8229962 100.826957,71.8229962 C100.168271,71.8229962 99.6972101,71.6799683 99.4137594,71.3939082 C99.1303087,71.1078481 98.9885855,70.6976549 98.9885855,70.1633162 L98.9885855,69.9285322 L100.154777,69.9285322 Z M106.301577,69.9285322 L106.301577,70.0985482 C106.301577,70.2334822 106.312375,70.3562703 106.333971,70.4669162 C106.355567,70.5775621 106.39606,70.6706651 106.455449,70.7462282 C106.514839,70.8217912 106.594474,70.8811613 106.694357,70.9243402 C106.794239,70.9675191 106.919765,70.9891082 107.070939,70.9891082 C107.249108,70.9891082 107.409728,70.9310874 107.552803,70.8150442 C107.695878,70.6990009 107.767414,70.5195414 107.767414,70.2766602 C107.767414,70.1471235 107.749868,70.03513 107.714774,69.9406762 C107.67968,69.8462224 107.621641,69.7612152 107.540655,69.6856522 C107.459669,69.6100891 107.353039,69.5412738 107.220762,69.4792042 C107.088485,69.4171345 106.925166,69.3537165 106.7308,69.2889482 C106.471645,69.2025904 106.247587,69.108138 106.05862,69.0055882 C105.869653,68.9030383 105.711733,68.7829489 105.584855,68.6453162 C105.457977,68.5076835 105.364845,68.3484638 105.305455,68.1676522 C105.246065,67.9868406 105.216371,67.777696 105.216371,67.5402122 C105.216371,66.968092 105.375641,66.5417069 105.694186,66.2610442 C106.01273,65.9803815 106.450047,65.8400522 107.006151,65.8400522 C107.265306,65.8400522 107.504211,65.8683879 107.722872,65.9250602 C107.941534,65.9817325 108.130499,66.0734862 108.289771,66.2003242 C108.449043,66.3271622 108.57322,66.4890805 108.662304,66.6860842 C108.751389,66.8830878 108.79593,67.1192188 108.79593,67.3944842 L108.79593,67.5564042 L107.67833,67.5564042 C107.67833,67.2811388 107.62974,67.0692956 107.532557,66.9208682 C107.435373,66.7724408 107.273404,66.6982282 107.046643,66.6982282 C106.917066,66.6982282 106.809086,66.7171187 106.722701,66.7549002 C106.636316,66.7926817 106.567479,66.8426065 106.516188,66.9046762 C106.464897,66.9667458 106.429804,67.0382598 106.410907,67.1192202 C106.392011,67.2001806 106.382562,67.2838384 106.382562,67.3701962 C106.382562,67.5483091 106.420355,67.6980836 106.495942,67.8195242 C106.571529,67.9409648 106.733498,68.0529583 106.981855,68.1555082 L107.880794,68.5441162 C108.102156,68.6412687 108.283022,68.7424677 108.423397,68.8477162 C108.563773,68.9529647 108.675802,69.0663076 108.759487,69.1877482 C108.843172,69.3091888 108.901211,69.4427715 108.933606,69.5885002 C108.966,69.7342289 108.982197,69.8961473 108.982197,70.0742602 C108.982197,70.6841619 108.805381,71.1280881 108.451742,71.4060522 C108.098104,71.6840162 107.605447,71.8229962 106.973757,71.8229962 C106.315071,71.8229962 105.84401,71.6799683 105.560559,71.3939082 C105.277109,71.1078481 105.135386,70.6976549 105.135386,70.1633162 L105.135386,69.9285322 L106.301577,69.9285322 Z M109.565293,65.9533962 L110.731484,65.9533962 L110.731484,68.1636042 L112.092041,68.1636042 L112.092041,65.9533962 L113.258232,65.9533962 L113.258232,71.7339402 L112.092041,71.7339402 L112.092041,69.1675082 L110.731484,69.1675082 L110.731484,71.7339402 L109.565293,71.7339402 L109.565293,65.9533962 Z M115.1128,68.8436682 C115.1128,69.2322781 115.122248,69.5628615 115.141145,69.8354282 C115.160042,70.1079949 115.197834,70.3292833 115.254525,70.4993002 C115.311215,70.669317 115.392199,70.7934545 115.497481,70.8717162 C115.602763,70.9499779 115.741787,70.9891082 115.914557,70.9891082 C116.087326,70.9891082 116.22635,70.9499779 116.331632,70.8717162 C116.436914,70.7934545 116.517898,70.669317 116.574588,70.4993002 C116.631279,70.3292833 116.669071,70.1079949 116.687968,69.8354282 C116.706865,69.5628615 116.716313,69.2322781 116.716313,68.8436682 C116.716313,68.4550582 116.706865,68.1258242 116.687968,67.8559562 C116.669071,67.5860882 116.631279,67.3647997 116.574588,67.1920842 C116.517898,67.0193687 116.436914,66.8938819 116.331632,66.8156202 C116.22635,66.7373585 116.087326,66.6982282 115.914557,66.6982282 C115.741787,66.6982282 115.602763,66.7373585 115.497481,66.8156202 C115.392199,66.8938819 115.311215,67.0193687 115.254525,67.1920842 C115.197834,67.3647997 115.160042,67.5860882 115.141145,67.8559562 C115.122248,68.1258242 115.1128,68.4550582 115.1128,68.8436682 Z M113.946609,68.8436682 C113.946609,68.406482 113.966855,68.0030354 114.007348,67.6333162 C114.047841,67.263597 114.136924,66.9465068 114.2746,66.6820362 C114.412276,66.4175655 114.610689,66.2111196 114.869843,66.0626922 C115.128998,65.9142648 115.477233,65.8400522 115.914557,65.8400522 C116.35188,65.8400522 116.700115,65.9142648 116.95927,66.0626922 C117.218424,66.2111196 117.416837,66.4175655 117.554513,66.6820362 C117.692189,66.9465068 117.781272,67.263597 117.821765,67.6333162 C117.862258,68.0030354 117.882504,68.406482 117.882504,68.8436682 C117.882504,69.2862517 117.862258,69.6910477 117.821765,70.0580682 C117.781272,70.4250887 117.692189,70.7408295 117.554513,71.0053002 C117.416837,71.2697708 117.218424,71.4721688 116.95927,71.6125002 C116.700115,71.7528316 116.35188,71.8229962 115.914557,71.8229962 C115.477233,71.8229962 115.128998,71.7528316 114.869843,71.6125002 C114.610689,71.4721688 114.412276,71.2697708 114.2746,71.0053002 C114.136924,70.7408295 114.047841,70.4250887 114.007348,70.0580682 C113.966855,69.6910477 113.946609,69.2862517 113.946609,68.8436682 Z M118.230742,65.9533962 L119.348342,65.9533962 L119.988128,70.2280842 L120.004325,70.2280842 L120.684603,65.9533962 L121.802203,65.9533962 L122.482481,70.2280842 L122.498678,70.2280842 L123.138464,65.9533962 L124.256064,65.9533962 L123.203252,71.7339402 L121.899386,71.7339402 L121.251501,67.5402122 L121.235304,67.5402122 L120.58742,71.7339402 L119.283554,71.7339402 L118.230742,65.9533962 Z"/>
  </g>
</svg>
