<svg xmlns="http://www.w3.org/2000/svg" xmlns:xlink="http://www.w3.org/1999/xlink" width="149" height="38" viewBox="0 0 149 38">
  <defs>
    <polygon id="sima-cereal-a" points="0 1.221 35.006 1.221 35.006 38.4 0 38.4"/>
  </defs>
  <g fill="none" fill-rule="evenodd" transform="translate(0 -1)">
    <path fill="#F69223" d="M56.8758362 1.60032C60.3313681 1.60032 62.8310809 2.70592 65.158017 4.81312 65.4655277 5.08992 65.4655277 5.50432 65.1928894 5.78112L63.1053043 7.95712C62.8659532 8.23392 62.5235702 8.23392 62.2493468 7.95712 60.8132404 6.67872 58.8952617 5.91872 56.9788681 5.91872 52.597634 5.91872 49.3465809 9.61632 49.3465809 13.96832 49.3465809 18.28672 52.6325064 21.94912 57.0137404 21.94912 59.0664532 21.94912 60.8132404 21.15392 62.2493468 19.97952 62.5235702 19.73792 62.8992404 19.77152 63.1053043 19.97952L65.2261766 22.19072C65.5004 22.43232 65.4322404 22.88192 65.1928894 23.12352 62.8659532 25.40352 59.9224106 26.47392 56.8758362 26.47392 50.0313468 26.47392 44.5199319 20.98272 44.5199319 14.07232 44.5199319 7.16192 50.0313468 1.60032 56.8758362 1.60032M75.0836362 11.96432C78.6089128 11.96432 81.4842957 14.65872 81.4842957 18.38992 81.4842957 18.63152 81.4494234 19.08112 81.4161362 19.32272 81.3812638 19.66832 81.0737532 19.90992 80.7662426 19.90992L72.0037745 19.90992C72.1068064 21.32752 73.3035617 22.91472 75.2897 22.91472 76.3501362 22.91472 77.3424128 22.50192 77.9590191 22.05232 78.3014021 21.84592 78.6089128 21.77552 78.8482638 22.05232L80.2526681 23.67472C80.4920191 23.91632 80.5601787 24.29712 80.2177957 24.57392 79.0876149 25.64592 77.3424128 26.47472 75.1185085 26.47472 71.0114979 26.47472 68.1012426 23.19152 68.1012426 19.22032 68.1012426 15.31472 71.0114979 11.96432 75.0836362 11.96432zM77.480317 17.49232C77.3772851 16.21392 76.2819766 15.14352 74.9806043 15.14352 73.6126574 15.14352 72.4824766 16.18032 72.3112851 17.49232L77.480317 17.49232zM85.3860351 12.96592C85.3860351 12.58512 85.6935457 12.30992 86.0359287 12.30992L87.335716 12.30992C87.6448117 12.30992 87.8492904 12.48272 87.9523223 12.75952L88.4326096 14.10672C88.9113117 13.41552 90.1778117 11.96432 92.3002691 11.96432 93.907567 11.96432 95.3452585 12.48272 94.9363011 13.34512L93.668216 15.59152C93.4970245 15.90352 93.1546415 16.04112 92.8820032 15.90352 92.7789713 15.86832 92.2653968 15.69552 91.8881415 15.69552 90.5201947 15.69552 89.6975245 16.62832 89.4597585 17.11152L89.4597585 25.47152C89.4597585 25.95472 89.1506628 26.12912 88.6719606 26.12912L86.0359287 26.12912C85.6935457 26.12912 85.3860351 25.81712 85.3860351 25.47152L85.3860351 12.96592zM103.935901 11.96432C107.461178 11.96432 110.336561 14.65872 110.336561 18.38992 110.336561 18.63152 110.301688 19.08112 110.268401 19.32272 110.233529 19.66832 109.924433 19.90992 109.618507 19.90992L100.856039 19.90992C100.959071 21.32752 102.155827 22.91472 104.141965 22.91472 105.202401 22.91472 106.194678 22.50192 106.811284 22.05232 107.153667 21.84592 107.461178 21.77552 107.700529 22.05232L109.104933 23.67472C109.344284 23.91632 109.412444 24.29712 109.070061 24.57392 107.93988 25.64592 106.194678 26.47472 103.970773 26.47472 99.8637628 26.47472 96.9535074 23.19152 96.9535074 19.22032 96.9535074 15.31472 99.8637628 11.96432 103.935901 11.96432zM106.332582 17.49232C106.22955 16.21392 105.134241 15.14352 103.832869 15.14352 102.464922 15.14352 101.334741 16.18032 101.16355 17.49232L106.332582 17.49232zM118.721298 17.38784C120.09083 17.38784 121.219426 17.76704 121.219426 17.76704 121.254298 16.00544 120.707436 15.38464 119.440936 15.38464 118.174436 15.38464 116.394362 15.66144 115.606564 15.90304 115.127862 16.04064 114.888511 15.72864 114.818766 15.28064L114.511255 13.48384C114.409809 12.96544 114.682447 12.72384 114.991543 12.62144 115.265766 12.51744 117.454798 11.96384 119.645415 11.96384 123.925202 11.96384 124.917479 14.20864 124.917479 17.97504L124.917479 25.47264C124.917479 25.81664 124.608383 26.12864 124.266 26.12864L123.034372 26.12864C122.795021 26.12864 122.62383 26.02464 122.452638 25.64544L122.042096 24.71104C121.254298 25.43744 119.987798 26.47424 117.86534 26.47424 115.127862 26.47424 113.244755 24.67744 113.244755 21.74144 113.244755 19.28864 115.230894 17.38784 118.721298 17.38784M118.791043 23.53664C119.884766 23.53664 120.945202 22.60544 121.151266 22.18944L121.151266 20.29024C121.151266 20.29024 120.227149 19.87424 119.234872 19.87424 117.900213 19.87424 117.010968 20.63424 117.010968 21.74144 117.010968 22.77664 117.729021 23.53664 118.791043 23.53664M129.878862 2.60192C129.878862 2.25632 130.186372 1.94592 130.528755 1.94592L133.404138 1.94592C133.746521 1.94592 134.054032 2.25632 134.054032 2.60192L134.054032 25.47232C134.054032 25.81792 133.746521 26.12992 133.404138 26.12992L130.528755 26.12992C130.186372 26.12992 129.878862 25.81792 129.878862 25.47232L129.878862 2.60192zM138.435266 24.47056L139.359383 22.60496C139.495702 22.25936 139.838085 22.19056 140.145596 22.36336 140.145596 22.36336 141.686319 23.19216 143.26033 23.19216 143.945096 23.19216 144.423798 22.91536 144.423798 22.32816 144.423798 21.70736 143.945096 21.32656 142.130149 20.60176 139.495702 19.56496 138.264074 18.14896 138.264074 16.04176 138.264074 13.93296 139.804798 11.96496 143.295202 11.96496 145.314628 11.96496 146.785606 12.55056 147.50366 13.03376 147.812755 13.24336 147.983947 13.62256 147.812755 13.96816L146.956798 15.72976C146.785606 16.04176 146.409936 16.07536 146.135713 15.97136 146.135713 15.97136 144.596574 15.24656 143.295202 15.24656 142.474117 15.24656 142.130149 15.59056 142.130149 16.04176 142.130149 16.66256 142.746755 16.87056 144.013255 17.38896 146.649287 18.42416 148.63384 19.56496 148.63384 22.25936 148.63384 24.53936 146.649287 26.47376 143.19217 26.47376 140.933394 26.47376 139.359383 25.74896 138.639745 25.19536 138.435266 25.02256 138.297362 24.74736 138.435266 24.47056M52.2869532 38.53552C52.2869532 38.61872 52.3614532 38.69552 52.4454638 38.69552L53.2142404 38.69552C53.296666 38.69552 53.3727511 38.61872 53.3727511 38.53552L53.3727511 33.84592 54.6392511 33.84592C54.7311872 33.84592 54.7961766 33.76912 54.7961766 33.68592L54.7961766 33.00112C54.7961766 32.91632 54.7311872 32.84272 54.6392511 32.84272L51.0188681 32.84272C50.928517 32.84272 50.8635277 32.91632 50.8635277 33.00112L50.8635277 33.68592C50.8635277 33.76912 50.928517 33.84592 51.0188681 33.84592L52.2869532 33.84592 52.2869532 38.53552zM56.7347617 38.53552C56.7347617 38.61872 56.8092617 38.69552 56.8916872 38.69552L57.6620489 38.69552C57.7539851 38.69552 57.8205596 38.61872 57.8205596 38.53552L57.8205596 36.22832 60.5199957 36.22832 60.5199957 38.53552C60.5199957 38.61872 60.5849851 38.69552 60.6769213 38.69552L61.4393574 38.69552C61.521783 38.69552 61.596283 38.61872 61.596283 38.53552L61.596283 33.00112C61.596283 32.91632 61.521783 32.84272 61.4393574 32.84272L60.6769213 32.84272C60.5849851 32.84272 60.5199957 32.91632 60.5199957 33.00112L60.5199957 35.21712 57.8205596 35.21712 57.8205596 33.00112C57.8205596 32.91632 57.7539851 32.84272 57.6620489 32.84272L56.8916872 32.84272C56.8092617 32.84272 56.7347617 32.91632 56.7347617 33.00112L56.7347617 38.53552zM64.1815915 38.53552C64.1815915 38.61872 64.2465809 38.69552 64.3369319 38.69552L67.7084532 38.69552C67.8003894 38.69552 67.8669638 38.61872 67.8669638 38.53552L67.8669638 37.85072C67.8669638 37.76592 67.8003894 37.69072 67.7084532 37.69072L65.2578787 37.69072 65.2578787 36.22832 67.302666 36.22832C67.3866766 36.22832 67.4595915 36.16112 67.4595915 36.06832L67.4595915 35.37552C67.4595915 35.29232 67.3866766 35.21712 67.302666 35.21712L65.2578787 35.21712 65.2578787 33.84592 67.7084532 33.84592C67.8003894 33.84592 67.8669638 33.76912 67.8669638 33.68592L67.8669638 33.00112C67.8669638 32.91632 67.8003894 32.84272 67.7084532 32.84272L64.3369319 32.84272C64.2465809 32.84272 64.1815915 32.91632 64.1815915 33.00112L64.1815915 38.53552zM72.4209745 38.69552L73.1421979 38.69552C73.2737617 38.69552 73.3498468 38.61072 73.383134 38.52592L73.7873362 37.62352 76.2648574 37.62352 76.6706447 38.52592C76.7277085 38.64432 76.7863574 38.69552 76.9099957 38.69552L77.6312191 38.69552C77.7548574 38.69552 77.8214319 38.58512 77.7722936 38.47632L75.2202723 32.85072C75.1964957 32.79952 75.1616234 32.75952 75.0791979 32.75952L74.9967723 32.75952C74.9222723 32.75952 74.8810596 32.79952 74.857283 32.85072L72.2799 38.47632C72.2307617 38.58512 72.2973362 38.69552 72.4209745 38.69552zM74.1947085 36.69712L75.006283 34.85552 75.0300596 34.85552 75.8574851 36.69712 74.1947085 36.69712zM79.6015064 38.53552C79.6015064 38.61872 79.6680809 38.69552 79.7584319 38.69552L80.5224532 38.69552C80.6048787 38.69552 80.6793787 38.61872 80.6793787 38.53552L80.6793787 36.40272 81.5987404 36.40272 82.6988043 38.61872C82.7162404 38.65232 82.7574532 38.69552 82.8319532 38.69552L83.7021766 38.69552C83.8432511 38.69552 83.9003149 38.56112 83.8432511 38.45232L82.7083149 36.32912C83.4279532 36.03632 83.9336021 35.40912 83.9336021 34.63952 83.9336021 33.64432 83.1220277 32.84272 82.128166 32.84272L79.7584319 32.84272C79.6680809 32.84272 79.6015064 32.91632 79.6015064 33.00112L79.6015064 38.53552zM80.6873043 35.50992L80.6873043 33.84592 82.0378149 33.84592C82.4768894 33.84592 82.8573149 34.21392 82.8573149 34.65552 82.8573149 35.12432 82.4768894 35.50992 82.0378149 35.50992L80.6873043 35.50992zM85.5821128 38.69552L86.3017511 38.69552C86.4349 38.69552 86.5094 38.61072 86.5426872 38.52592L86.9484745 37.62352 89.4244106 37.62352 89.831783 38.52592C89.8888468 38.64432 89.9474957 38.69552 90.071134 38.69552L90.7907723 38.69552C90.9159957 38.69552 90.9825702 38.58512 90.9334319 38.47632L88.3814106 32.85072C88.357634 32.79952 88.3243468 32.75952 88.2419213 32.75952L88.1579106 32.75952C88.0834106 32.75952 88.0421979 32.79952 88.0168362 32.85072L85.4410383 38.47632C85.3919 38.58512 85.4568894 38.69552 85.5821128 38.69552zM87.3542617 36.69712L88.1658362 34.85552 88.1911979 34.85552 89.0202085 36.69712 87.3542617 36.69712zM92.7626447 38.53552C92.7626447 38.61872 92.8292191 38.69552 92.9211553 38.69552L94.9247298 38.69552C95.9344426 38.69552 96.730166 38.01712 96.730166 37.08112 96.730166 36.31152 96.0929532 35.86032 95.6538787 35.71792 96.0422298 35.53392 96.5637298 35.03312 96.5637298 34.38832 96.5637298 33.51152 95.8028787 32.84272 94.8169426 32.84272L92.9211553 32.84272C92.8292191 32.84272 92.7626447 32.91632 92.7626447 33.00112L92.7626447 38.53552zM93.8310064 35.30032L93.8310064 33.83632 94.718666 33.83632C95.1403043 33.83632 95.4303787 34.12912 95.4303787 34.54832 95.4303787 34.96592 95.1403043 35.30032 94.718666 35.30032L93.8310064 35.30032zM93.8310064 37.70672L93.8310064 36.21872 94.734517 36.21872C95.165666 36.21872 95.5793787 36.52912 95.5793787 36.94672 95.5793787 37.38192 95.2480915 37.70672 94.8343787 37.70672L93.8310064 37.70672zM98.9509 38.53552C98.9509 38.61872 99.0158894 38.69552 99.1062404 38.69552L102.138549 38.69552C102.2289 38.69552 102.295474 38.61872 102.295474 38.53552L102.295474 37.85072C102.295474 37.76592 102.2289 37.69072 102.138549 37.69072L100.027187 37.69072 100.027187 33.00112C100.027187 32.91632 99.9511021 32.84272 99.8686766 32.84272L99.1062404 32.84272C99.0158894 32.84272 98.9509 32.91632 98.9509 33.00112L98.9509 38.53552zM104.208698 38.53552C104.208698 38.61872 104.275272 38.69552 104.365623 38.69552L107.737145 38.69552C107.829081 38.69552 107.895655 38.61872 107.895655 38.53552L107.895655 37.85072C107.895655 37.76592 107.829081 37.69072 107.737145 37.69072L105.284985 37.69072 105.284985 36.22832 107.331357 36.22832C107.413783 36.22832 107.488283 36.16112 107.488283 36.06832L107.488283 35.37552C107.488283 35.29232 107.413783 35.21712 107.331357 35.21712L105.284985 35.21712 105.284985 33.84592 107.737145 33.84592C107.829081 33.84592 107.895655 33.76912 107.895655 33.68592L107.895655 33.00112C107.895655 32.91632 107.829081 32.84272 107.737145 32.84272L104.365623 32.84272C104.275272 32.84272 104.208698 32.91632 104.208698 33.00112L104.208698 38.53552zM113.063102 38.53552C113.063102 38.61872 113.129677 38.69552 113.220028 38.69552L116.591549 38.69552C116.6819 38.69552 116.748474 38.61872 116.748474 38.53552L116.748474 37.85072C116.748474 37.76592 116.6819 37.69072 116.591549 37.69072L114.139389 37.69072 114.139389 36.22832 116.185762 36.22832C116.268187 36.22832 116.342687 36.16112 116.342687 36.06832L116.342687 35.37552C116.342687 35.29232 116.268187 35.21712 116.185762 35.21712L114.139389 35.21712 114.139389 33.84592 116.591549 33.84592C116.6819 33.84592 116.748474 33.76912 116.748474 33.68592L116.748474 33.00112C116.748474 32.91632 116.6819 32.84272 116.591549 32.84272L113.220028 32.84272C113.129677 32.84272 113.063102 32.91632 113.063102 33.00112L113.063102 38.53552zM120.815857 38.68592C120.839634 38.73552 120.882432 38.77872 120.955347 38.77872L121.037772 38.77872C121.113857 38.77872 121.15507 38.73552 121.180432 38.68592L123.746719 33.06032C123.795857 32.94992 123.730868 32.84272 123.60723 32.84272L122.762368 32.84272C122.686283 32.84272 122.637145 32.89232 122.621294 32.93392L121.031432 36.52912 120.972783 36.52912 119.382921 32.93392C119.365485 32.89232 119.316347 32.84272 119.240262 32.84272L118.3954 32.84272C118.273347 32.84272 118.206772 32.94992 118.255911 33.06032L120.815857 38.68592zM125.577517 38.53552C125.577517 38.61872 125.644091 38.69552 125.734443 38.69552L129.105964 38.69552C129.196315 38.69552 129.262889 38.61872 129.262889 38.53552L129.262889 37.85072C129.262889 37.76592 129.196315 37.69072 129.105964 37.69072L126.653804 37.69072 126.653804 36.22832 128.700177 36.22832C128.782602 36.22832 128.857102 36.16112 128.857102 36.06832L128.857102 35.37552C128.857102 35.29232 128.782602 35.21712 128.700177 35.21712L126.653804 35.21712 126.653804 33.84592 129.105964 33.84592C129.196315 33.84592 129.262889 33.76912 129.262889 33.68592L129.262889 33.00112C129.262889 32.91632 129.196315 32.84272 129.105964 32.84272L125.734443 32.84272C125.644091 32.84272 125.577517 32.91632 125.577517 33.00112L125.577517 38.53552zM131.524836 38.53552C131.524836 38.61872 131.597751 38.69552 131.681762 38.69552L132.434687 38.69552C132.525038 38.69552 132.591613 38.61872 132.591613 38.53552L132.591613 34.94032 132.601123 34.94032 136.061411 38.77872 136.261134 38.77872C136.34356 38.77872 136.419645 38.71152 136.419645 38.62832L136.419645 33.00112C136.419645 32.91632 136.34356 32.84272 136.261134 32.84272L135.498698 32.84272C135.408347 32.84272 135.341772 32.91632 135.341772 33.00112L135.341772 36.45392 135.333847 36.45392 131.889411 32.75952 131.681762 32.75952C131.597751 32.75952 131.524836 32.82512 131.524836 32.90992L131.524836 38.53552zM139.781655 38.53552C139.781655 38.61872 139.856155 38.69552 139.938581 38.69552L140.708943 38.69552C140.792953 38.69552 140.865868 38.61872 140.865868 38.53552L140.865868 33.84592 142.133953 33.84592C142.224304 33.84592 142.290879 33.76912 142.290879 33.68592L142.290879 33.00112C142.290879 32.91632 142.224304 32.84272 142.133953 32.84272L138.515155 32.84272C138.423219 32.84272 138.356645 32.91632 138.356645 33.00112L138.356645 33.68592C138.356645 33.76912 138.423219 33.84592 138.515155 33.84592L139.781655 33.84592 139.781655 38.53552z"/>
    <g transform="translate(0 .38)">
      <mask id="sima-cereal-b" fill="#fff">
        <use xlink:href="#sima-cereal-a"/>
      </mask>
      <path fill="#F69223" d="M34.6618383,27.34432 C34.5445404,27.22272 34.4256574,27.10272 34.3083596,26.98432 L34.1339979,26.81152 L33.8930617,26.77312 C33.732966,26.74912 33.5697,26.72192 33.4096043,26.69312 L32.8151894,26.58912 L32.5853489,27.15232 C32.4268383,27.53792 32.2508915,27.93792 32.0273915,28.25152 C31.9291149,28.38752 31.8229128,28.52032 31.7103702,28.65792 C31.5502745,28.85792 31.3679872,29.08352 31.2126468,29.32512 C30.8845298,29.83072 30.5056894,30.31232 30.0571043,30.79712 L29.7289872,31.14112 C29.7020404,31.16832 29.6750936,31.19712 29.6322957,31.23872 L29.1726149,31.67232 C29.1314021,31.71072 29.0933596,31.74592 29.0521468,31.78272 L28.9427745,31.87872 C28.8571787,31.95392 28.7699979,32.03232 28.6748915,32.11072 C28.2453277,32.47712 27.7412638,32.80032 27.2546362,33.11232 L27.1658702,33.16992 C26.7125298,33.45952 26.2163915,33.74112 25.6520936,34.03392 C25.1924128,34.27072 24.6835936,34.51392 24.0558915,34.80032 C23.7880085,34.92032 23.4915936,35.01312 23.1777426,35.11232 L23.0113064,35.16512 C22.6720936,35.27392 22.2694766,35.39712 21.8668596,35.49792 C21.456317,35.60032 21.0869872,35.67072 20.7366787,35.71392 C20.3578383,35.76192 19.9536362,35.78432 19.5098064,35.78752 L19.4051894,35.78592 C19.3338596,35.78752 19.2641149,35.78592 19.1959553,35.78432 L18.5460617,35.75872 C18.5048489,35.75872 18.4588809,35.75552 18.4002319,35.75232 L18.2385511,35.73952 C18.1767319,35.73472 18.1164979,35.73312 18.0451681,35.73312 C17.984934,35.72992 17.9215298,35.72992 17.8517851,35.73152 C17.7788702,35.73312 17.7075404,35.73472 17.640966,35.73792 L17.4032,35.74592 C17.2129872,35.75392 17.0592319,35.75232 16.9340085,35.74432 L16.895966,35.74112 C16.6708809,35.71392 16.4410404,35.69632 16.2001043,35.67872 L16.1699872,36.08672 L16.1715723,35.67712 L15.719817,35.64192 C15.4408383,35.61632 15.0287106,35.56992 14.6879128,35.46112 C14.5262319,35.40832 14.3693064,35.34752 14.1997,35.28032 C13.9524234,35.18592 13.6988064,35.08672 13.4277532,35.01472 L13.186817,34.94752 C13.142434,34.93472 13.0980511,34.91872 13.0346468,34.89952 L12.8793064,34.84832 C12.8380936,34.83392 12.7968809,34.82112 12.7588383,34.80832 L12.099434,34.55232 C12.0455404,34.52992 11.9932319,34.50752 11.9377532,34.48032 L11.8204553,34.42912 C11.7744872,34.40832 11.7316894,34.38912 11.6793809,34.36352 C11.1452,34.11072 10.5983383,33.80832 10.0086787,33.43872 C9.53631702,33.14112 9.0845617,32.76032 8.64073191,32.38912 L8.54721064,32.31072 C8.13191277,31.96192 7.71344468,31.57472 7.26802979,31.12512 C6.90662553,30.76192 6.53254043,30.36352 6.0554234,29.83392 C6.00152979,29.77312 5.94605106,29.70752 5.88581702,29.63232 C5.84777447,29.58592 5.80814681,29.53312 5.76059362,29.46912 L5.56245532,29.19392 C5.5085617,29.11552 5.44991277,29.03232 5.3849234,28.94272 C5.11545532,28.56352 4.90305106,28.24672 4.71759362,27.95072 C4.49567872,27.58912 4.31339149,27.25632 4.16122128,26.93312 C4.00112553,26.58592 3.85371064,26.20512 3.71263617,25.77632 L3.68093404,25.67712 C3.65874255,25.60512 3.63655106,25.53952 3.61752979,25.47392 L3.51925319,25.13472 C3.46694468,24.94112 3.41305106,24.73952 3.36391277,24.53632 C3.3480617,24.47232 3.33062553,24.40672 3.31001915,24.34592 C3.29099787,24.28192 3.2719766,24.22112 3.25454043,24.16672 C3.23551915,24.11072 3.21491277,24.05152 3.19272128,23.98912 L3.09761489,23.72992 C3.0754234,23.66432 3.05323191,23.60512 3.03421064,23.54752 C3.00250851,23.44672 2.97873191,23.36352 2.95971064,23.28832 L2.94385957,23.21792 C2.93276383,23.16192 2.92166809,23.10752 2.90898723,23.05472 C2.89789149,23.00032 2.88679574,22.94592 2.87252979,22.89152 L2.84875319,22.79072 C2.82973191,22.70912 2.81071064,22.62912 2.79168936,22.54912 L2.78217872,22.51072 L2.38907234,22.60832 L2.7758383,22.48032 L2.66805106,22.02752 C2.57928511,21.61792 2.53648723,21.30432 2.53490213,21.04032 C2.53331702,20.87072 2.54441277,20.70272 2.5539234,20.51392 C2.56818936,20.24992 2.58245532,19.97472 2.56818936,19.69312 C2.56026383,19.53952 2.5539234,19.37952 2.55550851,19.21632 L2.55550851,19.15072 L2.55550851,18.99072 L2.62208298,17.97952 C2.6284234,17.92672 2.63159362,17.87712 2.63951915,17.82592 L2.65537021,17.69792 C2.67122128,17.58112 2.68548723,17.47072 2.70450851,17.35712 L2.78851915,16.87392 C2.80595532,16.77152 2.82814681,16.66752 2.8519234,16.55392 L2.88362553,16.40352 C2.89313617,16.35712 2.90423191,16.31072 2.91374255,16.26752 L2.96129574,16.06272 C2.97080638,16.01952 2.98031702,15.98112 2.99299787,15.92832 C3.12773191,15.38272 3.34489149,14.82752 3.55412553,14.29152 L3.60009362,14.17632 C3.79664681,13.67872 4.03124255,13.15712 4.32290213,12.57952 C4.55749787,12.11392 4.82696596,11.61472 5.17568936,11.00032 C5.19154043,10.97152 5.2089766,10.94272 5.23116809,10.90752 C5.25335957,10.86912 5.27713617,10.83232 5.30249787,10.79552 C5.34846596,10.72672 5.39601915,10.65152 5.45149787,10.57792 L5.63695532,10.32032 C5.69243404,10.24832 5.74949787,10.16992 5.80339149,10.09792 C6.0300617,9.78592 6.2773383,9.45632 6.53571064,9.14912 L6.76396596,8.88352 C6.81627447,8.82432 6.86541277,8.76672 6.91296596,8.71552 C7.06830638,8.55232 7.18877447,8.42752 7.32509362,8.30272 C7.46458298,8.16832 7.61516809,8.03872 7.77684894,7.90112 C7.85768936,7.83712 7.93852979,7.77152 8.02888085,7.69952 L8.04790213,7.68352 C8.07801915,7.65952 8.10972128,7.63712 8.1414234,7.61312 L8.71998723,7.19552 L9.33500851,6.79232 C9.43487021,6.72832 9.54107234,6.65632 9.64251915,6.57632 C9.68848723,6.54272 9.73604043,6.50592 9.78359362,6.46592 L9.99916809,6.29632 C10.0530617,6.25312 10.1022,6.21312 10.1529234,6.17632 C10.2385191,6.11392 10.3098489,6.06432 10.3780085,6.02272 L10.4081255,6.00192 C10.609434,5.88832 10.8123277,5.76192 11.0072957,5.63872 L11.413083,5.38912 C11.6587745,5.24032 12.024934,5.03072 12.3641468,4.91712 C12.5131468,4.86752 12.6637319,4.82752 12.8238277,4.78432 L12.8571149,4.77472 C13.1028064,4.70912 13.3802,4.63392 13.6464979,4.53152 C14.213966,4.31392 14.7988702,4.14912 15.4344979,4.02432 C16.017817,3.91232 16.6360085,3.83392 17.3239447,3.78272 C17.8708064,3.74432 18.4525404,3.78112 19.0263489,3.81792 L19.1626681,3.82592 C19.6873383,3.85952 20.2516362,3.92512 20.8872638,4.02432 C21.3976681,4.10592 21.9508702,4.20832 22.6245404,4.34912 C22.8987638,4.40832 23.1777426,4.50272 23.4741574,4.60192 L23.6833915,4.67232 C24.138317,4.82592 24.4854553,4.95232 24.8024766,5.08032 C25.1924128,5.24192 25.5332106,5.40352 25.8438915,5.57472 C26.4700085,5.92672 27.1151468,6.38912 27.8680723,7.02752 L27.8886787,7.04512 C28.0899872,7.21472 28.3023915,7.35872 28.4719979,7.46912 L28.5544234,7.52672 C28.6939128,7.62272 28.8238915,7.71232 28.9269234,7.80512 L29.0426362,7.90592 C29.2518702,8.09792 29.4737851,8.28512 29.7321574,8.50432 L30.1474553,8.85792 L31.199966,8.20352 L31.8609553,7.07072 L31.3616468,6.65792 C31.1650936,6.49632 31.0176787,6.36352 30.8940404,6.24032 L30.8005191,6.14592 C30.7624766,6.10752 30.7228489,6.06752 30.6832213,6.03072 L30.5104447,5.86752 C30.485083,5.84032 30.4565511,5.80992 30.4185085,5.77312 C30.3566894,5.71712 30.2980404,5.65792 30.2235404,5.58592 L30.1490404,5.51392 C30.0967319,5.46112 30.038083,5.40672 29.9667532,5.34752 C29.9001787,5.28832 29.8367745,5.23712 29.7733702,5.19072 C29.7432532,5.16672 29.7131362,5.14752 29.7067957,5.14272 L29.5181681,4.99072 C29.4642745,4.94752 29.4087957,4.90272 29.3501468,4.85152 L29.3168596,4.82432 C29.1900511,4.72192 29.0711681,4.62592 28.936434,4.52672 C28.8651043,4.47392 28.7985298,4.42432 28.7272,4.37792 L28.7018383,4.35872 C28.6352638,4.31392 28.5671043,4.26752 28.4926043,4.22112 C28.4482213,4.19552 28.3864021,4.16032 28.2960511,4.11072 C28.2104553,4.06272 28.1185191,4.01152 28.0170723,3.95872 L27.8141787,3.84832 C27.7697957,3.82432 27.7238277,3.79872 27.6810298,3.77632 C27.5732426,3.72032 27.4622851,3.65632 27.341817,3.58432 L27.3370617,3.58432 C27.2467106,3.52512 27.1547745,3.46432 27.0533277,3.40192 C26.9471255,3.33632 26.8314128,3.26752 26.7141149,3.20192 C26.6142532,3.14592 26.5128064,3.09792 26.4161149,3.05472 C26.3384447,3.01952 26.254434,2.98272 26.1403064,2.93632 L25.6552638,2.75232 C24.4807,2.27872 23.3853915,1.92992 22.305934,1.68832 C21.738466,1.56032 21.1741681,1.46272 20.6162106,1.39712 C20.5226894,1.38752 20.4259979,1.36512 20.3197957,1.34272 L20.2231043,1.32192 C20.1406787,1.30592 20.0534979,1.28832 19.9647319,1.27392 C19.8410936,1.25312 19.7380617,1.24192 19.6461255,1.24032 C19.1991255,1.21632 18.7378596,1.21472 18.2353809,1.23552 L17.5284234,1.28192 C17.3033383,1.30432 17.0687426,1.32832 16.8357319,1.36032 C16.5282213,1.40352 16.2191255,1.42912 15.9005191,1.45792 C15.7515191,1.47072 15.5961787,1.48512 15.4408383,1.50112 C14.9668915,1.54752 14.453317,1.61472 13.8985298,1.77312 C13.8113489,1.79872 13.7209979,1.82272 13.6163809,1.85312 L12.5210723,2.17952 C12.4021894,2.21472 12.2785511,2.25472 12.1564979,2.29632 L12.0661468,2.32672 C12.0011574,2.34752 11.9298277,2.37152 11.8648383,2.39392 L11.577934,2.49792 C11.0691149,2.68352 10.6046787,2.97952 10.1545085,3.26592 L9.75189149,3.51712 C9.67739149,3.56352 9.59655106,3.60832 9.49351915,3.66112 C9.33817872,3.74272 9.17808298,3.82752 9.01798723,3.91872 C8.98787021,3.93312 8.95141277,3.95232 8.91178511,3.97312 C8.86898723,3.99872 8.82460426,4.02112 8.77071064,4.04992 L8.57098723,4.15872 C8.49331702,4.20192 8.43308298,4.23712 8.37760426,4.27072 C8.30944468,4.31072 8.24128511,4.35712 8.15727447,4.41632 C8.12874255,4.43872 8.10338085,4.45952 8.07009362,4.48512 C8.00034894,4.52992 7.93060426,4.57472 7.86402979,4.62112 C7.81330638,4.65312 7.76575319,4.68672 7.71344468,4.71872 C7.36155106,4.94592 7.11585957,5.12672 6.86382766,5.34112 C6.84163617,5.36032 6.81468936,5.38272 6.7750617,5.41952 L6.35659362,5.82592 C6.30587021,5.87712 6.2519766,5.92832 6.19649787,5.98272 L6.04749787,6.12352 C5.99835957,6.16992 5.95239149,6.21312 5.89849787,6.26272 C5.86204043,6.28992 5.82399787,6.32032 5.78754043,6.35232 L5.64646596,6.47232 C5.54501915,6.55872 5.44198723,6.64832 5.34212553,6.74592 C5.19946596,6.88512 5.06314681,7.03552 4.92682766,7.20512 L4.75405106,7.42272 C4.69381702,7.49792 4.64784894,7.55552 4.60505106,7.60832 C3.79189149,8.59232 3.1229766,9.53632 2.56184894,10.49312 C2.26543404,10.99712 1.99913617,11.51072 1.76295532,12.02592 C1.72332766,12.11392 1.67260426,12.20192 1.62029574,12.29312 L1.56957234,12.38272 C1.52835957,12.45632 1.4855617,12.53632 1.44434894,12.61632 C1.40789149,12.68672 1.35399787,12.79552 1.3112,12.91872 L1.08135957,13.57312 C1.05124255,13.65952 1.02588085,13.74592 0.997348936,13.83872 L0.848348936,14.36192 C0.826157447,14.44352 0.802380851,14.52672 0.780189362,14.61792 L0.700934043,14.95392 C0.681912766,15.03872 0.662891489,15.12352 0.643870213,15.21632 L0.628019149,15.29312 C0.602657447,15.40992 0.582051064,15.52512 0.559859574,15.64992 C0.550348936,15.70432 0.539253191,15.76032 0.52657234,15.82112 L0.458412766,16.15712 C0.445731915,16.21632 0.429880851,16.28032 0.4172,16.34112 C0.395008511,16.44992 0.369646809,16.56192 0.3427,16.67392 L0.261859574,17.03552 C0.161997872,17.50752 0.065306383,18.02432 0.0447,18.60192 C0.0415297872,18.69632 0.0383595745,18.79232 0.0320191489,18.89632 L0.00348723404,20.03712 C0.000317021277,20.16672 0.000317021277,20.29792 0.000317021277,20.43072 L0.000317021277,20.52672 C0.000317021277,20.59552 0.000317021277,20.66752 0.00348723404,20.74112 L0.011412766,21.04672 C0.0288489362,21.58912 0.161997872,22.12192 0.293561702,22.64192 L0.406104255,23.10432 C0.4172,23.15712 0.428295745,23.20512 0.43463617,23.24512 L0.461582979,23.39712 C0.494870213,23.61312 0.528157447,23.80032 0.563029787,23.96992 L0.578880851,24.05152 C0.589976596,24.11072 0.602657447,24.16832 0.615338298,24.22752 L0.666061702,24.46912 C0.693008511,24.59552 0.723125532,24.72352 0.753242553,24.84672 L0.784944681,24.98432 C0.803965957,25.05792 0.822987234,25.12992 0.842008511,25.20032 L0.849934043,25.23072 C0.868955319,25.29952 0.884806383,25.36352 0.90382766,25.43872 C0.945040426,25.59712 0.989423404,25.75392 1.04807234,25.94912 C1.09879574,26.10432 1.15585957,26.27232 1.23035957,26.45632 C1.24938085,26.50272 1.27949787,26.56832 1.32546596,26.66592 L1.34765745,26.71232 C1.38252979,26.78592 1.42057234,26.86752 1.46654043,26.95872 C1.49031702,27.00672 1.51409362,27.05952 1.53945532,27.11392 L1.62822128,27.29952 C1.6837,27.41312 1.73917872,27.53792 1.79148723,27.65152 L1.79941277,27.67392 C1.83587021,27.76832 1.87549787,27.86752 1.91671064,27.97472 C1.96584894,28.09152 2.01815745,28.21152 2.07522128,28.33632 C2.12277447,28.44192 2.17825319,28.54112 2.23214681,28.63392 C2.27177447,28.70592 2.31932766,28.78272 2.38590213,28.89152 L2.67122128,29.32992 C3.34964681,30.41472 4.03441277,31.34592 4.7619766,32.17632 C5.14557234,32.61312 5.54501915,33.02592 5.94922128,33.40352 C5.98567872,33.43712 6.02372128,33.47712 6.07602979,33.53472 C6.12516809,33.58752 6.17272128,33.64192 6.22978511,33.70272 C6.28526383,33.76672 6.34391277,33.83232 6.41524255,33.90432 C6.49608298,33.98432 6.57058298,34.05312 6.64666809,34.11392 C6.73701915,34.18752 6.83212553,34.26592 6.92564681,34.33632 L6.97478511,34.37312 C7.0477,34.42912 7.12537021,34.48832 7.21730638,34.55712 C7.39959362,34.68992 7.59139149,34.82752 7.78477447,34.95552 L7.92426383,35.04992 C7.96230638,35.07392 8.00034894,35.09792 8.03205106,35.11872 L8.18422128,35.21632 C8.24921064,35.25472 8.3142,35.29632 8.38235957,35.33792 L8.67401915,35.51072 C8.73266809,35.54432 8.78814681,35.57632 8.84045532,35.60512 L8.99262553,35.68832 C9.27160426,35.83872 9.54582766,36.00672 9.78834894,36.15232 C9.92308298,36.23552 10.0641574,36.32032 10.2052319,36.40352 C10.6189447,36.64672 11.0754553,36.89952 11.6175617,37.09952 C11.7031574,37.12992 11.7935085,37.16512 11.8902,37.20032 L12.1675936,37.30112 C12.2817213,37.34432 12.3990191,37.38592 12.5099766,37.42592 L13.1773064,37.65792 L13.915966,37.88672 C14.4342957,38.03552 14.9795723,38.07232 15.5089979,38.10592 L15.6548277,38.11552 C15.7245723,38.12032 15.7927319,38.12512 15.8624766,38.13152 L15.9813596,38.14112 C16.0701255,38.14912 16.1652319,38.16032 16.2746043,38.17792 C16.4553064,38.20512 16.6471043,38.23552 16.837317,38.25472 L17.3445511,38.30912 C17.4824553,38.32352 17.6203596,38.33472 17.7535085,38.34592 L17.8612957,38.35392 C17.9342106,38.35872 18.0087106,38.36352 18.0768702,38.36672 L18.1117426,38.36832 C18.178317,38.37152 18.2512319,38.37472 18.3241468,38.37952 C18.5048489,38.39232 18.6760404,38.39552 18.848817,38.40032 C19.0469553,38.39872 19.2133915,38.39232 19.3829979,38.37952 C19.4337213,38.37632 19.5050511,38.36832 19.6207638,38.35392 L19.6809979,38.34432 C19.7554979,38.33472 19.8395085,38.32352 19.9298596,38.30912 L20.3007745,38.25952 C20.4259979,38.24192 20.5639021,38.22592 20.6907106,38.21152 L20.725583,38.20992 C20.8206894,38.20352 20.9173809,38.19872 21.0267532,38.19072 C21.1662426,38.17952 21.291466,38.16672 21.411934,38.15232 C21.5260617,38.13952 21.6322638,38.11872 21.7416362,38.09472 C21.8541787,38.07072 21.9461149,38.04832 22.0348809,38.02592 L22.5310191,37.88832 C23.7610617,37.57472 24.8516149,37.20672 25.8613277,36.76672 C26.3939234,36.53312 26.909083,36.27712 27.4020511,35.99872 C27.4797213,35.95392 27.5779979,35.91072 27.6937106,35.85792 L27.7666255,35.82432 C27.8427106,35.78912 27.9235511,35.75232 28.0059766,35.70912 C28.0899872,35.66592 28.1882638,35.61312 28.2865404,35.54592 L28.5734447,35.35072 C28.6511149,35.29792 28.7272,35.24192 28.7985298,35.18912 L28.8555936,35.14912 C28.9602106,35.07552 29.0648277,34.99552 29.1472532,34.92992 L29.218583,34.87552 C29.2883277,34.82112 29.3612426,34.76672 29.4294021,34.71072 L29.7004553,34.48672 C29.7812957,34.41792 29.8621362,34.34912 29.9398064,34.28032 L29.9588277,34.26432 C30.0428383,34.19232 30.1220936,34.11872 30.1997638,34.04672 L29.9271255,33.74432 L30.2282957,34.02112 L30.2917,33.96192 C30.3566894,33.90272 30.4216787,33.84032 30.485083,33.78112 C30.7212638,33.55072 30.9653702,33.33632 31.2015511,33.12672 L31.2284979,33.10432 C31.3283596,33.01632 31.4266362,32.92992 31.528083,32.83872 L31.6073383,32.76672 C31.6723277,32.70912 31.737317,32.64832 31.8038915,32.58752 C31.9021681,32.49152 31.9893489,32.40672 32.0781149,32.31712 C32.2397957,32.14912 32.4300085,31.94592 32.6138809,31.70912 C33.1448915,31.02912 33.6204234,30.41472 34.0721787,29.74432 C34.3733489,29.29312 34.5778277,28.77632 34.775966,28.27712 L35.0058064,27.69792 L34.6618383,27.34432 Z" mask="url(#sima-cereal-b)"/>
    </g>
    <path fill="#F69223" d="M27.8446128 10.80816C27.8287617 10.78736 27.8097404 10.76176 27.7827936 10.73456 27.6861021 10.63056 27.5799 10.52016 27.4594319 10.40816 27.3912723 10.32816 27.3199426 10.25456 27.2391021 10.18256L26.8808681 9.86576C26.8396553 9.82896 26.7921021 9.79216 26.7508894 9.75696 26.6969957 9.71536 26.6288362 9.66256 26.5701872 9.61136 26.5083681 9.56016 26.4465489 9.51376 26.3847298 9.46896L26.3561979 9.44816C26.3054745 9.41136 26.2468255 9.36976 26.1865915 9.33296 26.0835596 9.26736 25.9789426 9.20176 25.8664 9.13936L25.7126447 9.03056C25.6333894 8.97616 25.5446234 8.93456 25.4384213 8.88816 25.3829426 8.86416 25.3179532 8.83696 25.256134 8.81296L25.1214 8.74096C25.0865277 8.72176 25.0516553 8.70416 25.0088574 8.68496L24.8519319 8.60336C24.8202298 8.58896 24.7885277 8.57136 24.763166 8.55856 24.7140277 8.53456 24.6680596 8.51056 24.630017 8.48816 24.5872191 8.46256 24.5444213 8.44016 24.5047936 8.41936L24.0815702 8.18896C24.034017 8.16336 23.9864638 8.13776 23.9389106 8.11376L23.8723362 8.08016C23.7788149 8.03376 23.6805383 7.98416 23.5822617 7.94096L23.5410489 7.92176C23.496666 7.90256 23.4491128 7.88016 23.3920489 7.85456L23.2065915 7.77776C22.9593149 7.68016 22.7199638 7.61936 22.4885383 7.56016 22.3696553 7.52816 22.2586979 7.49936 22.1461553 7.46576L21.8957085 7.38896C21.5295489 7.27536 21.112666 7.14736 20.681517 7.06896 19.8746979 6.92496 19.0028894 6.86736 18.0930383 6.89776 17.641283 6.91376 17.1768468 6.95216 16.6696128 7.01776 16.2622404 7.07056 15.8310915 7.12976 15.3983574 7.23376 15.0321979 7.32016 14.6486021 7.44016 14.1889213 7.60816 13.902017 7.71216 13.6214532 7.84016 13.3725915 7.95216 13.2854106 7.99216 13.1998149 8.03056 13.1110489 8.06896 13.0999532 8.07376 13.0888574 8.07856 13.0761766 8.08336L13.0413043 8.03536 12.5182191 8.25456C12.4944426 8.26256 12.4674957 8.27056 12.442134 8.28336L11.8984426 8.52656 11.9031979 8.55216C11.8588149 8.57616 11.8080915 8.60176 11.7526128 8.63216 11.6701872 8.67696 11.5877617 8.72816 11.5085064 8.77456L11.457783 8.80656C11.4023043 8.83856 11.3499957 8.87376 11.2818362 8.91856L11.2009957 8.97136C11.1629532 8.99536 11.1280809 9.01936 11.0963787 9.04176L10.9981021 9.10736C10.8538574 9.19856 10.728634 9.29776 10.6303574 9.37616 10.5764638 9.41936 10.5273255 9.46096 10.4861128 9.49936L10.4449 9.53616C10.4036872 9.57296 10.3624745 9.60976 10.3244319 9.64656 10.2800489 9.68016 10.2324957 9.71696 10.1960383 9.74576 10.0898362 9.82576 10.0042404 9.92336 9.88535745 10.06416L9.84097447 10.11696C9.81244255 10.14576 9.78708085 10.17136 9.76488936 10.19536L9.57150638 10.39216C9.5271234 10.43856 9.48749574 10.47856 9.45420851 10.51216L9.30837872 10.65456C8.94063404 11.00176 8.56179362 11.36336 8.21941064 11.78256 8.05297447 11.98576 7.92299574 12.19376 7.79301702 12.40016 7.72644255 12.50576 7.6630383 12.60496 7.59646383 12.70096L7.45063404 12.91216C7.2160383 13.24656 6.97510213 13.59216 6.76745319 13.98256 6.38385745 14.71056 6.06049574 15.52816 5.80687872 16.41296 5.68324043 16.84816 5.5786234 17.30736 5.48351702 17.81616 5.4042617 18.24336 5.33134681 18.66256 5.29647447 19.10416 5.26635745 19.47856 5.26001702 19.88496 5.27586809 20.37936 5.28696383 20.68816 5.32025106 20.99696 5.34878298 21.26736 5.35829362 21.36336 5.36938936 21.45936 5.3789 21.56176 5.3789 21.57296 5.38048511 21.58416 5.38048511 21.60176L5.32659149 21.61936 5.36780426 22.18576C5.36938936 22.21136 5.36938936 22.24336 5.37414468 22.28176L5.43437872 22.87856 5.46925106 22.88016C5.52472979 23.15056 5.60081489 23.45776 5.68958085 23.76496L5.71811277 23.86256 6.10646383 23.74736 5.7276234 23.89936C5.74188936 23.94416 5.75457021 23.99056 5.76883617 24.03696L5.84016596 24.26096C5.85601702 24.30736 5.87028298 24.35216 5.89088936 24.40816L5.98916596 24.69456C6.00818723 24.75376 6.03354894 24.82416 6.05891064 24.89776 6.09061277 24.98896 6.13658085 25.07216 6.19998511 25.18096 6.22693191 25.22576 6.26338936 25.28976 6.29984681 25.34736L6.36800638 25.48496C6.38861277 25.52656 6.40921915 25.56496 6.42665532 25.59856L6.55187872 25.84336C6.57724043 25.89296 6.59943191 25.93936 6.61845319 25.97776 6.63271915 26.01456 6.65015532 26.04976 6.66600638 26.08336L6.90060213 26.57456C6.9196234 26.61296 6.94022979 26.65456 6.95925106 26.68976L7.00046383 26.77296C7.04801702 26.86256 7.09715532 26.95696 7.14946383 27.04656L7.35711277 27.39856C7.50294255 27.62576 7.66620851 27.82576 7.80886809 28.00176L7.83264468 28.02896C7.90238936 28.11376 7.96737872 28.19536 8.03236809 28.28336L8.18295319 28.48016C8.42864468 28.80816 8.6822617 29.15056 8.98818723 29.47056 9.55882553 30.06896 10.2293255 30.63376 10.980666 31.14896 11.3547511 31.40336 11.7526128 31.64816 12.2011979 31.89456 12.5626021 32.09456 12.947783 32.30256 13.3551553 32.47376 13.6991234 32.61936 14.0795489 32.75056 14.5503255 32.88656 14.6898149 32.92656 14.8308894 32.96176 14.9703787 32.99536 15.4902936 33.16016 16.4286766 33.20656 17.0627191 33.20656 17.3924213 33.20656 17.641283 33.19376 17.7046872 33.17936 17.8362511 33.15056 17.9662298 33.11536 18.0962085 33.07536L18.1215702 33.06736C19.0948255 32.69296 20.1933043 32.21456 20.905017 31.28016L21.5660064 30.41296 20.5039851 30.62896C19.489517 30.83216 18.5685702 30.94416 17.6904213 30.96656L17.6666447 30.96496C17.5541021 30.95056 17.403517 30.93296 17.3147511 30.92496L17.2751234 30.92176C17.2339106 30.91536 17.1926979 30.91056 17.1578255 30.90576 17.0975915 30.89616 17.0246766 30.88496 16.9374957 30.87376 16.8978681 30.86896 16.8582404 30.86416 16.8091021 30.85616L16.7567936 30.84816C16.0054532 30.73616 15.4157936 30.58896 14.9053894 30.38576 14.8673468 30.36976 14.826134 30.34896 14.7849213 30.32656 14.7532191 30.30896 14.6596979 30.26256 13.7958149 29.84976 13.6071872 29.76016 13.4566021 29.68816 13.4359957 29.67856 13.3821021 29.65136 13.3186979 29.61776 13.2632191 29.58416 13.1982298 29.54256 13.1284851 29.49936 13.0761766 29.46576L12.8035383 29.28016C12.7512298 29.24496 12.6957511 29.20656 12.6418574 29.17296 12.2059532 28.88656 11.7843149 28.56496 11.3880383 28.21456L10.7983787 27.65936C10.7413149 27.60176 10.6858362 27.54416 10.624017 27.47856L9.99314468 26.75696 9.67770851 27.01776 9.97095319 26.72976 9.83938936 26.55696C9.8235383 26.53776 9.80768723 26.51536 9.79183617 26.49136L9.70307021 26.37136C9.68721915 26.34736 9.67136809 26.32656 9.65710213 26.30576L9.5746766 26.18736C9.53504894 26.12976 9.49859149 26.07696 9.45579362 26.01136 9.28301702 25.75376 9.12450638 25.45296 8.97392128 25.09776 8.82492128 24.74576 8.69652766 24.37136 8.58557021 24.03536 8.54118723 23.90736 8.47778298 23.78416 8.38743191 23.65136L8.33195319 23.57296C8.32244255 23.55856 8.31610213 23.54576 8.31134681 23.53616L8.23843191 23.39056C8.22733617 23.36816 8.22099574 23.35056 8.22099574 23.35056 8.18929362 23.17296 8.14332553 23.04976 8.10211277 22.95056 8.0846766 22.90736 8.07041064 22.87376 8.06248511 22.84656 8.05772979 22.82736 8.05297447 22.80656 8.04504894 22.77296L7.94518723 22.27376C7.9356766 22.21296 7.92458085 22.14096 7.90872979 22.05936 7.89763404 22.00176 7.8881234 21.94096 7.87544255 21.86896 7.75180426 21.11536 7.70900638 20.50256 7.74229362 19.94896 7.74546383 19.90736 7.75338936 19.86096 7.7629 19.80816 7.77082553 19.77296 7.78033617 19.73296 7.79143191 19.69136L7.39832553 19.58736 7.79935745 19.66096 7.83422979 19.53136C7.84691064 19.48496 7.85959149 19.44016 7.87068723 19.39216 7.88336809 19.34096 7.89446383 19.29296 7.90238936 19.25456 7.91031489 19.20976 7.92141064 19.15376 7.93092128 19.08816 7.95786809 18.90096 7.95469787 18.72976 7.95152766 18.57776 7.94835745 18.47216 7.94677234 18.37136 7.95628298 18.30576 7.9864 18.10256 8.04504894 17.88976 8.1100383 17.66416 8.13381489 17.57616 8.1591766 17.48656 8.18295319 17.39216 8.44132553 16.40016 8.8566234 15.41776 9.40982553 14.47376 9.60796383 14.13776 9.85048511 13.78736 10.1722617 13.37136 10.3624745 13.12336 10.5986553 12.87856 10.8903149 12.61936 11.1803894 12.36496 11.4942404 12.12496 11.7589532 11.92816 11.904783 11.82256 12.0046447 11.69776 12.0743894 11.60496 12.1092617 11.55856 12.1377936 11.51856 12.1615702 11.49456L12.2233894 11.43056C12.2455809 11.40976 12.2614319 11.39376 12.2741128 11.38256 12.2883787 11.36976 12.3026447 11.35696 12.3026447 11.35536 12.4532298 11.27536 12.5562617 11.19216 12.6386872 11.12016L12.6640489 11.09936C12.694166 11.07376 12.7195277 11.05296 12.7512298 11.03056L12.7908574 11.00656C12.8796234 10.95856 13.0111872 10.88336 13.0951979 10.83056L13.1269 10.81296C13.1649426 10.79216 13.1998149 10.77136 13.231517 10.75536 13.2885809 10.72656 13.3535702 10.69296 13.4280702 10.65136 13.4645277 10.63056 13.5041553 10.60976 13.5628043 10.57776L13.3741766 10.21456 13.5897511 10.56336C14.2602511 10.21136 14.8213787 9.98096 15.3571447 9.84336 15.3967723 9.83376 15.4411553 9.82736 15.5029745 9.81936 15.5204106 9.81616 15.5394319 9.81616 15.5600383 9.81456L15.7756128 9.80176C15.8279213 9.80176 15.8738894 9.79856 15.9151021 9.79536 16.0054532 9.78896 16.1005596 9.77936 16.211517 9.76336 16.3034532 9.74736 16.3953894 9.72496 16.493666 9.69456 16.5729213 9.67056 16.6474213 9.64496 16.7282617 9.61616 16.7694745 9.59856 16.8154426 9.58416 16.8725064 9.56816 16.9010383 9.56016 16.9295702 9.55056 16.9691979 9.54256 17.164166 9.50896 17.3797404 9.50096 17.6317723 9.49296 17.7189532 9.48976 17.8077191 9.48656 17.8996553 9.48176 18.9172936 9.42416 19.9745596 9.51696 21.0413362 9.75696 21.4391979 9.84816 21.8560809 9.97456 22.3141766 10.14416 22.6058362 10.25136 22.9085915 10.40016 23.2382936 10.60016 23.5616553 10.79376 23.869166 11.01296 24.167166 11.22896 24.3066553 11.32496 24.4445596 11.38096 24.5523468 11.41936L24.6617191 11.45936 24.7552404 11.50576C24.7821872 11.52016 24.8075489 11.53136 24.8234 11.54096 24.8424213 11.55376 24.8582723 11.56336 24.8757085 11.57776 24.9406979 11.63696 24.9898362 11.68016 25.0373894 11.71536 25.0928681 11.75696 25.1451766 11.79056 25.1800489 11.81296L25.2545489 11.85936C25.2719851 11.87056 25.284666 11.87856 25.2925915 11.88656L25.3575809 11.94416C25.3702617 11.95536 25.3861128 11.96976 25.4083043 11.99216L25.4685383 12.04816C25.5208468 12.09776 25.5652298 12.13776 25.6048574 12.16976L26.4592298 12.99216 27.5101553 12.26256 28.2107723 11.22896 27.8446128 10.80816zM24.6648894 8.96976L24.6664745 8.96976 24.6648894 8.96976zM5.68799574 21.67056L5.68324043 21.66096 5.78468723 21.66416 5.68799574 21.67056zM24.4840287 29.02368C24.442816 29.03008 24.4000181 29.03648 24.3588053 29.04288 24.4016032 29.04128 24.442816 29.03328 24.4840287 29.02368"/>
    <path fill="#F69223" d="M23.4407117 26.07456L23.4327862 26.07776 23.4185202 26.08256 23.355116 26.10816 23.1157649 26.20096C23.0666266 26.21856 23.0159032 26.23776 22.9699351 26.26336 22.9255521 26.28576 22.8906798 26.30656 22.849467 26.32736 22.8098394 26.34976 22.7638713 26.37056 22.7083926 26.40416 22.6592543 26.43456 22.5625628 26.48736 22.5150096 26.51936 22.4309989 26.58176 22.3913713 26.62016 22.3089457 26.68576 22.2185947 26.76096 22.1377543 26.84576 22.0505734 26.92576 21.9729032 27.01376 21.8904777 27.09696 21.8175628 27.18816 21.7795202 27.23616 21.7398926 27.28416 21.6986798 27.33056 21.6336904 27.40576 21.5845521 27.47936 21.5369989 27.56096 21.4910309 27.63616 21.4593287 27.70656 21.4054351 27.78816 21.3832436 27.82016 21.3626372 27.85376 21.3420309 27.88736L21.2881372 27.99136C21.2532649 28.06336 21.2152223 28.13216 21.1835202 28.20416 21.1327968 28.31936 21.0804883 28.42496 21.0376904 28.53696 21.017084 28.59296 20.9948926 28.64736 20.971116 28.70336 20.9489245 28.75776 20.9314883 28.81696 20.9077117 28.87616 20.8839351 28.94336 20.8506479 29.01056 20.8347968 29.07936 20.8157755 29.16736 20.7888287 29.24736 20.7650521 29.32896 20.7428606 29.41216 20.719084 29.49696 20.6937223 29.58816 20.6778713 29.66336 20.6651904 29.85216 20.6873819 29.87936 20.7016479 29.89536 20.7238394 29.87936 20.7381053 29.89376 20.7396904 29.89536 20.7428606 29.89536 20.7444457 29.89696 20.7444457 29.89696 20.7428606 29.89696 20.7428606 29.89856 20.7444457 29.89856 20.7444457 29.89696 20.7460309 29.89696 20.7507862 29.89856 20.7507862 29.90016 20.7555415 29.90016 20.7951691 29.94176 20.8775947 29.97056 20.9584351 29.94176 21.0107436 29.92256 21.0361053 29.92096 21.0899989 29.90336 21.1343819 29.88896 21.1930309 29.86336 21.2342436 29.84736 21.315084 29.81696 21.3911691 29.78496 21.4704245 29.75296 21.6923394 29.66336 21.9174245 29.56416 22.1250734 29.44256 22.1916479 29.40416 22.2629777 29.35936 22.3327223 29.31616 22.3374777 29.31296 22.3438181 29.30976 22.3485734 29.30816 22.3517436 29.30656 22.3533287 29.30496 22.3533287 29.30336 22.4008819 29.27456 22.4436798 29.23456 22.4880628 29.19936L22.5546372 29.14496 22.6132862 29.08256C22.6338926 29.05856 22.6719351 29.01856 22.7052223 28.98176 22.7353394 28.94176 22.7607011 28.90816 22.7638713 28.90176 22.7813074 28.88416 22.8589777 28.76576 22.8669032 28.74336 22.8764138 28.72576 22.9620096 28.56576 22.9746904 28.52096 22.9968819 28.46976 23.0222436 28.42176 23.0412649 28.37376 23.0618713 28.32736 23.087233 28.25856 23.1125947 28.19136 23.131616 28.12096 23.1522223 28.04896 23.161733 27.99936L23.161733 28.00096C23.1712436 27.96256 23.177584 27.92416 23.1870947 27.88576 23.1886798 27.87936 23.1902649 27.87616 23.19185 27.86816 23.1981904 27.84416 23.2045309 27.81536 23.2077011 27.78656 23.2726904 27.45856 23.3075628 27.12896 23.3392649 26.80256 23.3487755 26.68736 23.3598713 26.57536 23.3788926 26.46176L23.4185202 26.23616 23.4391266 26.10816 23.445467 26.07616C23.4470521 26.06976 23.4438819 26.07456 23.4407117 26.07456M25.963884 25.78944C25.963884 25.78464 25.9654691 25.77984 25.9654691 25.77184 25.9670543 25.74304 25.9670543 25.71104 25.9654691 25.67744 25.9702245 25.31104 25.9416926 24.94304 25.8767032 24.58144 25.8529266 24.45664 25.82915 24.33184 25.8053734 24.20544L25.7958628 24.15744 25.7800117 24.08544 25.7483096 23.94144 25.740384 23.90624C25.7387989 23.89984 25.7372138 23.89344 25.7356287 23.88704L25.7197777 23.89824 25.6611287 23.93984 25.5438309 24.02624 25.5121287 24.04864 25.4899372 24.06624 25.4550649 24.09184 25.3884904 24.14784C25.3441074 24.18464 25.2997245 24.22304 25.2569266 24.26144 25.1760862 24.33504 25.1301181 24.39104 25.0255011 24.49344 24.9811181 24.53984 24.8971074 24.62624 24.8590649 24.67744 24.7877351 24.77024 24.7544479 24.81824 24.6894585 24.91424 24.5467989 25.13024 24.4231606 25.35904 24.3201287 25.59584 24.2931819 25.65824 24.26465 25.72064 24.2377032 25.78304 24.1933202 25.88384 24.1568628 25.97344 24.1330862 26.07584 24.1108947 26.17184 24.0918734 26.25344 24.0633415 26.35744 24.0142032 26.52384 23.9856713 26.69664 23.9618947 26.86784 23.922267 27.14304 23.9032457 27.39104 23.8969053 27.66624 23.8953202 27.74784 23.8889798 27.82944 23.8953202 27.90944 23.9111713 28.10464 23.9159266 28.28064 23.9412883 28.49024 23.9507989 28.57504 24.0126181 28.77504 24.0459053 28.79264 24.0633415 28.80544 24.0791926 28.77984 24.0982138 28.78784 24.0982138 28.78944 24.101384 28.78784 24.1029691 28.78784L24.1029691 28.79264C24.1045543 28.79104 24.1061394 28.78944 24.1077245 28.78784 24.1108947 28.78784 24.1124798 28.78944 24.11565 28.78784 24.1647883 28.81824 24.2598947 28.82624 24.3423202 28.76864 24.3914585 28.73344 24.4184053 28.72384 24.4707138 28.68864 24.5135117 28.66144 24.5705755 28.61344 24.6086181 28.58304 24.6847032 28.52544 24.7528628 28.46464 24.8257777 28.40064 24.9303947 28.31744 25.0270862 28.22304 25.1206074 28.12224 25.2093734 28.01984 25.2965543 27.91584 25.3710543 27.80384 25.4217777 27.73024 25.470916 27.65344 25.5137138 27.57504 25.5184691 27.57024 25.5216394 27.56224 25.5248096 27.55744 25.5263947 27.55584 25.5263947 27.55584 25.5279798 27.55104 25.5882138 27.44384 25.6405223 27.33344 25.6864904 27.21984 25.6975862 27.18624 25.7197777 27.13024 25.7372138 27.08064 25.7530649 27.02944 25.768916 26.98624 25.7720862 26.97824 25.7815968 26.95584 25.8196394 26.80704 25.8243947 26.78144 25.8259798 26.77184 25.8370755 26.71904 25.8497564 26.66144 25.8608521 26.60544 25.8719479 26.54304 25.8767032 26.51904 25.8814585 26.49344 25.8862138 26.46624 25.8909691 26.44224 25.9416926 26.39264 25.9860755 26.34464 26.0257032 26.30304 25.9844904 26.34144 25.9401074 26.38144 25.8957245 26.41984 25.9004798 26.39584 25.9052351 26.37024 25.9099904 26.34464 25.9321819 26.24064 25.9575436 26.02944 25.9575436 25.91904L25.9591287 25.91904 25.963884 25.78944zM28.1078989 20.91744C28.1063138 20.91264 28.1031436 20.91584 28.1015585 20.91904L28.0952181 20.92544 28.0809521 20.93984 28.0524202 20.96704 27.9414628 21.07904 27.795633 21.22464C27.7496649 21.26784 27.7147926 21.32064 27.6751649 21.36544 27.60225 21.45824 27.5531117 21.52064 27.4659309 21.65024 27.4294734 21.70784 27.348633 21.81024 27.318516 21.87104 27.2646223 21.98304 27.2360904 22.04064 27.1821968 22.15104L27.1045266 22.34624C27.08075 22.41024 27.0522181 22.47424 27.0331968 22.54144 26.9951543 22.67424 26.9476011 22.80544 26.9222394 22.94144 26.9063883 23.01184 26.887367 23.08224 26.8683457 23.15264 26.8445691 23.26784 26.8255479 23.37024 26.8144521 23.48224 26.8065266 23.58624 26.8081117 23.67744 26.7938457 23.79104 26.7795798 23.88224 26.7795798 23.97504 26.7764096 24.06784 26.7732394 24.16224 26.7716543 24.25504 26.7764096 24.34784 26.7811649 24.49664 26.7811649 24.63584 26.7938457 24.77504 26.8001862 24.84384 26.8049415 24.91424 26.8096968 24.98464 26.8176223 25.05504 26.8255479 25.12544 26.8318883 25.19904 26.8413989 25.28544 26.8445691 25.37344 26.8635904 25.45504 26.8857819 25.55744 26.8984628 25.65664 26.917484 25.75584 26.9365053 25.85344 26.9555266 25.95584 26.976133 26.06464 26.9983245 26.15424 27.0775798 26.36224 27.110867 26.37984 27.1298883 26.39104 27.1441543 26.36224 27.1631755 26.37024L27.1679309 26.37024C27.1679309 26.37024 27.169516 26.37184 27.169516 26.37344 27.169516 26.37184 27.1711011 26.37024 27.1711011 26.37024 27.1758564 26.37024 27.1790266 26.37024 27.1821968 26.36704 27.2392606 26.38304 27.3359521 26.36064 27.4056968 26.28224 27.4484947 26.23424 27.4738564 26.21664 27.5198245 26.16704 27.557867 26.12864 27.6038351 26.06464 27.6371223 26.02464 27.7021117 25.95104 27.7591755 25.87104 27.8209947 25.79264L27.8146543 25.80064 27.8178245 25.79584 27.9620691 25.63424 28.0333989 25.55264 28.0968032 25.46304 28.2220266 25.28544 28.3298138 25.09664C28.3805372 25.01504 28.4138245 24.92384 28.4534521 24.83744 28.4550372 24.83104 28.4597926 24.82304 28.4613777 24.81664 28.4629628 24.81344 28.4629628 24.81184 28.4645479 24.81024 28.4772287 24.77984 28.4930798 24.74944 28.5041755 24.71904L28.5342926 24.62464 28.5929415 24.43744C28.6103777 24.36544 28.6484202 24.18624 28.6531755 24.17024 28.6658564 24.14464 28.6769521 23.98144 28.6817074 23.95424 28.6817074 23.94304 28.689633 23.88544 28.6959734 23.82304 28.7007287 23.76224 28.7007287 23.69504 28.7023138 23.66784 28.7070691 23.60544 28.7118245 23.54144 28.7149947 23.47904 28.7181649 23.36384 28.7229202 23.13664 28.7023138 23.01984L28.689633 22.88064C28.6880479 22.87424 28.6880479 22.86944 28.6880479 22.86144 28.6864628 22.83264 28.6801223 22.79744 28.6737819 22.76224 28.6198883 22.37344 28.5279521 21.98784 28.3932181 21.61984 28.3678564 21.55584 28.3424947 21.49184 28.3187181 21.42944 28.2933564 21.36544 28.2695798 21.29984 28.242633 21.23584L28.1396011 20.99104 28.1078989 20.91744zM30.0636032 19.33232C30.060433 19.32592 30.060433 19.32112 30.0572628 19.31472 30.046167 19.28592 30.030316 19.25392 30.0144649 19.22192 29.8416883 18.86192 29.6372096 18.51792 29.4073691 18.19632 29.3265287 18.08432 29.2441032 17.97552 29.1632628 17.86032L29.136316 17.82192 29.0951032 17.76752 29.0095074 17.65072 28.9207415 17.53392C28.912816 17.51472 28.9080606 17.53552 28.9017202 17.54672L28.8858691 17.58352 28.8494117 17.65552 28.779667 17.80112C28.763816 17.83952 28.7558904 17.86352 28.7432096 17.89392L28.705167 17.98192 28.67505 18.07152C28.6544436 18.12912 28.6401777 18.17712 28.6274968 18.22992 28.6132309 18.28272 28.5973798 18.34032 28.5767734 18.41712 28.5577521 18.48432 28.5292202 18.61392 28.5165394 18.68112 28.5006883 18.80592 28.4943479 18.86992 28.4848372 18.99632 28.4642309 19.27632 28.465816 19.55792 28.4832521 19.83792 28.4880074 19.91152 28.4911777 19.98512 28.495933 20.05712 28.5022734 20.17712 28.5086138 20.27952 28.5308053 20.39312 28.5482415 20.49712 28.5720181 20.58832 28.5942096 20.70352 28.6259117 20.88912 28.6782202 21.06832 28.7305287 21.25072 28.8145394 21.53712 28.89855 21.79152 28.9984117 22.07152 29.0285287 22.15312 29.0523053 22.23792 29.0871777 22.31632 29.1727734 22.50992 29.2361777 22.68912 29.3233585 22.89552 29.359816 22.98032 29.4739436 23.17232 29.508816 23.18512 29.5310074 23.19312 29.5405181 23.16272 29.5611245 23.16752 29.5611245 23.16912 29.5642947 23.16752 29.5658798 23.16752 29.5658798 23.16752 29.5674649 23.16912 29.5674649 23.17072 29.5674649 23.16912 29.5674649 23.16752 29.56905 23.16752 29.5738053 23.16592 29.5769755 23.16432 29.5801457 23.16112 29.6387947 23.15792 29.7259755 23.10992 29.7719436 23.01552 29.8004755 22.95792 29.8210819 22.93232 29.852784 22.87312 29.8781457 22.82192 29.9082628 22.74832 29.9304543 22.70192 29.9732521 22.60752 30.0097096 22.51312 30.0493372 22.41872L30.0588479 22.39952 30.0699436 22.37552 30.0953053 22.32592C30.1111564 22.29072 30.1270074 22.25872 30.1412734 22.22352 30.1713904 22.15792 30.1967521 22.08752 30.2221138 22.01872 30.2728372 21.87952 30.31405 21.73712 30.3409968 21.59312 30.3600181 21.49712 30.3758691 21.39952 30.3853798 21.30352 30.3869649 21.29552 30.38855 21.28752 30.38855 21.28112 30.38855 21.27792 30.38855 21.27632 30.3901351 21.27472 30.3996457 21.14192 30.4091564 21.01072 30.4123266 20.87632 30.4107415 20.80272 30.4075713 20.61552 30.402816 20.59952 30.3996457 20.57232 30.3806245 20.40432 30.374284 20.37712 30.3695287 20.35632 30.3314862 20.14512 30.3124649 20.09232 30.2966138 20.02992 30.2871032 19.96432 30.2680819 19.90512 30.253816 19.84752 30.2316245 19.76432 30.2046777 19.68112 30.1745606 19.59952 30.1444436 19.51632 30.1190819 19.46192L30.0636032 19.33232zM31.7818585 14.18784L31.5742096 13.94144 31.5615287 13.92704C31.5583585 13.92704 31.5567734 13.91904 31.5551883 13.92224L31.5488479 13.93184 31.5250713 13.96864 31.4806883 14.04224 31.3887521 14.18624C31.35705 14.23904 31.3301032 14.28544 31.3015713 14.33504 31.2714543 14.38464 31.2460926 14.44064 31.2017096 14.51264 31.1668372 14.57824 31.0907521 14.69504 31.0653904 14.76064 31.014667 14.88544 30.9861351 14.94624 30.940167 15.07104L30.865667 15.28224 30.8292096 15.38624 30.7990926 15.49504 30.7388585 15.70944C30.7198372 15.77984 30.7055713 15.85344 30.6881351 15.92704 30.6738691 16.00224 30.6485074 16.07744 30.6358266 16.15424 30.6136351 16.28064 30.5851032 16.38624 30.5835181 16.50944 30.5835181 16.62144 30.5771777 16.71904 30.5644968 16.84224 30.5565713 16.94144 30.551816 17.04064 30.5502309 17.13984 30.551816 17.24064 30.5565713 17.33984 30.5581564 17.44064 30.5581564 17.52064 30.5660819 17.59904 30.5708372 17.67424 30.5771777 17.74944 30.581933 17.82624 30.5898585 17.89984 30.597784 17.97504 30.6072947 18.05024 30.6168053 18.12544 30.6215606 18.16224 30.626316 18.20064 30.6294862 18.24064 30.6358266 18.27904 30.642167 18.31744 30.6485074 18.35744 30.6643585 18.44704 30.6691138 18.54144 30.6928904 18.62944 30.7230074 18.73824 30.746784 18.84224 30.7689755 18.94784 30.7959223 19.05504 30.8244543 19.16224 30.8529862 19.27904 30.8815181 19.37344 30.9861351 19.58944 31.0257628 19.60384 31.0479543 19.61344 31.0622202 19.58144 31.0859968 19.58944 31.0875819 19.58944 31.0907521 19.58784 31.0907521 19.58784 31.0923372 19.58944 31.0923372 19.58944 31.0923372 19.59104L31.0955074 19.60224C31.0463691 19.63744 31.0035713 19.71424 31.0051564 19.80544L31.0083266 20.00384 31.2001245 19.88224C31.2143904 19.87264 31.2270713 19.86304 31.2397521 19.85184 31.2920606 19.80384 31.3221777 19.78784 31.3760713 19.73984 31.4204543 19.70144 31.4775181 19.63584 31.5187309 19.59744 31.5583585 19.56064 31.5916457 19.51744 31.6296883 19.47744 31.6645606 19.43584 31.7010181 19.39584 31.7358904 19.35424 31.938784 19.11904 32.1194862 18.86624 32.2700713 18.59424 32.295433 18.54784 32.3192096 18.50304 32.3414011 18.45664 32.3635926 18.41024 32.3889543 18.36544 32.4079755 18.31904 32.4111457 18.31264 32.414316 18.30304 32.4190713 18.29824 32.4190713 18.29344 32.4206564 18.29184 32.4206564 18.29024 32.4793053 18.16224 32.5300287 18.02944 32.5712415 17.89344 32.5966032 17.81824 32.6425713 17.62624 32.6473266 17.61024 32.6584223 17.58304 32.6821989 17.40704 32.6869543 17.37664 32.6917096 17.35424 32.7154862 17.12704 32.7154862 17.06784 32.7234117 17.00064 32.7265819 16.93344 32.7329223 16.86464 32.7392628 16.80384 32.7392628 16.71104 32.7376777 16.61824 32.7329223 16.52544 32.7265819 16.43104 32.7170713 16.36864L32.69805 16.21824C32.6964649 16.21184 32.6964649 16.20704 32.6948798 16.19744 32.6917096 16.16544 32.683784 16.12864 32.6742734 16.09024 32.5997734 15.67104 32.4539436 15.26304 32.2478798 14.89184 32.2098372 14.82784 32.1717947 14.76544 32.1353372 14.70144 32.0941245 14.63904 32.0544968 14.57664 32.0148691 14.51264 31.9784117 14.45824 31.9403691 14.40064 31.9023266 14.34784L31.7818585 14.18784zM23.2325872 29.97296C23.1152894 29.96816 23.0154277 29.97456 22.9044702 29.99056 22.8521617 29.99696 22.8061936 30.00496 22.7554702 30.00976 22.707917 30.02096 22.6571936 30.02736 22.6001298 30.03536 22.4178426 30.04816 22.2403106 30.10096 22.0596085 30.14256 21.9882787 30.16656 21.9201191 30.18736 21.8535447 30.20976 21.7853851 30.23216 21.7188106 30.24976 21.6554064 30.27856 21.590417 30.30576 21.5270128 30.33296 21.4604383 30.36016 21.4287362 30.37456 21.3938638 30.38416 21.3621617 30.40176 21.3272894 30.42096 21.2940021 30.43856 21.2591298 30.45616 21.1386617 30.51856 20.9991723 30.58736 20.8771191 30.65456 20.8913851 30.65936 20.9056511 30.66416 20.9183319 30.67056 21.0134383 30.70416 21.1037894 30.73616 21.1893851 30.77136L21.3050979 30.81776 21.3716723 30.84816C21.4636085 30.88816 21.5555447 30.93136 21.6617468 30.96976 21.7473426 31.00496 21.9724277 31.03696 22.0041298 31.01136 22.021566 30.99856 22.0041298 30.97456 22.021566 30.96176 22.021566 30.96016 22.021566 30.95856 22.0231511 30.95696 22.0231511 30.95696 22.0247362 30.95856 22.0263213 30.95856 22.0294915 30.95856 22.0326617 30.96016 22.0358319 30.96176 22.0469277 31.01936 22.1087468 31.09776 22.2101936 31.12656 22.2720128 31.14256 22.2989596 31.15856 22.3607787 31.17936 22.4130872 31.19696 22.4875872 31.21296 22.5351404 31.22736 22.6318319 31.25616 22.7253532 31.28176 22.8236298 31.30736 23.0930979 31.38896 23.3768319 31.44336 23.6589809 31.46896 23.7525021 31.48016 23.8460234 31.48176 23.9411298 31.48816L23.9617362 31.48816C23.9649064 31.48976 23.9664915 31.48976 23.9696617 31.48976 24.0346511 31.49296 24.0996404 31.48976 24.1630447 31.48976 24.228034 31.48976 24.2930234 31.48656 24.3564277 31.48016 24.3928851 31.47696 24.4547043 31.47056 24.510183 31.46736 24.5656617 31.45936 24.6148 31.45456 24.6243106 31.45296 24.6512574 31.45136 24.8097681 31.42416 24.8351298 31.41776 24.8573213 31.41136 25.0602149 31.36816 25.1109383 31.35056 25.1711723 31.33456 25.2329915 31.32016 25.2932255 31.30576 25.3471191 31.29136 25.4279596 31.26736 25.5088 31.24016 25.5896404 31.21296 25.6688957 31.17936 25.7212043 31.15536 25.7655872 31.13936 25.8052149 31.11696 25.8480128 31.09776 25.8527681 31.09616 25.8575234 31.09296 25.8654489 31.08976 25.8923957 31.07856 25.9225128 31.06416 25.9542149 31.04656 26.0429809 31.00336 26.1269915 30.95216 26.2125872 30.90576L26.3362255 30.82576 26.3980447 30.78576 26.4281617 30.76656 26.4773 30.72976 26.6786085 30.57776 26.7800553 30.50416C26.7959064 30.49616 26.7753 30.49456 26.7657894 30.49456L26.7356723 30.48656 26.6722681 30.47376 26.2601404 30.38896C26.1285766 30.36336 25.9985979 30.33776 25.8654489 30.30576 25.6308532 30.24976 25.3946723 30.20176 25.1569064 30.15696 25.0427787 30.13616 24.9682787 30.12816 24.8176936 30.09776 24.7527043 30.08656 24.629066 30.06096 24.5640766 30.05136 24.4436085 30.03536 24.3817894 30.03376 24.2613213 30.02096 24.1250021 30.00336 23.9902681 29.99856 23.855534 29.98736 23.7192149 29.98096 23.5828957 29.97776 23.4481617 29.97456 23.3768319 29.97616 23.303917 29.97456 23.2325872 29.97296M25.4701234 28.63936C25.3052723 28.79616 25.151517 28.93376 24.9930064 29.11936 24.9692298 29.14656 24.9375277 29.18976 24.9074106 29.23776L24.8075489 29.38816 24.9724 29.39776C25.0199532 29.40096 25.077017 29.40256 25.1229851 29.39616 25.1689532 29.38816 25.2022404 29.37536 25.2117511 29.36416 25.226017 29.34496 25.1974851 29.32896 25.210166 29.31136 25.2117511 29.30976 25.210166 29.30816 25.2117511 29.30496L25.2149213 29.30496C25.2180915 29.30496 25.2228468 29.30656 25.226017 29.30656 25.2513787 29.36256 25.3369745 29.42976 25.4542723 29.43456 25.5224319 29.43776 25.554134 29.44736 25.6270489 29.45216 25.687283 29.45536 25.7712936 29.45216 25.8267723 29.45216 25.9345596 29.45376 26.0439319 29.44736 26.1517191 29.44256 26.3054745 29.43776 26.4592298 29.42976 26.6114 29.41376L26.8380702 29.38816C26.9141553 29.38336 26.9902404 29.37536 27.0663255 29.36416 27.1677723 29.35136 27.2692191 29.33536 27.3690809 29.31616 27.3754213 29.31456 27.386517 29.31296 27.3928574 29.31136 27.3944426 29.31136 27.3976128 29.31136 27.400783 29.30976 27.5371021 29.28256 27.6734213 29.24576 27.8065702 29.20576 27.8826553 29.18176 28.0665277 29.11616 28.0823787 29.10976 28.0950596 29.10656 28.1441979 29.08736 28.1917511 29.06656 28.2377191 29.04576 28.2836872 29.02496 28.2979532 29.01856 28.3201447 29.01056 28.5230383 28.90976 28.5737617 28.87936 28.6339957 28.84896 28.6942298 28.82016 28.7528787 28.78816 28.8099426 28.76096 28.8876128 28.71456 28.965283 28.66816 29.0049106 28.64576 29.0445383 28.62336 29.0809957 28.59936 29.1158681 28.57536 29.1491553 28.55136 29.174517 28.53376 29.2173149 28.50496 29.2569426 28.47296 29.2965702 28.44416 29.3029106 28.43936 29.307666 28.43776 29.3155915 28.43296 29.3409532 28.41216 29.3694851 28.38816 29.3996021 28.36256 29.7293043 28.09216 30.0114532 27.77056 30.2619 27.42976L30.3253043 27.33856 30.4013894 27.23136C30.471134 27.13376 30.5392936 27.03456 30.6090383 26.93536L30.6344 26.89856 30.6375702 26.89536 30.6328149 26.89536 30.6233043 26.89696 30.6026979 26.90016 30.5218574 26.91296 30.3570064 26.93696 30.0970489 26.97696 29.7086979 27.03936C29.5866447 27.06016 29.5058043 27.08256 29.3425383 27.10336 29.2696234 27.11616 29.1348894 27.13376 29.0667298 27.14816 28.9367511 27.17536 28.8733468 27.19296 28.7449532 27.22176 28.4580489 27.28576 28.1727298 27.35456 27.8874106 27.43456 27.8129106 27.45536 27.7384106 27.47456 27.6639106 27.49376 27.5418574 27.52576 27.4340702 27.55456 27.3231128 27.60096 27.2200809 27.64576 27.1329 27.68576 27.0171872 27.72736 26.8301447 27.79616 26.6494426 27.88256 26.4719106 27.97536 26.1881766 28.12416 25.9472404 28.27456 25.6888681 28.46656 25.6159532 28.52256 25.5366979 28.57696 25.4701234 28.63936M27.7873904 26.65888C27.7905606 26.66208 27.795316 26.66368 27.8016564 26.66368 27.8444543 26.70848 27.944316 26.74688 28.0584436 26.72608 28.1297734 26.71168 28.1646457 26.71328 28.2391457 26.70048 28.3009649 26.68928 28.3865606 26.66688 28.4436245 26.65408 28.556167 26.63168 28.6639543 26.60288 28.7749117 26.57568 28.9334223 26.53728 29.0887628 26.49728 29.2441032 26.45088L29.301167 26.43328 29.3233585 26.42848 29.3534755 26.42048 29.4707734 26.39168C29.5500287 26.37088 29.6308691 26.35328 29.7069543 26.32608L29.8607096 26.27648 29.9367947 26.25248 30.0112947 26.22208C30.0192202 26.22048 30.0287309 26.21728 30.0366564 26.21408 30.0382415 26.21248 30.0398266 26.21088 30.0429968 26.20928 30.1111564 26.18368 30.1809011 26.15808 30.2490606 26.12768L30.4471989 26.03168C30.5248691 25.99968 30.6992309 25.89088 30.7182521 25.88448 30.730933 25.87808 30.7784862 25.85088 30.8228691 25.82208 30.8672521 25.79168 30.9116351 25.76128 30.9259011 25.75168 30.9354117 25.74528 30.9908904 25.70848 31.0495394 25.66848 31.1066032 25.63008 31.163667 25.58048 31.1890287 25.56128 31.2445074 25.51968 31.3047415 25.48128 31.3618053 25.43808 31.4125287 25.39808 31.4886138 25.33728 31.5631138 25.27648 31.6376138 25.21248 31.7057734 25.14368 31.7533266 25.09568 31.7913691 25.06048 31.8309968 25.02368 31.8658691 24.98528 31.8706245 24.97888 31.8737947 24.97568 31.8801351 24.96928 31.9054968 24.94528 31.9308585 24.91648 31.9578053 24.88608 32.2621457 24.55808 32.5284436 24.19328 32.742433 23.79968 32.7820606 23.73248 32.8153479 23.66048 32.8502202 23.59008L32.9025287 23.48448 32.9294755 23.43328 32.9643479 23.35328 33.0990819 23.05248 33.1323691 22.97728 33.1323691 22.97248 33.1276138 22.97408 33.1181032 22.97888 33.0959117 22.98528 33.0531138 22.99808 32.8803372 23.05248 32.6187947 23.13408C32.5538053 23.15488 32.488816 23.17888 32.4222415 23.20128 32.2986032 23.24288 32.2177628 23.27808 32.0529117 23.33408 31.9815819 23.35968 31.8420926 23.40448 31.773933 23.43328 31.6455394 23.48928 31.58055 23.51648 31.4537415 23.57248 31.312667 23.63968 31.1715926 23.70208 31.0321032 23.77088 30.8926138 23.84128 30.7515394 23.90528 30.6168053 23.98208 30.5454755 24.02208 30.4709755 24.05888 30.3996457 24.09568 30.2807628 24.15808 30.1809011 24.21568 30.0746989 24.28768 29.9780074 24.35168 29.9003372 24.41728 29.7877947 24.48448 29.7434117 24.51168 29.6990287 24.53888 29.6546457 24.56928L29.5294223 24.66208C29.4454117 24.72608 29.3582309 24.78528 29.2773904 24.85408 29.1489968 24.96128 29.0237734 25.05888 28.9080606 25.16928 28.8494117 25.22208 28.7891777 25.27648 28.7305287 25.32928 28.6734649 25.38688 28.614816 25.44448 28.556167 25.50368L28.45155 25.60608C28.4166777 25.63968 28.3849755 25.67808 28.3548585 25.71488 28.316816 25.76128 28.2787734 25.80608 28.242316 25.84928 28.2042734 25.89408 28.1662309 25.93568 28.1313585 25.98208 28.0600287 26.07328 27.9855287 26.16288 27.9094436 26.26688 27.8507947 26.35328 27.7334968 26.57888 27.7398372 26.61888 27.7445926 26.64128 27.7762947 26.63008 27.7826351 26.65248 27.7826351 26.65408 27.7842202 26.65408 27.7842202 26.65568L27.7842202 26.65888 27.7873904 26.65888M33.5651032 20.544C33.5872947 20.496 33.6142415 20.4496 33.6348479 20.4 33.6396032 20.3936 33.6411883 20.3888 33.6459436 20.3808 33.6617947 20.3504 33.6760606 20.3136 33.6919117 20.2752 33.7838479 20.0688 33.859933 19.8576 33.9280926 19.6432 33.9962521 19.4256 34.0422202 19.2032 34.0755074 18.9792 34.0961138 18.8224 34.1103798 18.6672 34.1262309 18.5088L34.1404968 18.3728 34.1515926 18.192 34.157933 18.1008 34.1595181 18.056 34.1611032 18.032 34.1626883 18.0208 34.1626883 18.0144C34.1611032 18.0144 34.1595181 18.0176 34.157933 18.0192L34.0168585 18.1312 33.6094862 18.4544C33.5064543 18.536 33.4446351 18.5968 33.3019755 18.7024 33.2417415 18.7504 33.1260287 18.8368 33.0689649 18.8848 32.9611777 18.976 32.9088691 19.0224 32.802667 19.1152 32.5696564 19.3232 32.3366457 19.5344 32.1194862 19.76 32.0608372 19.8176 32.0021883 19.8768 31.9435394 19.9344 31.848433 20.0304 31.7675926 20.1152 31.6915074 20.2192 31.6233479 20.3168 31.5615287 20.392 31.4727628 20.4912 31.3332734 20.6496 31.20805 20.8192 31.0844117 20.9936 30.8894436 21.2704 30.7325181 21.5296 30.5740074 21.8304 30.5280394 21.9168 30.4789011 22.0048 30.4424436 22.0944 30.3536777 22.32 30.2680819 22.5184 30.195167 22.768 30.1618798 22.8704 30.1317628 23.1248 30.1539543 23.1616 30.1666351 23.1808 30.1919968 23.1584 30.2046777 23.1776 30.2062628 23.1792 30.2062628 23.1808 30.2078479 23.1808L30.2078479 23.184C30.209433 23.184 30.209433 23.1824 30.2110181 23.1824 30.2141883 23.1856 30.2205287 23.1856 30.2284543 23.1824 30.283933 23.2112 30.38855 23.216 30.4915819 23.1616 30.523284 23.1456 30.5470606 23.1344 30.5708372 23.1232 30.5835181 23.1184 30.5961989 23.1136 30.6088798 23.1072 30.6168053 23.104 30.6231457 23.1008 30.6310713 23.0976 30.6405819 23.0944 30.6279011 23.0992 30.6405819 23.0944 30.7024011 23.0752 30.7848266 23.04 30.8418904 23.0176 30.9496777 22.9776 31.0527096 22.9264 31.1589117 22.8768 31.4553266 22.7376 31.7390606 22.5712 32.0037734 22.3776 32.0909543 22.3136 32.1781351 22.248 32.2605606 22.1792 32.2669011 22.1744 32.2748266 22.168 32.281167 22.1648 32.2843372 22.1616 32.2843372 22.16 32.2875074 22.1584 32.4016351 22.0624 32.5110074 21.9632 32.6156245 21.8576 32.6758585 21.7984 32.8153479 21.6448 32.8280287 21.6304 32.8502202 21.6096 32.965933 21.464 32.9849543 21.4384 33.0023904 21.4208 33.1434649 21.2272 33.1767521 21.1728 33.2179649 21.1136 33.2591777 21.0544 33.3003904 20.9968 33.3764755 20.8912 33.5096245 20.6672 33.5651032 20.544"/>
  </g>
</svg>
